<?xml version="1.0" encoding="UTF-8" standalone="no"?><svg xmlns="http://www.w3.org/2000/svg" xmlns:xlink="http://www.w3.org/1999/xlink" contentStyleType="text/css" height="858px" preserveAspectRatio="none" style="width:1380px;height:858px;background:#FFFFFF;" version="1.1" viewBox="0 0 1380 858" width="1380px" zoomAndPan="magnify"><defs/><g><!--MD5=[fe9987087bca403180c76f6de47dcf06]
cluster Experiment Orchestration--><g id="cluster_Experiment Orchestration"><path d="M349.5,6 L553.5,6 A3.75,3.75 0 0 1 556,8.5 L563,28.2969 L901.5,28.2969 A2.5,2.5 0 0 1 904,30.7969 L904,301.5 A2.5,2.5 0 0 1 901.5,304 L349.5,304 A2.5,2.5 0 0 1 347,301.5 L347,8.5 A2.5,2.5 0 0 1 349.5,6 " fill="none" style="stroke:#000000;stroke-width:1.5;"/><line style="stroke:#000000;stroke-width:1.5;" x1="347" x2="563" y1="28.2969" y2="28.2969"/><text fill="#000000" font-family="sans-serif" font-size="14" font-weight="bold" lengthAdjust="spacing" textLength="203" x="351" y="20.9951">Experiment Orchestration</text></g><!--MD5=[0ee4bd6038ad3dcd505849bd4f57a5fa]
cluster Environment Provision--><g id="cluster_Environment Provision"><path d="M926.5,353 L1104.5,353 A3.75,3.75 0 0 1 1107,355.5 L1114,375.2969 L1370.5,375.2969 A2.5,2.5 0 0 1 1373,377.7969 L1373,737.5 A2.5,2.5 0 0 1 1370.5,740 L926.5,740 A2.5,2.5 0 0 1 924,737.5 L924,355.5 A2.5,2.5 0 0 1 926.5,353 " fill="none" style="stroke:#000000;stroke-width:1.5;"/><line style="stroke:#000000;stroke-width:1.5;" x1="924" x2="1114" y1="375.2969" y2="375.2969"/><text fill="#000000" font-family="sans-serif" font-size="14" font-weight="bold" lengthAdjust="spacing" textLength="177" x="928" y="367.9951">Environment Provision</text></g><!--MD5=[8476a6e9b9406ff6ebbabeec4ae3c201]
cluster Controller Provision--><g id="cluster_Controller Provision"><path d="M228.5,353 L386.5,353 A3.75,3.75 0 0 1 389,355.5 L396,375.2969 L830.5,375.2969 A2.5,2.5 0 0 1 833,377.7969 L833,737.5 A2.5,2.5 0 0 1 830.5,740 L228.5,740 A2.5,2.5 0 0 1 226,737.5 L226,355.5 A2.5,2.5 0 0 1 228.5,353 " fill="none" style="stroke:#000000;stroke-width:1.5;"/><line style="stroke:#000000;stroke-width:1.5;" x1="226" x2="396" y1="375.2969" y2="375.2969"/><text fill="#000000" font-family="sans-serif" font-size="14" font-weight="bold" lengthAdjust="spacing" textLength="157" x="230" y="367.9951">Controller Provision</text></g><!--MD5=[7ff817392d3586ff4bd254f6888fffd3]
cluster Reporting & Storage--><g id="cluster_Reporting &amp; Storage"><path d="M8.5,657 L171.5,657 A3.75,3.75 0 0 1 174,659.5 L181,679.2969 L199.5,679.2969 A2.5,2.5 0 0 1 202,681.7969 L202,848.5 A2.5,2.5 0 0 1 199.5,851 L8.5,851 A2.5,2.5 0 0 1 6,848.5 L6,659.5 A2.5,2.5 0 0 1 8.5,657 " fill="none" style="stroke:#000000;stroke-width:1.5;"/><line style="stroke:#000000;stroke-width:1.5;" x1="6" x2="181" y1="679.2969" y2="679.2969"/><text fill="#000000" font-family="sans-serif" font-size="14" font-weight="bold" lengthAdjust="spacing" textLength="162" x="10" y="671.9951">Reporting &amp; Storage</text></g><!--MD5=[3e96dd66dd64ae2e61f50c8668a6b0a4]
class ExperimentManager--><g id="elem_ExperimentManager"><rect codeLine="6" fill="#F1F1F1" height="88.8906" id="ExperimentManager" rx="2.5" ry="2.5" style="stroke:#181818;stroke-width:0.5;" width="336" x="552" y="41"/><ellipse cx="646.75" cy="57" fill="#ADD1B2" rx="11" ry="11" style="stroke:#181818;stroke-width:1.0;"/><path d="M649.7188,62.6406 Q649.1406,62.9375 648.5,63.0781 Q647.8594,63.2344 647.1563,63.2344 Q644.6563,63.2344 643.3281,61.5938 Q642.0156,59.9375 642.0156,56.8125 Q642.0156,53.6875 643.3281,52.0313 Q644.6563,50.375 647.1563,50.375 Q647.8594,50.375 648.5,50.5313 Q649.1563,50.6875 649.7188,50.9844 L649.7188,53.7031 Q649.0938,53.125 648.5,52.8594 Q647.9063,52.5781 647.2813,52.5781 Q645.9375,52.5781 645.25,53.6563 Q644.5625,54.7188 644.5625,56.8125 Q644.5625,58.9063 645.25,59.9844 Q645.9375,61.0469 647.2813,61.0469 Q647.9063,61.0469 648.5,60.7813 Q649.0938,60.5 649.7188,59.9219 L649.7188,62.6406 Z " fill="#000000"/><text fill="#000000" font-family="sans-serif" font-size="14" lengthAdjust="spacing" textLength="138" x="667.25" y="61.8467">ExperimentManager</text><line style="stroke:#181818;stroke-width:0.5;" x1="553" x2="887" y1="73" y2="73"/><text fill="#000000" font-family="sans-serif" font-size="14" lengthAdjust="spacing" textLength="324" x="558" y="89.9951">+register_environment_factory(engine, factory)</text><text fill="#000000" font-family="sans-serif" font-size="14" lengthAdjust="spacing" textLength="319" x="558" y="106.292">+register_controller_factory(controller, factory)</text><text fill="#000000" font-family="sans-serif" font-size="14" lengthAdjust="spacing" textLength="146" x="558" y="122.5889">+run_all(config_path)</text></g><!--MD5=[2a9217e8f2d7f96589335d2c6f09894a]
class Experiment--><g id="elem_Experiment"><rect codeLine="12" fill="#F1F1F1" height="80.5938" id="Experiment" rx="2.5" ry="2.5" style="stroke:#181818;stroke-width:0.5;" width="198" x="621" y="207"/><ellipse cx="676.75" cy="223" fill="#ADD1B2" rx="11" ry="11" style="stroke:#181818;stroke-width:1.0;"/><path d="M679.7188,228.6406 Q679.1406,228.9375 678.5,229.0781 Q677.8594,229.2344 677.1563,229.2344 Q674.6563,229.2344 673.3281,227.5938 Q672.0156,225.9375 672.0156,222.8125 Q672.0156,219.6875 673.3281,218.0313 Q674.6563,216.375 677.1563,216.375 Q677.8594,216.375 678.5,216.5313 Q679.1563,216.6875 679.7188,216.9844 L679.7188,219.7031 Q679.0938,219.125 678.5,218.8594 Q677.9063,218.5781 677.2813,218.5781 Q675.9375,218.5781 675.25,219.6563 Q674.5625,220.7188 674.5625,222.8125 Q674.5625,224.9063 675.25,225.9844 Q675.9375,227.0469 677.2813,227.0469 Q677.9063,227.0469 678.5,226.7813 Q679.0938,226.5 679.7188,225.9219 L679.7188,228.6406 Z " fill="#000000"/><text fill="#000000" font-family="sans-serif" font-size="14" lengthAdjust="spacing" textLength="78" x="697.25" y="227.8467">Experiment</text><line style="stroke:#181818;stroke-width:0.5;" x1="622" x2="818" y1="239" y2="239"/><text fill="#000000" font-family="sans-serif" font-size="14" lengthAdjust="spacing" textLength="186" x="627" y="255.9951">+status: ExperimentStatus</text><line style="stroke:#181818;stroke-width:0.5;" x1="622" x2="818" y1="263.2969" y2="263.2969"/><text fill="#000000" font-family="sans-serif" font-size="14" lengthAdjust="spacing" textLength="82" x="627" y="280.292">+run(): void</text></g><!--MD5=[e91c523f8d7dd94a4e9260e7eb441913]
class ExperimentStatus--><g id="elem_ExperimentStatus"><rect codeLine="17" fill="#F1F1F1" height="88.8906" id="ExperimentStatus" rx="2.5" ry="2.5" style="stroke:#181818;stroke-width:0.5;" width="154" x="363" y="41"/><ellipse cx="378" cy="57" fill="#EB937F" rx="11" ry="11" style="stroke:#181818;stroke-width:1.0;"/><path d="M382.1094,63 L374.3906,63 L374.3906,50.6094 L382.1094,50.6094 L382.1094,52.7656 L376.8438,52.7656 L376.8438,55.4375 L381.6094,55.4375 L381.6094,57.5938 L376.8438,57.5938 L376.8438,60.8438 L382.1094,60.8438 L382.1094,63 Z " fill="#000000"/><text fill="#000000" font-family="sans-serif" font-size="14" lengthAdjust="spacing" textLength="122" x="392" y="61.8467">ExperimentStatus</text><line style="stroke:#181818;stroke-width:0.5;" x1="364" x2="516" y1="73" y2="73"/><text fill="#000000" font-family="sans-serif" font-size="14" lengthAdjust="spacing" textLength="63" x="369" y="89.9951">PENDING</text><text fill="#000000" font-family="sans-serif" font-size="14" lengthAdjust="spacing" textLength="64" x="369" y="106.292">RUNNING</text><text fill="#000000" font-family="sans-serif" font-size="14" lengthAdjust="spacing" textLength="63" x="369" y="122.5889">FINISHED</text></g><!--MD5=[6726c37a1df62ed999e73b9093df1790]
class EnvironmentFactory--><g id="elem_EnvironmentFactory"><rect codeLine="26" fill="#F1F1F1" height="56.2969" id="EnvironmentFactory" rx="2.5" ry="2.5" style="stroke:#181818;stroke-width:0.5;" width="348" x="1009" y="388"/><ellipse cx="1110.25" cy="404" fill="#B4A7E5" rx="11" ry="11" style="stroke:#181818;stroke-width:1.0;"/><path d="M1106.1719,399.7656 L1106.1719,397.6094 L1113.5625,397.6094 L1113.5625,399.7656 L1111.0938,399.7656 L1111.0938,407.8438 L1113.5625,407.8438 L1113.5625,410 L1106.1719,410 L1106.1719,407.8438 L1108.6406,407.8438 L1108.6406,399.7656 L1106.1719,399.7656 Z " fill="#000000"/><text fill="#000000" font-family="sans-serif" font-size="14" font-style="italic" lengthAdjust="spacing" textLength="137" x="1130.75" y="408.8467">EnvironmentFactory</text><line style="stroke:#181818;stroke-width:0.5;" x1="1010" x2="1356" y1="420" y2="420"/><text fill="#000000" font-family="sans-serif" font-size="14" lengthAdjust="spacing" textLength="336" x="1015" y="436.9951">+create_environment(config_path): Environment</text></g><!--MD5=[5d0a77e8f66918aa15fe0099dd6d4ba9]
class Environment--><g id="elem_Environment"><rect codeLine="30" fill="#F1F1F1" height="72.5938" id="Environment" rx="2.5" ry="2.5" style="stroke:#181818;stroke-width:0.5;" width="236" x="940" y="521"/><ellipse cx="1010.25" cy="537" fill="#B4A7E5" rx="11" ry="11" style="stroke:#181818;stroke-width:1.0;"/><path d="M1006.1719,532.7656 L1006.1719,530.6094 L1013.5625,530.6094 L1013.5625,532.7656 L1011.0938,532.7656 L1011.0938,540.8438 L1013.5625,540.8438 L1013.5625,543 L1006.1719,543 L1006.1719,540.8438 L1008.6406,540.8438 L1008.6406,532.7656 L1006.1719,532.7656 Z " fill="#000000"/><text fill="#000000" font-family="sans-serif" font-size="14" font-style="italic" lengthAdjust="spacing" textLength="87" x="1030.75" y="541.8467">Environment</text><line style="stroke:#181818;stroke-width:0.5;" x1="941" x2="1175" y1="553" y2="553"/><text fill="#000000" font-family="sans-serif" font-size="14" lengthAdjust="spacing" textLength="103" x="946" y="569.9951">+reset(): State</text><text fill="#000000" font-family="sans-serif" font-size="14" lengthAdjust="spacing" textLength="224" x="946" y="586.292">+step(action: Action): Transition</text></g><!--MD5=[0325391b3dc87093258c63fe9d8c71ca]
class SinergymFactory--><g id="elem_SinergymFactory"><rect codeLine="35" fill="#F1F1F1" height="32" id="SinergymFactory" rx="2.5" ry="2.5" style="stroke:#181818;stroke-width:0.5;" width="146" x="1211" y="541.5"/><ellipse cx="1226" cy="557.5" fill="#ADD1B2" rx="11" ry="11" style="stroke:#181818;stroke-width:1.0;"/><path d="M1228.9688,563.1406 Q1228.3906,563.4375 1227.75,563.5781 Q1227.1094,563.7344 1226.4063,563.7344 Q1223.9063,563.7344 1222.5781,562.0938 Q1221.2656,560.4375 1221.2656,557.3125 Q1221.2656,554.1875 1222.5781,552.5313 Q1223.9063,550.875 1226.4063,550.875 Q1227.1094,550.875 1227.75,551.0313 Q1228.4063,551.1875 1228.9688,551.4844 L1228.9688,554.2031 Q1228.3438,553.625 1227.75,553.3594 Q1227.1563,553.0781 1226.5313,553.0781 Q1225.1875,553.0781 1224.5,554.1563 Q1223.8125,555.2188 1223.8125,557.3125 Q1223.8125,559.4063 1224.5,560.4844 Q1225.1875,561.5469 1226.5313,561.5469 Q1227.1563,561.5469 1227.75,561.2813 Q1228.3438,561 1228.9688,560.4219 L1228.9688,563.1406 Z " fill="#000000"/><text fill="#000000" font-family="sans-serif" font-size="14" lengthAdjust="spacing" textLength="114" x="1240" y="562.3467">SinergymFactory</text></g><!--MD5=[30d24cbeb4efcde6f77e634e6bd714f2]
class SinergymEnvironment--><g id="elem_SinergymEnvironment"><rect codeLine="36" fill="#F1F1F1" height="32" id="SinergymEnvironment" rx="2.5" ry="2.5" style="stroke:#181818;stroke-width:0.5;" width="183" x="1079.5" y="692"/><ellipse cx="1094.5" cy="708" fill="#ADD1B2" rx="11" ry="11" style="stroke:#181818;stroke-width:1.0;"/><path d="M1097.4688,713.6406 Q1096.8906,713.9375 1096.25,714.0781 Q1095.6094,714.2344 1094.9063,714.2344 Q1092.4063,714.2344 1091.0781,712.5938 Q1089.7656,710.9375 1089.7656,707.8125 Q1089.7656,704.6875 1091.0781,703.0313 Q1092.4063,701.375 1094.9063,701.375 Q1095.6094,701.375 1096.25,701.5313 Q1096.9063,701.6875 1097.4688,701.9844 L1097.4688,704.7031 Q1096.8438,704.125 1096.25,703.8594 Q1095.6563,703.5781 1095.0313,703.5781 Q1093.6875,703.5781 1093,704.6563 Q1092.3125,705.7188 1092.3125,707.8125 Q1092.3125,709.9063 1093,710.9844 Q1093.6875,712.0469 1095.0313,712.0469 Q1095.6563,712.0469 1096.25,711.7813 Q1096.8438,711.5 1097.4688,710.9219 L1097.4688,713.6406 Z " fill="#000000"/><text fill="#000000" font-family="sans-serif" font-size="14" lengthAdjust="spacing" textLength="151" x="1108.5" y="712.8467">SinergymEnvironment</text></g><!--MD5=[1d7ba1c7002d54515419844fbd155368]
class Controller--><g id="elem_Controller"><rect codeLine="41" fill="#F1F1F1" height="56.2969" id="Controller" rx="2.5" ry="2.5" style="stroke:#181818;stroke-width:0.5;" width="193" x="623.5" y="388"/><ellipse cx="682.25" cy="404" fill="#B4A7E5" rx="11" ry="11" style="stroke:#181818;stroke-width:1.0;"/><path d="M678.1719,399.7656 L678.1719,397.6094 L685.5625,397.6094 L685.5625,399.7656 L683.0938,399.7656 L683.0938,407.8438 L685.5625,407.8438 L685.5625,410 L678.1719,410 L678.1719,407.8438 L680.6406,407.8438 L680.6406,399.7656 L678.1719,399.7656 Z " fill="#000000"/><text fill="#000000" font-family="sans-serif" font-size="14" font-style="italic" lengthAdjust="spacing" textLength="67" x="702.75" y="408.8467">Controller</text><line style="stroke:#181818;stroke-width:0.5;" x1="624.5" x2="815.5" y1="420" y2="420"/><text fill="#000000" font-family="sans-serif" font-size="14" lengthAdjust="spacing" textLength="181" x="629.5" y="436.9951">+get_action(state): Action</text></g><!--MD5=[633340b79203889adec5a2a6890deee9]
class ControllerFactory--><g id="elem_ControllerFactory"><rect codeLine="45" fill="#F1F1F1" height="56.2969" id="ControllerFactory" rx="2.5" ry="2.5" style="stroke:#181818;stroke-width:0.5;" width="347" x="241.5" y="388"/><ellipse cx="352.25" cy="404" fill="#B4A7E5" rx="11" ry="11" style="stroke:#181818;stroke-width:1.0;"/><path d="M348.1719,399.7656 L348.1719,397.6094 L355.5625,397.6094 L355.5625,399.7656 L353.0938,399.7656 L353.0938,407.8438 L355.5625,407.8438 L355.5625,410 L348.1719,410 L348.1719,407.8438 L350.6406,407.8438 L350.6406,399.7656 L348.1719,399.7656 Z " fill="#000000"/><text fill="#000000" font-family="sans-serif" font-size="14" font-style="italic" lengthAdjust="spacing" textLength="117" x="372.75" y="408.8467">ControllerFactory</text><line style="stroke:#181818;stroke-width:0.5;" x1="242.5" x2="587.5" y1="420" y2="420"/><text fill="#000000" font-family="sans-serif" font-size="14" lengthAdjust="spacing" textLength="335" x="247.5" y="436.9951">+create_controller(env: Environment): Controller</text></g><!--MD5=[310c03e1fef7fa88f24398ca912a8790]
class RLController--><g id="elem_RLController"><rect codeLine="49" fill="#F1F1F1" height="56.2969" id="RLController" rx="2.5" ry="2.5" style="stroke:#181818;stroke-width:0.5;" width="133" x="483.5" y="529.5"/><ellipse cx="506.15" cy="545.5" fill="#B4A7E5" rx="11" ry="11" style="stroke:#181818;stroke-width:1.0;"/><path d="M502.0719,541.2656 L502.0719,539.1094 L509.4625,539.1094 L509.4625,541.2656 L506.9938,541.2656 L506.9938,549.3438 L509.4625,549.3438 L509.4625,551.5 L502.0719,551.5 L502.0719,549.3438 L504.5406,549.3438 L504.5406,541.2656 L502.0719,541.2656 Z " fill="#000000"/><text fill="#000000" font-family="sans-serif" font-size="14" font-style="italic" lengthAdjust="spacing" textLength="84" x="521.85" y="550.3467">RLController</text><line style="stroke:#181818;stroke-width:0.5;" x1="484.5" x2="615.5" y1="561.5" y2="561.5"/><text fill="#000000" font-family="sans-serif" font-size="14" lengthAdjust="spacing" textLength="121" x="489.5" y="578.4951">+train(timesteps)</text></g><!--MD5=[eaf7de0538c0ece421c87c7e9082976f]
class SACFactory--><g id="elem_SACFactory"><rect codeLine="53" fill="#F1F1F1" height="32" id="SACFactory" rx="2.5" ry="2.5" style="stroke:#181818;stroke-width:0.5;" width="110" x="338" y="541.5"/><ellipse cx="353" cy="557.5" fill="#ADD1B2" rx="11" ry="11" style="stroke:#181818;stroke-width:1.0;"/><path d="M355.9688,563.1406 Q355.3906,563.4375 354.75,563.5781 Q354.1094,563.7344 353.4063,563.7344 Q350.9063,563.7344 349.5781,562.0938 Q348.2656,560.4375 348.2656,557.3125 Q348.2656,554.1875 349.5781,552.5313 Q350.9063,550.875 353.4063,550.875 Q354.1094,550.875 354.75,551.0313 Q355.4063,551.1875 355.9688,551.4844 L355.9688,554.2031 Q355.3438,553.625 354.75,553.3594 Q354.1563,553.0781 353.5313,553.0781 Q352.1875,553.0781 351.5,554.1563 Q350.8125,555.2188 350.8125,557.3125 Q350.8125,559.4063 351.5,560.4844 Q352.1875,561.5469 353.5313,561.5469 Q354.1563,561.5469 354.75,561.2813 Q355.3438,561 355.9688,560.4219 L355.9688,563.1406 Z " fill="#000000"/><text fill="#000000" font-family="sans-serif" font-size="14" lengthAdjust="spacing" textLength="78" x="367" y="562.3467">SACFactory</text></g><!--MD5=[3c760cb6921be40f0166f8c2e00f3583]
class SACController--><g id="elem_SACController"><rect codeLine="54" fill="#F1F1F1" height="32" id="SACController" rx="2.5" ry="2.5" style="stroke:#181818;stroke-width:0.5;" width="127" x="329.5" y="692"/><ellipse cx="344.5" cy="708" fill="#ADD1B2" rx="11" ry="11" style="stroke:#181818;stroke-width:1.0;"/><path d="M347.4688,713.6406 Q346.8906,713.9375 346.25,714.0781 Q345.6094,714.2344 344.9063,714.2344 Q342.4063,714.2344 341.0781,712.5938 Q339.7656,710.9375 339.7656,707.8125 Q339.7656,704.6875 341.0781,703.0313 Q342.4063,701.375 344.9063,701.375 Q345.6094,701.375 346.25,701.5313 Q346.9063,701.6875 347.4688,701.9844 L347.4688,704.7031 Q346.8438,704.125 346.25,703.8594 Q345.6563,703.5781 345.0313,703.5781 Q343.6875,703.5781 343,704.6563 Q342.3125,705.7188 342.3125,707.8125 Q342.3125,709.9063 343,710.9844 Q343.6875,712.0469 345.0313,712.0469 Q345.6563,712.0469 346.25,711.7813 Q346.8438,711.5 347.4688,710.9219 L347.4688,713.6406 Z " fill="#000000"/><text fill="#000000" font-family="sans-serif" font-size="14" lengthAdjust="spacing" textLength="95" x="358.5" y="712.8467">SACController</text></g><!--MD5=[dcc2f53f329fb052a6f45cfd9829f02e]
class ReportingWrapper--><g id="elem_ReportingWrapper"><rect codeLine="59" fill="#F1F1F1" height="32" id="ReportingWrapper" rx="2.5" ry="2.5" style="stroke:#181818;stroke-width:0.5;" width="158" x="26" y="803"/><ellipse cx="41" cy="819" fill="#ADD1B2" rx="11" ry="11" style="stroke:#181818;stroke-width:1.0;"/><path d="M43.9688,824.6406 Q43.3906,824.9375 42.75,825.0781 Q42.1094,825.2344 41.4063,825.2344 Q38.9063,825.2344 37.5781,823.5938 Q36.2656,821.9375 36.2656,818.8125 Q36.2656,815.6875 37.5781,814.0313 Q38.9063,812.375 41.4063,812.375 Q42.1094,812.375 42.75,812.5313 Q43.4063,812.6875 43.9688,812.9844 L43.9688,815.7031 Q43.3438,815.125 42.75,814.8594 Q42.1563,814.5781 41.5313,814.5781 Q40.1875,814.5781 39.5,815.6563 Q38.8125,816.7188 38.8125,818.8125 Q38.8125,820.9063 39.5,821.9844 Q40.1875,823.0469 41.5313,823.0469 Q42.1563,823.0469 42.75,822.7813 Q43.3438,822.5 43.9688,821.9219 L43.9688,824.6406 Z " fill="#000000"/><text fill="#000000" font-family="sans-serif" font-size="14" lengthAdjust="spacing" textLength="126" x="55" y="823.8467">ReportingWrapper</text></g><!--MD5=[f705b9614a6e8d8adc315de185164542]
class ExperimentStorage--><g id="elem_ExperimentStorage"><rect codeLine="60" fill="#F1F1F1" height="32" id="ExperimentStorage" rx="2.5" ry="2.5" style="stroke:#181818;stroke-width:0.5;" width="164" x="22" y="692"/><ellipse cx="37" cy="708" fill="#ADD1B2" rx="11" ry="11" style="stroke:#181818;stroke-width:1.0;"/><path d="M39.9688,713.6406 Q39.3906,713.9375 38.75,714.0781 Q38.1094,714.2344 37.4063,714.2344 Q34.9063,714.2344 33.5781,712.5938 Q32.2656,710.9375 32.2656,707.8125 Q32.2656,704.6875 33.5781,703.0313 Q34.9063,701.375 37.4063,701.375 Q38.1094,701.375 38.75,701.5313 Q39.4063,701.6875 39.9688,701.9844 L39.9688,704.7031 Q39.3438,704.125 38.75,703.8594 Q38.1563,703.5781 37.5313,703.5781 Q36.1875,703.5781 35.5,704.6563 Q34.8125,705.7188 34.8125,707.8125 Q34.8125,709.9063 35.5,710.9844 Q36.1875,712.0469 37.5313,712.0469 Q38.1563,712.0469 38.75,711.7813 Q39.3438,711.5 39.9688,710.9219 L39.9688,713.6406 Z " fill="#000000"/><text fill="#000000" font-family="sans-serif" font-size="14" lengthAdjust="spacing" textLength="132" x="51" y="712.8467">ExperimentStorage</text></g><!--MD5=[f89f56c3f58488c464c31da1d9197c47]
link ExperimentManager to Experiment--><g id="link_ExperimentManager_Experiment"><path codeLine="64" d="M720,130.22 C720,152.41 720,179.31 720,201.66 " fill="none" id="ExperimentManager-to-Experiment" style="stroke:#181818;stroke-width:1.0;"/><polygon fill="#181818" points="720,206.94,724,197.94,720,201.94,716,197.94,720,206.94" style="stroke:#181818;stroke-width:1.0;"/><text fill="#000000" font-family="sans-serif" font-size="13" lengthAdjust="spacing" textLength="81" x="721" y="173.0669">orchestrates</text></g><!--MD5=[696a4efc2477736ae70086f07c2a80d3]
link Experiment to Environment--><g id="link_Experiment_Environment"><path codeLine="65" d="M771.51,288.16 C791.65,304.74 814.34,324.83 833,345 C869.94,384.94 866.63,405.43 905,444 C932.59,471.74 967.48,497.93 996.97,518.05 " fill="none" id="Experiment-to-Environment" style="stroke:#181818;stroke-width:1.0;"/><polygon fill="#181818" points="1001.28,520.98,996.0632,512.6263,997.1374,518.1802,991.5835,519.2544,1001.28,520.98" style="stroke:#181818;stroke-width:1.0;"/><text fill="#000000" font-family="sans-serif" font-size="13" lengthAdjust="spacing" textLength="85" x="906" y="420.5669">interacts with</text></g><!--MD5=[260609423ace49fa2552dc7cd20adac5]
link Experiment to Controller--><g id="link_Experiment_Controller"><path codeLine="66" d="M720,288.38 C720,317.24 720,355.75 720,382.7 " fill="none" id="Experiment-to-Controller" style="stroke:#181818;stroke-width:1.0;"/><polygon fill="#181818" points="720,387.92,724,378.92,720,382.92,716,378.92,720,387.92" style="stroke:#181818;stroke-width:1.0;"/><text fill="#000000" font-family="sans-serif" font-size="13" lengthAdjust="spacing" textLength="67" x="721" y="333.0669">drives with</text></g><!--MD5=[c897525cbcacd1adddf68e05d0f4b918]
link Experiment to ExperimentStorage--><g id="link_Experiment_ExperimentStorage"><path codeLine="67" d="M663.39,288.14 C647.44,297.5 629.62,306.39 612,312 C529.97,338.13 297.61,297.21 226,345 C108.23,423.6 102.04,622.88 103.23,686.88 " fill="none" id="Experiment-to-ExperimentStorage" style="stroke:#181818;stroke-width:1.0;"/><polygon fill="#181818" points="103.35,691.95,107.1427,682.8607,103.2354,686.9513,99.1448,683.044,103.35,691.95" style="stroke:#181818;stroke-width:1.0;"/><text fill="#000000" font-family="sans-serif" font-size="13" lengthAdjust="spacing" textLength="65" x="134" y="487.0669">records to</text></g><!--MD5=[e1fef4f6f15ff353d1f17f7c52f2fd42]
link ExperimentStorage to ReportingWrapper--><g id="link_ExperimentStorage_ReportingWrapper"><path codeLine="68" d="M104.14,724.16 C104.32,743.35 104.62,776.5 104.81,797.82 " fill="none" id="ExperimentStorage-to-ReportingWrapper" style="stroke:#181818;stroke-width:1.0;"/><polygon fill="#181818" points="104.86,802.97,108.7827,793.936,104.8171,797.9702,100.783,794.0046,104.86,802.97" style="stroke:#181818;stroke-width:1.0;"/><text fill="#000000" font-family="sans-serif" font-size="13" lengthAdjust="spacing" textLength="80" x="105" y="769.0669">formats logs</text></g><!--MD5=[e19099b9870e66fd0dc17bda2b1a54bd]
link ExperimentManager to EnvironmentFactory--><g id="link_ExperimentManager_EnvironmentFactory"><path codeLine="70" d="M781.48,130.12 C876.94,197.85 1058.35,326.56 1140.59,384.91 " fill="none" id="ExperimentManager-to-EnvironmentFactory" style="stroke:#181818;stroke-width:1.0;"/><polygon fill="#181818" points="1144.9,387.97,1139.8901,379.4906,1140.8275,385.0692,1135.2488,386.0066,1144.9,387.97" style="stroke:#181818;stroke-width:1.0;"/><text fill="#000000" font-family="sans-serif" font-size="13" lengthAdjust="spacing" textLength="45" x="1035" y="252.0669">selects</text></g><!--MD5=[14df373de1bbd6c644b78f27847e69df]
link ExperimentManager to ControllerFactory--><g id="link_ExperimentManager_ControllerFactory"><path codeLine="71" d="M650.47,130.2 C619.89,151.29 584.71,178.23 557,207 C503.45,262.61 456.22,340.45 432.06,383.41 " fill="none" id="ExperimentManager-to-ControllerFactory" style="stroke:#181818;stroke-width:1.0;"/><polygon fill="#181818" points="429.51,387.96,437.4004,382.0658,431.9552,383.5987,430.4223,378.1535,429.51,387.96" style="stroke:#181818;stroke-width:1.0;"/><text fill="#000000" font-family="sans-serif" font-size="13" lengthAdjust="spacing" textLength="45" x="558" y="252.0669">selects</text></g><!--MD5=[83df78c194e6eb83728ee72ed6e8249a]
reverse link EnvironmentFactory to SinergymFactory--><g id="link_EnvironmentFactory_SinergymFactory"><path codeLine="73" d="M1214.71,460.8 C1234.67,488.37 1259.19,522.24 1273.07,541.4 " fill="none" id="EnvironmentFactory-backto-SinergymFactory" style="stroke:#181818;stroke-width:1.0;stroke-dasharray:7.0,7.0;"/><polygon fill="none" points="1208.77,464.53,1202.71,444.23,1220.11,456.32,1208.77,464.53" style="stroke:#181818;stroke-width:1.0;"/></g><!--MD5=[d20dc67ca2d44bdfd432130db9758fe6]
reverse link Environment to SinergymEnvironment--><g id="link_Environment_SinergymEnvironment"><path codeLine="74" d="M1097.43,610.32 C1119.36,639.14 1145.08,672.94 1159.57,691.98 " fill="none" id="Environment-backto-SinergymEnvironment" style="stroke:#181818;stroke-width:1.0;stroke-dasharray:7.0,7.0;"/><polygon fill="none" points="1091.61,614.22,1085.07,594.07,1102.75,605.75,1091.61,614.22" style="stroke:#181818;stroke-width:1.0;"/></g><!--MD5=[22b422b0363f3a5ed2bdf3a78e06e38a]
link SinergymFactory to SinergymEnvironment--><g id="link_SinergymFactory_SinergymEnvironment"><path codeLine="75" d="M1272.54,573.56 C1251.9,600.68 1208.49,657.73 1185.7,687.69 " fill="none" id="SinergymFactory-to-SinergymEnvironment" style="stroke:#181818;stroke-width:1.0;"/><polygon fill="#181818" points="1182.49,691.9,1191.1091,687.1345,1185.506,687.912,1184.7284,682.3089,1182.49,691.9" style="stroke:#181818;stroke-width:1.0;"/><text fill="#000000" font-family="sans-serif" font-size="13" lengthAdjust="spacing" textLength="48" x="1231" y="637.0669">creates</text></g><!--MD5=[0517d85793559f306b0467141ce27d52]
reverse link Controller to RLController--><g id="link_Controller_RLController"><path codeLine="77" d="M604.07,446.94 C581.42,455.05 562.37,464.29 555,474 C543.2,489.54 542.53,511.86 544.49,529.36 " fill="none" id="Controller-backto-RLController" style="stroke:#181818;stroke-width:1.0;"/><polygon fill="none" points="602.12,440.22,623.3,440.56,606.53,453.5,602.12,440.22" style="stroke:#181818;stroke-width:1.0;"/></g><!--MD5=[c99fff555c7a5fa0591a13f39448e6dd]
reverse link ControllerFactory to SACFactory--><g id="link_ControllerFactory_SACFactory"><path codeLine="78" d="M407.53,464.36 C403.29,491.23 398.27,523.05 395.38,541.4 " fill="none" id="ControllerFactory-backto-SACFactory" style="stroke:#181818;stroke-width:1.0;stroke-dasharray:7.0,7.0;"/><polygon fill="none" points="400.68,462.89,410.71,444.23,414.5,465.07,400.68,462.89" style="stroke:#181818;stroke-width:1.0;"/></g><!--MD5=[c9392a56543398d16d96001da7d27568]
reverse link RLController to SACController--><g id="link_RLController_SACController"><path codeLine="79" d="M506.26,599.87 C473.96,630.43 431.81,670.3 409.13,691.75 " fill="none" id="RLController-backto-SACController" style="stroke:#181818;stroke-width:1.0;stroke-dasharray:7.0,7.0;"/><polygon fill="none" points="501.86,594.4,521.2,585.74,511.48,604.57,501.86,594.4" style="stroke:#181818;stroke-width:1.0;"/></g><!--MD5=[c2d7c7a90ca5ebd2e74636eddc42f990]
link SACFactory to SACController--><g id="link_SACFactory_SACController"><path codeLine="80" d="M393,573.56 C393,600.35 393,656.33 393,686.57 " fill="none" id="SACFactory-to-SACController" style="stroke:#181818;stroke-width:1.0;"/><polygon fill="#181818" points="393,691.9,397,682.9,393,686.9,389,682.9,393,691.9" style="stroke:#181818;stroke-width:1.0;"/><text fill="#000000" font-family="sans-serif" font-size="13" lengthAdjust="spacing" textLength="48" x="394" y="637.0669">creates</text></g><!--MD5=[b5cd2f0b9528aff1c34b8bcabd1f0bdb]
link SACController to ReportingWrapper--><g id="link_SACController_ReportingWrapper"><path codeLine="81" d="M353.26,724.04 C299.93,744.22 205.5,779.96 149.74,801.07 " fill="none" id="SACController-to-ReportingWrapper" style="stroke:#181818;stroke-width:1.0;"/><polygon fill="#181818" points="144.8,802.94,154.6335,803.489,149.4752,801.1672,151.797,796.0088,144.8,802.94" style="stroke:#181818;stroke-width:1.0;"/><text fill="#000000" font-family="sans-serif" font-size="13" lengthAdjust="spacing" textLength="85" x="267" y="769.0669">optional wrap</text></g><!--MD5=[6598927f7c51be041971ab78f80d8953]
link ControllerFactory to Environment--><g id="link_ControllerFactory_Environment"><path codeLine="83" d="M473.36,444.11 C510.11,460.1 558.95,479.41 604,491 C703.41,516.57 731.41,506.33 833,521 C865.97,525.76 901.61,531.23 934.59,536.43 " fill="none" id="ControllerFactory-to-Environment" style="stroke:#181818;stroke-width:1.0;"/><polygon fill="#181818" points="939.86,537.26,931.5996,531.8967,934.922,536.4751,930.3436,539.7975,939.86,537.26" style="stroke:#181818;stroke-width:1.0;"/><text fill="#000000" font-family="sans-serif" font-size="13" lengthAdjust="spacing" textLength="130" x="605" y="487.0669">configures controller</text></g><!--MD5=[daa0ea8d70d73a26540d12b887ab7313]
link Controller to Environment--><g id="link_Controller_Environment"><path codeLine="84" d="M728.23,444.1 C734.45,460.09 744.6,479.4 760,491 C787.83,511.98 865.79,528.69 934.99,539.99 " fill="none" id="Controller-to-Environment" style="stroke:#181818;stroke-width:1.0;"/><polygon fill="#181818" points="939.96,540.79,931.7172,535.3997,935.0246,539.9889,930.4354,543.2963,939.96,540.79" style="stroke:#181818;stroke-width:1.0;"/><text fill="#000000" font-family="sans-serif" font-size="13" lengthAdjust="spacing" textLength="99" x="761" y="487.0669">uses during run</text></g><!--MD5=[d6056737b88bedba3cfb533253300f4d]
@startuml
skinparam classAttributeIconSize 0
hide empty members

' ───── Orchestration ─────
package "Experiment Orchestration" {
  class ExperimentManager {
    +register_environment_factory(engine, factory)
    +register_controller_factory(controller, factory)
    +run_all(config_path)
  }

  class Experiment {
    +status: ExperimentStatus
    +run(): void
  }

  enum ExperimentStatus {
    PENDING
    RUNNING
    FINISHED
  }
}

' ───── Environment Provision ─────
package "Environment Provision" {
  interface EnvironmentFactory {
    +create_environment(config_path): Environment
  }

  interface Environment {
    +reset(): State
    +step(action: Action): Transition
  }

  class SinergymFactory
  class SinergymEnvironment
}

' ───── Controller Provision ─────
package "Controller Provision" {
  interface Controller {
    +get_action(state): Action
  }

  interface ControllerFactory {
    +create_controller(env: Environment): Controller
  }

  interface RLController {
    +train(timesteps)
  }

  class SACFactory
  class SACController
}

' ───── Reporting & Storage ─────
package "Reporting & Storage" {
  class ReportingWrapper
  class ExperimentStorage
}

' ───── Relationships ─────
ExperimentManager - -> Experiment : orchestrates
Experiment - -> Environment : interacts with
Experiment - -> Controller : drives with
Experiment - -> ExperimentStorage : records to
ExperimentStorage - -> ReportingWrapper : formats logs

ExperimentManager - -> EnvironmentFactory : selects
ExperimentManager - -> ControllerFactory : selects

EnvironmentFactory <|.. SinergymFactory
Environment <|.. SinergymEnvironment
SinergymFactory - -> SinergymEnvironment : creates

Controller <|- - RLController
ControllerFactory <|.. SACFactory
RLController <|.. SACController
SACFactory - -> SACController : creates
SACController - -> ReportingWrapper : optional wrap

ControllerFactory - -> Environment : configures controller
Controller - -> Environment : uses during run
@enduml

@startuml
skinparam classAttributeIconSize 0
hide empty members

package "Experiment Orchestration" {
  class ExperimentManager {
    +register_environment_factory(engine, factory)
    +register_controller_factory(controller, factory)
    +run_all(config_path)
  }

  class Experiment {
    +status: ExperimentStatus
    +run(): void
  }

  enum ExperimentStatus {
    PENDING
    RUNNING
    FINISHED
  }
}

package "Environment Provision" {
  interface EnvironmentFactory {
    +create_environment(config_path): Environment
  }

  interface Environment {
    +reset(): State
    +step(action: Action): Transition
  }

  class SinergymFactory
  class SinergymEnvironment
}

package "Controller Provision" {
  interface Controller {
    +get_action(state): Action
  }

  interface ControllerFactory {
    +create_controller(env: Environment): Controller
  }

  interface RLController {
    +train(timesteps)
  }

  class SACFactory
  class SACController
}

package "Reporting & Storage" {
  class ReportingWrapper
  class ExperimentStorage
}

ExperimentManager - -> Experiment : orchestrates
Experiment - -> Environment : interacts with
Experiment - -> Controller : drives with
Experiment - -> ExperimentStorage : records to
ExperimentStorage - -> ReportingWrapper : formats logs

ExperimentManager - -> EnvironmentFactory : selects
ExperimentManager - -> ControllerFactory : selects

EnvironmentFactory <|.. SinergymFactory
Environment <|.. SinergymEnvironment
SinergymFactory - -> SinergymEnvironment : creates

Controller <|- - RLController
ControllerFactory <|.. SACFactory
RLController <|.. SACController
SACFactory - -> SACController : creates
SACController - -> ReportingWrapper : optional wrap

ControllerFactory - -> Environment : configures controller
Controller - -> Environment : uses during run
@enduml

PlantUML version 1.2022.7(Mon Aug 22 17:01:30 UTC 2022)
(GPL source distribution)
Java Runtime: OpenJDK Runtime Environment
JVM: OpenJDK 64-Bit Server VM
Default Encoding: UTF-8
Language: en
Country: null
--></g></svg>