<?xml version="1.0" encoding="UTF-8" standalone="no"?><svg xmlns="http://www.w3.org/2000/svg" xmlns:xlink="http://www.w3.org/1999/xlink" contentStyleType="text/css" height="789px" preserveAspectRatio="none" style="width:1249px;height:789px;background:#FFFFFF;" version="1.1" viewBox="0 0 1249 789" width="1249px" zoomAndPan="magnify"><defs/><g><!--MD5=[e3c565211456ad2dabb0f70601bb8c20]
class IEnvironment--><g id="elem_IEnvironment"><rect codeLine="2" fill="#F1F1F1" height="80.5938" id="IEnvironment" rx="2.5" ry="2.5" style="stroke:#181818;stroke-width:0.5;" width="347" x="156.35" y="702"/><ellipse cx="280.6" cy="718" fill="#B4A7E5" rx="11" ry="11" style="stroke:#181818;stroke-width:1.0;"/><path d="M276.5219,713.7656 L276.5219,711.6094 L283.9125,711.6094 L283.9125,713.7656 L281.4438,713.7656 L281.4438,721.8438 L283.9125,721.8438 L283.9125,724 L276.5219,724 L276.5219,721.8438 L278.9906,721.8438 L278.9906,713.7656 L276.5219,713.7656 Z " fill="#000000"/><text fill="#000000" font-family="sans-serif" font-size="14" font-style="italic" lengthAdjust="spacing" textLength="90" x="301.1" y="722.8467">IEnvironment</text><line style="stroke:#181818;stroke-width:0.5;" x1="157.35" x2="502.35" y1="734" y2="734"/><line style="stroke:#181818;stroke-width:0.5;" x1="157.35" x2="502.35" y1="742" y2="742"/><ellipse cx="167.35" cy="755.6484" fill="#84BE84" rx="3" ry="3" style="stroke:#038048;stroke-width:1.0;"/><text fill="#000000" font-family="sans-serif" font-size="14" lengthAdjust="spacing" textLength="91" x="176.35" y="758.9951">reset(): State</text><ellipse cx="167.35" cy="771.9453" fill="#84BE84" rx="3" ry="3" style="stroke:#038048;stroke-width:1.0;"/><text fill="#000000" font-family="sans-serif" font-size="14" lengthAdjust="spacing" textLength="321" x="176.35" y="775.292">step(action: Action): (State, Reward, bool, dict)</text></g><!--MD5=[bd571520ce57ba8fc108ce35545cd758]
class IController--><g id="elem_IController"><rect codeLine="7" fill="#F1F1F1" height="64.2969" id="IController" rx="2.5" ry="2.5" style="stroke:#181818;stroke-width:0.5;" width="189" x="235.35" y="411.5"/><ellipse cx="290.6" cy="427.5" fill="#B4A7E5" rx="11" ry="11" style="stroke:#181818;stroke-width:1.0;"/><path d="M286.5219,423.2656 L286.5219,421.1094 L293.9125,421.1094 L293.9125,423.2656 L291.4438,423.2656 L291.4438,431.3438 L293.9125,431.3438 L293.9125,433.5 L286.5219,433.5 L286.5219,431.3438 L288.9906,431.3438 L288.9906,423.2656 L286.5219,423.2656 Z " fill="#000000"/><text fill="#000000" font-family="sans-serif" font-size="14" font-style="italic" lengthAdjust="spacing" textLength="70" x="311.1" y="432.3467">IController</text><line style="stroke:#181818;stroke-width:0.5;" x1="236.35" x2="423.35" y1="443.5" y2="443.5"/><line style="stroke:#181818;stroke-width:0.5;" x1="236.35" x2="423.35" y1="451.5" y2="451.5"/><ellipse cx="246.35" cy="465.1484" fill="#84BE84" rx="3" ry="3" style="stroke:#038048;stroke-width:1.0;"/><text fill="#000000" font-family="sans-serif" font-size="14" lengthAdjust="spacing" textLength="163" x="255.35" y="468.4951">getAction(state): Action</text></g><!--MD5=[7f09f002e0e87076adc008c8fae66c09]
class IControllerProvider--><g id="elem_IControllerProvider"><rect codeLine="11" fill="#F1F1F1" height="80.5938" id="IControllerProvider" rx="2.5" ry="2.5" style="stroke:#181818;stroke-width:0.5;" width="391" x="389.35" y="205"/><ellipse cx="517.6" cy="221" fill="#B4A7E5" rx="11" ry="11" style="stroke:#181818;stroke-width:1.0;"/><path d="M513.5219,216.7656 L513.5219,214.6094 L520.9125,214.6094 L520.9125,216.7656 L518.4438,216.7656 L518.4438,224.8438 L520.9125,224.8438 L520.9125,227 L513.5219,227 L513.5219,224.8438 L515.9906,224.8438 L515.9906,216.7656 L513.5219,216.7656 Z " fill="#000000"/><text fill="#000000" font-family="sans-serif" font-size="14" font-style="italic" lengthAdjust="spacing" textLength="126" x="538.1" y="225.8467">IControllerProvider</text><line style="stroke:#181818;stroke-width:0.5;" x1="390.35" x2="779.35" y1="237" y2="237"/><ellipse cx="400.35" cy="250.6484" fill="none" rx="3" ry="3" style="stroke:#038048;stroke-width:1.0;"/><text fill="#000000" font-family="sans-serif" font-size="14" lengthAdjust="spacing" textLength="142" x="409.35" y="253.9951">env: gymnasium.Env</text><line style="stroke:#181818;stroke-width:0.5;" x1="390.35" x2="779.35" y1="261.2969" y2="261.2969"/><text fill="#000000" font-family="sans-serif" font-size="14" lengthAdjust="spacing" textLength="379" x="395.35" y="278.292">create_controller(env: Env, config_path: str): IController</text></g><!--MD5=[cca6253dd48c166c7f07a685640efb55]
class RandomControllerProvider--><g id="elem_RandomControllerProvider"><rect codeLine="16" fill="#F1F1F1" height="48" id="RandomControllerProvider" rx="2.5" ry="2.5" style="stroke:#181818;stroke-width:0.5;" width="213" x="459.35" y="419.5"/><ellipse cx="474.35" cy="435.5" fill="#ADD1B2" rx="11" ry="11" style="stroke:#181818;stroke-width:1.0;"/><path d="M477.3188,441.1406 Q476.7406,441.4375 476.1,441.5781 Q475.4594,441.7344 474.7563,441.7344 Q472.2563,441.7344 470.9281,440.0938 Q469.6156,438.4375 469.6156,435.3125 Q469.6156,432.1875 470.9281,430.5313 Q472.2563,428.875 474.7563,428.875 Q475.4594,428.875 476.1,429.0313 Q476.7563,429.1875 477.3188,429.4844 L477.3188,432.2031 Q476.6938,431.625 476.1,431.3594 Q475.5063,431.0781 474.8813,431.0781 Q473.5375,431.0781 472.85,432.1563 Q472.1625,433.2188 472.1625,435.3125 Q472.1625,437.4063 472.85,438.4844 Q473.5375,439.5469 474.8813,439.5469 Q475.5063,439.5469 476.1,439.2813 Q476.6938,439 477.3188,438.4219 L477.3188,441.1406 Z " fill="#000000"/><text fill="#000000" font-family="sans-serif" font-size="14" lengthAdjust="spacing" textLength="181" x="488.35" y="440.3467">RandomControllerProvider</text><line style="stroke:#181818;stroke-width:0.5;" x1="460.35" x2="671.35" y1="451.5" y2="451.5"/><line style="stroke:#181818;stroke-width:0.5;" x1="460.35" x2="671.35" y1="459.5" y2="459.5"/></g><!--MD5=[c856136f6107eff9a1017d3f7feaa79e]
class RuleBasedControllerProvider--><g id="elem_RuleBasedControllerProvider"><rect codeLine="20" fill="#F1F1F1" height="48" id="RuleBasedControllerProvider" rx="2.5" ry="2.5" style="stroke:#181818;stroke-width:0.5;" width="230" x="707.85" y="419.5"/><ellipse cx="722.85" cy="435.5" fill="#ADD1B2" rx="11" ry="11" style="stroke:#181818;stroke-width:1.0;"/><path d="M725.8188,441.1406 Q725.2406,441.4375 724.6,441.5781 Q723.9594,441.7344 723.2563,441.7344 Q720.7563,441.7344 719.4281,440.0938 Q718.1156,438.4375 718.1156,435.3125 Q718.1156,432.1875 719.4281,430.5313 Q720.7563,428.875 723.2563,428.875 Q723.9594,428.875 724.6,429.0313 Q725.2563,429.1875 725.8188,429.4844 L725.8188,432.2031 Q725.1938,431.625 724.6,431.3594 Q724.0063,431.0781 723.3813,431.0781 Q722.0375,431.0781 721.35,432.1563 Q720.6625,433.2188 720.6625,435.3125 Q720.6625,437.4063 721.35,438.4844 Q722.0375,439.5469 723.3813,439.5469 Q724.0063,439.5469 724.6,439.2813 Q725.1938,439 725.8188,438.4219 L725.8188,441.1406 Z " fill="#000000"/><text fill="#000000" font-family="sans-serif" font-size="14" lengthAdjust="spacing" textLength="198" x="736.85" y="440.3467">RuleBasedControllerProvider</text><line style="stroke:#181818;stroke-width:0.5;" x1="708.85" x2="936.85" y1="451.5" y2="451.5"/><line style="stroke:#181818;stroke-width:0.5;" x1="708.85" x2="936.85" y1="459.5" y2="459.5"/></g><!--MD5=[2f2af61d07428df936a35126d7ff4147]
class RandomController--><g id="elem_RandomController"><rect codeLine="91" fill="#F1F1F1" height="48" id="RandomController" rx="2.5" ry="2.5" style="stroke:#181818;stroke-width:0.5;" width="157" x="464.35" y="585"/><ellipse cx="479.35" cy="601" fill="#ADD1B2" rx="11" ry="11" style="stroke:#181818;stroke-width:1.0;"/><path d="M482.3188,606.6406 Q481.7406,606.9375 481.1,607.0781 Q480.4594,607.2344 479.7563,607.2344 Q477.2563,607.2344 475.9281,605.5938 Q474.6156,603.9375 474.6156,600.8125 Q474.6156,597.6875 475.9281,596.0313 Q477.2563,594.375 479.7563,594.375 Q480.4594,594.375 481.1,594.5313 Q481.7563,594.6875 482.3188,594.9844 L482.3188,597.7031 Q481.6938,597.125 481.1,596.8594 Q480.5063,596.5781 479.8813,596.5781 Q478.5375,596.5781 477.85,597.6563 Q477.1625,598.7188 477.1625,600.8125 Q477.1625,602.9063 477.85,603.9844 Q478.5375,605.0469 479.8813,605.0469 Q480.5063,605.0469 481.1,604.7813 Q481.6938,604.5 482.3188,603.9219 L482.3188,606.6406 Z " fill="#000000"/><text fill="#000000" font-family="sans-serif" font-size="14" lengthAdjust="spacing" textLength="125" x="493.35" y="605.8467">RandomController</text><line style="stroke:#181818;stroke-width:0.5;" x1="465.35" x2="620.35" y1="617" y2="617"/><line style="stroke:#181818;stroke-width:0.5;" x1="465.35" x2="620.35" y1="625" y2="625"/></g><!--MD5=[664eb10d81fd138a2b503cecdc8c1bf7]
class IEnvironmentProvider--><g id="elem_IEnvironmentProvider"><rect codeLine="30" fill="#F1F1F1" height="64.2969" id="IEnvironmentProvider" rx="2.5" ry="2.5" style="stroke:#181818;stroke-width:0.5;" width="402" x="840.85" y="213.5"/><ellipse cx="964.6" cy="229.5" fill="#B4A7E5" rx="11" ry="11" style="stroke:#181818;stroke-width:1.0;"/><path d="M960.5219,225.2656 L960.5219,223.1094 L967.9125,223.1094 L967.9125,225.2656 L965.4438,225.2656 L965.4438,233.3438 L967.9125,233.3438 L967.9125,235.5 L960.5219,235.5 L960.5219,233.3438 L962.9906,233.3438 L962.9906,225.2656 L960.5219,225.2656 Z " fill="#000000"/><text fill="#000000" font-family="sans-serif" font-size="14" font-style="italic" lengthAdjust="spacing" textLength="146" x="985.1" y="234.3467">IEnvironmentProvider</text><line style="stroke:#181818;stroke-width:0.5;" x1="841.85" x2="1241.85" y1="245.5" y2="245.5"/><line style="stroke:#181818;stroke-width:0.5;" x1="841.85" x2="1241.85" y1="253.5" y2="253.5"/><ellipse cx="851.85" cy="267.1484" fill="#84BE84" rx="3" ry="3" style="stroke:#038048;stroke-width:1.0;"/><text fill="#000000" font-family="sans-serif" font-size="14" lengthAdjust="spacing" textLength="376" x="860.85" y="270.4951">create_environment(config_path: String): IEnvironment</text></g><!--MD5=[e29f668360d013b759c007157b858626]
class SinergymProvider--><g id="elem_SinergymProvider"><rect codeLine="35" fill="#F1F1F1" height="48" id="SinergymProvider" rx="2.5" ry="2.5" style="stroke:#181818;stroke-width:0.5;" width="152" x="972.85" y="419.5"/><ellipse cx="987.85" cy="435.5" fill="#ADD1B2" rx="11" ry="11" style="stroke:#181818;stroke-width:1.0;"/><path d="M990.8188,441.1406 Q990.2406,441.4375 989.6,441.5781 Q988.9594,441.7344 988.2563,441.7344 Q985.7563,441.7344 984.4281,440.0938 Q983.1156,438.4375 983.1156,435.3125 Q983.1156,432.1875 984.4281,430.5313 Q985.7563,428.875 988.2563,428.875 Q988.9594,428.875 989.6,429.0313 Q990.2563,429.1875 990.8188,429.4844 L990.8188,432.2031 Q990.1938,431.625 989.6,431.3594 Q989.0063,431.0781 988.3813,431.0781 Q987.0375,431.0781 986.35,432.1563 Q985.6625,433.2188 985.6625,435.3125 Q985.6625,437.4063 986.35,438.4844 Q987.0375,439.5469 988.3813,439.5469 Q989.0063,439.5469 989.6,439.2813 Q990.1938,439 990.8188,438.4219 L990.8188,441.1406 Z " fill="#000000"/><text fill="#000000" font-family="sans-serif" font-size="14" lengthAdjust="spacing" textLength="120" x="1001.85" y="440.3467">SinergymProvider</text><line style="stroke:#181818;stroke-width:0.5;" x1="973.85" x2="1123.85" y1="451.5" y2="451.5"/><line style="stroke:#181818;stroke-width:0.5;" x1="973.85" x2="1123.85" y1="459.5" y2="459.5"/></g><!--MD5=[30d24cbeb4efcde6f77e634e6bd714f2]
class SinergymEnvironment--><g id="elem_SinergymEnvironment"><rect codeLine="36" fill="#F1F1F1" height="48" id="SinergymEnvironment" rx="2.5" ry="2.5" style="stroke:#181818;stroke-width:0.5;" width="183" x="931.35" y="585"/><ellipse cx="946.35" cy="601" fill="#ADD1B2" rx="11" ry="11" style="stroke:#181818;stroke-width:1.0;"/><path d="M949.3188,606.6406 Q948.7406,606.9375 948.1,607.0781 Q947.4594,607.2344 946.7563,607.2344 Q944.2563,607.2344 942.9281,605.5938 Q941.6156,603.9375 941.6156,600.8125 Q941.6156,597.6875 942.9281,596.0313 Q944.2563,594.375 946.7563,594.375 Q947.4594,594.375 948.1,594.5313 Q948.7563,594.6875 949.3188,594.9844 L949.3188,597.7031 Q948.6938,597.125 948.1,596.8594 Q947.5063,596.5781 946.8813,596.5781 Q945.5375,596.5781 944.85,597.6563 Q944.1625,598.7188 944.1625,600.8125 Q944.1625,602.9063 944.85,603.9844 Q945.5375,605.0469 946.8813,605.0469 Q947.5063,605.0469 948.1,604.7813 Q948.6938,604.5 949.3188,603.9219 L949.3188,606.6406 Z " fill="#000000"/><text fill="#000000" font-family="sans-serif" font-size="14" lengthAdjust="spacing" textLength="151" x="960.35" y="605.8467">SinergymEnvironment</text><line style="stroke:#181818;stroke-width:0.5;" x1="932.35" x2="1113.35" y1="617" y2="617"/><line style="stroke:#181818;stroke-width:0.5;" x1="932.35" x2="1113.35" y1="625" y2="625"/></g><!--MD5=[3e96dd66dd64ae2e61f50c8668a6b0a4]
class ExperimentManager--><g id="elem_ExperimentManager"><rect codeLine="49" fill="#F1F1F1" height="96.8906" id="ExperimentManager" rx="2.5" ry="2.5" style="stroke:#181818;stroke-width:0.5;" width="562" x="303.85" y="7"/><ellipse cx="511.6" cy="23" fill="#ADD1B2" rx="11" ry="11" style="stroke:#181818;stroke-width:1.0;"/><path d="M514.5688,28.6406 Q513.9906,28.9375 513.35,29.0781 Q512.7094,29.2344 512.0063,29.2344 Q509.5063,29.2344 508.1781,27.5938 Q506.8656,25.9375 506.8656,22.8125 Q506.8656,19.6875 508.1781,18.0313 Q509.5063,16.375 512.0063,16.375 Q512.7094,16.375 513.35,16.5313 Q514.0063,16.6875 514.5688,16.9844 L514.5688,19.7031 Q513.9438,19.125 513.35,18.8594 Q512.7563,18.5781 512.1313,18.5781 Q510.7875,18.5781 510.1,19.6563 Q509.4125,20.7188 509.4125,22.8125 Q509.4125,24.9063 510.1,25.9844 Q510.7875,27.0469 512.1313,27.0469 Q512.7563,27.0469 513.35,26.7813 Q513.9438,26.5 514.5688,25.9219 L514.5688,28.6406 Z " fill="#000000"/><text fill="#000000" font-family="sans-serif" font-size="14" lengthAdjust="spacing" textLength="138" x="532.1" y="27.8467">ExperimentManager</text><line style="stroke:#181818;stroke-width:0.5;" x1="304.85" x2="864.85" y1="39" y2="39"/><line style="stroke:#181818;stroke-width:0.5;" x1="304.85" x2="864.85" y1="47" y2="47"/><ellipse cx="314.85" cy="60.6484" fill="#84BE84" rx="3" ry="3" style="stroke:#038048;stroke-width:1.0;"/><text fill="#000000" font-family="sans-serif" font-size="14" lengthAdjust="spacing" textLength="536" x="323.85" y="63.9951">register_environment_provider(engine: String, provider: IEnvironmentProvider)</text><ellipse cx="314.85" cy="76.9453" fill="#84BE84" rx="3" ry="3" style="stroke:#038048;stroke-width:1.0;"/><text fill="#000000" font-family="sans-serif" font-size="14" lengthAdjust="spacing" textLength="272" x="323.85" y="80.292">setup_experiments(config_path: String)</text><ellipse cx="314.85" cy="93.2422" fill="#84BE84" rx="3" ry="3" style="stroke:#038048;stroke-width:1.0;"/><text fill="#000000" font-family="sans-serif" font-size="14" lengthAdjust="spacing" textLength="54" x="323.85" y="96.5889">run_all()</text></g><!--MD5=[2a9217e8f2d7f96589335d2c6f09894a]
class Experiment--><g id="elem_Experiment"><rect codeLine="56" fill="#F1F1F1" height="129.4844" id="Experiment" rx="2.5" ry="2.5" style="stroke:#181818;stroke-width:0.5;" width="175" x="117.35" y="181"/><ellipse cx="161.6" cy="197" fill="#ADD1B2" rx="11" ry="11" style="stroke:#181818;stroke-width:1.0;"/><path d="M164.5688,202.6406 Q163.9906,202.9375 163.35,203.0781 Q162.7094,203.2344 162.0063,203.2344 Q159.5063,203.2344 158.1781,201.5938 Q156.8656,199.9375 156.8656,196.8125 Q156.8656,193.6875 158.1781,192.0313 Q159.5063,190.375 162.0063,190.375 Q162.7094,190.375 163.35,190.5313 Q164.0063,190.6875 164.5688,190.9844 L164.5688,193.7031 Q163.9438,193.125 163.35,192.8594 Q162.7563,192.5781 162.1313,192.5781 Q160.7875,192.5781 160.1,193.6563 Q159.4125,194.7188 159.4125,196.8125 Q159.4125,198.9063 160.1,199.9844 Q160.7875,201.0469 162.1313,201.0469 Q162.7563,201.0469 163.35,200.7813 Q163.9438,200.5 164.5688,199.9219 L164.5688,202.6406 Z " fill="#000000"/><text fill="#000000" font-family="sans-serif" font-size="14" lengthAdjust="spacing" textLength="78" x="182.1" y="201.8467">Experiment</text><line style="stroke:#181818;stroke-width:0.5;" x1="118.35" x2="291.35" y1="213" y2="213"/><ellipse cx="128.35" cy="226.6484" fill="none" rx="3" ry="3" style="stroke:#038048;stroke-width:1.0;"/><text fill="#000000" font-family="sans-serif" font-size="14" lengthAdjust="spacing" textLength="96" x="137.35" y="229.9951">engine: string</text><ellipse cx="128.35" cy="242.9453" fill="none" rx="3" ry="3" style="stroke:#038048;stroke-width:1.0;"/><text fill="#000000" font-family="sans-serif" font-size="14" lengthAdjust="spacing" textLength="90" x="137.35" y="246.292">episodes: int</text><ellipse cx="128.35" cy="259.2422" fill="none" rx="3" ry="3" style="stroke:#038048;stroke-width:1.0;"/><text fill="#000000" font-family="sans-serif" font-size="14" lengthAdjust="spacing" textLength="61" x="137.35" y="262.5889">seed: int</text><ellipse cx="128.35" cy="275.5391" fill="none" rx="3" ry="3" style="stroke:#038048;stroke-width:1.0;"/><text fill="#000000" font-family="sans-serif" font-size="14" lengthAdjust="spacing" textLength="144" x="137.35" y="278.8857">start_time: DateTime</text><ellipse cx="128.35" cy="291.8359" fill="none" rx="3" ry="3" style="stroke:#038048;stroke-width:1.0;"/><text fill="#000000" font-family="sans-serif" font-size="14" lengthAdjust="spacing" textLength="149" x="137.35" y="295.1826">finish_time: DateTime</text><line style="stroke:#181818;stroke-width:0.5;" x1="118.35" x2="291.35" y1="302.4844" y2="302.4844"/></g><!--MD5=[e91c523f8d7dd94a4e9260e7eb441913]
class ExperimentStatus--><g id="elem_ExperimentStatus"><rect codeLine="66" fill="#F1F1F1" height="113.1875" id="ExperimentStatus" rx="2.5" ry="2.5" style="stroke:#181818;stroke-width:0.5;" width="154" x="45.85" y="387"/><ellipse cx="60.85" cy="403" fill="#EB937F" rx="11" ry="11" style="stroke:#181818;stroke-width:1.0;"/><path d="M64.9594,409 L57.2406,409 L57.2406,396.6094 L64.9594,396.6094 L64.9594,398.7656 L59.6938,398.7656 L59.6938,401.4375 L64.4594,401.4375 L64.4594,403.5938 L59.6938,403.5938 L59.6938,406.8438 L64.9594,406.8438 L64.9594,409 Z " fill="#000000"/><text fill="#000000" font-family="sans-serif" font-size="14" lengthAdjust="spacing" textLength="122" x="74.85" y="407.8467">ExperimentStatus</text><line style="stroke:#181818;stroke-width:0.5;" x1="46.85" x2="198.85" y1="419" y2="419"/><text fill="#000000" font-family="sans-serif" font-size="14" lengthAdjust="spacing" textLength="64" x="51.85" y="435.9951">RUNNING</text><text fill="#000000" font-family="sans-serif" font-size="14" lengthAdjust="spacing" textLength="63" x="51.85" y="452.292">PENDING</text><text fill="#000000" font-family="sans-serif" font-size="14" lengthAdjust="spacing" textLength="63" x="51.85" y="468.5889">FINISHED</text><text fill="#000000" font-family="sans-serif" font-size="14" lengthAdjust="spacing" textLength="53" x="51.85" y="484.8857">TUNING</text><line style="stroke:#181818;stroke-width:0.5;" x1="46.85" x2="198.85" y1="492.1875" y2="492.1875"/></g><!--MD5=[ab4844d6a963a76d6711976405d51c6a]
class RuleBasedController--><g id="elem_RuleBasedController"><rect codeLine="94" fill="#F1F1F1" height="64.2969" id="RuleBasedController" rx="2.5" ry="2.5" style="stroke:#181818;stroke-width:0.5;" width="174" x="695.85" y="577"/><ellipse cx="710.85" cy="593" fill="#ADD1B2" rx="11" ry="11" style="stroke:#181818;stroke-width:1.0;"/><path d="M713.8188,598.6406 Q713.2406,598.9375 712.6,599.0781 Q711.9594,599.2344 711.2563,599.2344 Q708.7563,599.2344 707.4281,597.5938 Q706.1156,595.9375 706.1156,592.8125 Q706.1156,589.6875 707.4281,588.0313 Q708.7563,586.375 711.2563,586.375 Q711.9594,586.375 712.6,586.5313 Q713.2563,586.6875 713.8188,586.9844 L713.8188,589.7031 Q713.1938,589.125 712.6,588.8594 Q712.0063,588.5781 711.3813,588.5781 Q710.0375,588.5781 709.35,589.6563 Q708.6625,590.7188 708.6625,592.8125 Q708.6625,594.9063 709.35,595.9844 Q710.0375,597.0469 711.3813,597.0469 Q712.0063,597.0469 712.6,596.7813 Q713.1938,596.5 713.8188,595.9219 L713.8188,598.6406 Z " fill="#000000"/><text fill="#000000" font-family="sans-serif" font-size="14" lengthAdjust="spacing" textLength="142" x="724.85" y="597.8467">RuleBasedController</text><line style="stroke:#181818;stroke-width:0.5;" x1="696.85" x2="868.85" y1="609" y2="609"/><ellipse cx="706.85" cy="622.6484" fill="none" rx="3" ry="3" style="stroke:#038048;stroke-width:1.0;"/><text fill="#000000" font-family="sans-serif" font-size="14" lengthAdjust="spacing" textLength="73" x="715.85" y="625.9951">rules: TBD</text><line style="stroke:#181818;stroke-width:0.5;" x1="696.85" x2="868.85" y1="633.2969" y2="633.2969"/></g><!--MD5=[a2dcada079002ac9df36d65e23afa48a]
link SinergymProvider to SinergymEnvironment--><g id="link_SinergymProvider_SinergymEnvironment"><path codeLine="39" d="M1045.18,467.58 C1040.5,496.95 1032.44,547.69 1027.38,579.46 " fill="none" id="SinergymProvider-to-SinergymEnvironment" style="stroke:#181818;stroke-width:1.0;"/><polygon fill="#181818" points="1026.54,584.77,1031.907,576.512,1027.3272,579.8324,1024.0068,575.2525,1026.54,584.77" style="stroke:#181818;stroke-width:1.0;"/><text fill="#000000" font-family="sans-serif" font-size="13" lengthAdjust="spacing" textLength="126" x="1035.85" y="543.0669">creates and returns</text></g><!--MD5=[427581b306c1752b663033e5541eca56]
link SinergymEnvironment to IEnvironment--><g id="link_SinergymEnvironment_IEnvironment"><path codeLine="40" d="M931.11,631.68 C916.66,634.92 901.86,638.13 887.85,641 C766.99,665.74 630.74,690.35 523.12,709.02 " fill="none" id="SinergymEnvironment-to-IEnvironment" style="stroke:#181818;stroke-width:1.0;stroke-dasharray:7.0,7.0;"/><polygon fill="none" points="524.27,715.92,503.37,712.43,521.89,702.13,524.27,715.92" style="stroke:#181818;stroke-width:1.0;"/></g><!--MD5=[aae06925d43089705534ab63c9ee2944]
reverse link IEnvironmentProvider to SinergymProvider--><g id="link_IEnvironmentProvider_SinergymProvider"><path codeLine="41" d="M1043.67,297.55 C1045.07,336.89 1046.95,389.45 1048.02,419.26 " fill="none" id="IEnvironmentProvider-backto-SinergymProvider" style="stroke:#181818;stroke-width:1.0;stroke-dasharray:7.0,7.0;"/><polygon fill="none" points="1036.67,297.79,1042.95,277.56,1050.66,297.29,1036.67,297.79" style="stroke:#181818;stroke-width:1.0;"/></g><!--MD5=[9db7cf3a0d4be62af3cd85fe9331bb3d]
reverse link IControllerProvider to RandomControllerProvider--><g id="link_IControllerProvider_RandomControllerProvider"><path codeLine="42" d="M579.05,306.25 C575.35,344.43 570.76,391.81 568.08,419.45 " fill="none" id="IControllerProvider-backto-RandomControllerProvider" style="stroke:#181818;stroke-width:1.0;stroke-dasharray:7.0,7.0;"/><polygon fill="none" points="572.1,305.39,581,286.16,586.04,306.75,572.1,305.39" style="stroke:#181818;stroke-width:1.0;"/></g><!--MD5=[37203d868cf9c5f71379978c948d4467]
reverse link IControllerProvider to RuleBasedControllerProvider--><g id="link_IControllerProvider_RuleBasedControllerProvider"><path codeLine="43" d="M648.53,298.95 C696.21,338.21 759.11,390.01 794.85,419.45 " fill="none" id="IControllerProvider-backto-RuleBasedControllerProvider" style="stroke:#181818;stroke-width:1.0;stroke-dasharray:7.0,7.0;"/><polygon fill="none" points="644,304.28,633.01,286.16,652.9,293.47,644,304.28" style="stroke:#181818;stroke-width:1.0;"/></g><!--MD5=[f89f56c3f58488c464c31da1d9197c47]
link ExperimentManager to Experiment--><g id="link_ExperimentManager_Experiment"><path codeLine="75" d="M488.46,104.18 C429.64,133.29 354.85,170.29 296.85,198.98 " fill="none" id="ExperimentManager-to-Experiment" style="stroke:#181818;stroke-width:1.0;"/><polygon fill="#181818" points="292.35,201.21,302.1898,200.7879,296.8278,198.9853,298.6304,193.6234,292.35,201.21" style="stroke:#181818;stroke-width:1.0;"/><text fill="#000000" font-family="sans-serif" font-size="13" lengthAdjust="spacing" textLength="108" x="417.85" y="147.0669">creates and runs</text><text fill="#000000" font-family="sans-serif" font-size="13" lengthAdjust="spacing" textLength="8" x="466.9701" y="123.8124">1</text><text fill="#000000" font-family="sans-serif" font-size="13" lengthAdjust="spacing" textLength="7" x="300.4547" y="193.6487">*</text></g><!--MD5=[9f19b18fc58516a7e83c39a9f668085d]
link ExperimentManager to IEnvironmentProvider--><g id="link_ExperimentManager_IEnvironmentProvider"><path codeLine="76" d="M700.46,104.06 C782.1,137.64 889.4,181.79 961.74,211.55 " fill="none" id="ExperimentManager-to-IEnvironmentProvider" style="stroke:#181818;stroke-width:1.0;"/><polygon fill="#181818" points="966.46,213.49,959.6609,206.3645,961.8366,211.5863,956.6149,213.762,966.46,213.49" style="stroke:#181818;stroke-width:1.0;"/><text fill="#000000" font-family="sans-serif" font-size="13" lengthAdjust="spacing" textLength="56" x="813.85" y="147.0669">registers</text><text fill="#000000" font-family="sans-serif" font-size="13" lengthAdjust="spacing" textLength="8" x="708.1552" y="124.0274">1</text><text fill="#000000" font-family="sans-serif" font-size="13" lengthAdjust="spacing" textLength="7" x="943.1889" y="202.391">*</text></g><!--MD5=[fb5bbe84228e4db71f8d5d1ccc7c8dca]
link ExperimentManager to IControllerProvider--><g id="link_ExperimentManager_IControllerProvider"><path codeLine="77" d="M584.85,104.43 C584.85,133.72 584.85,170.94 584.85,199.65 " fill="none" id="ExperimentManager-to-IControllerProvider" style="stroke:#181818;stroke-width:1.0;"/><polygon fill="#181818" points="584.85,204.9,588.85,195.9,584.85,199.9,580.85,195.9,584.85,204.9" style="stroke:#181818;stroke-width:1.0;"/><text fill="#000000" font-family="sans-serif" font-size="13" lengthAdjust="spacing" textLength="56" x="585.85" y="147.0669">registers</text><text fill="#000000" font-family="sans-serif" font-size="13" lengthAdjust="spacing" textLength="8" x="576.3125" y="124.0959">1</text><text fill="#000000" font-family="sans-serif" font-size="13" lengthAdjust="spacing" textLength="7" x="577.2703" y="194.045">*</text></g><!--MD5=[15d7e4be280620cadd89e755b7ef981a]
link Experiment to IEnvironment--><g id="link_Experiment_IEnvironment"><path codeLine="78" d="M117.05,292.92 C82.58,316.16 46.79,347.78 27.85,387 C6,432.22 6.09,454.74 27.85,500 C71.89,591.62 169.49,659.35 241.88,699.39 " fill="none" id="Experiment-to-IEnvironment" style="stroke:#181818;stroke-width:1.0;"/><polygon fill="#181818" points="246.62,701.99,240.6451,694.1606,242.2338,699.5897,236.8046,701.1785,246.62,701.99" style="stroke:#181818;stroke-width:1.0;"/><text fill="#000000" font-family="sans-serif" font-size="13" lengthAdjust="spacing" textLength="23" x="55.85" y="543.0669">has</text><text fill="#000000" font-family="sans-serif" font-size="13" lengthAdjust="spacing" textLength="7" x="102.4892" y="293.2782">*</text><text fill="#000000" font-family="sans-serif" font-size="13" lengthAdjust="spacing" textLength="8" x="223.6273" y="690.8515">1</text></g><!--MD5=[9521550349ee69d8d77c5605f0c9a3a3]
link IController to IEnvironment--><g id="link_IController_IEnvironment"><path codeLine="79" d="M329.85,475.72 C329.85,528.6 329.85,635.93 329.85,696.78 " fill="none" id="IController-to-IEnvironment" style="stroke:#181818;stroke-width:1.0;"/><polygon fill="#181818" points="329.85,701.8,333.85,692.8,329.85,696.8,325.85,692.8,329.85,701.8" style="stroke:#181818;stroke-width:1.0;"/><text fill="#000000" font-family="sans-serif" font-size="13" lengthAdjust="spacing" textLength="75" x="330.85" y="613.5669">depends on</text><text fill="#000000" font-family="sans-serif" font-size="13" lengthAdjust="spacing" textLength="7" x="322.1281" y="495.9622">*</text><text fill="#000000" font-family="sans-serif" font-size="13" lengthAdjust="spacing" textLength="8" x="321.1875" y="690.9284">1</text></g><!--MD5=[256f23329fb1a2403b66eea0c995fb44]
link Experiment to IController--><g id="link_Experiment_IController"><path codeLine="80" d="M245.43,310.14 C265.93,342.28 290.04,380.08 307.23,407.04 " fill="none" id="Experiment-to-IController" style="stroke:#181818;stroke-width:1.0;"/><polygon fill="#181818" points="309.93,411.27,308.4579,401.5318,307.2392,407.0558,301.7152,405.8371,309.93,411.27" style="stroke:#181818;stroke-width:1.0;"/><text fill="#000000" font-family="sans-serif" font-size="13" lengthAdjust="spacing" textLength="23" x="274.85" y="353.0669">has</text><text fill="#000000" font-family="sans-serif" font-size="13" lengthAdjust="spacing" textLength="7" x="242.7174" y="330.5278">*</text><text fill="#000000" font-family="sans-serif" font-size="13" lengthAdjust="spacing" textLength="8" x="297.2208" y="400.4989">1</text></g><!--MD5=[f8212b782ca955b7bfd71cf52e00eccd]
link Experiment to ExperimentStatus--><g id="link_Experiment_ExperimentStatus"><path codeLine="81" d="M178.22,310.14 C168.57,333.2 157.71,359.17 148.17,381.96 " fill="none" id="Experiment-to-ExperimentStatus" style="stroke:#181818;stroke-width:1.0;"/><polygon fill="#181818" points="146.16,386.77,153.3213,380.0086,148.0881,382.1567,145.94,376.9236,146.16,386.77" style="stroke:#181818;stroke-width:1.0;"/><text fill="#000000" font-family="sans-serif" font-size="13" lengthAdjust="spacing" textLength="23" x="164.85" y="353.0669">has</text><text fill="#000000" font-family="sans-serif" font-size="13" lengthAdjust="spacing" textLength="7" x="167.7362" y="330.5278">*</text><text fill="#000000" font-family="sans-serif" font-size="13" lengthAdjust="spacing" textLength="8" x="140.5134" y="376.0055">1</text></g><!--MD5=[cf7f4c4180feb383044c2835378188c0]
reverse link IController to RandomController--><g id="link_IController_RandomController"><path codeLine="84" d="M377.42,489.13 C398.14,507.78 423.07,529.2 446.85,547 C464.87,560.49 485.87,574.07 503.63,584.97 " fill="none" id="IController-backto-RandomController" style="stroke:#181818;stroke-width:1.0;stroke-dasharray:7.0,7.0;"/><polygon fill="none" points="372.55,494.17,362.49,475.52,381.99,483.82,372.55,494.17" style="stroke:#181818;stroke-width:1.0;"/></g><!--MD5=[b834b966112b9893252030b9aa6d32d4]
reverse link IController to RuleBasedController--><g id="link_IController_RuleBasedController"><path codeLine="85" d="M410.16,484.6 C420.8,489.82 431.57,495.06 441.85,500 C486.48,521.44 496.21,530.39 542.85,547 C592.46,564.67 649.54,579.4 695.59,589.95 " fill="none" id="IController-backto-RuleBasedController" style="stroke:#181818;stroke-width:1.0;stroke-dasharray:7.0,7.0;"/><polygon fill="none" points="406.76,490.72,391.92,475.6,412.95,478.17,406.76,490.72" style="stroke:#181818;stroke-width:1.0;"/></g><!--MD5=[44fb3c4d97cdcd6ba53b59e819e93d76]
link RandomControllerProvider to RandomController--><g id="link_RandomControllerProvider_RandomController"><path codeLine="87" d="M562.6,467.58 C558.47,496.95 551.33,547.69 546.86,579.46 " fill="none" id="RandomControllerProvider-to-RandomController" style="stroke:#181818;stroke-width:1.0;"/><polygon fill="#181818" points="546.11,584.77,551.3325,576.4198,546.8111,579.8194,543.4115,575.298,546.11,584.77" style="stroke:#181818;stroke-width:1.0;"/><text fill="#000000" font-family="sans-serif" font-size="13" lengthAdjust="spacing" textLength="48" x="553.85" y="543.0669">creates</text></g><!--MD5=[aa0f58427f75681aec6a8b84ba7498b3]
link RuleBasedControllerProvider to RuleBasedController--><g id="link_RuleBasedControllerProvider_RuleBasedController"><path codeLine="88" d="M817.2,467.58 C810.56,494.73 799.45,540.14 791.66,571.95 " fill="none" id="RuleBasedControllerProvider-to-RuleBasedController" style="stroke:#181818;stroke-width:1.0;"/><polygon fill="#181818" points="790.45,576.94,796.4919,569.1621,791.6492,572.0859,788.7254,567.2433,790.45,576.94" style="stroke:#181818;stroke-width:1.0;"/><text fill="#000000" font-family="sans-serif" font-size="13" lengthAdjust="spacing" textLength="48" x="801.85" y="543.0669">creates</text></g><!--MD5=[5c1e9cffbe388740749c20c1ec1581b9]
@startuml
' Interfaces
interface IEnvironment {
  + reset(): State
  + step(action: Action): (State, Reward, bool, dict)
}

interface IController {
  + getAction(state): Action
}

interface IControllerProvider {
	+ env: gymnasium.Env
	create_controller(env: Env, config_path: str): IController
}

class RandomControllerProvider {

}

class RuleBasedControllerProvider {

}

class RandomController {
	
}


' Abstract factory for environments
interface IEnvironmentProvider {
  + create_environment(config_path: String): IEnvironment
}

' ───── Sinergym Concrete provider and environment ─────
class SinergymProvider
class SinergymEnvironment


SinergymProvider - -> SinergymEnvironment : creates and returns
SinergymEnvironment ..|> IEnvironment
IEnvironmentProvider <|.. SinergymProvider
IControllerProvider <|.. RandomControllerProvider
IControllerProvider <|.. RuleBasedControllerProvider




' ───── Orchestration ─────
class ExperimentManager {
  + register_environment_provider(engine: String, provider: IEnvironmentProvider)
  + setup_experiments(config_path: String)
  + run_all()
}


class Experiment {
  + engine: string
  + episodes: int
  + seed: int
  + start_time: DateTime
  + finish_time: DateTime
}



enum ExperimentStatus {
  RUNNING
  PENDING
  FINISHED
  TUNING
}



ExperimentManager "1" - -> "*" Experiment : creates and runs
ExperimentManager "1" - -> "*" IEnvironmentProvider : registers
ExperimentManager "1" - -> "*" IControllerProvider : registers
Experiment "*" - -> "1" IEnvironment      : has
IController "*" - -> "1" IEnvironment      : depends on
Experiment "*" - -> "1" IController        : has
Experiment "*" - -> "1" ExperimentStatus  : has

' ───── Controllers ─────
IController <|.. RandomController
IController <|.. RuleBasedController

RandomControllerProvider - -> RandomController : creates
RuleBasedControllerProvider - -> RuleBasedController : creates


class RandomController {
}

class RuleBasedController {
  + rules: TBD
}
@enduml

@startuml
interface IEnvironment {
  + reset(): State
  + step(action: Action): (State, Reward, bool, dict)
}

interface IController {
  + getAction(state): Action
}

interface IControllerProvider {
	+ env: gymnasium.Env
	create_controller(env: Env, config_path: str): IController
}

class RandomControllerProvider {

}

class RuleBasedControllerProvider {

}

class RandomController {
	
}


interface IEnvironmentProvider {
  + create_environment(config_path: String): IEnvironment
}

class SinergymProvider
class SinergymEnvironment


SinergymProvider - -> SinergymEnvironment : creates and returns
SinergymEnvironment ..|> IEnvironment
IEnvironmentProvider <|.. SinergymProvider
IControllerProvider <|.. RandomControllerProvider
IControllerProvider <|.. RuleBasedControllerProvider




class ExperimentManager {
  + register_environment_provider(engine: String, provider: IEnvironmentProvider)
  + setup_experiments(config_path: String)
  + run_all()
}


class Experiment {
  + engine: string
  + episodes: int
  + seed: int
  + start_time: DateTime
  + finish_time: DateTime
}



enum ExperimentStatus {
  RUNNING
  PENDING
  FINISHED
  TUNING
}



ExperimentManager "1" - -> "*" Experiment : creates and runs
ExperimentManager "1" - -> "*" IEnvironmentProvider : registers
ExperimentManager "1" - -> "*" IControllerProvider : registers
Experiment "*" - -> "1" IEnvironment      : has
IController "*" - -> "1" IEnvironment      : depends on
Experiment "*" - -> "1" IController        : has
Experiment "*" - -> "1" ExperimentStatus  : has

IController <|.. RandomController
IController <|.. RuleBasedController

RandomControllerProvider - -> RandomController : creates
RuleBasedControllerProvider - -> RuleBasedController : creates


class RandomController {
}

class RuleBasedController {
  + rules: TBD
}
@enduml

PlantUML version 1.2022.7(Mon Aug 22 17:01:30 UTC 2022)
(GPL source distribution)
Java Runtime: OpenJDK Runtime Environment
JVM: OpenJDK 64-Bit Server VM
Default Encoding: UTF-8
Language: en
Country: null
--></g></svg>