<?xml version="1.0" encoding="UTF-8" standalone="no"?><svg xmlns="http://www.w3.org/2000/svg" xmlns:xlink="http://www.w3.org/1999/xlink" contentStyleType="text/css" height="838px" preserveAspectRatio="none" style="width:1319px;height:838px;background:#FFFFFF;" version="1.1" viewBox="0 0 1319 838" width="1319px" zoomAndPan="magnify"><defs/><g><!--MD5=[e3c565211456ad2dabb0f70601bb8c20]
class IEnvironment--><g id="elem_IEnvironment"><rect codeLine="2" fill="#F1F1F1" height="80.5938" id="IEnvironment" rx="2.5" ry="2.5" style="stroke:#181818;stroke-width:0.5;" width="347" x="142" y="751"/><ellipse cx="266.25" cy="767" fill="#B4A7E5" rx="11" ry="11" style="stroke:#181818;stroke-width:1.0;"/><path d="M262.1719,762.7656 L262.1719,760.6094 L269.5625,760.6094 L269.5625,762.7656 L267.0938,762.7656 L267.0938,770.8438 L269.5625,770.8438 L269.5625,773 L262.1719,773 L262.1719,770.8438 L264.6406,770.8438 L264.6406,762.7656 L262.1719,762.7656 Z " fill="#000000"/><text fill="#000000" font-family="sans-serif" font-size="14" font-style="italic" lengthAdjust="spacing" textLength="90" x="286.75" y="771.8467">IEnvironment</text><line style="stroke:#181818;stroke-width:0.5;" x1="143" x2="488" y1="783" y2="783"/><line style="stroke:#181818;stroke-width:0.5;" x1="143" x2="488" y1="791" y2="791"/><ellipse cx="153" cy="804.6484" fill="#84BE84" rx="3" ry="3" style="stroke:#038048;stroke-width:1.0;"/><text fill="#000000" font-family="sans-serif" font-size="14" lengthAdjust="spacing" textLength="91" x="162" y="807.9951">reset(): State</text><ellipse cx="153" cy="820.9453" fill="#84BE84" rx="3" ry="3" style="stroke:#038048;stroke-width:1.0;"/><text fill="#000000" font-family="sans-serif" font-size="14" lengthAdjust="spacing" textLength="321" x="162" y="824.292">step(action: Action): (State, Reward, bool, dict)</text></g><!--MD5=[1d7ba1c7002d54515419844fbd155368]
class Controller--><g id="elem_Controller"><rect codeLine="7" fill="#F1F1F1" height="64.2969" id="Controller" rx="2.5" ry="2.5" style="stroke:#181818;stroke-width:0.5;" width="189" x="512" y="411.5"/><ellipse cx="568.75" cy="427.5" fill="#B4A7E5" rx="11" ry="11" style="stroke:#181818;stroke-width:1.0;"/><path d="M564.6719,423.2656 L564.6719,421.1094 L572.0625,421.1094 L572.0625,423.2656 L569.5938,423.2656 L569.5938,431.3438 L572.0625,431.3438 L572.0625,433.5 L564.6719,433.5 L564.6719,431.3438 L567.1406,431.3438 L567.1406,423.2656 L564.6719,423.2656 Z " fill="#000000"/><text fill="#000000" font-family="sans-serif" font-size="14" font-style="italic" lengthAdjust="spacing" textLength="67" x="589.25" y="432.3467">Controller</text><line style="stroke:#181818;stroke-width:0.5;" x1="513" x2="700" y1="443.5" y2="443.5"/><line style="stroke:#181818;stroke-width:0.5;" x1="513" x2="700" y1="451.5" y2="451.5"/><ellipse cx="523" cy="465.1484" fill="#84BE84" rx="3" ry="3" style="stroke:#038048;stroke-width:1.0;"/><text fill="#000000" font-family="sans-serif" font-size="14" lengthAdjust="spacing" textLength="163" x="532" y="468.4951">getAction(state): Action</text></g><!--MD5=[a7d4a2182202304e5f98f7b78458dfe9]
class EnvironmentProvider--><g id="elem_EnvironmentProvider"><rect codeLine="12" fill="#F1F1F1" height="64.2969" id="EnvironmentProvider" rx="2.5" ry="2.5" style="stroke:#181818;stroke-width:0.5;" width="402" x="89.5" y="213.5"/><ellipse cx="214.75" cy="229.5" fill="#B4A7E5" rx="11" ry="11" style="stroke:#181818;stroke-width:1.0;"/><path d="M210.6719,225.2656 L210.6719,223.1094 L218.0625,223.1094 L218.0625,225.2656 L215.5938,225.2656 L215.5938,233.3438 L218.0625,233.3438 L218.0625,235.5 L210.6719,235.5 L210.6719,233.3438 L213.1406,233.3438 L213.1406,225.2656 L210.6719,225.2656 Z " fill="#000000"/><text fill="#000000" font-family="sans-serif" font-size="14" font-style="italic" lengthAdjust="spacing" textLength="143" x="235.25" y="234.3467">EnvironmentProvider</text><line style="stroke:#181818;stroke-width:0.5;" x1="90.5" x2="490.5" y1="245.5" y2="245.5"/><line style="stroke:#181818;stroke-width:0.5;" x1="90.5" x2="490.5" y1="253.5" y2="253.5"/><ellipse cx="100.5" cy="267.1484" fill="#84BE84" rx="3" ry="3" style="stroke:#038048;stroke-width:1.0;"/><text fill="#000000" font-family="sans-serif" font-size="14" lengthAdjust="spacing" textLength="376" x="109.5" y="270.4951">create_environment(config_path: String): IEnvironment</text></g><!--MD5=[e29f668360d013b759c007157b858626]
class SinergymProvider--><g id="elem_SinergymProvider"><rect codeLine="17" fill="#F1F1F1" height="48" id="SinergymProvider" rx="2.5" ry="2.5" style="stroke:#181818;stroke-width:0.5;" width="152" x="25.5" y="419.5"/><ellipse cx="40.5" cy="435.5" fill="#ADD1B2" rx="11" ry="11" style="stroke:#181818;stroke-width:1.0;"/><path d="M43.4688,441.1406 Q42.8906,441.4375 42.25,441.5781 Q41.6094,441.7344 40.9063,441.7344 Q38.4063,441.7344 37.0781,440.0938 Q35.7656,438.4375 35.7656,435.3125 Q35.7656,432.1875 37.0781,430.5313 Q38.4063,428.875 40.9063,428.875 Q41.6094,428.875 42.25,429.0313 Q42.9063,429.1875 43.4688,429.4844 L43.4688,432.2031 Q42.8438,431.625 42.25,431.3594 Q41.6563,431.0781 41.0313,431.0781 Q39.6875,431.0781 39,432.1563 Q38.3125,433.2188 38.3125,435.3125 Q38.3125,437.4063 39,438.4844 Q39.6875,439.5469 41.0313,439.5469 Q41.6563,439.5469 42.25,439.2813 Q42.8438,439 43.4688,438.4219 L43.4688,441.1406 Z " fill="#000000"/><text fill="#000000" font-family="sans-serif" font-size="14" lengthAdjust="spacing" textLength="120" x="54.5" y="440.3467">SinergymProvider</text><line style="stroke:#181818;stroke-width:0.5;" x1="26.5" x2="176.5" y1="451.5" y2="451.5"/><line style="stroke:#181818;stroke-width:0.5;" x1="26.5" x2="176.5" y1="459.5" y2="459.5"/></g><!--MD5=[30d24cbeb4efcde6f77e634e6bd714f2]
class SinergymEnvironment--><g id="elem_SinergymEnvironment"><rect codeLine="18" fill="#F1F1F1" height="48" id="SinergymEnvironment" rx="2.5" ry="2.5" style="stroke:#181818;stroke-width:0.5;" width="183" x="7" y="609.5"/><ellipse cx="22" cy="625.5" fill="#ADD1B2" rx="11" ry="11" style="stroke:#181818;stroke-width:1.0;"/><path d="M24.9688,631.1406 Q24.3906,631.4375 23.75,631.5781 Q23.1094,631.7344 22.4063,631.7344 Q19.9063,631.7344 18.5781,630.0938 Q17.2656,628.4375 17.2656,625.3125 Q17.2656,622.1875 18.5781,620.5313 Q19.9063,618.875 22.4063,618.875 Q23.1094,618.875 23.75,619.0313 Q24.4063,619.1875 24.9688,619.4844 L24.9688,622.2031 Q24.3438,621.625 23.75,621.3594 Q23.1563,621.0781 22.5313,621.0781 Q21.1875,621.0781 20.5,622.1563 Q19.8125,623.2188 19.8125,625.3125 Q19.8125,627.4063 20.5,628.4844 Q21.1875,629.5469 22.5313,629.5469 Q23.1563,629.5469 23.75,629.2813 Q24.3438,629 24.9688,628.4219 L24.9688,631.1406 Z " fill="#000000"/><text fill="#000000" font-family="sans-serif" font-size="14" lengthAdjust="spacing" textLength="151" x="36" y="630.3467">SinergymEnvironment</text><line style="stroke:#181818;stroke-width:0.5;" x1="8" x2="189" y1="641.5" y2="641.5"/><line style="stroke:#181818;stroke-width:0.5;" x1="8" x2="189" y1="649.5" y2="649.5"/></g><!--MD5=[a0968064e02f2f0717a86289d1e4dbc1]
class ModelicaProvider--><g id="elem_ModelicaProvider"><rect codeLine="22" fill="#F1F1F1" height="48" id="ModelicaProvider" rx="2.5" ry="2.5" style="stroke:#181818;stroke-width:0.5;" width="149" x="216" y="419.5"/><ellipse cx="231" cy="435.5" fill="#ADD1B2" rx="11" ry="11" style="stroke:#181818;stroke-width:1.0;"/><path d="M233.9688,441.1406 Q233.3906,441.4375 232.75,441.5781 Q232.1094,441.7344 231.4063,441.7344 Q228.9063,441.7344 227.5781,440.0938 Q226.2656,438.4375 226.2656,435.3125 Q226.2656,432.1875 227.5781,430.5313 Q228.9063,428.875 231.4063,428.875 Q232.1094,428.875 232.75,429.0313 Q233.4063,429.1875 233.9688,429.4844 L233.9688,432.2031 Q233.3438,431.625 232.75,431.3594 Q232.1563,431.0781 231.5313,431.0781 Q230.1875,431.0781 229.5,432.1563 Q228.8125,433.2188 228.8125,435.3125 Q228.8125,437.4063 229.5,438.4844 Q230.1875,439.5469 231.5313,439.5469 Q232.1563,439.5469 232.75,439.2813 Q233.3438,439 233.9688,438.4219 L233.9688,441.1406 Z " fill="#000000"/><text fill="#000000" font-family="sans-serif" font-size="14" lengthAdjust="spacing" textLength="117" x="245" y="440.3467">ModelicaProvider</text><line style="stroke:#181818;stroke-width:0.5;" x1="217" x2="364" y1="451.5" y2="451.5"/><line style="stroke:#181818;stroke-width:0.5;" x1="217" x2="364" y1="459.5" y2="459.5"/></g><!--MD5=[01f38dfdf06f31bc6656e5e90b65bb18]
class ModelicaEnvironment--><g id="elem_ModelicaEnvironment"><rect codeLine="23" fill="#F1F1F1" height="48" id="ModelicaEnvironment" rx="2.5" ry="2.5" style="stroke:#181818;stroke-width:0.5;" width="180" x="225.5" y="609.5"/><ellipse cx="240.5" cy="625.5" fill="#ADD1B2" rx="11" ry="11" style="stroke:#181818;stroke-width:1.0;"/><path d="M243.4688,631.1406 Q242.8906,631.4375 242.25,631.5781 Q241.6094,631.7344 240.9063,631.7344 Q238.4063,631.7344 237.0781,630.0938 Q235.7656,628.4375 235.7656,625.3125 Q235.7656,622.1875 237.0781,620.5313 Q238.4063,618.875 240.9063,618.875 Q241.6094,618.875 242.25,619.0313 Q242.9063,619.1875 243.4688,619.4844 L243.4688,622.2031 Q242.8438,621.625 242.25,621.3594 Q241.6563,621.0781 241.0313,621.0781 Q239.6875,621.0781 239,622.1563 Q238.3125,623.2188 238.3125,625.3125 Q238.3125,627.4063 239,628.4844 Q239.6875,629.5469 241.0313,629.5469 Q241.6563,629.5469 242.25,629.2813 Q242.8438,629 243.4688,628.4219 L243.4688,631.1406 Z " fill="#000000"/><text fill="#000000" font-family="sans-serif" font-size="14" lengthAdjust="spacing" textLength="148" x="254.5" y="630.3467">ModelicaEnvironment</text><line style="stroke:#181818;stroke-width:0.5;" x1="226.5" x2="404.5" y1="641.5" y2="641.5"/><line style="stroke:#181818;stroke-width:0.5;" x1="226.5" x2="404.5" y1="649.5" y2="649.5"/></g><!--MD5=[3e96dd66dd64ae2e61f50c8668a6b0a4]
class ExperimentManager--><g id="elem_ExperimentManager"><rect codeLine="30" fill="#F1F1F1" height="96.8906" id="ExperimentManager" rx="2.5" ry="2.5" style="stroke:#181818;stroke-width:0.5;" width="559" x="272" y="7"/><ellipse cx="478.25" cy="23" fill="#ADD1B2" rx="11" ry="11" style="stroke:#181818;stroke-width:1.0;"/><path d="M481.2188,28.6406 Q480.6406,28.9375 480,29.0781 Q479.3594,29.2344 478.6563,29.2344 Q476.1563,29.2344 474.8281,27.5938 Q473.5156,25.9375 473.5156,22.8125 Q473.5156,19.6875 474.8281,18.0313 Q476.1563,16.375 478.6563,16.375 Q479.3594,16.375 480,16.5313 Q480.6563,16.6875 481.2188,16.9844 L481.2188,19.7031 Q480.5938,19.125 480,18.8594 Q479.4063,18.5781 478.7813,18.5781 Q477.4375,18.5781 476.75,19.6563 Q476.0625,20.7188 476.0625,22.8125 Q476.0625,24.9063 476.75,25.9844 Q477.4375,27.0469 478.7813,27.0469 Q479.4063,27.0469 480,26.7813 Q480.5938,26.5 481.2188,25.9219 L481.2188,28.6406 Z " fill="#000000"/><text fill="#000000" font-family="sans-serif" font-size="14" lengthAdjust="spacing" textLength="138" x="498.75" y="27.8467">ExperimentManager</text><line style="stroke:#181818;stroke-width:0.5;" x1="273" x2="830" y1="39" y2="39"/><line style="stroke:#181818;stroke-width:0.5;" x1="273" x2="830" y1="47" y2="47"/><ellipse cx="283" cy="60.6484" fill="#84BE84" rx="3" ry="3" style="stroke:#038048;stroke-width:1.0;"/><text fill="#000000" font-family="sans-serif" font-size="14" lengthAdjust="spacing" textLength="533" x="292" y="63.9951">register_environment_provider(engine: String, provider: EnvironmentProvider)</text><ellipse cx="283" cy="76.9453" fill="#84BE84" rx="3" ry="3" style="stroke:#038048;stroke-width:1.0;"/><text fill="#000000" font-family="sans-serif" font-size="14" lengthAdjust="spacing" textLength="272" x="292" y="80.292">setup_experiments(config_path: String)</text><ellipse cx="283" cy="93.2422" fill="#84BE84" rx="3" ry="3" style="stroke:#038048;stroke-width:1.0;"/><text fill="#000000" font-family="sans-serif" font-size="14" lengthAdjust="spacing" textLength="54" x="292" y="96.5889">run_all()</text></g><!--MD5=[2a9217e8f2d7f96589335d2c6f09894a]
class Experiment--><g id="elem_Experiment"><rect codeLine="37" fill="#F1F1F1" height="129.4844" id="Experiment" rx="2.5" ry="2.5" style="stroke:#181818;stroke-width:0.5;" width="175" x="673" y="181"/><ellipse cx="717.25" cy="197" fill="#ADD1B2" rx="11" ry="11" style="stroke:#181818;stroke-width:1.0;"/><path d="M720.2188,202.6406 Q719.6406,202.9375 719,203.0781 Q718.3594,203.2344 717.6563,203.2344 Q715.1563,203.2344 713.8281,201.5938 Q712.5156,199.9375 712.5156,196.8125 Q712.5156,193.6875 713.8281,192.0313 Q715.1563,190.375 717.6563,190.375 Q718.3594,190.375 719,190.5313 Q719.6563,190.6875 720.2188,190.9844 L720.2188,193.7031 Q719.5938,193.125 719,192.8594 Q718.4063,192.5781 717.7813,192.5781 Q716.4375,192.5781 715.75,193.6563 Q715.0625,194.7188 715.0625,196.8125 Q715.0625,198.9063 715.75,199.9844 Q716.4375,201.0469 717.7813,201.0469 Q718.4063,201.0469 719,200.7813 Q719.5938,200.5 720.2188,199.9219 L720.2188,202.6406 Z " fill="#000000"/><text fill="#000000" font-family="sans-serif" font-size="14" lengthAdjust="spacing" textLength="78" x="737.75" y="201.8467">Experiment</text><line style="stroke:#181818;stroke-width:0.5;" x1="674" x2="847" y1="213" y2="213"/><ellipse cx="684" cy="226.6484" fill="none" rx="3" ry="3" style="stroke:#038048;stroke-width:1.0;"/><text fill="#000000" font-family="sans-serif" font-size="14" lengthAdjust="spacing" textLength="96" x="693" y="229.9951">engine: string</text><ellipse cx="684" cy="242.9453" fill="none" rx="3" ry="3" style="stroke:#038048;stroke-width:1.0;"/><text fill="#000000" font-family="sans-serif" font-size="14" lengthAdjust="spacing" textLength="90" x="693" y="246.292">episodes: int</text><ellipse cx="684" cy="259.2422" fill="none" rx="3" ry="3" style="stroke:#038048;stroke-width:1.0;"/><text fill="#000000" font-family="sans-serif" font-size="14" lengthAdjust="spacing" textLength="61" x="693" y="262.5889">seed: int</text><ellipse cx="684" cy="275.5391" fill="none" rx="3" ry="3" style="stroke:#038048;stroke-width:1.0;"/><text fill="#000000" font-family="sans-serif" font-size="14" lengthAdjust="spacing" textLength="144" x="693" y="278.8857">start_time: DateTime</text><ellipse cx="684" cy="291.8359" fill="none" rx="3" ry="3" style="stroke:#038048;stroke-width:1.0;"/><text fill="#000000" font-family="sans-serif" font-size="14" lengthAdjust="spacing" textLength="149" x="693" y="295.1826">finish_time: DateTime</text><line style="stroke:#181818;stroke-width:0.5;" x1="674" x2="847" y1="302.4844" y2="302.4844"/></g><!--MD5=[e91c523f8d7dd94a4e9260e7eb441913]
class ExperimentStatus--><g id="elem_ExperimentStatus"><rect codeLine="45" fill="#F1F1F1" height="113.1875" id="ExperimentStatus" rx="2.5" ry="2.5" style="stroke:#181818;stroke-width:0.5;" width="154" x="736.5" y="387"/><ellipse cx="751.5" cy="403" fill="#EB937F" rx="11" ry="11" style="stroke:#181818;stroke-width:1.0;"/><path d="M755.6094,409 L747.8906,409 L747.8906,396.6094 L755.6094,396.6094 L755.6094,398.7656 L750.3438,398.7656 L750.3438,401.4375 L755.1094,401.4375 L755.1094,403.5938 L750.3438,403.5938 L750.3438,406.8438 L755.6094,406.8438 L755.6094,409 Z " fill="#000000"/><text fill="#000000" font-family="sans-serif" font-size="14" lengthAdjust="spacing" textLength="122" x="765.5" y="407.8467">ExperimentStatus</text><line style="stroke:#181818;stroke-width:0.5;" x1="737.5" x2="889.5" y1="419" y2="419"/><text fill="#000000" font-family="sans-serif" font-size="14" lengthAdjust="spacing" textLength="64" x="742.5" y="435.9951">RUNNING</text><text fill="#000000" font-family="sans-serif" font-size="14" lengthAdjust="spacing" textLength="63" x="742.5" y="452.292">PENDING</text><text fill="#000000" font-family="sans-serif" font-size="14" lengthAdjust="spacing" textLength="63" x="742.5" y="468.5889">FINISHED</text><text fill="#000000" font-family="sans-serif" font-size="14" lengthAdjust="spacing" textLength="53" x="742.5" y="484.8857">TUNING</text><line style="stroke:#181818;stroke-width:0.5;" x1="737.5" x2="889.5" y1="492.1875" y2="492.1875"/></g><!--MD5=[248f897e4bb16c2722904b15df30346f]
class Logger--><g id="elem_Logger"><rect codeLine="78" fill="#F1F1F1" height="64.2969" id="Logger" rx="2.5" ry="2.5" style="stroke:#181818;stroke-width:0.5;" width="114" x="925.5" y="411.5"/><ellipse cx="955.8" cy="427.5" fill="#ADD1B2" rx="11" ry="11" style="stroke:#181818;stroke-width:1.0;"/><path d="M958.7688,433.1406 Q958.1906,433.4375 957.55,433.5781 Q956.9094,433.7344 956.2063,433.7344 Q953.7063,433.7344 952.3781,432.0938 Q951.0656,430.4375 951.0656,427.3125 Q951.0656,424.1875 952.3781,422.5313 Q953.7063,420.875 956.2063,420.875 Q956.9094,420.875 957.55,421.0313 Q958.2063,421.1875 958.7688,421.4844 L958.7688,424.2031 Q958.1438,423.625 957.55,423.3594 Q956.9563,423.0781 956.3313,423.0781 Q954.9875,423.0781 954.3,424.1563 Q953.6125,425.2188 953.6125,427.3125 Q953.6125,429.4063 954.3,430.4844 Q954.9875,431.5469 956.3313,431.5469 Q956.9563,431.5469 957.55,431.2813 Q958.1438,431 958.7688,430.4219 L958.7688,433.1406 Z " fill="#000000"/><text fill="#000000" font-family="sans-serif" font-size="14" lengthAdjust="spacing" textLength="48" x="973.2" y="432.3467">Logger</text><line style="stroke:#181818;stroke-width:0.5;" x1="926.5" x2="1038.5" y1="443.5" y2="443.5"/><ellipse cx="936.5" cy="457.1484" fill="none" rx="3" ry="3" style="stroke:#038048;stroke-width:1.0;"/><text fill="#000000" font-family="sans-serif" font-size="14" lengthAdjust="spacing" textLength="88" x="945.5" y="460.4951">name: String</text><line style="stroke:#181818;stroke-width:0.5;" x1="926.5" x2="1038.5" y1="467.7969" y2="467.7969"/></g><!--MD5=[281bb5dd1d30cabf93bd4ed98cd3f817]
class ReportGenerator--><g id="elem_ReportGenerator"><rect codeLine="91" fill="#F1F1F1" height="80.5938" id="ReportGenerator" rx="2.5" ry="2.5" style="stroke:#181818;stroke-width:0.5;" width="238" x="1074.5" y="403"/><ellipse cx="1130.75" cy="419" fill="#ADD1B2" rx="11" ry="11" style="stroke:#181818;stroke-width:1.0;"/><path d="M1133.7188,424.6406 Q1133.1406,424.9375 1132.5,425.0781 Q1131.8594,425.2344 1131.1563,425.2344 Q1128.6563,425.2344 1127.3281,423.5938 Q1126.0156,421.9375 1126.0156,418.8125 Q1126.0156,415.6875 1127.3281,414.0313 Q1128.6563,412.375 1131.1563,412.375 Q1131.8594,412.375 1132.5,412.5313 Q1133.1563,412.6875 1133.7188,412.9844 L1133.7188,415.7031 Q1133.0938,415.125 1132.5,414.8594 Q1131.9063,414.5781 1131.2813,414.5781 Q1129.9375,414.5781 1129.25,415.6563 Q1128.5625,416.7188 1128.5625,418.8125 Q1128.5625,420.9063 1129.25,421.9844 Q1129.9375,423.0469 1131.2813,423.0469 Q1131.9063,423.0469 1132.5,422.7813 Q1133.0938,422.5 1133.7188,421.9219 L1133.7188,424.6406 Z " fill="#000000"/><text fill="#000000" font-family="sans-serif" font-size="14" lengthAdjust="spacing" textLength="117" x="1151.25" y="423.8467">ReportGenerator</text><line style="stroke:#181818;stroke-width:0.5;" x1="1075.5" x2="1311.5" y1="435" y2="435"/><ellipse cx="1085.5" cy="448.6484" fill="none" rx="3" ry="3" style="stroke:#038048;stroke-width:1.0;"/><text fill="#000000" font-family="sans-serif" font-size="14" lengthAdjust="spacing" textLength="148" x="1094.5" y="451.9951">formats: Set&lt;String&gt;</text><ellipse cx="1085.5" cy="464.9453" fill="none" rx="3" ry="3" style="stroke:#038048;stroke-width:1.0;"/><text fill="#000000" font-family="sans-serif" font-size="14" lengthAdjust="spacing" textLength="212" x="1094.5" y="468.292">metrics_to_show: List&lt;String&gt;</text><line style="stroke:#181818;stroke-width:0.5;" x1="1075.5" x2="1311.5" y1="475.5938" y2="475.5938"/></g><!--MD5=[310c03e1fef7fa88f24398ca912a8790]
class RLController--><g id="elem_RLController"><rect codeLine="69" fill="#F1F1F1" height="64.2969" id="RLController" rx="2.5" ry="2.5" style="stroke:#181818;stroke-width:0.5;" width="137" x="525" y="601.5"/><ellipse cx="549.45" cy="617.5" fill="#ADD1B2" rx="11" ry="11" style="stroke:#181818;stroke-width:1.0;"/><path d="M552.4188,623.1406 Q551.8406,623.4375 551.2,623.5781 Q550.5594,623.7344 549.8563,623.7344 Q547.3563,623.7344 546.0281,622.0938 Q544.7156,620.4375 544.7156,617.3125 Q544.7156,614.1875 546.0281,612.5313 Q547.3563,610.875 549.8563,610.875 Q550.5594,610.875 551.2,611.0313 Q551.8563,611.1875 552.4188,611.4844 L552.4188,614.2031 Q551.7938,613.625 551.2,613.3594 Q550.6063,613.0781 549.9813,613.0781 Q548.6375,613.0781 547.95,614.1563 Q547.2625,615.2188 547.2625,617.3125 Q547.2625,619.4063 547.95,620.4844 Q548.6375,621.5469 549.9813,621.5469 Q550.6063,621.5469 551.2,621.2813 Q551.7938,621 552.4188,620.4219 L552.4188,623.1406 Z " fill="#000000"/><text fill="#000000" font-family="sans-serif" font-size="14" lengthAdjust="spacing" textLength="84" x="565.55" y="622.3467">RLController</text><line style="stroke:#181818;stroke-width:0.5;" x1="526" x2="661" y1="633.5" y2="633.5"/><ellipse cx="536" cy="647.1484" fill="none" rx="3" ry="3" style="stroke:#038048;stroke-width:1.0;"/><text fill="#000000" font-family="sans-serif" font-size="14" lengthAdjust="spacing" textLength="111" x="545" y="650.4951">model: RLModel</text><line style="stroke:#181818;stroke-width:0.5;" x1="526" x2="661" y1="657.7969" y2="657.7969"/></g><!--MD5=[ab4844d6a963a76d6711976405d51c6a]
class RuleBasedController--><g id="elem_RuleBasedController"><rect codeLine="73" fill="#F1F1F1" height="64.2969" id="RuleBasedController" rx="2.5" ry="2.5" style="stroke:#181818;stroke-width:0.5;" width="174" x="697.5" y="601.5"/><ellipse cx="712.5" cy="617.5" fill="#ADD1B2" rx="11" ry="11" style="stroke:#181818;stroke-width:1.0;"/><path d="M715.4688,623.1406 Q714.8906,623.4375 714.25,623.5781 Q713.6094,623.7344 712.9063,623.7344 Q710.4063,623.7344 709.0781,622.0938 Q707.7656,620.4375 707.7656,617.3125 Q707.7656,614.1875 709.0781,612.5313 Q710.4063,610.875 712.9063,610.875 Q713.6094,610.875 714.25,611.0313 Q714.9063,611.1875 715.4688,611.4844 L715.4688,614.2031 Q714.8438,613.625 714.25,613.3594 Q713.6563,613.0781 713.0313,613.0781 Q711.6875,613.0781 711,614.1563 Q710.3125,615.2188 710.3125,617.3125 Q710.3125,619.4063 711,620.4844 Q711.6875,621.5469 713.0313,621.5469 Q713.6563,621.5469 714.25,621.2813 Q714.8438,621 715.4688,620.4219 L715.4688,623.1406 Z " fill="#000000"/><text fill="#000000" font-family="sans-serif" font-size="14" lengthAdjust="spacing" textLength="142" x="726.5" y="622.3467">RuleBasedController</text><line style="stroke:#181818;stroke-width:0.5;" x1="698.5" x2="870.5" y1="633.5" y2="633.5"/><ellipse cx="708.5" cy="647.1484" fill="none" rx="3" ry="3" style="stroke:#038048;stroke-width:1.0;"/><text fill="#000000" font-family="sans-serif" font-size="14" lengthAdjust="spacing" textLength="73" x="717.5" y="650.4951">rules: TBD</text><line style="stroke:#181818;stroke-width:0.5;" x1="698.5" x2="870.5" y1="657.7969" y2="657.7969"/></g><!--MD5=[fde78261c83df273810042a88c770c4d]
class LogLevel--><g id="elem_LogLevel"><rect codeLine="82" fill="#F1F1F1" height="96.8906" id="LogLevel" rx="2.5" ry="2.5" style="stroke:#181818;stroke-width:0.5;" width="92" x="936.5" y="585"/><ellipse cx="951.5" cy="601" fill="#EB937F" rx="11" ry="11" style="stroke:#181818;stroke-width:1.0;"/><path d="M955.6094,607 L947.8906,607 L947.8906,594.6094 L955.6094,594.6094 L955.6094,596.7656 L950.3438,596.7656 L950.3438,599.4375 L955.1094,599.4375 L955.1094,601.5938 L950.3438,601.5938 L950.3438,604.8438 L955.6094,604.8438 L955.6094,607 Z " fill="#000000"/><text fill="#000000" font-family="sans-serif" font-size="14" lengthAdjust="spacing" textLength="60" x="965.5" y="605.8467">LogLevel</text><line style="stroke:#181818;stroke-width:0.5;" x1="937.5" x2="1027.5" y1="617" y2="617"/><text fill="#000000" font-family="sans-serif" font-size="14" lengthAdjust="spacing" textLength="51" x="942.5" y="633.9951">DEBUG</text><text fill="#000000" font-family="sans-serif" font-size="14" lengthAdjust="spacing" textLength="32" x="942.5" y="650.292">INFO</text><text fill="#000000" font-family="sans-serif" font-size="14" lengthAdjust="spacing" textLength="50" x="942.5" y="666.5889">ERROR</text><line style="stroke:#181818;stroke-width:0.5;" x1="937.5" x2="1027.5" y1="673.8906" y2="673.8906"/></g><!--MD5=[f00dbe8c0302c6aec2cb26b3c659c8fc]
class Report--><g id="elem_Report"><rect codeLine="96" fill="#F1F1F1" height="113.1875" id="Report" rx="2.5" ry="2.5" style="stroke:#181818;stroke-width:0.5;" width="194" x="1096.5" y="577"/><ellipse cx="1165.75" cy="593" fill="#ADD1B2" rx="11" ry="11" style="stroke:#181818;stroke-width:1.0;"/><path d="M1168.7188,598.6406 Q1168.1406,598.9375 1167.5,599.0781 Q1166.8594,599.2344 1166.1563,599.2344 Q1163.6563,599.2344 1162.3281,597.5938 Q1161.0156,595.9375 1161.0156,592.8125 Q1161.0156,589.6875 1162.3281,588.0313 Q1163.6563,586.375 1166.1563,586.375 Q1166.8594,586.375 1167.5,586.5313 Q1168.1563,586.6875 1168.7188,586.9844 L1168.7188,589.7031 Q1168.0938,589.125 1167.5,588.8594 Q1166.9063,588.5781 1166.2813,588.5781 Q1164.9375,588.5781 1164.25,589.6563 Q1163.5625,590.7188 1163.5625,592.8125 Q1163.5625,594.9063 1164.25,595.9844 Q1164.9375,597.0469 1166.2813,597.0469 Q1166.9063,597.0469 1167.5,596.7813 Q1168.0938,596.5 1168.7188,595.9219 L1168.7188,598.6406 Z " fill="#000000"/><text fill="#000000" font-family="sans-serif" font-size="14" lengthAdjust="spacing" textLength="47" x="1186.25" y="597.8467">Report</text><line style="stroke:#181818;stroke-width:0.5;" x1="1097.5" x2="1289.5" y1="609" y2="609"/><ellipse cx="1107.5" cy="622.6484" fill="none" rx="3" ry="3" style="stroke:#038048;stroke-width:1.0;"/><text fill="#000000" font-family="sans-serif" font-size="14" lengthAdjust="spacing" textLength="138" x="1116.5" y="625.9951">summary_stats: dict</text><ellipse cx="1107.5" cy="638.9453" fill="none" rx="3" ry="3" style="stroke:#038048;stroke-width:1.0;"/><text fill="#000000" font-family="sans-serif" font-size="14" lengthAdjust="spacing" textLength="131" x="1116.5" y="642.292">controller_info: dict</text><ellipse cx="1107.5" cy="655.2422" fill="none" rx="3" ry="3" style="stroke:#038048;stroke-width:1.0;"/><text fill="#000000" font-family="sans-serif" font-size="14" lengthAdjust="spacing" textLength="153" x="1116.5" y="658.5889">environment_info: dict</text><ellipse cx="1107.5" cy="671.5391" fill="none" rx="3" ry="3" style="stroke:#038048;stroke-width:1.0;"/><text fill="#000000" font-family="sans-serif" font-size="14" lengthAdjust="spacing" textLength="168" x="1116.5" y="674.8857">generated_at: DateTime</text><line style="stroke:#181818;stroke-width:0.5;" x1="1097.5" x2="1289.5" y1="682.1875" y2="682.1875"/></g><!--MD5=[a2dcada079002ac9df36d65e23afa48a]
link SinergymProvider to SinergymEnvironment--><g id="link_SinergymProvider_SinergymEnvironment"><path codeLine="25" d="M101.13,467.55 C100.58,501.94 99.55,566.63 98.96,603.96 " fill="none" id="SinergymProvider-to-SinergymEnvironment" style="stroke:#181818;stroke-width:1.0;"/><polygon fill="#181818" points="98.87,609.26,103.0237,600.3299,98.9557,604.2607,95.0249,600.1928,98.87,609.26" style="stroke:#181818;stroke-width:1.0;"/><text fill="#000000" font-family="sans-serif" font-size="13" lengthAdjust="spacing" textLength="126" x="101.5" y="543.0669">creates and returns</text></g><!--MD5=[427581b306c1752b663033e5541eca56]
link SinergymEnvironment to IEnvironment--><g id="link_SinergymEnvironment_IEnvironment"><path codeLine="26" d="M130.52,657.52 C160.2,678.85 205.41,711.36 243.71,738.89 " fill="none" id="SinergymEnvironment-to-IEnvironment" style="stroke:#181818;stroke-width:1.0;stroke-dasharray:7.0,7.0;"/><polygon fill="none" points="248.03,733.38,260.18,750.73,239.86,744.74,248.03,733.38" style="stroke:#181818;stroke-width:1.0;"/></g><!--MD5=[beeb61bfada330b04f48bbbcb1543309]
reverse link EnvironmentProvider to SinergymProvider--><g id="link_EnvironmentProvider_SinergymProvider"><path codeLine="27" d="M246.44,292.19 C208.07,331.99 153.99,388.07 123.91,419.26 " fill="none" id="EnvironmentProvider-backto-SinergymProvider" style="stroke:#181818;stroke-width:1.0;stroke-dasharray:7.0,7.0;"/><polygon fill="none" points="241.63,287.09,260.55,277.56,251.71,296.81,241.63,287.09" style="stroke:#181818;stroke-width:1.0;"/></g><!--MD5=[f89f56c3f58488c464c31da1d9197c47]
link ExperimentManager to Experiment--><g id="link_ExperimentManager_Experiment"><path codeLine="54" d="M604.51,104.18 C629.18,126.37 658.95,153.15 685.84,177.34 " fill="none" id="ExperimentManager-to-Experiment" style="stroke:#181818;stroke-width:1.0;"/><polygon fill="#181818" points="689.78,180.89,685.7491,171.9038,686.0572,177.5523,680.4087,177.8604,689.78,180.89" style="stroke:#181818;stroke-width:1.0;"/><text fill="#000000" font-family="sans-serif" font-size="13" lengthAdjust="spacing" textLength="108" x="657.5" y="147.0669">creates and runs</text><text fill="#000000" font-family="sans-serif" font-size="13" lengthAdjust="spacing" textLength="8" x="603.0957" y="123.8124">1</text><text fill="#000000" font-family="sans-serif" font-size="13" lengthAdjust="spacing" textLength="7" x="674.6622" y="170.0506">*</text></g><!--MD5=[d6fd716591f8730834a59ce0902db083]
link ExperimentManager to EnvironmentProvider--><g id="link_ExperimentManager_EnvironmentProvider"><path codeLine="55" d="M485.3,104.18 C439.31,137.31 379.11,180.67 337.88,210.37 " fill="none" id="ExperimentManager-to-EnvironmentProvider" style="stroke:#181818;stroke-width:1.0;"/><polygon fill="#181818" points="333.7,213.39,343.3386,211.3658,337.7541,210.4636,338.6563,204.8791,333.7,213.39" style="stroke:#181818;stroke-width:1.0;"/><text fill="#000000" font-family="sans-serif" font-size="13" lengthAdjust="spacing" textLength="56" x="438.5" y="147.0669">registers</text><text fill="#000000" font-family="sans-serif" font-size="13" lengthAdjust="spacing" textLength="8" x="467.8669" y="123.8124">1</text><text fill="#000000" font-family="sans-serif" font-size="13" lengthAdjust="spacing" textLength="7" x="334.8881" y="202.2704">*</text></g><!--MD5=[15d7e4be280620cadd89e755b7ef981a]
link Experiment to IEnvironment--><g id="link_Experiment_IEnvironment"><path codeLine="56" d="M672.78,271.64 C613.82,292.99 539.04,329.51 494.5,387 C409.74,496.43 491.88,570.23 422.5,690 C410.09,711.43 391.69,731.06 373.63,747.18 " fill="none" id="Experiment-to-IEnvironment" style="stroke:#181818;stroke-width:1.0;"/><polygon fill="#181818" points="369.54,750.78,378.9417,747.8461,373.2967,747.4804,373.6624,741.8354,369.54,750.78" style="stroke:#181818;stroke-width:1.0;"/><text fill="#000000" font-family="sans-serif" font-size="13" lengthAdjust="spacing" textLength="23" x="454.5" y="543.0669">has</text><text fill="#000000" font-family="sans-serif" font-size="13" lengthAdjust="spacing" textLength="7" x="657.9408" y="270.2937">*</text><text fill="#000000" font-family="sans-serif" font-size="13" lengthAdjust="spacing" textLength="8" x="369.8279" y="739.9051">1</text></g><!--MD5=[260609423ace49fa2552dc7cd20adac5]
link Experiment to Controller--><g id="link_Experiment_Controller"><path codeLine="57" d="M710.5,310.14 C685.24,342.28 655.54,380.08 634.36,407.04 " fill="none" id="Experiment-to-Controller" style="stroke:#181818;stroke-width:1.0;"/><polygon fill="#181818" points="631.04,411.27,639.7449,406.663,634.1285,407.3379,633.4536,401.7215,631.04,411.27" style="stroke:#181818;stroke-width:1.0;"/><text fill="#000000" font-family="sans-serif" font-size="13" lengthAdjust="spacing" textLength="23" x="684.5" y="353.0669">has</text><text fill="#000000" font-family="sans-serif" font-size="13" lengthAdjust="spacing" textLength="7" x="697.3141" y="330.5278">*</text><text fill="#000000" font-family="sans-serif" font-size="13" lengthAdjust="spacing" textLength="8" x="627.0838" y="400.4989">1</text></g><!--MD5=[a35bbebc8dc0557ecd3f3dcb70c696f7]
link Experiment to Logger--><g id="link_Experiment_Logger"><path codeLine="58" d="M833.39,310.03 C844.82,320.04 856.49,330.29 867.5,340 C893.09,362.58 921.75,388.12 944.05,408.06 " fill="none" id="Experiment-to-Logger" style="stroke:#181818;stroke-width:1.0;"/><polygon fill="#181818" points="947.86,411.46,943.8099,402.4824,944.1301,408.1302,938.4823,408.4503,947.86,411.46" style="stroke:#181818;stroke-width:1.0;"/><text fill="#000000" font-family="sans-serif" font-size="13" lengthAdjust="spacing" textLength="43" x="887.5" y="353.0669">logs to</text><text fill="#000000" font-family="sans-serif" font-size="13" lengthAdjust="spacing" textLength="7" x="834.4132" y="330.405">*</text><text fill="#000000" font-family="sans-serif" font-size="13" lengthAdjust="spacing" textLength="8" x="931.8905" y="400.3549">1</text></g><!--MD5=[f8212b782ca955b7bfd71cf52e00eccd]
link Experiment to ExperimentStatus--><g id="link_Experiment_ExperimentStatus"><path codeLine="59" d="M777.71,310.14 C783.92,333.1 790.91,358.95 797.05,381.67 " fill="none" id="Experiment-to-ExperimentStatus" style="stroke:#181818;stroke-width:1.0;"/><polygon fill="#181818" points="798.43,386.77,799.9455,377.0384,797.1265,381.9429,792.2221,379.124,798.43,386.77" style="stroke:#181818;stroke-width:1.0;"/><text fill="#000000" font-family="sans-serif" font-size="13" lengthAdjust="spacing" textLength="67" x="791.5" y="353.0669">has status</text><text fill="#000000" font-family="sans-serif" font-size="13" lengthAdjust="spacing" textLength="7" x="772.2952" y="330.5278">*</text><text fill="#000000" font-family="sans-serif" font-size="13" lengthAdjust="spacing" textLength="8" x="788.1058" y="376.0055">1</text></g><!--MD5=[08c170ba83c76afb66df21f5152b0ed9]
link Experiment to ReportGenerator--><g id="link_Experiment_ReportGenerator"><path codeLine="60" d="M848.12,286.16 C921.63,319.44 1026.31,366.82 1101.12,400.68 " fill="none" id="Experiment-to-ReportGenerator" style="stroke:#181818;stroke-width:1.0;"/><polygon fill="#181818" points="1106.01,402.9,1099.4528,395.5513,1101.4528,400.8428,1096.1613,402.8429,1106.01,402.9" style="stroke:#181818;stroke-width:1.0;"/><text fill="#000000" font-family="sans-serif" font-size="13" lengthAdjust="spacing" textLength="115" x="1004.5" y="353.0669">generates reports</text><text fill="#000000" font-family="sans-serif" font-size="13" lengthAdjust="spacing" textLength="7" x="855.9506" y="286.0615">*</text><text fill="#000000" font-family="sans-serif" font-size="13" lengthAdjust="spacing" textLength="8" x="1082.857" y="392.045">1</text></g><!--MD5=[f7ddc21ae6906ace6935927122186f32]
link ModelicaProvider to ModelicaEnvironment--><g id="link_ModelicaProvider_ModelicaEnvironment"><path codeLine="61" d="M287.35,467.86 C285.12,488.74 283.21,520.1 287.5,547 C290.65,566.71 297.63,588.05 303.83,604.47 " fill="none" id="ModelicaProvider-to-ModelicaEnvironment" style="stroke:#181818;stroke-width:1.0;"/><polygon fill="#181818" points="305.73,609.41,306.2265,599.5737,303.9322,604.7444,298.7615,602.4501,305.73,609.41" style="stroke:#181818;stroke-width:1.0;"/><text fill="#000000" font-family="sans-serif" font-size="13" lengthAdjust="spacing" textLength="126" x="288.5" y="543.0669">creates and returns</text></g><!--MD5=[b588e3acea36d629e8f81757ba296e5e]
link ModelicaEnvironment to IEnvironment--><g id="link_ModelicaEnvironment_IEnvironment"><path codeLine="62" d="M315.5,657.52 C315.5,676.75 315.5,705.05 315.5,730.61 " fill="none" id="ModelicaEnvironment-to-IEnvironment" style="stroke:#181818;stroke-width:1.0;stroke-dasharray:7.0,7.0;"/><polygon fill="none" points="322.5,730.73,315.5,750.73,308.5,730.73,322.5,730.73" style="stroke:#181818;stroke-width:1.0;"/></g><!--MD5=[e9923145dee7ea4c721caa324647c982]
reverse link EnvironmentProvider to ModelicaProvider--><g id="link_EnvironmentProvider_ModelicaProvider"><path codeLine="63" d="M290.5,297.82 C290.5,337.13 290.5,389.52 290.5,419.26 " fill="none" id="EnvironmentProvider-backto-ModelicaProvider" style="stroke:#181818;stroke-width:1.0;stroke-dasharray:7.0,7.0;"/><polygon fill="none" points="283.5,297.56,290.5,277.56,297.5,297.56,283.5,297.56" style="stroke:#181818;stroke-width:1.0;"/></g><!--MD5=[0517d85793559f306b0467141ce27d52]
reverse link Controller to RLController--><g id="link_Controller_RLController"><path codeLine="66" d="M602.96,495.66 C600.62,529.47 597.64,572.68 595.65,601.41 " fill="none" id="Controller-backto-RLController" style="stroke:#181818;stroke-width:1.0;stroke-dasharray:7.0,7.0;"/><polygon fill="none" points="595.99,495.01,604.35,475.54,609.96,495.98,595.99,495.01" style="stroke:#181818;stroke-width:1.0;"/></g><!--MD5=[99b10bb40453c6016a9212ef8bf9c8ff]
reverse link Controller to RuleBasedController--><g id="link_Controller_RuleBasedController"><path codeLine="67" d="M650.01,490.45 C682.65,524.92 726.45,571.19 755.06,601.41 " fill="none" id="Controller-backto-RuleBasedController" style="stroke:#181818;stroke-width:1.0;stroke-dasharray:7.0,7.0;"/><polygon fill="none" points="644.56,494.88,635.89,475.54,654.73,485.25,644.56,494.88" style="stroke:#181818;stroke-width:1.0;"/></g><!--MD5=[febcdca18e2735de6962fc81ac92c999]
link Logger to LogLevel--><g id="link_Logger_LogLevel"><path codeLine="88" d="M982.5,475.54 C982.5,503.76 982.5,545.98 982.5,579.52 " fill="none" id="Logger-to-LogLevel" style="stroke:#181818;stroke-width:1.0;"/><polygon fill="#181818" points="982.5,584.83,986.5,575.83,982.5,579.83,978.5,575.83,982.5,584.83" style="stroke:#181818;stroke-width:1.0;"/><text fill="#000000" font-family="sans-serif" font-size="13" lengthAdjust="spacing" textLength="23" x="983.5" y="543.0669">has</text><text fill="#000000" font-family="sans-serif" font-size="13" lengthAdjust="spacing" textLength="7" x="974.7781" y="495.7451">*</text><text fill="#000000" font-family="sans-serif" font-size="13" lengthAdjust="spacing" textLength="8" x="973.9375" y="574.015">1</text></g><!--MD5=[3bc8afd3ea5550df26ae57e4087ab58b]
link ReportGenerator to Report--><g id="link_ReportGenerator_Report"><path codeLine="103" d="M1193.5,484.37 C1193.5,509.74 1193.5,543.08 1193.5,571.71 " fill="none" id="ReportGenerator-to-Report" style="stroke:#181818;stroke-width:1.0;"/><polygon fill="#181818" points="1193.5,577,1197.5,568,1193.5,572,1189.5,568,1193.5,577" style="stroke:#181818;stroke-width:1.0;"/><text fill="#000000" font-family="sans-serif" font-size="13" lengthAdjust="spacing" textLength="48" x="1194.5" y="543.0669">creates</text><text fill="#000000" font-family="sans-serif" font-size="13" lengthAdjust="spacing" textLength="8" x="1184.9125" y="503.5808">1</text><text fill="#000000" font-family="sans-serif" font-size="13" lengthAdjust="spacing" textLength="7" x="1186.0516" y="565.8634">*</text></g><!--MD5=[9feff0ccbd4e0e83a6ce4ab5d129b868]
@startuml
' Interfaces
interface IEnvironment {
  + reset(): State
  + step(action: Action): (State, Reward, bool, dict)
}

interface Controller {
  + getAction(state): Action
}

' Abstract factory for environments
interface EnvironmentProvider {
  + create_environment(config_path: String): IEnvironment
}

' ───── Sinergym Concrete provider and environment ─────
class SinergymProvider
class SinergymEnvironment


' ───── Modelica Concrete provider and environment ─────
class ModelicaProvider
class ModelicaEnvironment

SinergymProvider - -> SinergymEnvironment : creates and returns
SinergymEnvironment ..|> IEnvironment
EnvironmentProvider <|.. SinergymProvider

' ───── Orchestration ─────
class ExperimentManager {
  + register_environment_provider(engine: String, provider: EnvironmentProvider)
  + setup_experiments(config_path: String)
  + run_all()
}


class Experiment {
  + engine: string
  + episodes: int
  + seed: int
  + start_time: DateTime
  + finish_time: DateTime
}

enum ExperimentStatus {
  RUNNING
  PENDING
  FINISHED
  TUNING
}



ExperimentManager "1" - -> "*" Experiment : creates and runs
ExperimentManager "1" - -> "*" EnvironmentProvider : registers
Experiment "*" - -> "1" IEnvironment      : has
Experiment "*" - -> "1" Controller        : has
Experiment "*" - -> "1" Logger            : logs to
Experiment "*" - -> "1" ExperimentStatus  : has status
Experiment "*" - -> "1" ReportGenerator   : generates reports
ModelicaProvider - -> ModelicaEnvironment : creates and returns
ModelicaEnvironment ..|> IEnvironment
EnvironmentProvider <|.. ModelicaProvider

' ───── Controllers ─────
Controller <|.. RLController
Controller <|.. RuleBasedController

class RLController {
  + model: RLModel
}

class RuleBasedController {
  + rules: TBD
}

' ───── Logging ─────
class Logger {
  + name: String
}

enum LogLevel {
  DEBUG
  INFO
  ERROR
}

Logger "*" - -> "1" LogLevel : has

' ───── Reporting ─────
class ReportGenerator {
  + formats: Set<String>
  + metrics_to_show: List<String>
}

class Report {
  + summary_stats: dict
  + controller_info: dict
  + environment_info: dict
  + generated_at: DateTime
}

ReportGenerator "1" - -> "*" Report : creates
@enduml

@startuml
interface IEnvironment {
  + reset(): State
  + step(action: Action): (State, Reward, bool, dict)
}

interface Controller {
  + getAction(state): Action
}

interface EnvironmentProvider {
  + create_environment(config_path: String): IEnvironment
}

class SinergymProvider
class SinergymEnvironment


class ModelicaProvider
class ModelicaEnvironment

SinergymProvider - -> SinergymEnvironment : creates and returns
SinergymEnvironment ..|> IEnvironment
EnvironmentProvider <|.. SinergymProvider

class ExperimentManager {
  + register_environment_provider(engine: String, provider: EnvironmentProvider)
  + setup_experiments(config_path: String)
  + run_all()
}


class Experiment {
  + engine: string
  + episodes: int
  + seed: int
  + start_time: DateTime
  + finish_time: DateTime
}

enum ExperimentStatus {
  RUNNING
  PENDING
  FINISHED
  TUNING
}



ExperimentManager "1" - -> "*" Experiment : creates and runs
ExperimentManager "1" - -> "*" EnvironmentProvider : registers
Experiment "*" - -> "1" IEnvironment      : has
Experiment "*" - -> "1" Controller        : has
Experiment "*" - -> "1" Logger            : logs to
Experiment "*" - -> "1" ExperimentStatus  : has status
Experiment "*" - -> "1" ReportGenerator   : generates reports
ModelicaProvider - -> ModelicaEnvironment : creates and returns
ModelicaEnvironment ..|> IEnvironment
EnvironmentProvider <|.. ModelicaProvider

Controller <|.. RLController
Controller <|.. RuleBasedController

class RLController {
  + model: RLModel
}

class RuleBasedController {
  + rules: TBD
}

class Logger {
  + name: String
}

enum LogLevel {
  DEBUG
  INFO
  ERROR
}

Logger "*" - -> "1" LogLevel : has

class ReportGenerator {
  + formats: Set<String>
  + metrics_to_show: List<String>
}

class Report {
  + summary_stats: dict
  + controller_info: dict
  + environment_info: dict
  + generated_at: DateTime
}

ReportGenerator "1" - -> "*" Report : creates
@enduml

PlantUML version 1.2022.7(Mon Aug 22 17:01:30 UTC 2022)
(GPL source distribution)
Java Runtime: OpenJDK Runtime Environment
JVM: OpenJDK 64-Bit Server VM
Default Encoding: UTF-8
Language: en
Country: null
--></g></svg>