<?xml version="1.0" encoding="UTF-8" standalone="no"?><svg xmlns="http://www.w3.org/2000/svg" xmlns:xlink="http://www.w3.org/1999/xlink" contentStyleType="text/css" height="838px" preserveAspectRatio="none" style="width:1806px;height:838px;background:#FFFFFF;" version="1.1" viewBox="0 0 1806 838" width="1806px" zoomAndPan="magnify"><defs/><g><!--MD5=[e3c565211456ad2dabb0f70601bb8c20]
class IEnvironment--><g id="elem_IEnvironment"><rect codeLine="2" fill="#F1F1F1" height="80.5938" id="IEnvironment" rx="2.5" ry="2.5" style="stroke:#181818;stroke-width:0.5;" width="347" x="348" y="751"/><ellipse cx="472.25" cy="767" fill="#B4A7E5" rx="11" ry="11" style="stroke:#181818;stroke-width:1.0;"/><path d="M468.1719,762.7656 L468.1719,760.6094 L475.5625,760.6094 L475.5625,762.7656 L473.0938,762.7656 L473.0938,770.8438 L475.5625,770.8438 L475.5625,773 L468.1719,773 L468.1719,770.8438 L470.6406,770.8438 L470.6406,762.7656 L468.1719,762.7656 Z " fill="#000000"/><text fill="#000000" font-family="sans-serif" font-size="14" font-style="italic" lengthAdjust="spacing" textLength="90" x="492.75" y="771.8467">IEnvironment</text><line style="stroke:#181818;stroke-width:0.5;" x1="349" x2="694" y1="783" y2="783"/><line style="stroke:#181818;stroke-width:0.5;" x1="349" x2="694" y1="791" y2="791"/><ellipse cx="359" cy="804.6484" fill="#84BE84" rx="3" ry="3" style="stroke:#038048;stroke-width:1.0;"/><text fill="#000000" font-family="sans-serif" font-size="14" lengthAdjust="spacing" textLength="91" x="368" y="807.9951">reset(): State</text><ellipse cx="359" cy="820.9453" fill="#84BE84" rx="3" ry="3" style="stroke:#038048;stroke-width:1.0;"/><text fill="#000000" font-family="sans-serif" font-size="14" lengthAdjust="spacing" textLength="321" x="368" y="824.292">step(action: Action): (State, Reward, bool, dict)</text></g><!--MD5=[1d7ba1c7002d54515419844fbd155368]
class Controller--><g id="elem_Controller"><rect codeLine="7" fill="#F1F1F1" height="64.2969" id="Controller" rx="2.5" ry="2.5" style="stroke:#181818;stroke-width:0.5;" width="189" x="999" y="411.5"/><ellipse cx="1055.75" cy="427.5" fill="#B4A7E5" rx="11" ry="11" style="stroke:#181818;stroke-width:1.0;"/><path d="M1051.6719,423.2656 L1051.6719,421.1094 L1059.0625,421.1094 L1059.0625,423.2656 L1056.5938,423.2656 L1056.5938,431.3438 L1059.0625,431.3438 L1059.0625,433.5 L1051.6719,433.5 L1051.6719,431.3438 L1054.1406,431.3438 L1054.1406,423.2656 L1051.6719,423.2656 Z " fill="#000000"/><text fill="#000000" font-family="sans-serif" font-size="14" font-style="italic" lengthAdjust="spacing" textLength="67" x="1076.25" y="432.3467">Controller</text><line style="stroke:#181818;stroke-width:0.5;" x1="1000" x2="1187" y1="443.5" y2="443.5"/><line style="stroke:#181818;stroke-width:0.5;" x1="1000" x2="1187" y1="451.5" y2="451.5"/><ellipse cx="1010" cy="465.1484" fill="#84BE84" rx="3" ry="3" style="stroke:#038048;stroke-width:1.0;"/><text fill="#000000" font-family="sans-serif" font-size="14" lengthAdjust="spacing" textLength="163" x="1019" y="468.4951">getAction(state): Action</text></g><!--MD5=[a7d4a2182202304e5f98f7b78458dfe9]
class EnvironmentProvider--><g id="elem_EnvironmentProvider"><rect codeLine="12" fill="#F1F1F1" height="64.2969" id="EnvironmentProvider" rx="2.5" ry="2.5" style="stroke:#181818;stroke-width:0.5;" width="402" x="200.5" y="213.5"/><ellipse cx="325.75" cy="229.5" fill="#B4A7E5" rx="11" ry="11" style="stroke:#181818;stroke-width:1.0;"/><path d="M321.6719,225.2656 L321.6719,223.1094 L329.0625,223.1094 L329.0625,225.2656 L326.5938,225.2656 L326.5938,233.3438 L329.0625,233.3438 L329.0625,235.5 L321.6719,235.5 L321.6719,233.3438 L324.1406,233.3438 L324.1406,225.2656 L321.6719,225.2656 Z " fill="#000000"/><text fill="#000000" font-family="sans-serif" font-size="14" font-style="italic" lengthAdjust="spacing" textLength="143" x="346.25" y="234.3467">EnvironmentProvider</text><line style="stroke:#181818;stroke-width:0.5;" x1="201.5" x2="601.5" y1="245.5" y2="245.5"/><line style="stroke:#181818;stroke-width:0.5;" x1="201.5" x2="601.5" y1="253.5" y2="253.5"/><ellipse cx="211.5" cy="267.1484" fill="#84BE84" rx="3" ry="3" style="stroke:#038048;stroke-width:1.0;"/><text fill="#000000" font-family="sans-serif" font-size="14" lengthAdjust="spacing" textLength="376" x="220.5" y="270.4951">create_environment(config_path: String): IEnvironment</text></g><!--MD5=[e29f668360d013b759c007157b858626]
class SinergymProvider--><g id="elem_SinergymProvider"><rect codeLine="17" fill="#F1F1F1" height="48" id="SinergymProvider" rx="2.5" ry="2.5" style="stroke:#181818;stroke-width:0.5;" width="152" x="325.5" y="419.5"/><ellipse cx="340.5" cy="435.5" fill="#ADD1B2" rx="11" ry="11" style="stroke:#181818;stroke-width:1.0;"/><path d="M343.4688,441.1406 Q342.8906,441.4375 342.25,441.5781 Q341.6094,441.7344 340.9063,441.7344 Q338.4063,441.7344 337.0781,440.0938 Q335.7656,438.4375 335.7656,435.3125 Q335.7656,432.1875 337.0781,430.5313 Q338.4063,428.875 340.9063,428.875 Q341.6094,428.875 342.25,429.0313 Q342.9063,429.1875 343.4688,429.4844 L343.4688,432.2031 Q342.8438,431.625 342.25,431.3594 Q341.6563,431.0781 341.0313,431.0781 Q339.6875,431.0781 339,432.1563 Q338.3125,433.2188 338.3125,435.3125 Q338.3125,437.4063 339,438.4844 Q339.6875,439.5469 341.0313,439.5469 Q341.6563,439.5469 342.25,439.2813 Q342.8438,439 343.4688,438.4219 L343.4688,441.1406 Z " fill="#000000"/><text fill="#000000" font-family="sans-serif" font-size="14" lengthAdjust="spacing" textLength="120" x="354.5" y="440.3467">SinergymProvider</text><line style="stroke:#181818;stroke-width:0.5;" x1="326.5" x2="476.5" y1="451.5" y2="451.5"/><line style="stroke:#181818;stroke-width:0.5;" x1="326.5" x2="476.5" y1="459.5" y2="459.5"/></g><!--MD5=[30d24cbeb4efcde6f77e634e6bd714f2]
class SinergymEnvironment--><g id="elem_SinergymEnvironment"><rect codeLine="18" fill="#F1F1F1" height="48" id="SinergymEnvironment" rx="2.5" ry="2.5" style="stroke:#181818;stroke-width:0.5;" width="183" x="7" y="609.5"/><ellipse cx="22" cy="625.5" fill="#ADD1B2" rx="11" ry="11" style="stroke:#181818;stroke-width:1.0;"/><path d="M24.9688,631.1406 Q24.3906,631.4375 23.75,631.5781 Q23.1094,631.7344 22.4063,631.7344 Q19.9063,631.7344 18.5781,630.0938 Q17.2656,628.4375 17.2656,625.3125 Q17.2656,622.1875 18.5781,620.5313 Q19.9063,618.875 22.4063,618.875 Q23.1094,618.875 23.75,619.0313 Q24.4063,619.1875 24.9688,619.4844 L24.9688,622.2031 Q24.3438,621.625 23.75,621.3594 Q23.1563,621.0781 22.5313,621.0781 Q21.1875,621.0781 20.5,622.1563 Q19.8125,623.2188 19.8125,625.3125 Q19.8125,627.4063 20.5,628.4844 Q21.1875,629.5469 22.5313,629.5469 Q23.1563,629.5469 23.75,629.2813 Q24.3438,629 24.9688,628.4219 L24.9688,631.1406 Z " fill="#000000"/><text fill="#000000" font-family="sans-serif" font-size="14" lengthAdjust="spacing" textLength="151" x="36" y="630.3467">SinergymEnvironment</text><line style="stroke:#181818;stroke-width:0.5;" x1="8" x2="189" y1="641.5" y2="641.5"/><line style="stroke:#181818;stroke-width:0.5;" x1="8" x2="189" y1="649.5" y2="649.5"/></g><!--MD5=[3e96dd66dd64ae2e61f50c8668a6b0a4]
class ExperimentManager--><g id="elem_ExperimentManager"><rect codeLine="28" fill="#F1F1F1" height="96.8906" id="ExperimentManager" rx="2.5" ry="2.5" style="stroke:#181818;stroke-width:0.5;" width="559" x="376" y="7"/><ellipse cx="582.25" cy="23" fill="#ADD1B2" rx="11" ry="11" style="stroke:#181818;stroke-width:1.0;"/><path d="M585.2188,28.6406 Q584.6406,28.9375 584,29.0781 Q583.3594,29.2344 582.6563,29.2344 Q580.1563,29.2344 578.8281,27.5938 Q577.5156,25.9375 577.5156,22.8125 Q577.5156,19.6875 578.8281,18.0313 Q580.1563,16.375 582.6563,16.375 Q583.3594,16.375 584,16.5313 Q584.6563,16.6875 585.2188,16.9844 L585.2188,19.7031 Q584.5938,19.125 584,18.8594 Q583.4063,18.5781 582.7813,18.5781 Q581.4375,18.5781 580.75,19.6563 Q580.0625,20.7188 580.0625,22.8125 Q580.0625,24.9063 580.75,25.9844 Q581.4375,27.0469 582.7813,27.0469 Q583.4063,27.0469 584,26.7813 Q584.5938,26.5 585.2188,25.9219 L585.2188,28.6406 Z " fill="#000000"/><text fill="#000000" font-family="sans-serif" font-size="14" lengthAdjust="spacing" textLength="138" x="602.75" y="27.8467">ExperimentManager</text><line style="stroke:#181818;stroke-width:0.5;" x1="377" x2="934" y1="39" y2="39"/><line style="stroke:#181818;stroke-width:0.5;" x1="377" x2="934" y1="47" y2="47"/><ellipse cx="387" cy="60.6484" fill="#84BE84" rx="3" ry="3" style="stroke:#038048;stroke-width:1.0;"/><text fill="#000000" font-family="sans-serif" font-size="14" lengthAdjust="spacing" textLength="533" x="396" y="63.9951">register_environment_provider(engine: String, provider: EnvironmentProvider)</text><ellipse cx="387" cy="76.9453" fill="#84BE84" rx="3" ry="3" style="stroke:#038048;stroke-width:1.0;"/><text fill="#000000" font-family="sans-serif" font-size="14" lengthAdjust="spacing" textLength="272" x="396" y="80.292">setup_experiments(config_path: String)</text><ellipse cx="387" cy="93.2422" fill="#84BE84" rx="3" ry="3" style="stroke:#038048;stroke-width:1.0;"/><text fill="#000000" font-family="sans-serif" font-size="14" lengthAdjust="spacing" textLength="54" x="396" y="96.5889">run_all()</text></g><!--MD5=[ce8cbc728fc55536171de6bd6a781236]
class ConfigParser--><g id="elem_ConfigParser"><rect codeLine="34" fill="#F1F1F1" height="80.5938" id="ConfigParser" rx="2.5" ry="2.5" style="stroke:#181818;stroke-width:0.5;" width="668" x="224.5" y="593"/><ellipse cx="510.25" cy="609" fill="#ADD8E6" rx="11" ry="11" style="stroke:#181818;stroke-width:1.0;"/><path d="M505.9688,602.6094 L508.8906,602.6094 L510.3594,608.0469 L511.8281,602.6094 L514.7656,602.6094 L514.7656,615 L512.6563,615 L512.6563,605.0781 L511.3438,610.5 L509.4063,610.5 L508.0781,605.0781 L508.0781,615 L505.9688,615 L505.9688,602.6094 Z " fill="#000000"/><text fill="#000000" font-family="sans-serif" font-size="14" lengthAdjust="spacing" textLength="88" x="530.75" y="613.8467">ConfigParser</text><line style="stroke:#181818;stroke-width:0.5;" x1="225.5" x2="891.5" y1="625" y2="625"/><line style="stroke:#181818;stroke-width:0.5;" x1="225.5" x2="891.5" y1="633" y2="633"/><ellipse cx="235.5" cy="646.6484" fill="#84BE84" rx="3" ry="3" style="stroke:#038048;stroke-width:1.0;"/><text fill="#000000" font-family="sans-serif" font-size="14" lengthAdjust="spacing" textLength="498" x="244.5" y="649.9951">parse_experiment_configs(config_path: String): List&lt;ExperimentConfig&gt;</text><ellipse cx="235.5" cy="662.9453" fill="#84BE84" rx="3" ry="3" style="stroke:#038048;stroke-width:1.0;"/><text fill="#000000" font-family="sans-serif" font-size="14" lengthAdjust="spacing" textLength="642" x="244.5" y="666.292">parse_sinergym_environment_config(config_path: String): List&lt;SinergymEnvironmentConfig&gt;</text></g><!--MD5=[2a9217e8f2d7f96589335d2c6f09894a]
class Experiment--><g id="elem_Experiment"><rect codeLine="39" fill="#F1F1F1" height="129.4844" id="Experiment" rx="2.5" ry="2.5" style="stroke:#181818;stroke-width:0.5;" width="175" x="1110" y="181"/><ellipse cx="1154.25" cy="197" fill="#ADD1B2" rx="11" ry="11" style="stroke:#181818;stroke-width:1.0;"/><path d="M1157.2188,202.6406 Q1156.6406,202.9375 1156,203.0781 Q1155.3594,203.2344 1154.6563,203.2344 Q1152.1563,203.2344 1150.8281,201.5938 Q1149.5156,199.9375 1149.5156,196.8125 Q1149.5156,193.6875 1150.8281,192.0313 Q1152.1563,190.375 1154.6563,190.375 Q1155.3594,190.375 1156,190.5313 Q1156.6563,190.6875 1157.2188,190.9844 L1157.2188,193.7031 Q1156.5938,193.125 1156,192.8594 Q1155.4063,192.5781 1154.7813,192.5781 Q1153.4375,192.5781 1152.75,193.6563 Q1152.0625,194.7188 1152.0625,196.8125 Q1152.0625,198.9063 1152.75,199.9844 Q1153.4375,201.0469 1154.7813,201.0469 Q1155.4063,201.0469 1156,200.7813 Q1156.5938,200.5 1157.2188,199.9219 L1157.2188,202.6406 Z " fill="#000000"/><text fill="#000000" font-family="sans-serif" font-size="14" lengthAdjust="spacing" textLength="78" x="1174.75" y="201.8467">Experiment</text><line style="stroke:#181818;stroke-width:0.5;" x1="1111" x2="1284" y1="213" y2="213"/><ellipse cx="1121" cy="226.6484" fill="none" rx="3" ry="3" style="stroke:#038048;stroke-width:1.0;"/><text fill="#000000" font-family="sans-serif" font-size="14" lengthAdjust="spacing" textLength="96" x="1130" y="229.9951">engine: string</text><ellipse cx="1121" cy="242.9453" fill="none" rx="3" ry="3" style="stroke:#038048;stroke-width:1.0;"/><text fill="#000000" font-family="sans-serif" font-size="14" lengthAdjust="spacing" textLength="90" x="1130" y="246.292">episodes: int</text><ellipse cx="1121" cy="259.2422" fill="none" rx="3" ry="3" style="stroke:#038048;stroke-width:1.0;"/><text fill="#000000" font-family="sans-serif" font-size="14" lengthAdjust="spacing" textLength="61" x="1130" y="262.5889">seed: int</text><ellipse cx="1121" cy="275.5391" fill="none" rx="3" ry="3" style="stroke:#038048;stroke-width:1.0;"/><text fill="#000000" font-family="sans-serif" font-size="14" lengthAdjust="spacing" textLength="144" x="1130" y="278.8857">start_time: DateTime</text><ellipse cx="1121" cy="291.8359" fill="none" rx="3" ry="3" style="stroke:#038048;stroke-width:1.0;"/><text fill="#000000" font-family="sans-serif" font-size="14" lengthAdjust="spacing" textLength="149" x="1130" y="295.1826">finish_time: DateTime</text><line style="stroke:#181818;stroke-width:0.5;" x1="1111" x2="1284" y1="302.4844" y2="302.4844"/></g><!--MD5=[e91c523f8d7dd94a4e9260e7eb441913]
class ExperimentStatus--><g id="elem_ExperimentStatus"><rect codeLine="49" fill="#F1F1F1" height="113.1875" id="ExperimentStatus" rx="2.5" ry="2.5" style="stroke:#181818;stroke-width:0.5;" width="154" x="1223.5" y="387"/><ellipse cx="1238.5" cy="403" fill="#EB937F" rx="11" ry="11" style="stroke:#181818;stroke-width:1.0;"/><path d="M1242.6094,409 L1234.8906,409 L1234.8906,396.6094 L1242.6094,396.6094 L1242.6094,398.7656 L1237.3438,398.7656 L1237.3438,401.4375 L1242.1094,401.4375 L1242.1094,403.5938 L1237.3438,403.5938 L1237.3438,406.8438 L1242.6094,406.8438 L1242.6094,409 Z " fill="#000000"/><text fill="#000000" font-family="sans-serif" font-size="14" lengthAdjust="spacing" textLength="122" x="1252.5" y="407.8467">ExperimentStatus</text><line style="stroke:#181818;stroke-width:0.5;" x1="1224.5" x2="1376.5" y1="419" y2="419"/><text fill="#000000" font-family="sans-serif" font-size="14" lengthAdjust="spacing" textLength="64" x="1229.5" y="435.9951">RUNNING</text><text fill="#000000" font-family="sans-serif" font-size="14" lengthAdjust="spacing" textLength="63" x="1229.5" y="452.292">PENDING</text><text fill="#000000" font-family="sans-serif" font-size="14" lengthAdjust="spacing" textLength="63" x="1229.5" y="468.5889">FINISHED</text><text fill="#000000" font-family="sans-serif" font-size="14" lengthAdjust="spacing" textLength="53" x="1229.5" y="484.8857">TUNING</text><line style="stroke:#181818;stroke-width:0.5;" x1="1224.5" x2="1376.5" y1="492.1875" y2="492.1875"/></g><!--MD5=[248f897e4bb16c2722904b15df30346f]
class Logger--><g id="elem_Logger"><rect codeLine="79" fill="#F1F1F1" height="64.2969" id="Logger" rx="2.5" ry="2.5" style="stroke:#181818;stroke-width:0.5;" width="114" x="1412.5" y="411.5"/><ellipse cx="1442.8" cy="427.5" fill="#ADD1B2" rx="11" ry="11" style="stroke:#181818;stroke-width:1.0;"/><path d="M1445.7688,433.1406 Q1445.1906,433.4375 1444.55,433.5781 Q1443.9094,433.7344 1443.2063,433.7344 Q1440.7063,433.7344 1439.3781,432.0938 Q1438.0656,430.4375 1438.0656,427.3125 Q1438.0656,424.1875 1439.3781,422.5313 Q1440.7063,420.875 1443.2063,420.875 Q1443.9094,420.875 1444.55,421.0313 Q1445.2063,421.1875 1445.7688,421.4844 L1445.7688,424.2031 Q1445.1438,423.625 1444.55,423.3594 Q1443.9563,423.0781 1443.3313,423.0781 Q1441.9875,423.0781 1441.3,424.1563 Q1440.6125,425.2188 1440.6125,427.3125 Q1440.6125,429.4063 1441.3,430.4844 Q1441.9875,431.5469 1443.3313,431.5469 Q1443.9563,431.5469 1444.55,431.2813 Q1445.1438,431 1445.7688,430.4219 L1445.7688,433.1406 Z " fill="#000000"/><text fill="#000000" font-family="sans-serif" font-size="14" lengthAdjust="spacing" textLength="48" x="1460.2" y="432.3467">Logger</text><line style="stroke:#181818;stroke-width:0.5;" x1="1413.5" x2="1525.5" y1="443.5" y2="443.5"/><ellipse cx="1423.5" cy="457.1484" fill="none" rx="3" ry="3" style="stroke:#038048;stroke-width:1.0;"/><text fill="#000000" font-family="sans-serif" font-size="14" lengthAdjust="spacing" textLength="88" x="1432.5" y="460.4951">name: String</text><line style="stroke:#181818;stroke-width:0.5;" x1="1413.5" x2="1525.5" y1="467.7969" y2="467.7969"/></g><!--MD5=[281bb5dd1d30cabf93bd4ed98cd3f817]
class ReportGenerator--><g id="elem_ReportGenerator"><rect codeLine="92" fill="#F1F1F1" height="80.5938" id="ReportGenerator" rx="2.5" ry="2.5" style="stroke:#181818;stroke-width:0.5;" width="238" x="1561.5" y="403"/><ellipse cx="1617.75" cy="419" fill="#ADD1B2" rx="11" ry="11" style="stroke:#181818;stroke-width:1.0;"/><path d="M1620.7188,424.6406 Q1620.1406,424.9375 1619.5,425.0781 Q1618.8594,425.2344 1618.1563,425.2344 Q1615.6563,425.2344 1614.3281,423.5938 Q1613.0156,421.9375 1613.0156,418.8125 Q1613.0156,415.6875 1614.3281,414.0313 Q1615.6563,412.375 1618.1563,412.375 Q1618.8594,412.375 1619.5,412.5313 Q1620.1563,412.6875 1620.7188,412.9844 L1620.7188,415.7031 Q1620.0938,415.125 1619.5,414.8594 Q1618.9063,414.5781 1618.2813,414.5781 Q1616.9375,414.5781 1616.25,415.6563 Q1615.5625,416.7188 1615.5625,418.8125 Q1615.5625,420.9063 1616.25,421.9844 Q1616.9375,423.0469 1618.2813,423.0469 Q1618.9063,423.0469 1619.5,422.7813 Q1620.0938,422.5 1620.7188,421.9219 L1620.7188,424.6406 Z " fill="#000000"/><text fill="#000000" font-family="sans-serif" font-size="14" lengthAdjust="spacing" textLength="117" x="1638.25" y="423.8467">ReportGenerator</text><line style="stroke:#181818;stroke-width:0.5;" x1="1562.5" x2="1798.5" y1="435" y2="435"/><ellipse cx="1572.5" cy="448.6484" fill="none" rx="3" ry="3" style="stroke:#038048;stroke-width:1.0;"/><text fill="#000000" font-family="sans-serif" font-size="14" lengthAdjust="spacing" textLength="148" x="1581.5" y="451.9951">formats: Set&lt;String&gt;</text><ellipse cx="1572.5" cy="464.9453" fill="none" rx="3" ry="3" style="stroke:#038048;stroke-width:1.0;"/><text fill="#000000" font-family="sans-serif" font-size="14" lengthAdjust="spacing" textLength="212" x="1581.5" y="468.292">metrics_to_show: List&lt;String&gt;</text><line style="stroke:#181818;stroke-width:0.5;" x1="1562.5" x2="1798.5" y1="475.5938" y2="475.5938"/></g><!--MD5=[310c03e1fef7fa88f24398ca912a8790]
class RLController--><g id="elem_RLController"><rect codeLine="70" fill="#F1F1F1" height="64.2969" id="RLController" rx="2.5" ry="2.5" style="stroke:#181818;stroke-width:0.5;" width="137" x="1012" y="601.5"/><ellipse cx="1036.45" cy="617.5" fill="#ADD1B2" rx="11" ry="11" style="stroke:#181818;stroke-width:1.0;"/><path d="M1039.4188,623.1406 Q1038.8406,623.4375 1038.2,623.5781 Q1037.5594,623.7344 1036.8563,623.7344 Q1034.3563,623.7344 1033.0281,622.0938 Q1031.7156,620.4375 1031.7156,617.3125 Q1031.7156,614.1875 1033.0281,612.5313 Q1034.3563,610.875 1036.8563,610.875 Q1037.5594,610.875 1038.2,611.0313 Q1038.8563,611.1875 1039.4188,611.4844 L1039.4188,614.2031 Q1038.7938,613.625 1038.2,613.3594 Q1037.6063,613.0781 1036.9813,613.0781 Q1035.6375,613.0781 1034.95,614.1563 Q1034.2625,615.2188 1034.2625,617.3125 Q1034.2625,619.4063 1034.95,620.4844 Q1035.6375,621.5469 1036.9813,621.5469 Q1037.6063,621.5469 1038.2,621.2813 Q1038.7938,621 1039.4188,620.4219 L1039.4188,623.1406 Z " fill="#000000"/><text fill="#000000" font-family="sans-serif" font-size="14" lengthAdjust="spacing" textLength="84" x="1052.55" y="622.3467">RLController</text><line style="stroke:#181818;stroke-width:0.5;" x1="1013" x2="1148" y1="633.5" y2="633.5"/><ellipse cx="1023" cy="647.1484" fill="none" rx="3" ry="3" style="stroke:#038048;stroke-width:1.0;"/><text fill="#000000" font-family="sans-serif" font-size="14" lengthAdjust="spacing" textLength="111" x="1032" y="650.4951">model: RLModel</text><line style="stroke:#181818;stroke-width:0.5;" x1="1013" x2="1148" y1="657.7969" y2="657.7969"/></g><!--MD5=[ab4844d6a963a76d6711976405d51c6a]
class RuleBasedController--><g id="elem_RuleBasedController"><rect codeLine="74" fill="#F1F1F1" height="64.2969" id="RuleBasedController" rx="2.5" ry="2.5" style="stroke:#181818;stroke-width:0.5;" width="174" x="1184.5" y="601.5"/><ellipse cx="1199.5" cy="617.5" fill="#ADD1B2" rx="11" ry="11" style="stroke:#181818;stroke-width:1.0;"/><path d="M1202.4688,623.1406 Q1201.8906,623.4375 1201.25,623.5781 Q1200.6094,623.7344 1199.9063,623.7344 Q1197.4063,623.7344 1196.0781,622.0938 Q1194.7656,620.4375 1194.7656,617.3125 Q1194.7656,614.1875 1196.0781,612.5313 Q1197.4063,610.875 1199.9063,610.875 Q1200.6094,610.875 1201.25,611.0313 Q1201.9063,611.1875 1202.4688,611.4844 L1202.4688,614.2031 Q1201.8438,613.625 1201.25,613.3594 Q1200.6563,613.0781 1200.0313,613.0781 Q1198.6875,613.0781 1198,614.1563 Q1197.3125,615.2188 1197.3125,617.3125 Q1197.3125,619.4063 1198,620.4844 Q1198.6875,621.5469 1200.0313,621.5469 Q1200.6563,621.5469 1201.25,621.2813 Q1201.8438,621 1202.4688,620.4219 L1202.4688,623.1406 Z " fill="#000000"/><text fill="#000000" font-family="sans-serif" font-size="14" lengthAdjust="spacing" textLength="142" x="1213.5" y="622.3467">RuleBasedController</text><line style="stroke:#181818;stroke-width:0.5;" x1="1185.5" x2="1357.5" y1="633.5" y2="633.5"/><ellipse cx="1195.5" cy="647.1484" fill="none" rx="3" ry="3" style="stroke:#038048;stroke-width:1.0;"/><text fill="#000000" font-family="sans-serif" font-size="14" lengthAdjust="spacing" textLength="73" x="1204.5" y="650.4951">rules: TBD</text><line style="stroke:#181818;stroke-width:0.5;" x1="1185.5" x2="1357.5" y1="657.7969" y2="657.7969"/></g><!--MD5=[fde78261c83df273810042a88c770c4d]
class LogLevel--><g id="elem_LogLevel"><rect codeLine="83" fill="#F1F1F1" height="96.8906" id="LogLevel" rx="2.5" ry="2.5" style="stroke:#181818;stroke-width:0.5;" width="92" x="1423.5" y="585"/><ellipse cx="1438.5" cy="601" fill="#EB937F" rx="11" ry="11" style="stroke:#181818;stroke-width:1.0;"/><path d="M1442.6094,607 L1434.8906,607 L1434.8906,594.6094 L1442.6094,594.6094 L1442.6094,596.7656 L1437.3438,596.7656 L1437.3438,599.4375 L1442.1094,599.4375 L1442.1094,601.5938 L1437.3438,601.5938 L1437.3438,604.8438 L1442.6094,604.8438 L1442.6094,607 Z " fill="#000000"/><text fill="#000000" font-family="sans-serif" font-size="14" lengthAdjust="spacing" textLength="60" x="1452.5" y="605.8467">LogLevel</text><line style="stroke:#181818;stroke-width:0.5;" x1="1424.5" x2="1514.5" y1="617" y2="617"/><text fill="#000000" font-family="sans-serif" font-size="14" lengthAdjust="spacing" textLength="51" x="1429.5" y="633.9951">DEBUG</text><text fill="#000000" font-family="sans-serif" font-size="14" lengthAdjust="spacing" textLength="32" x="1429.5" y="650.292">INFO</text><text fill="#000000" font-family="sans-serif" font-size="14" lengthAdjust="spacing" textLength="50" x="1429.5" y="666.5889">ERROR</text><line style="stroke:#181818;stroke-width:0.5;" x1="1424.5" x2="1514.5" y1="673.8906" y2="673.8906"/></g><!--MD5=[f00dbe8c0302c6aec2cb26b3c659c8fc]
class Report--><g id="elem_Report"><rect codeLine="97" fill="#F1F1F1" height="113.1875" id="Report" rx="2.5" ry="2.5" style="stroke:#181818;stroke-width:0.5;" width="194" x="1583.5" y="577"/><ellipse cx="1652.75" cy="593" fill="#ADD1B2" rx="11" ry="11" style="stroke:#181818;stroke-width:1.0;"/><path d="M1655.7188,598.6406 Q1655.1406,598.9375 1654.5,599.0781 Q1653.8594,599.2344 1653.1563,599.2344 Q1650.6563,599.2344 1649.3281,597.5938 Q1648.0156,595.9375 1648.0156,592.8125 Q1648.0156,589.6875 1649.3281,588.0313 Q1650.6563,586.375 1653.1563,586.375 Q1653.8594,586.375 1654.5,586.5313 Q1655.1563,586.6875 1655.7188,586.9844 L1655.7188,589.7031 Q1655.0938,589.125 1654.5,588.8594 Q1653.9063,588.5781 1653.2813,588.5781 Q1651.9375,588.5781 1651.25,589.6563 Q1650.5625,590.7188 1650.5625,592.8125 Q1650.5625,594.9063 1651.25,595.9844 Q1651.9375,597.0469 1653.2813,597.0469 Q1653.9063,597.0469 1654.5,596.7813 Q1655.0938,596.5 1655.7188,595.9219 L1655.7188,598.6406 Z " fill="#000000"/><text fill="#000000" font-family="sans-serif" font-size="14" lengthAdjust="spacing" textLength="47" x="1673.25" y="597.8467">Report</text><line style="stroke:#181818;stroke-width:0.5;" x1="1584.5" x2="1776.5" y1="609" y2="609"/><ellipse cx="1594.5" cy="622.6484" fill="none" rx="3" ry="3" style="stroke:#038048;stroke-width:1.0;"/><text fill="#000000" font-family="sans-serif" font-size="14" lengthAdjust="spacing" textLength="138" x="1603.5" y="625.9951">summary_stats: dict</text><ellipse cx="1594.5" cy="638.9453" fill="none" rx="3" ry="3" style="stroke:#038048;stroke-width:1.0;"/><text fill="#000000" font-family="sans-serif" font-size="14" lengthAdjust="spacing" textLength="131" x="1603.5" y="642.292">controller_info: dict</text><ellipse cx="1594.5" cy="655.2422" fill="none" rx="3" ry="3" style="stroke:#038048;stroke-width:1.0;"/><text fill="#000000" font-family="sans-serif" font-size="14" lengthAdjust="spacing" textLength="153" x="1603.5" y="658.5889">environment_info: dict</text><ellipse cx="1594.5" cy="671.5391" fill="none" rx="3" ry="3" style="stroke:#038048;stroke-width:1.0;"/><text fill="#000000" font-family="sans-serif" font-size="14" lengthAdjust="spacing" textLength="168" x="1603.5" y="674.8857">generated_at: DateTime</text><line style="stroke:#181818;stroke-width:0.5;" x1="1584.5" x2="1776.5" y1="682.1875" y2="682.1875"/></g><!--MD5=[a2dcada079002ac9df36d65e23afa48a]
link SinergymProvider to SinergymEnvironment--><g id="link_SinergymProvider_SinergymEnvironment"><path codeLine="21" d="M364.35,467.55 C307.67,502.72 199.95,569.56 140.5,606.44 " fill="none" id="SinergymProvider-to-SinergymEnvironment" style="stroke:#181818;stroke-width:1.0;"/><polygon fill="#181818" points="135.96,609.26,145.7141,607.8968,140.204,606.6164,141.4843,601.1064,135.96,609.26" style="stroke:#181818;stroke-width:1.0;"/><text fill="#000000" font-family="sans-serif" font-size="13" lengthAdjust="spacing" textLength="126" x="260.5" y="543.0669">creates and returns</text></g><!--MD5=[427581b306c1752b663033e5541eca56]
link SinergymEnvironment to IEnvironment--><g id="link_SinergymEnvironment_IEnvironment"><path codeLine="22" d="M139.54,657.63 C159.4,668.29 183.8,680.62 206.5,690 C255.9,710.41 311.05,729.27 361.22,745.01 " fill="none" id="SinergymEnvironment-to-IEnvironment" style="stroke:#181818;stroke-width:1.0;stroke-dasharray:7.0,7.0;"/><polygon fill="none" points="363.51,738.39,380.54,750.99,359.37,751.76,363.51,738.39" style="stroke:#181818;stroke-width:1.0;"/></g><!--MD5=[beeb61bfada330b04f48bbbcb1543309]
reverse link EnvironmentProvider to SinergymProvider--><g id="link_EnvironmentProvider_SinergymProvider"><path codeLine="23" d="M401.5,297.82 C401.5,337.13 401.5,389.52 401.5,419.26 " fill="none" id="EnvironmentProvider-backto-SinergymProvider" style="stroke:#181818;stroke-width:1.0;stroke-dasharray:7.0,7.0;"/><polygon fill="none" points="394.5,297.56,401.5,277.56,408.5,297.56,394.5,297.56" style="stroke:#181818;stroke-width:1.0;"/></g><!--MD5=[7cf80b62dfb2fff3477e4ad7ba3f063a]
link ExperimentManager to ConfigParser--><g id="link_ExperimentManager_ConfigParser"><path codeLine="56" d="M649.38,104.26 C642.69,155.29 631.33,238.52 619.5,310 C603.03,409.52 580.17,525.61 567.63,587.77 " fill="none" id="ExperimentManager-to-ConfigParser" style="stroke:#181818;stroke-width:1.0;"/><polygon fill="#181818" points="566.6,592.89,572.2919,584.8524,567.5833,587.9876,564.4481,583.2791,566.6,592.89" style="stroke:#181818;stroke-width:1.0;"/><text fill="#000000" font-family="sans-serif" font-size="13" lengthAdjust="spacing" textLength="30" x="615.5" y="353.0669">uses</text></g><!--MD5=[4f183a8eada57b06675350b00402f2dc]
link SinergymProvider to ConfigParser--><g id="link_SinergymProvider_ConfigParser"><path codeLine="57" d="M420.75,467.55 C445.87,497.64 490.35,550.9 521.97,588.76 " fill="none" id="SinergymProvider-to-ConfigParser" style="stroke:#181818;stroke-width:1.0;"/><polygon fill="#181818" points="525.37,592.83,522.6639,583.3602,522.1621,588.9947,516.5275,588.4929,525.37,592.83" style="stroke:#181818;stroke-width:1.0;"/><text fill="#000000" font-family="sans-serif" font-size="13" lengthAdjust="spacing" textLength="30" x="486.5" y="543.0669">uses</text></g><!--MD5=[f89f56c3f58488c464c31da1d9197c47]
link ExperimentManager to Experiment--><g id="link_ExperimentManager_Experiment"><path codeLine="58" d="M792.62,104.06 C890.34,137.96 1019.09,182.61 1104.89,212.38 " fill="none" id="ExperimentManager-to-Experiment" style="stroke:#181818;stroke-width:1.0;"/><polygon fill="#181818" points="1109.71,214.05,1102.5094,207.3306,1104.984,212.4174,1099.8972,214.8921,1109.71,214.05" style="stroke:#181818;stroke-width:1.0;"/><text fill="#000000" font-family="sans-serif" font-size="13" lengthAdjust="spacing" textLength="108" x="927.5" y="147.0669">creates and runs</text><text fill="#000000" font-family="sans-serif" font-size="13" lengthAdjust="spacing" textLength="8" x="803.34" y="124.0274">1</text><text fill="#000000" font-family="sans-serif" font-size="13" lengthAdjust="spacing" textLength="7" x="1094.8648" y="207.7545">*</text></g><!--MD5=[d6fd716591f8730834a59ce0902db083]
link ExperimentManager to EnvironmentProvider--><g id="link_ExperimentManager_EnvironmentProvider"><path codeLine="59" d="M591.08,104.18 C546.41,137.25 487.97,180.5 447.85,210.19 " fill="none" id="ExperimentManager-to-EnvironmentProvider" style="stroke:#181818;stroke-width:1.0;"/><polygon fill="#181818" points="443.54,213.39,453.1573,211.2668,447.5638,210.4221,448.4086,204.8286,443.54,213.39" style="stroke:#181818;stroke-width:1.0;"/><text fill="#000000" font-family="sans-serif" font-size="13" lengthAdjust="spacing" textLength="56" x="545.5" y="147.0669">registers</text><text fill="#000000" font-family="sans-serif" font-size="13" lengthAdjust="spacing" textLength="8" x="573.8861" y="123.8124">1</text><text fill="#000000" font-family="sans-serif" font-size="13" lengthAdjust="spacing" textLength="7" x="444.4889" y="202.2704">*</text></g><!--MD5=[15d7e4be280620cadd89e755b7ef981a]
link Experiment to IEnvironment--><g id="link_Experiment_IEnvironment"><path codeLine="60" d="M1109.92,283.87 C1065.12,307.27 1013.45,341.65 981.5,387 C901.79,500.16 1006.38,591.14 909.5,690 C879.27,720.85 787.1,745.41 700.18,762.53 " fill="none" id="Experiment-to-IEnvironment" style="stroke:#181818;stroke-width:1.0;"/><polygon fill="#181818" points="695.26,763.5,704.8599,765.7004,700.1673,762.5414,703.3262,757.8488,695.26,763.5" style="stroke:#181818;stroke-width:1.0;"/><text fill="#000000" font-family="sans-serif" font-size="13" lengthAdjust="spacing" textLength="23" x="953.5" y="543.0669">has</text><text fill="#000000" font-family="sans-serif" font-size="13" lengthAdjust="spacing" textLength="7" x="1095.0928" y="283.5747">*</text><text fill="#000000" font-family="sans-serif" font-size="13" lengthAdjust="spacing" textLength="8" x="702.7593" y="759.0806">1</text></g><!--MD5=[260609423ace49fa2552dc7cd20adac5]
link Experiment to Controller--><g id="link_Experiment_Controller"><path codeLine="61" d="M1163.73,310.14 C1146.75,342.15 1126.78,379.77 1112.49,406.71 " fill="none" id="Experiment-to-Controller" style="stroke:#181818;stroke-width:1.0;"/><polygon fill="#181818" points="1110.07,411.27,1117.8225,405.1955,1112.414,406.8535,1110.7561,401.4451,1110.07,411.27" style="stroke:#181818;stroke-width:1.0;"/><text fill="#000000" font-family="sans-serif" font-size="13" lengthAdjust="spacing" textLength="23" x="1146.5" y="353.0669">has</text><text fill="#000000" font-family="sans-serif" font-size="13" lengthAdjust="spacing" textLength="7" x="1152.4207" y="330.5278">*</text><text fill="#000000" font-family="sans-serif" font-size="13" lengthAdjust="spacing" textLength="8" x="1104.5447" y="400.4989">1</text></g><!--MD5=[a35bbebc8dc0557ecd3f3dcb70c696f7]
link Experiment to Logger--><g id="link_Experiment_Logger"><path codeLine="62" d="M1285.33,306.64 C1301.11,317.64 1317.35,329.09 1332.5,340 C1363.51,362.32 1397.94,388.09 1424.53,408.2 " fill="none" id="Experiment-to-Logger" style="stroke:#181818;stroke-width:1.0;"/><polygon fill="#181818" points="1428.72,411.38,1423.9545,402.7609,1424.732,408.364,1419.1289,409.1416,1428.72,411.38" style="stroke:#181818;stroke-width:1.0;"/><text fill="#000000" font-family="sans-serif" font-size="13" lengthAdjust="spacing" textLength="43" x="1356.5" y="353.0669">logs to</text><text fill="#000000" font-family="sans-serif" font-size="13" lengthAdjust="spacing" textLength="7" x="1292.8933" y="308.1344">*</text><text fill="#000000" font-family="sans-serif" font-size="13" lengthAdjust="spacing" textLength="8" x="1411.4841" y="400.2584">1</text></g><!--MD5=[f8212b782ca955b7bfd71cf52e00eccd]
link Experiment to ExperimentStatus--><g id="link_Experiment_ExperimentStatus"><path codeLine="63" d="M1230.94,310.14 C1243.11,333.29 1256.82,359.39 1268.83,382.24 " fill="none" id="Experiment-to-ExperimentStatus" style="stroke:#181818;stroke-width:1.0;"/><polygon fill="#181818" points="1271.21,386.77,1270.5619,376.9425,1268.883,382.3445,1263.481,380.6656,1271.21,386.77" style="stroke:#181818;stroke-width:1.0;"/><text fill="#000000" font-family="sans-serif" font-size="13" lengthAdjust="spacing" textLength="67" x="1256.5" y="353.0669">has status</text><text fill="#000000" font-family="sans-serif" font-size="13" lengthAdjust="spacing" textLength="7" x="1227.4018" y="330.5278">*</text><text fill="#000000" font-family="sans-serif" font-size="13" lengthAdjust="spacing" textLength="8" x="1259.1528" y="376.0055">1</text></g><!--MD5=[08c170ba83c76afb66df21f5152b0ed9]
link Experiment to ReportGenerator--><g id="link_Experiment_ReportGenerator"><path codeLine="64" d="M1285.25,282.11 C1367.73,315.58 1491.17,365.67 1578.11,400.95 " fill="none" id="Experiment-to-ReportGenerator" style="stroke:#181818;stroke-width:1.0;"/><polygon fill="#181818" points="1583,402.94,1576.1667,395.8473,1578.3675,401.0585,1573.1563,403.2593,1583,402.94" style="stroke:#181818;stroke-width:1.0;"/><text fill="#000000" font-family="sans-serif" font-size="13" lengthAdjust="spacing" textLength="115" x="1469.5" y="353.0669">generates reports</text><text fill="#000000" font-family="sans-serif" font-size="13" lengthAdjust="spacing" textLength="7" x="1293.0918" y="281.6634">*</text><text fill="#000000" font-family="sans-serif" font-size="13" lengthAdjust="spacing" textLength="8" x="1557.5547" y="391.7929">1</text></g><!--MD5=[0517d85793559f306b0467141ce27d52]
reverse link Controller to RLController--><g id="link_Controller_RLController"><path codeLine="67" d="M1089.96,495.66 C1087.62,529.47 1084.64,572.68 1082.65,601.41 " fill="none" id="Controller-backto-RLController" style="stroke:#181818;stroke-width:1.0;stroke-dasharray:7.0,7.0;"/><polygon fill="none" points="1082.99,495.01,1091.35,475.54,1096.96,495.98,1082.99,495.01" style="stroke:#181818;stroke-width:1.0;"/></g><!--MD5=[99b10bb40453c6016a9212ef8bf9c8ff]
reverse link Controller to RuleBasedController--><g id="link_Controller_RuleBasedController"><path codeLine="68" d="M1137.01,490.45 C1169.65,524.92 1213.45,571.19 1242.06,601.41 " fill="none" id="Controller-backto-RuleBasedController" style="stroke:#181818;stroke-width:1.0;stroke-dasharray:7.0,7.0;"/><polygon fill="none" points="1131.56,494.88,1122.89,475.54,1141.73,485.25,1131.56,494.88" style="stroke:#181818;stroke-width:1.0;"/></g><!--MD5=[febcdca18e2735de6962fc81ac92c999]
link Logger to LogLevel--><g id="link_Logger_LogLevel"><path codeLine="89" d="M1469.5,475.54 C1469.5,503.76 1469.5,545.98 1469.5,579.52 " fill="none" id="Logger-to-LogLevel" style="stroke:#181818;stroke-width:1.0;"/><polygon fill="#181818" points="1469.5,584.83,1473.5,575.83,1469.5,579.83,1465.5,575.83,1469.5,584.83" style="stroke:#181818;stroke-width:1.0;"/><text fill="#000000" font-family="sans-serif" font-size="13" lengthAdjust="spacing" textLength="23" x="1470.5" y="543.0669">has</text><text fill="#000000" font-family="sans-serif" font-size="13" lengthAdjust="spacing" textLength="7" x="1461.7781" y="495.7451">*</text><text fill="#000000" font-family="sans-serif" font-size="13" lengthAdjust="spacing" textLength="8" x="1460.9375" y="574.015">1</text></g><!--MD5=[3bc8afd3ea5550df26ae57e4087ab58b]
link ReportGenerator to Report--><g id="link_ReportGenerator_Report"><path codeLine="104" d="M1680.5,484.37 C1680.5,509.74 1680.5,543.08 1680.5,571.71 " fill="none" id="ReportGenerator-to-Report" style="stroke:#181818;stroke-width:1.0;"/><polygon fill="#181818" points="1680.5,577,1684.5,568,1680.5,572,1676.5,568,1680.5,577" style="stroke:#181818;stroke-width:1.0;"/><text fill="#000000" font-family="sans-serif" font-size="13" lengthAdjust="spacing" textLength="48" x="1681.5" y="543.0669">creates</text><text fill="#000000" font-family="sans-serif" font-size="13" lengthAdjust="spacing" textLength="8" x="1671.9125" y="503.5808">1</text><text fill="#000000" font-family="sans-serif" font-size="13" lengthAdjust="spacing" textLength="7" x="1673.0516" y="565.8634">*</text></g><!--MD5=[2f10fc3c346f66e89327aafd31b83cc7]
@startuml
' Interfaces
interface IEnvironment {
  + reset(): State
  + step(action: Action): (State, Reward, bool, dict)
}

interface Controller {
  + getAction(state): Action
}

' Abstract factory for environments
interface EnvironmentProvider {
  + create_environment(config_path: String): IEnvironment
}

' ───── Sinergym Concrete provider and environment ─────
class SinergymProvider
class SinergymEnvironment


SinergymProvider - -> SinergymEnvironment : creates and returns
SinergymEnvironment ..|> IEnvironment
EnvironmentProvider <|.. SinergymProvider



' ───── Orchestration ─────
class ExperimentManager {
  + register_environment_provider(engine: String, provider: EnvironmentProvider)
  + setup_experiments(config_path: String)
  + run_all()
}

class ConfigParser <<(M,#ADD8E6)>> {
  + parse_experiment_configs(config_path: String): List<ExperimentConfig> 
  + parse_sinergym_environment_config(config_path: String): List<SinergymEnvironmentConfig>
}

class Experiment {
  + engine: string
  + episodes: int
  + seed: int
  + start_time: DateTime
  + finish_time: DateTime
}



enum ExperimentStatus {
  RUNNING
  PENDING
  FINISHED
  TUNING
}

ExperimentManager - -> ConfigParser : uses
SinergymProvider - -> ConfigParser : uses
ExperimentManager "1" - -> "*" Experiment : creates and runs
ExperimentManager "1" - -> "*" EnvironmentProvider : registers
Experiment "*" - -> "1" IEnvironment      : has
Experiment "*" - -> "1" Controller        : has
Experiment "*" - -> "1" Logger            : logs to
Experiment "*" - -> "1" ExperimentStatus  : has status
Experiment "*" - -> "1" ReportGenerator   : generates reports

' ───── Controllers ─────
Controller <|.. RLController
Controller <|.. RuleBasedController

class RLController {
  + model: RLModel
}

class RuleBasedController {
  + rules: TBD
}

' ───── Logging ─────
class Logger {
  + name: String
}

enum LogLevel {
  DEBUG
  INFO
  ERROR
}

Logger "*" - -> "1" LogLevel : has

' ───── Reporting ─────
class ReportGenerator {
  + formats: Set<String>
  + metrics_to_show: List<String>
}

class Report {
  + summary_stats: dict
  + controller_info: dict
  + environment_info: dict
  + generated_at: DateTime
}

ReportGenerator "1" - -> "*" Report : creates
@enduml

@startuml
interface IEnvironment {
  + reset(): State
  + step(action: Action): (State, Reward, bool, dict)
}

interface Controller {
  + getAction(state): Action
}

interface EnvironmentProvider {
  + create_environment(config_path: String): IEnvironment
}

class SinergymProvider
class SinergymEnvironment


SinergymProvider - -> SinergymEnvironment : creates and returns
SinergymEnvironment ..|> IEnvironment
EnvironmentProvider <|.. SinergymProvider



class ExperimentManager {
  + register_environment_provider(engine: String, provider: EnvironmentProvider)
  + setup_experiments(config_path: String)
  + run_all()
}

class ConfigParser <<(M,#ADD8E6)>> {
  + parse_experiment_configs(config_path: String): List<ExperimentConfig> 
  + parse_sinergym_environment_config(config_path: String): List<SinergymEnvironmentConfig>
}

class Experiment {
  + engine: string
  + episodes: int
  + seed: int
  + start_time: DateTime
  + finish_time: DateTime
}



enum ExperimentStatus {
  RUNNING
  PENDING
  FINISHED
  TUNING
}

ExperimentManager - -> ConfigParser : uses
SinergymProvider - -> ConfigParser : uses
ExperimentManager "1" - -> "*" Experiment : creates and runs
ExperimentManager "1" - -> "*" EnvironmentProvider : registers
Experiment "*" - -> "1" IEnvironment      : has
Experiment "*" - -> "1" Controller        : has
Experiment "*" - -> "1" Logger            : logs to
Experiment "*" - -> "1" ExperimentStatus  : has status
Experiment "*" - -> "1" ReportGenerator   : generates reports

Controller <|.. RLController
Controller <|.. RuleBasedController

class RLController {
  + model: RLModel
}

class RuleBasedController {
  + rules: TBD
}

class Logger {
  + name: String
}

enum LogLevel {
  DEBUG
  INFO
  ERROR
}

Logger "*" - -> "1" LogLevel : has

class ReportGenerator {
  + formats: Set<String>
  + metrics_to_show: List<String>
}

class Report {
  + summary_stats: dict
  + controller_info: dict
  + environment_info: dict
  + generated_at: DateTime
}

ReportGenerator "1" - -> "*" Report : creates
@enduml

PlantUML version 1.2022.7(Mon Aug 22 17:01:30 UTC 2022)
(GPL source distribution)
Java Runtime: OpenJDK Runtime Environment
JVM: OpenJDK 64-Bit Server VM
Default Encoding: UTF-8
Language: en
Country: null
--></g></svg>