<?xml version="1.0" encoding="UTF-8" standalone="no"?><svg xmlns="http://www.w3.org/2000/svg" xmlns:xlink="http://www.w3.org/1999/xlink" contentStyleType="text/css" height="838px" preserveAspectRatio="none" style="width:1119px;height:838px;background:#FFFFFF;" version="1.1" viewBox="0 0 1119 838" width="1119px" zoomAndPan="magnify"><defs/><g><!--MD5=[e3c565211456ad2dabb0f70601bb8c20]
class IEnvironment--><g id="elem_IEnvironment"><rect codeLine="2" fill="#F1F1F1" height="80.5938" id="IEnvironment" rx="2.5" ry="2.5" style="stroke:#181818;stroke-width:0.5;" width="347" x="7" y="751"/><ellipse cx="131.25" cy="767" fill="#B4A7E5" rx="11" ry="11" style="stroke:#181818;stroke-width:1.0;"/><path d="M127.1719,762.7656 L127.1719,760.6094 L134.5625,760.6094 L134.5625,762.7656 L132.0938,762.7656 L132.0938,770.8438 L134.5625,770.8438 L134.5625,773 L127.1719,773 L127.1719,770.8438 L129.6406,770.8438 L129.6406,762.7656 L127.1719,762.7656 Z " fill="#000000"/><text fill="#000000" font-family="sans-serif" font-size="14" font-style="italic" lengthAdjust="spacing" textLength="90" x="151.75" y="771.8467">IEnvironment</text><line style="stroke:#181818;stroke-width:0.5;" x1="8" x2="353" y1="783" y2="783"/><line style="stroke:#181818;stroke-width:0.5;" x1="8" x2="353" y1="791" y2="791"/><ellipse cx="18" cy="804.6484" fill="#84BE84" rx="3" ry="3" style="stroke:#038048;stroke-width:1.0;"/><text fill="#000000" font-family="sans-serif" font-size="14" lengthAdjust="spacing" textLength="91" x="27" y="807.9951">reset(): State</text><ellipse cx="18" cy="820.9453" fill="#84BE84" rx="3" ry="3" style="stroke:#038048;stroke-width:1.0;"/><text fill="#000000" font-family="sans-serif" font-size="14" lengthAdjust="spacing" textLength="321" x="27" y="824.292">step(action: Action): (State, Reward, bool, dict)</text></g><!--MD5=[1d7ba1c7002d54515419844fbd155368]
class Controller--><g id="elem_Controller"><rect codeLine="7" fill="#F1F1F1" height="64.2969" id="Controller" rx="2.5" ry="2.5" style="stroke:#181818;stroke-width:0.5;" width="189" x="312" y="411.5"/><ellipse cx="368.75" cy="427.5" fill="#B4A7E5" rx="11" ry="11" style="stroke:#181818;stroke-width:1.0;"/><path d="M364.6719,423.2656 L364.6719,421.1094 L372.0625,421.1094 L372.0625,423.2656 L369.5938,423.2656 L369.5938,431.3438 L372.0625,431.3438 L372.0625,433.5 L364.6719,433.5 L364.6719,431.3438 L367.1406,431.3438 L367.1406,423.2656 L364.6719,423.2656 Z " fill="#000000"/><text fill="#000000" font-family="sans-serif" font-size="14" font-style="italic" lengthAdjust="spacing" textLength="67" x="389.25" y="432.3467">Controller</text><line style="stroke:#181818;stroke-width:0.5;" x1="313" x2="500" y1="443.5" y2="443.5"/><line style="stroke:#181818;stroke-width:0.5;" x1="313" x2="500" y1="451.5" y2="451.5"/><ellipse cx="323" cy="465.1484" fill="#84BE84" rx="3" ry="3" style="stroke:#038048;stroke-width:1.0;"/><text fill="#000000" font-family="sans-serif" font-size="14" lengthAdjust="spacing" textLength="163" x="332" y="468.4951">getAction(state): Action</text></g><!--MD5=[a7d4a2182202304e5f98f7b78458dfe9]
class EnvironmentProvider--><g id="elem_EnvironmentProvider"><rect codeLine="12" fill="#F1F1F1" height="64.2969" id="EnvironmentProvider" rx="2.5" ry="2.5" style="stroke:#181818;stroke-width:0.5;" width="402" x="12.5" y="213.5"/><ellipse cx="137.75" cy="229.5" fill="#B4A7E5" rx="11" ry="11" style="stroke:#181818;stroke-width:1.0;"/><path d="M133.6719,225.2656 L133.6719,223.1094 L141.0625,223.1094 L141.0625,225.2656 L138.5938,225.2656 L138.5938,233.3438 L141.0625,233.3438 L141.0625,235.5 L133.6719,235.5 L133.6719,233.3438 L136.1406,233.3438 L136.1406,225.2656 L133.6719,225.2656 Z " fill="#000000"/><text fill="#000000" font-family="sans-serif" font-size="14" font-style="italic" lengthAdjust="spacing" textLength="143" x="158.25" y="234.3467">EnvironmentProvider</text><line style="stroke:#181818;stroke-width:0.5;" x1="13.5" x2="413.5" y1="245.5" y2="245.5"/><line style="stroke:#181818;stroke-width:0.5;" x1="13.5" x2="413.5" y1="253.5" y2="253.5"/><ellipse cx="23.5" cy="267.1484" fill="#84BE84" rx="3" ry="3" style="stroke:#038048;stroke-width:1.0;"/><text fill="#000000" font-family="sans-serif" font-size="14" lengthAdjust="spacing" textLength="376" x="32.5" y="270.4951">create_environment(config_path: String): IEnvironment</text></g><!--MD5=[e29f668360d013b759c007157b858626]
class SinergymProvider--><g id="elem_SinergymProvider"><rect codeLine="17" fill="#F1F1F1" height="48" id="SinergymProvider" rx="2.5" ry="2.5" style="stroke:#181818;stroke-width:0.5;" width="152" x="34.5" y="419.5"/><ellipse cx="49.5" cy="435.5" fill="#ADD1B2" rx="11" ry="11" style="stroke:#181818;stroke-width:1.0;"/><path d="M52.4688,441.1406 Q51.8906,441.4375 51.25,441.5781 Q50.6094,441.7344 49.9063,441.7344 Q47.4063,441.7344 46.0781,440.0938 Q44.7656,438.4375 44.7656,435.3125 Q44.7656,432.1875 46.0781,430.5313 Q47.4063,428.875 49.9063,428.875 Q50.6094,428.875 51.25,429.0313 Q51.9063,429.1875 52.4688,429.4844 L52.4688,432.2031 Q51.8438,431.625 51.25,431.3594 Q50.6563,431.0781 50.0313,431.0781 Q48.6875,431.0781 48,432.1563 Q47.3125,433.2188 47.3125,435.3125 Q47.3125,437.4063 48,438.4844 Q48.6875,439.5469 50.0313,439.5469 Q50.6563,439.5469 51.25,439.2813 Q51.8438,439 52.4688,438.4219 L52.4688,441.1406 Z " fill="#000000"/><text fill="#000000" font-family="sans-serif" font-size="14" lengthAdjust="spacing" textLength="120" x="63.5" y="440.3467">SinergymProvider</text><line style="stroke:#181818;stroke-width:0.5;" x1="35.5" x2="185.5" y1="451.5" y2="451.5"/><line style="stroke:#181818;stroke-width:0.5;" x1="35.5" x2="185.5" y1="459.5" y2="459.5"/></g><!--MD5=[30d24cbeb4efcde6f77e634e6bd714f2]
class SinergymEnvironment--><g id="elem_SinergymEnvironment"><rect codeLine="18" fill="#F1F1F1" height="48" id="SinergymEnvironment" rx="2.5" ry="2.5" style="stroke:#181818;stroke-width:0.5;" width="183" x="11" y="609.5"/><ellipse cx="26" cy="625.5" fill="#ADD1B2" rx="11" ry="11" style="stroke:#181818;stroke-width:1.0;"/><path d="M28.9688,631.1406 Q28.3906,631.4375 27.75,631.5781 Q27.1094,631.7344 26.4063,631.7344 Q23.9063,631.7344 22.5781,630.0938 Q21.2656,628.4375 21.2656,625.3125 Q21.2656,622.1875 22.5781,620.5313 Q23.9063,618.875 26.4063,618.875 Q27.1094,618.875 27.75,619.0313 Q28.4063,619.1875 28.9688,619.4844 L28.9688,622.2031 Q28.3438,621.625 27.75,621.3594 Q27.1563,621.0781 26.5313,621.0781 Q25.1875,621.0781 24.5,622.1563 Q23.8125,623.2188 23.8125,625.3125 Q23.8125,627.4063 24.5,628.4844 Q25.1875,629.5469 26.5313,629.5469 Q27.1563,629.5469 27.75,629.2813 Q28.3438,629 28.9688,628.4219 L28.9688,631.1406 Z " fill="#000000"/><text fill="#000000" font-family="sans-serif" font-size="14" lengthAdjust="spacing" textLength="151" x="40" y="630.3467">SinergymEnvironment</text><line style="stroke:#181818;stroke-width:0.5;" x1="12" x2="193" y1="641.5" y2="641.5"/><line style="stroke:#181818;stroke-width:0.5;" x1="12" x2="193" y1="649.5" y2="649.5"/></g><!--MD5=[3e96dd66dd64ae2e61f50c8668a6b0a4]
class ExperimentManager--><g id="elem_ExperimentManager"><rect codeLine="28" fill="#F1F1F1" height="96.8906" id="ExperimentManager" rx="2.5" ry="2.5" style="stroke:#181818;stroke-width:0.5;" width="559" x="96" y="7"/><ellipse cx="302.25" cy="23" fill="#ADD1B2" rx="11" ry="11" style="stroke:#181818;stroke-width:1.0;"/><path d="M305.2188,28.6406 Q304.6406,28.9375 304,29.0781 Q303.3594,29.2344 302.6563,29.2344 Q300.1563,29.2344 298.8281,27.5938 Q297.5156,25.9375 297.5156,22.8125 Q297.5156,19.6875 298.8281,18.0313 Q300.1563,16.375 302.6563,16.375 Q303.3594,16.375 304,16.5313 Q304.6563,16.6875 305.2188,16.9844 L305.2188,19.7031 Q304.5938,19.125 304,18.8594 Q303.4063,18.5781 302.7813,18.5781 Q301.4375,18.5781 300.75,19.6563 Q300.0625,20.7188 300.0625,22.8125 Q300.0625,24.9063 300.75,25.9844 Q301.4375,27.0469 302.7813,27.0469 Q303.4063,27.0469 304,26.7813 Q304.5938,26.5 305.2188,25.9219 L305.2188,28.6406 Z " fill="#000000"/><text fill="#000000" font-family="sans-serif" font-size="14" lengthAdjust="spacing" textLength="138" x="322.75" y="27.8467">ExperimentManager</text><line style="stroke:#181818;stroke-width:0.5;" x1="97" x2="654" y1="39" y2="39"/><line style="stroke:#181818;stroke-width:0.5;" x1="97" x2="654" y1="47" y2="47"/><ellipse cx="107" cy="60.6484" fill="#84BE84" rx="3" ry="3" style="stroke:#038048;stroke-width:1.0;"/><text fill="#000000" font-family="sans-serif" font-size="14" lengthAdjust="spacing" textLength="533" x="116" y="63.9951">register_environment_provider(engine: String, provider: EnvironmentProvider)</text><ellipse cx="107" cy="76.9453" fill="#84BE84" rx="3" ry="3" style="stroke:#038048;stroke-width:1.0;"/><text fill="#000000" font-family="sans-serif" font-size="14" lengthAdjust="spacing" textLength="272" x="116" y="80.292">setup_experiments(config_path: String)</text><ellipse cx="107" cy="93.2422" fill="#84BE84" rx="3" ry="3" style="stroke:#038048;stroke-width:1.0;"/><text fill="#000000" font-family="sans-serif" font-size="14" lengthAdjust="spacing" textLength="54" x="116" y="96.5889">run_all()</text></g><!--MD5=[2a9217e8f2d7f96589335d2c6f09894a]
class Experiment--><g id="elem_Experiment"><rect codeLine="35" fill="#F1F1F1" height="129.4844" id="Experiment" rx="2.5" ry="2.5" style="stroke:#181818;stroke-width:0.5;" width="175" x="486" y="181"/><ellipse cx="530.25" cy="197" fill="#ADD1B2" rx="11" ry="11" style="stroke:#181818;stroke-width:1.0;"/><path d="M533.2188,202.6406 Q532.6406,202.9375 532,203.0781 Q531.3594,203.2344 530.6563,203.2344 Q528.1563,203.2344 526.8281,201.5938 Q525.5156,199.9375 525.5156,196.8125 Q525.5156,193.6875 526.8281,192.0313 Q528.1563,190.375 530.6563,190.375 Q531.3594,190.375 532,190.5313 Q532.6563,190.6875 533.2188,190.9844 L533.2188,193.7031 Q532.5938,193.125 532,192.8594 Q531.4063,192.5781 530.7813,192.5781 Q529.4375,192.5781 528.75,193.6563 Q528.0625,194.7188 528.0625,196.8125 Q528.0625,198.9063 528.75,199.9844 Q529.4375,201.0469 530.7813,201.0469 Q531.4063,201.0469 532,200.7813 Q532.5938,200.5 533.2188,199.9219 L533.2188,202.6406 Z " fill="#000000"/><text fill="#000000" font-family="sans-serif" font-size="14" lengthAdjust="spacing" textLength="78" x="550.75" y="201.8467">Experiment</text><line style="stroke:#181818;stroke-width:0.5;" x1="487" x2="660" y1="213" y2="213"/><ellipse cx="497" cy="226.6484" fill="none" rx="3" ry="3" style="stroke:#038048;stroke-width:1.0;"/><text fill="#000000" font-family="sans-serif" font-size="14" lengthAdjust="spacing" textLength="96" x="506" y="229.9951">engine: string</text><ellipse cx="497" cy="242.9453" fill="none" rx="3" ry="3" style="stroke:#038048;stroke-width:1.0;"/><text fill="#000000" font-family="sans-serif" font-size="14" lengthAdjust="spacing" textLength="90" x="506" y="246.292">episodes: int</text><ellipse cx="497" cy="259.2422" fill="none" rx="3" ry="3" style="stroke:#038048;stroke-width:1.0;"/><text fill="#000000" font-family="sans-serif" font-size="14" lengthAdjust="spacing" textLength="61" x="506" y="262.5889">seed: int</text><ellipse cx="497" cy="275.5391" fill="none" rx="3" ry="3" style="stroke:#038048;stroke-width:1.0;"/><text fill="#000000" font-family="sans-serif" font-size="14" lengthAdjust="spacing" textLength="144" x="506" y="278.8857">start_time: DateTime</text><ellipse cx="497" cy="291.8359" fill="none" rx="3" ry="3" style="stroke:#038048;stroke-width:1.0;"/><text fill="#000000" font-family="sans-serif" font-size="14" lengthAdjust="spacing" textLength="149" x="506" y="295.1826">finish_time: DateTime</text><line style="stroke:#181818;stroke-width:0.5;" x1="487" x2="660" y1="302.4844" y2="302.4844"/></g><!--MD5=[e91c523f8d7dd94a4e9260e7eb441913]
class ExperimentStatus--><g id="elem_ExperimentStatus"><rect codeLine="45" fill="#F1F1F1" height="113.1875" id="ExperimentStatus" rx="2.5" ry="2.5" style="stroke:#181818;stroke-width:0.5;" width="154" x="536.5" y="387"/><ellipse cx="551.5" cy="403" fill="#EB937F" rx="11" ry="11" style="stroke:#181818;stroke-width:1.0;"/><path d="M555.6094,409 L547.8906,409 L547.8906,396.6094 L555.6094,396.6094 L555.6094,398.7656 L550.3438,398.7656 L550.3438,401.4375 L555.1094,401.4375 L555.1094,403.5938 L550.3438,403.5938 L550.3438,406.8438 L555.6094,406.8438 L555.6094,409 Z " fill="#000000"/><text fill="#000000" font-family="sans-serif" font-size="14" lengthAdjust="spacing" textLength="122" x="565.5" y="407.8467">ExperimentStatus</text><line style="stroke:#181818;stroke-width:0.5;" x1="537.5" x2="689.5" y1="419" y2="419"/><text fill="#000000" font-family="sans-serif" font-size="14" lengthAdjust="spacing" textLength="64" x="542.5" y="435.9951">RUNNING</text><text fill="#000000" font-family="sans-serif" font-size="14" lengthAdjust="spacing" textLength="63" x="542.5" y="452.292">PENDING</text><text fill="#000000" font-family="sans-serif" font-size="14" lengthAdjust="spacing" textLength="63" x="542.5" y="468.5889">FINISHED</text><text fill="#000000" font-family="sans-serif" font-size="14" lengthAdjust="spacing" textLength="53" x="542.5" y="484.8857">TUNING</text><line style="stroke:#181818;stroke-width:0.5;" x1="537.5" x2="689.5" y1="492.1875" y2="492.1875"/></g><!--MD5=[248f897e4bb16c2722904b15df30346f]
class Logger--><g id="elem_Logger"><rect codeLine="75" fill="#F1F1F1" height="64.2969" id="Logger" rx="2.5" ry="2.5" style="stroke:#181818;stroke-width:0.5;" width="114" x="725.5" y="411.5"/><ellipse cx="755.8" cy="427.5" fill="#ADD1B2" rx="11" ry="11" style="stroke:#181818;stroke-width:1.0;"/><path d="M758.7688,433.1406 Q758.1906,433.4375 757.55,433.5781 Q756.9094,433.7344 756.2063,433.7344 Q753.7063,433.7344 752.3781,432.0938 Q751.0656,430.4375 751.0656,427.3125 Q751.0656,424.1875 752.3781,422.5313 Q753.7063,420.875 756.2063,420.875 Q756.9094,420.875 757.55,421.0313 Q758.2063,421.1875 758.7688,421.4844 L758.7688,424.2031 Q758.1438,423.625 757.55,423.3594 Q756.9563,423.0781 756.3313,423.0781 Q754.9875,423.0781 754.3,424.1563 Q753.6125,425.2188 753.6125,427.3125 Q753.6125,429.4063 754.3,430.4844 Q754.9875,431.5469 756.3313,431.5469 Q756.9563,431.5469 757.55,431.2813 Q758.1438,431 758.7688,430.4219 L758.7688,433.1406 Z " fill="#000000"/><text fill="#000000" font-family="sans-serif" font-size="14" lengthAdjust="spacing" textLength="48" x="773.2" y="432.3467">Logger</text><line style="stroke:#181818;stroke-width:0.5;" x1="726.5" x2="838.5" y1="443.5" y2="443.5"/><ellipse cx="736.5" cy="457.1484" fill="none" rx="3" ry="3" style="stroke:#038048;stroke-width:1.0;"/><text fill="#000000" font-family="sans-serif" font-size="14" lengthAdjust="spacing" textLength="88" x="745.5" y="460.4951">name: String</text><line style="stroke:#181818;stroke-width:0.5;" x1="726.5" x2="838.5" y1="467.7969" y2="467.7969"/></g><!--MD5=[281bb5dd1d30cabf93bd4ed98cd3f817]
class ReportGenerator--><g id="elem_ReportGenerator"><rect codeLine="88" fill="#F1F1F1" height="80.5938" id="ReportGenerator" rx="2.5" ry="2.5" style="stroke:#181818;stroke-width:0.5;" width="238" x="874.5" y="403"/><ellipse cx="930.75" cy="419" fill="#ADD1B2" rx="11" ry="11" style="stroke:#181818;stroke-width:1.0;"/><path d="M933.7188,424.6406 Q933.1406,424.9375 932.5,425.0781 Q931.8594,425.2344 931.1563,425.2344 Q928.6563,425.2344 927.3281,423.5938 Q926.0156,421.9375 926.0156,418.8125 Q926.0156,415.6875 927.3281,414.0313 Q928.6563,412.375 931.1563,412.375 Q931.8594,412.375 932.5,412.5313 Q933.1563,412.6875 933.7188,412.9844 L933.7188,415.7031 Q933.0938,415.125 932.5,414.8594 Q931.9063,414.5781 931.2813,414.5781 Q929.9375,414.5781 929.25,415.6563 Q928.5625,416.7188 928.5625,418.8125 Q928.5625,420.9063 929.25,421.9844 Q929.9375,423.0469 931.2813,423.0469 Q931.9063,423.0469 932.5,422.7813 Q933.0938,422.5 933.7188,421.9219 L933.7188,424.6406 Z " fill="#000000"/><text fill="#000000" font-family="sans-serif" font-size="14" lengthAdjust="spacing" textLength="117" x="951.25" y="423.8467">ReportGenerator</text><line style="stroke:#181818;stroke-width:0.5;" x1="875.5" x2="1111.5" y1="435" y2="435"/><ellipse cx="885.5" cy="448.6484" fill="none" rx="3" ry="3" style="stroke:#038048;stroke-width:1.0;"/><text fill="#000000" font-family="sans-serif" font-size="14" lengthAdjust="spacing" textLength="148" x="894.5" y="451.9951">formats: Set&lt;String&gt;</text><ellipse cx="885.5" cy="464.9453" fill="none" rx="3" ry="3" style="stroke:#038048;stroke-width:1.0;"/><text fill="#000000" font-family="sans-serif" font-size="14" lengthAdjust="spacing" textLength="212" x="894.5" y="468.292">metrics_to_show: List&lt;String&gt;</text><line style="stroke:#181818;stroke-width:0.5;" x1="875.5" x2="1111.5" y1="475.5938" y2="475.5938"/></g><!--MD5=[310c03e1fef7fa88f24398ca912a8790]
class RLController--><g id="elem_RLController"><rect codeLine="66" fill="#F1F1F1" height="64.2969" id="RLController" rx="2.5" ry="2.5" style="stroke:#181818;stroke-width:0.5;" width="137" x="325" y="601.5"/><ellipse cx="349.45" cy="617.5" fill="#ADD1B2" rx="11" ry="11" style="stroke:#181818;stroke-width:1.0;"/><path d="M352.4188,623.1406 Q351.8406,623.4375 351.2,623.5781 Q350.5594,623.7344 349.8563,623.7344 Q347.3563,623.7344 346.0281,622.0938 Q344.7156,620.4375 344.7156,617.3125 Q344.7156,614.1875 346.0281,612.5313 Q347.3563,610.875 349.8563,610.875 Q350.5594,610.875 351.2,611.0313 Q351.8563,611.1875 352.4188,611.4844 L352.4188,614.2031 Q351.7938,613.625 351.2,613.3594 Q350.6063,613.0781 349.9813,613.0781 Q348.6375,613.0781 347.95,614.1563 Q347.2625,615.2188 347.2625,617.3125 Q347.2625,619.4063 347.95,620.4844 Q348.6375,621.5469 349.9813,621.5469 Q350.6063,621.5469 351.2,621.2813 Q351.7938,621 352.4188,620.4219 L352.4188,623.1406 Z " fill="#000000"/><text fill="#000000" font-family="sans-serif" font-size="14" lengthAdjust="spacing" textLength="84" x="365.55" y="622.3467">RLController</text><line style="stroke:#181818;stroke-width:0.5;" x1="326" x2="461" y1="633.5" y2="633.5"/><ellipse cx="336" cy="647.1484" fill="none" rx="3" ry="3" style="stroke:#038048;stroke-width:1.0;"/><text fill="#000000" font-family="sans-serif" font-size="14" lengthAdjust="spacing" textLength="111" x="345" y="650.4951">model: RLModel</text><line style="stroke:#181818;stroke-width:0.5;" x1="326" x2="461" y1="657.7969" y2="657.7969"/></g><!--MD5=[ab4844d6a963a76d6711976405d51c6a]
class RuleBasedController--><g id="elem_RuleBasedController"><rect codeLine="70" fill="#F1F1F1" height="64.2969" id="RuleBasedController" rx="2.5" ry="2.5" style="stroke:#181818;stroke-width:0.5;" width="174" x="497.5" y="601.5"/><ellipse cx="512.5" cy="617.5" fill="#ADD1B2" rx="11" ry="11" style="stroke:#181818;stroke-width:1.0;"/><path d="M515.4688,623.1406 Q514.8906,623.4375 514.25,623.5781 Q513.6094,623.7344 512.9063,623.7344 Q510.4063,623.7344 509.0781,622.0938 Q507.7656,620.4375 507.7656,617.3125 Q507.7656,614.1875 509.0781,612.5313 Q510.4063,610.875 512.9063,610.875 Q513.6094,610.875 514.25,611.0313 Q514.9063,611.1875 515.4688,611.4844 L515.4688,614.2031 Q514.8438,613.625 514.25,613.3594 Q513.6563,613.0781 513.0313,613.0781 Q511.6875,613.0781 511,614.1563 Q510.3125,615.2188 510.3125,617.3125 Q510.3125,619.4063 511,620.4844 Q511.6875,621.5469 513.0313,621.5469 Q513.6563,621.5469 514.25,621.2813 Q514.8438,621 515.4688,620.4219 L515.4688,623.1406 Z " fill="#000000"/><text fill="#000000" font-family="sans-serif" font-size="14" lengthAdjust="spacing" textLength="142" x="526.5" y="622.3467">RuleBasedController</text><line style="stroke:#181818;stroke-width:0.5;" x1="498.5" x2="670.5" y1="633.5" y2="633.5"/><ellipse cx="508.5" cy="647.1484" fill="none" rx="3" ry="3" style="stroke:#038048;stroke-width:1.0;"/><text fill="#000000" font-family="sans-serif" font-size="14" lengthAdjust="spacing" textLength="73" x="517.5" y="650.4951">rules: TBD</text><line style="stroke:#181818;stroke-width:0.5;" x1="498.5" x2="670.5" y1="657.7969" y2="657.7969"/></g><!--MD5=[fde78261c83df273810042a88c770c4d]
class LogLevel--><g id="elem_LogLevel"><rect codeLine="79" fill="#F1F1F1" height="96.8906" id="LogLevel" rx="2.5" ry="2.5" style="stroke:#181818;stroke-width:0.5;" width="92" x="736.5" y="585"/><ellipse cx="751.5" cy="601" fill="#EB937F" rx="11" ry="11" style="stroke:#181818;stroke-width:1.0;"/><path d="M755.6094,607 L747.8906,607 L747.8906,594.6094 L755.6094,594.6094 L755.6094,596.7656 L750.3438,596.7656 L750.3438,599.4375 L755.1094,599.4375 L755.1094,601.5938 L750.3438,601.5938 L750.3438,604.8438 L755.6094,604.8438 L755.6094,607 Z " fill="#000000"/><text fill="#000000" font-family="sans-serif" font-size="14" lengthAdjust="spacing" textLength="60" x="765.5" y="605.8467">LogLevel</text><line style="stroke:#181818;stroke-width:0.5;" x1="737.5" x2="827.5" y1="617" y2="617"/><text fill="#000000" font-family="sans-serif" font-size="14" lengthAdjust="spacing" textLength="51" x="742.5" y="633.9951">DEBUG</text><text fill="#000000" font-family="sans-serif" font-size="14" lengthAdjust="spacing" textLength="32" x="742.5" y="650.292">INFO</text><text fill="#000000" font-family="sans-serif" font-size="14" lengthAdjust="spacing" textLength="50" x="742.5" y="666.5889">ERROR</text><line style="stroke:#181818;stroke-width:0.5;" x1="737.5" x2="827.5" y1="673.8906" y2="673.8906"/></g><!--MD5=[f00dbe8c0302c6aec2cb26b3c659c8fc]
class Report--><g id="elem_Report"><rect codeLine="93" fill="#F1F1F1" height="113.1875" id="Report" rx="2.5" ry="2.5" style="stroke:#181818;stroke-width:0.5;" width="194" x="896.5" y="577"/><ellipse cx="965.75" cy="593" fill="#ADD1B2" rx="11" ry="11" style="stroke:#181818;stroke-width:1.0;"/><path d="M968.7188,598.6406 Q968.1406,598.9375 967.5,599.0781 Q966.8594,599.2344 966.1563,599.2344 Q963.6563,599.2344 962.3281,597.5938 Q961.0156,595.9375 961.0156,592.8125 Q961.0156,589.6875 962.3281,588.0313 Q963.6563,586.375 966.1563,586.375 Q966.8594,586.375 967.5,586.5313 Q968.1563,586.6875 968.7188,586.9844 L968.7188,589.7031 Q968.0938,589.125 967.5,588.8594 Q966.9063,588.5781 966.2813,588.5781 Q964.9375,588.5781 964.25,589.6563 Q963.5625,590.7188 963.5625,592.8125 Q963.5625,594.9063 964.25,595.9844 Q964.9375,597.0469 966.2813,597.0469 Q966.9063,597.0469 967.5,596.7813 Q968.0938,596.5 968.7188,595.9219 L968.7188,598.6406 Z " fill="#000000"/><text fill="#000000" font-family="sans-serif" font-size="14" lengthAdjust="spacing" textLength="47" x="986.25" y="597.8467">Report</text><line style="stroke:#181818;stroke-width:0.5;" x1="897.5" x2="1089.5" y1="609" y2="609"/><ellipse cx="907.5" cy="622.6484" fill="none" rx="3" ry="3" style="stroke:#038048;stroke-width:1.0;"/><text fill="#000000" font-family="sans-serif" font-size="14" lengthAdjust="spacing" textLength="138" x="916.5" y="625.9951">summary_stats: dict</text><ellipse cx="907.5" cy="638.9453" fill="none" rx="3" ry="3" style="stroke:#038048;stroke-width:1.0;"/><text fill="#000000" font-family="sans-serif" font-size="14" lengthAdjust="spacing" textLength="131" x="916.5" y="642.292">controller_info: dict</text><ellipse cx="907.5" cy="655.2422" fill="none" rx="3" ry="3" style="stroke:#038048;stroke-width:1.0;"/><text fill="#000000" font-family="sans-serif" font-size="14" lengthAdjust="spacing" textLength="153" x="916.5" y="658.5889">environment_info: dict</text><ellipse cx="907.5" cy="671.5391" fill="none" rx="3" ry="3" style="stroke:#038048;stroke-width:1.0;"/><text fill="#000000" font-family="sans-serif" font-size="14" lengthAdjust="spacing" textLength="168" x="916.5" y="674.8857">generated_at: DateTime</text><line style="stroke:#181818;stroke-width:0.5;" x1="897.5" x2="1089.5" y1="682.1875" y2="682.1875"/></g><!--MD5=[a2dcada079002ac9df36d65e23afa48a]
link SinergymProvider to SinergymEnvironment--><g id="link_SinergymProvider_SinergymEnvironment"><path codeLine="21" d="M102.46,467.75 C97.03,484.76 90.34,508.51 87.5,530 C84.18,555.15 89.07,583.7 94.13,604.27 " fill="none" id="SinergymProvider-to-SinergymEnvironment" style="stroke:#181818;stroke-width:1.0;"/><polygon fill="#181818" points="95.42,609.32,97.0572,599.6082,94.1771,604.4769,89.3083,601.5968,95.42,609.32" style="stroke:#181818;stroke-width:1.0;"/><text fill="#000000" font-family="sans-serif" font-size="13" lengthAdjust="spacing" textLength="126" x="88.5" y="543.0669">creates and returns</text></g><!--MD5=[427581b306c1752b663033e5541eca56]
link SinergymEnvironment to IEnvironment--><g id="link_SinergymEnvironment_IEnvironment"><path codeLine="22" d="M114.01,657.52 C123.86,677.23 138.48,706.47 151.51,732.51 " fill="none" id="SinergymEnvironment-to-IEnvironment" style="stroke:#181818;stroke-width:1.0;stroke-dasharray:7.0,7.0;"/><polygon fill="none" points="157.93,729.72,160.62,750.73,145.41,735.98,157.93,729.72" style="stroke:#181818;stroke-width:1.0;"/></g><!--MD5=[beeb61bfada330b04f48bbbcb1543309]
reverse link EnvironmentProvider to SinergymProvider--><g id="link_EnvironmentProvider_SinergymProvider"><path codeLine="23" d="M187.81,295.38 C167.02,334.94 138.67,388.9 122.71,419.26 " fill="none" id="EnvironmentProvider-backto-SinergymProvider" style="stroke:#181818;stroke-width:1.0;stroke-dasharray:7.0,7.0;"/><polygon fill="none" points="181.68,292,197.18,277.56,194.07,298.52,181.68,292" style="stroke:#181818;stroke-width:1.0;"/></g><!--MD5=[f89f56c3f58488c464c31da1d9197c47]
link ExperimentManager to Experiment--><g id="link_ExperimentManager_Experiment"><path codeLine="54" d="M425.72,104.18 C449.09,126.37 477.29,153.15 502.77,177.34 " fill="none" id="ExperimentManager-to-Experiment" style="stroke:#181818;stroke-width:1.0;"/><polygon fill="#181818" points="506.51,180.89,502.7344,171.7936,502.8829,177.4485,497.228,177.597,506.51,180.89" style="stroke:#181818;stroke-width:1.0;"/><text fill="#000000" font-family="sans-serif" font-size="13" lengthAdjust="spacing" textLength="108" x="475.5" y="147.0669">creates and runs</text><text fill="#000000" font-family="sans-serif" font-size="13" lengthAdjust="spacing" textLength="8" x="423.9308" y="123.8124">1</text><text fill="#000000" font-family="sans-serif" font-size="13" lengthAdjust="spacing" textLength="7" x="491.8002" y="170.0506">*</text></g><!--MD5=[d6fd716591f8730834a59ce0902db083]
link ExperimentManager to EnvironmentProvider--><g id="link_ExperimentManager_EnvironmentProvider"><path codeLine="55" d="M334.2,104.43 C305.94,137.22 269.11,179.96 243.61,209.56 " fill="none" id="ExperimentManager-to-EnvironmentProvider" style="stroke:#181818;stroke-width:1.0;"/><polygon fill="#181818" points="240.24,213.47,249.142,209.2564,243.501,209.6798,243.0777,204.0388,240.24,213.47" style="stroke:#181818;stroke-width:1.0;"/><text fill="#000000" font-family="sans-serif" font-size="13" lengthAdjust="spacing" textLength="56" x="305.5" y="147.0669">registers</text><text fill="#000000" font-family="sans-serif" font-size="13" lengthAdjust="spacing" textLength="8" x="320.1128" y="124.0959">1</text><text fill="#000000" font-family="sans-serif" font-size="13" lengthAdjust="spacing" textLength="7" x="238.0333" y="202.3669">*</text></g><!--MD5=[15d7e4be280620cadd89e755b7ef981a]
link Experiment to IEnvironment--><g id="link_Experiment_IEnvironment"><path codeLine="56" d="M485.91,286.23 C409.21,321.73 307.94,370.58 294.5,387 C206.07,495.06 250.53,555.94 211.5,690 C206.14,708.43 199.95,728.67 194.52,746.12 " fill="none" id="Experiment-to-IEnvironment" style="stroke:#181818;stroke-width:1.0;"/><polygon fill="#181818" points="193.01,750.97,199.525,743.5839,194.5095,746.2001,191.8932,741.1847,193.01,750.97" style="stroke:#181818;stroke-width:1.0;"/><text fill="#000000" font-family="sans-serif" font-size="13" lengthAdjust="spacing" textLength="23" x="235.5" y="543.0669">has</text><text fill="#000000" font-family="sans-serif" font-size="13" lengthAdjust="spacing" textLength="7" x="471.082" y="286.1375">*</text><text fill="#000000" font-family="sans-serif" font-size="13" lengthAdjust="spacing" textLength="8" x="186.4727" y="739.8281">1</text></g><!--MD5=[260609423ace49fa2552dc7cd20adac5]
link Experiment to Controller--><g id="link_Experiment_Controller"><path codeLine="57" d="M519.28,310.14 C491.77,342.42 459.42,380.39 436.43,407.37 " fill="none" id="Experiment-to-Controller" style="stroke:#181818;stroke-width:1.0;"/><polygon fill="#181818" points="433.11,411.27,441.9949,407.0206,436.3557,407.4667,435.9096,401.8274,433.11,411.27" style="stroke:#181818;stroke-width:1.0;"/><text fill="#000000" font-family="sans-serif" font-size="13" lengthAdjust="spacing" textLength="23" x="491.5" y="353.0669">has</text><text fill="#000000" font-family="sans-serif" font-size="13" lengthAdjust="spacing" textLength="7" x="505.6061" y="330.5278">*</text><text fill="#000000" font-family="sans-serif" font-size="13" lengthAdjust="spacing" textLength="8" x="429.5613" y="400.4989">1</text></g><!--MD5=[a35bbebc8dc0557ecd3f3dcb70c696f7]
link Experiment to Logger--><g id="link_Experiment_Logger"><path codeLine="58" d="M641.57,310.1 C652.26,320.1 663.18,330.33 673.5,340 C697.4,362.41 724.22,387.63 745.27,407.44 " fill="none" id="Experiment-to-Logger" style="stroke:#181818;stroke-width:1.0;"/><polygon fill="#181818" points="749.13,411.07,745.3177,401.9889,745.489,407.6432,739.8347,407.8145,749.13,411.07" style="stroke:#181818;stroke-width:1.0;"/><text fill="#000000" font-family="sans-serif" font-size="13" lengthAdjust="spacing" textLength="43" x="692.5" y="353.0669">logs to</text><text fill="#000000" font-family="sans-serif" font-size="13" lengthAdjust="spacing" textLength="7" x="642.0359" y="330.4831">*</text><text fill="#000000" font-family="sans-serif" font-size="13" lengthAdjust="spacing" textLength="8" x="734.0063" y="400.5096">1</text></g><!--MD5=[f8212b782ca955b7bfd71cf52e00eccd]
link Experiment to ExperimentStatus--><g id="link_Experiment_ExperimentStatus"><path codeLine="59" d="M586.49,310.14 C591.17,333.1 596.45,358.95 601.09,381.67 " fill="none" id="Experiment-to-ExperimentStatus" style="stroke:#181818;stroke-width:1.0;"/><polygon fill="#181818" points="602.13,386.77,604.2496,377.1519,601.1302,381.871,596.4111,378.7516,602.13,386.77" style="stroke:#181818;stroke-width:1.0;"/><text fill="#000000" font-family="sans-serif" font-size="13" lengthAdjust="spacing" textLength="67" x="597.5" y="353.0669">has status</text><text fill="#000000" font-family="sans-serif" font-size="13" lengthAdjust="spacing" textLength="7" x="580.5873" y="330.5278">*</text><text fill="#000000" font-family="sans-serif" font-size="13" lengthAdjust="spacing" textLength="8" x="592.2568" y="376.0055">1</text></g><!--MD5=[08c170ba83c76afb66df21f5152b0ed9]
link Experiment to ReportGenerator--><g id="link_Experiment_ReportGenerator"><path codeLine="60" d="M661.03,287.35 C732.2,320.56 832.2,367.23 903.91,400.69 " fill="none" id="Experiment-to-ReportGenerator" style="stroke:#181818;stroke-width:1.0;"/><polygon fill="#181818" points="908.59,402.87,902.1182,395.446,904.0569,400.7603,898.7426,402.6989,908.59,402.87" style="stroke:#181818;stroke-width:1.0;"/><text fill="#000000" font-family="sans-serif" font-size="13" lengthAdjust="spacing" textLength="115" x="810.5" y="353.0669">generates reports</text><text fill="#000000" font-family="sans-serif" font-size="13" lengthAdjust="spacing" textLength="7" x="669.1374" y="287.4605">*</text><text fill="#000000" font-family="sans-serif" font-size="13" lengthAdjust="spacing" textLength="8" x="885.8643" y="392.01">1</text></g><!--MD5=[0517d85793559f306b0467141ce27d52]
reverse link Controller to RLController--><g id="link_Controller_RLController"><path codeLine="63" d="M402.96,495.66 C400.62,529.47 397.64,572.68 395.65,601.41 " fill="none" id="Controller-backto-RLController" style="stroke:#181818;stroke-width:1.0;stroke-dasharray:7.0,7.0;"/><polygon fill="none" points="395.99,495.01,404.35,475.54,409.96,495.98,395.99,495.01" style="stroke:#181818;stroke-width:1.0;"/></g><!--MD5=[99b10bb40453c6016a9212ef8bf9c8ff]
reverse link Controller to RuleBasedController--><g id="link_Controller_RuleBasedController"><path codeLine="64" d="M450.01,490.45 C482.65,524.92 526.45,571.19 555.06,601.41 " fill="none" id="Controller-backto-RuleBasedController" style="stroke:#181818;stroke-width:1.0;stroke-dasharray:7.0,7.0;"/><polygon fill="none" points="444.56,494.88,435.89,475.54,454.73,485.25,444.56,494.88" style="stroke:#181818;stroke-width:1.0;"/></g><!--MD5=[febcdca18e2735de6962fc81ac92c999]
link Logger to LogLevel--><g id="link_Logger_LogLevel"><path codeLine="85" d="M782.5,475.54 C782.5,503.76 782.5,545.98 782.5,579.52 " fill="none" id="Logger-to-LogLevel" style="stroke:#181818;stroke-width:1.0;"/><polygon fill="#181818" points="782.5,584.83,786.5,575.83,782.5,579.83,778.5,575.83,782.5,584.83" style="stroke:#181818;stroke-width:1.0;"/><text fill="#000000" font-family="sans-serif" font-size="13" lengthAdjust="spacing" textLength="23" x="783.5" y="543.0669">has</text><text fill="#000000" font-family="sans-serif" font-size="13" lengthAdjust="spacing" textLength="7" x="774.7781" y="495.7451">*</text><text fill="#000000" font-family="sans-serif" font-size="13" lengthAdjust="spacing" textLength="8" x="773.9375" y="574.015">1</text></g><!--MD5=[3bc8afd3ea5550df26ae57e4087ab58b]
link ReportGenerator to Report--><g id="link_ReportGenerator_Report"><path codeLine="100" d="M993.5,484.37 C993.5,509.74 993.5,543.08 993.5,571.71 " fill="none" id="ReportGenerator-to-Report" style="stroke:#181818;stroke-width:1.0;"/><polygon fill="#181818" points="993.5,577,997.5,568,993.5,572,989.5,568,993.5,577" style="stroke:#181818;stroke-width:1.0;"/><text fill="#000000" font-family="sans-serif" font-size="13" lengthAdjust="spacing" textLength="48" x="994.5" y="543.0669">creates</text><text fill="#000000" font-family="sans-serif" font-size="13" lengthAdjust="spacing" textLength="8" x="984.9125" y="503.5808">1</text><text fill="#000000" font-family="sans-serif" font-size="13" lengthAdjust="spacing" textLength="7" x="986.0516" y="565.8634">*</text></g><!--MD5=[0e6c620799c32e77e066983ef65cc5be]
@startuml
' Interfaces
interface IEnvironment {
  + reset(): State
  + step(action: Action): (State, Reward, bool, dict)
}

interface Controller {
  + getAction(state): Action
}

' Abstract factory for environments
interface EnvironmentProvider {
  + create_environment(config_path: String): IEnvironment
}

' ───── Sinergym Concrete provider and environment ─────
class SinergymProvider
class SinergymEnvironment


SinergymProvider - -> SinergymEnvironment : creates and returns
SinergymEnvironment ..|> IEnvironment
EnvironmentProvider <|.. SinergymProvider



' ───── Orchestration ─────
class ExperimentManager {
  + register_environment_provider(engine: String, provider: EnvironmentProvider)
  + setup_experiments(config_path: String)
  + run_all()
}


class Experiment {
  + engine: string
  + episodes: int
  + seed: int
  + start_time: DateTime
  + finish_time: DateTime
}



enum ExperimentStatus {
  RUNNING
  PENDING
  FINISHED
  TUNING
}



ExperimentManager "1" - -> "*" Experiment : creates and runs
ExperimentManager "1" - -> "*" EnvironmentProvider : registers
Experiment "*" - -> "1" IEnvironment      : has
Experiment "*" - -> "1" Controller        : has
Experiment "*" - -> "1" Logger            : logs to
Experiment "*" - -> "1" ExperimentStatus  : has status
Experiment "*" - -> "1" ReportGenerator   : generates reports

' ───── Controllers ─────
Controller <|.. RLController
Controller <|.. RuleBasedController

class RLController {
  + model: RLModel
}

class RuleBasedController {
  + rules: TBD
}

' ───── Logging ─────
class Logger {
  + name: String
}

enum LogLevel {
  DEBUG
  INFO
  ERROR
}

Logger "*" - -> "1" LogLevel : has

' ───── Reporting ─────
class ReportGenerator {
  + formats: Set<String>
  + metrics_to_show: List<String>
}

class Report {
  + summary_stats: dict
  + controller_info: dict
  + environment_info: dict
  + generated_at: DateTime
}

ReportGenerator "1" - -> "*" Report : creates
@enduml

@startuml
interface IEnvironment {
  + reset(): State
  + step(action: Action): (State, Reward, bool, dict)
}

interface Controller {
  + getAction(state): Action
}

interface EnvironmentProvider {
  + create_environment(config_path: String): IEnvironment
}

class SinergymProvider
class SinergymEnvironment


SinergymProvider - -> SinergymEnvironment : creates and returns
SinergymEnvironment ..|> IEnvironment
EnvironmentProvider <|.. SinergymProvider



class ExperimentManager {
  + register_environment_provider(engine: String, provider: EnvironmentProvider)
  + setup_experiments(config_path: String)
  + run_all()
}


class Experiment {
  + engine: string
  + episodes: int
  + seed: int
  + start_time: DateTime
  + finish_time: DateTime
}



enum ExperimentStatus {
  RUNNING
  PENDING
  FINISHED
  TUNING
}



ExperimentManager "1" - -> "*" Experiment : creates and runs
ExperimentManager "1" - -> "*" EnvironmentProvider : registers
Experiment "*" - -> "1" IEnvironment      : has
Experiment "*" - -> "1" Controller        : has
Experiment "*" - -> "1" Logger            : logs to
Experiment "*" - -> "1" ExperimentStatus  : has status
Experiment "*" - -> "1" ReportGenerator   : generates reports

Controller <|.. RLController
Controller <|.. RuleBasedController

class RLController {
  + model: RLModel
}

class RuleBasedController {
  + rules: TBD
}

class Logger {
  + name: String
}

enum LogLevel {
  DEBUG
  INFO
  ERROR
}

Logger "*" - -> "1" LogLevel : has

class ReportGenerator {
  + formats: Set<String>
  + metrics_to_show: List<String>
}

class Report {
  + summary_stats: dict
  + controller_info: dict
  + environment_info: dict
  + generated_at: DateTime
}

ReportGenerator "1" - -> "*" Report : creates
@enduml

PlantUML version 1.2022.7(Mon Aug 22 17:01:30 UTC 2022)
(GPL source distribution)
Java Runtime: OpenJDK Runtime Environment
JVM: OpenJDK 64-Bit Server VM
Default Encoding: UTF-8
Language: en
Country: null
--></g></svg>