<?xml version="1.0" encoding="UTF-8" standalone="no"?><svg xmlns="http://www.w3.org/2000/svg" xmlns:xlink="http://www.w3.org/1999/xlink" contentStyleType="text/css" height="805px" preserveAspectRatio="none" style="width:1349px;height:805px;background:#FFFFFF;" version="1.1" viewBox="0 0 1349 805" width="1349px" zoomAndPan="magnify"><defs/><g><!--MD5=[e3c565211456ad2dabb0f70601bb8c20]
class IEnvironment--><g id="elem_IEnvironment"><rect codeLine="2" fill="#F1F1F1" height="80.5938" id="IEnvironment" rx="2.5" ry="2.5" style="stroke:#181818;stroke-width:0.5;" width="347" x="368.5" y="718"/><ellipse cx="492.75" cy="734" fill="#B4A7E5" rx="11" ry="11" style="stroke:#181818;stroke-width:1.0;"/><path d="M488.6719,729.7656 L488.6719,727.6094 L496.0625,727.6094 L496.0625,729.7656 L493.5938,729.7656 L493.5938,737.8438 L496.0625,737.8438 L496.0625,740 L488.6719,740 L488.6719,737.8438 L491.1406,737.8438 L491.1406,729.7656 L488.6719,729.7656 Z " fill="#000000"/><text fill="#000000" font-family="sans-serif" font-size="14" font-style="italic" lengthAdjust="spacing" textLength="90" x="513.25" y="738.8467">IEnvironment</text><line style="stroke:#181818;stroke-width:0.5;" x1="369.5" x2="714.5" y1="750" y2="750"/><line style="stroke:#181818;stroke-width:0.5;" x1="369.5" x2="714.5" y1="758" y2="758"/><ellipse cx="379.5" cy="771.6484" fill="#84BE84" rx="3" ry="3" style="stroke:#038048;stroke-width:1.0;"/><text fill="#000000" font-family="sans-serif" font-size="14" lengthAdjust="spacing" textLength="91" x="388.5" y="774.9951">reset(): State</text><ellipse cx="379.5" cy="787.9453" fill="#84BE84" rx="3" ry="3" style="stroke:#038048;stroke-width:1.0;"/><text fill="#000000" font-family="sans-serif" font-size="14" lengthAdjust="spacing" textLength="321" x="388.5" y="791.292">step(action: Action): (State, Reward, bool, dict)</text></g><!--MD5=[bd571520ce57ba8fc108ce35545cd758]
class IController--><g id="elem_IController"><rect codeLine="7" fill="#F1F1F1" height="64.2969" id="IController" rx="2.5" ry="2.5" style="stroke:#181818;stroke-width:0.5;" width="189" x="639.5" y="427.5"/><ellipse cx="694.75" cy="443.5" fill="#B4A7E5" rx="11" ry="11" style="stroke:#181818;stroke-width:1.0;"/><path d="M690.6719,439.2656 L690.6719,437.1094 L698.0625,437.1094 L698.0625,439.2656 L695.5938,439.2656 L695.5938,447.3438 L698.0625,447.3438 L698.0625,449.5 L690.6719,449.5 L690.6719,447.3438 L693.1406,447.3438 L693.1406,439.2656 L690.6719,439.2656 Z " fill="#000000"/><text fill="#000000" font-family="sans-serif" font-size="14" font-style="italic" lengthAdjust="spacing" textLength="70" x="715.25" y="448.3467">IController</text><line style="stroke:#181818;stroke-width:0.5;" x1="640.5" x2="827.5" y1="459.5" y2="459.5"/><line style="stroke:#181818;stroke-width:0.5;" x1="640.5" x2="827.5" y1="467.5" y2="467.5"/><ellipse cx="650.5" cy="481.1484" fill="#84BE84" rx="3" ry="3" style="stroke:#038048;stroke-width:1.0;"/><text fill="#000000" font-family="sans-serif" font-size="14" lengthAdjust="spacing" textLength="163" x="659.5" y="484.4951">getAction(state): Action</text></g><!--MD5=[7f09f002e0e87076adc008c8fae66c09]
class IControllerProvider--><g id="elem_IControllerProvider"><rect codeLine="11" fill="#F1F1F1" height="80.5938" id="IControllerProvider" rx="2.5" ry="2.5" style="stroke:#181818;stroke-width:0.5;" width="405" x="767.5" y="221"/><ellipse cx="902.75" cy="237" fill="#B4A7E5" rx="11" ry="11" style="stroke:#181818;stroke-width:1.0;"/><path d="M898.6719,232.7656 L898.6719,230.6094 L906.0625,230.6094 L906.0625,232.7656 L903.5938,232.7656 L903.5938,240.8438 L906.0625,240.8438 L906.0625,243 L898.6719,243 L898.6719,240.8438 L901.1406,240.8438 L901.1406,232.7656 L898.6719,232.7656 Z " fill="#000000"/><text fill="#000000" font-family="sans-serif" font-size="14" font-style="italic" lengthAdjust="spacing" textLength="126" x="923.25" y="241.8467">IControllerProvider</text><line style="stroke:#181818;stroke-width:0.5;" x1="768.5" x2="1171.5" y1="253" y2="253"/><ellipse cx="778.5" cy="266.6484" fill="none" rx="3" ry="3" style="stroke:#038048;stroke-width:1.0;"/><text fill="#000000" font-family="sans-serif" font-size="14" lengthAdjust="spacing" textLength="142" x="787.5" y="269.9951">env: gymnasium.Env</text><line style="stroke:#181818;stroke-width:0.5;" x1="768.5" x2="1171.5" y1="277.2969" y2="277.2969"/><ellipse cx="778.5" cy="290.9453" fill="#84BE84" rx="3" ry="3" style="stroke:#038048;stroke-width:1.0;"/><text fill="#000000" font-family="sans-serif" font-size="14" lengthAdjust="spacing" textLength="379" x="787.5" y="294.292">create_controller(env: Env, config_path: str): IController</text></g><!--MD5=[2f2af61d07428df936a35126d7ff4147]
class RandomController--><g id="elem_RandomController"><rect codeLine="20" fill="#F1F1F1" height="48" id="RandomController" rx="2.5" ry="2.5" style="stroke:#181818;stroke-width:0.5;" width="157" x="843.5" y="601"/><ellipse cx="858.5" cy="617" fill="#ADD1B2" rx="11" ry="11" style="stroke:#181818;stroke-width:1.0;"/><path d="M861.4688,622.6406 Q860.8906,622.9375 860.25,623.0781 Q859.6094,623.2344 858.9063,623.2344 Q856.4063,623.2344 855.0781,621.5938 Q853.7656,619.9375 853.7656,616.8125 Q853.7656,613.6875 855.0781,612.0313 Q856.4063,610.375 858.9063,610.375 Q859.6094,610.375 860.25,610.5313 Q860.9063,610.6875 861.4688,610.9844 L861.4688,613.7031 Q860.8438,613.125 860.25,612.8594 Q859.6563,612.5781 859.0313,612.5781 Q857.6875,612.5781 857,613.6563 Q856.3125,614.7188 856.3125,616.8125 Q856.3125,618.9063 857,619.9844 Q857.6875,621.0469 859.0313,621.0469 Q859.6563,621.0469 860.25,620.7813 Q860.8438,620.5 861.4688,619.9219 L861.4688,622.6406 Z " fill="#000000"/><text fill="#000000" font-family="sans-serif" font-size="14" lengthAdjust="spacing" textLength="125" x="872.5" y="621.8467">RandomController</text><line style="stroke:#181818;stroke-width:0.5;" x1="844.5" x2="999.5" y1="633" y2="633"/><line style="stroke:#181818;stroke-width:0.5;" x1="844.5" x2="999.5" y1="641" y2="641"/></g><!--MD5=[ab4844d6a963a76d6711976405d51c6a]
class RuleBasedController--><g id="elem_RuleBasedController"><rect codeLine="23" fill="#F1F1F1" height="64.2969" id="RuleBasedController" rx="2.5" ry="2.5" style="stroke:#181818;stroke-width:0.5;" width="174" x="1088" y="593"/><ellipse cx="1103" cy="609" fill="#ADD1B2" rx="11" ry="11" style="stroke:#181818;stroke-width:1.0;"/><path d="M1105.9688,614.6406 Q1105.3906,614.9375 1104.75,615.0781 Q1104.1094,615.2344 1103.4063,615.2344 Q1100.9063,615.2344 1099.5781,613.5938 Q1098.2656,611.9375 1098.2656,608.8125 Q1098.2656,605.6875 1099.5781,604.0313 Q1100.9063,602.375 1103.4063,602.375 Q1104.1094,602.375 1104.75,602.5313 Q1105.4063,602.6875 1105.9688,602.9844 L1105.9688,605.7031 Q1105.3438,605.125 1104.75,604.8594 Q1104.1563,604.5781 1103.5313,604.5781 Q1102.1875,604.5781 1101.5,605.6563 Q1100.8125,606.7188 1100.8125,608.8125 Q1100.8125,610.9063 1101.5,611.9844 Q1102.1875,613.0469 1103.5313,613.0469 Q1104.1563,613.0469 1104.75,612.7813 Q1105.3438,612.5 1105.9688,611.9219 L1105.9688,614.6406 Z " fill="#000000"/><text fill="#000000" font-family="sans-serif" font-size="14" lengthAdjust="spacing" textLength="142" x="1117" y="613.8467">RuleBasedController</text><line style="stroke:#181818;stroke-width:0.5;" x1="1089" x2="1261" y1="625" y2="625"/><ellipse cx="1099" cy="638.6484" fill="none" rx="3" ry="3" style="stroke:#038048;stroke-width:1.0;"/><text fill="#000000" font-family="sans-serif" font-size="14" lengthAdjust="spacing" textLength="73" x="1108" y="641.9951">rules: TBD</text><line style="stroke:#181818;stroke-width:0.5;" x1="1089" x2="1261" y1="649.2969" y2="649.2969"/></g><!--MD5=[cca6253dd48c166c7f07a685640efb55]
class RandomControllerProvider--><g id="elem_RandomControllerProvider"><rect codeLine="27" fill="#F1F1F1" height="48" id="RandomControllerProvider" rx="2.5" ry="2.5" style="stroke:#181818;stroke-width:0.5;" width="213" x="863.5" y="435.5"/><ellipse cx="878.5" cy="451.5" fill="#ADD1B2" rx="11" ry="11" style="stroke:#181818;stroke-width:1.0;"/><path d="M881.4688,457.1406 Q880.8906,457.4375 880.25,457.5781 Q879.6094,457.7344 878.9063,457.7344 Q876.4063,457.7344 875.0781,456.0938 Q873.7656,454.4375 873.7656,451.3125 Q873.7656,448.1875 875.0781,446.5313 Q876.4063,444.875 878.9063,444.875 Q879.6094,444.875 880.25,445.0313 Q880.9063,445.1875 881.4688,445.4844 L881.4688,448.2031 Q880.8438,447.625 880.25,447.3594 Q879.6563,447.0781 879.0313,447.0781 Q877.6875,447.0781 877,448.1563 Q876.3125,449.2188 876.3125,451.3125 Q876.3125,453.4063 877,454.4844 Q877.6875,455.5469 879.0313,455.5469 Q879.6563,455.5469 880.25,455.2813 Q880.8438,455 881.4688,454.4219 L881.4688,457.1406 Z " fill="#000000"/><text fill="#000000" font-family="sans-serif" font-size="14" lengthAdjust="spacing" textLength="181" x="892.5" y="456.3467">RandomControllerProvider</text><line style="stroke:#181818;stroke-width:0.5;" x1="864.5" x2="1075.5" y1="467.5" y2="467.5"/><line style="stroke:#181818;stroke-width:0.5;" x1="864.5" x2="1075.5" y1="475.5" y2="475.5"/></g><!--MD5=[c856136f6107eff9a1017d3f7feaa79e]
class RuleBasedControllerProvider--><g id="elem_RuleBasedControllerProvider"><rect codeLine="29" fill="#F1F1F1" height="48" id="RuleBasedControllerProvider" rx="2.5" ry="2.5" style="stroke:#181818;stroke-width:0.5;" width="230" x="1112" y="435.5"/><ellipse cx="1127" cy="451.5" fill="#ADD1B2" rx="11" ry="11" style="stroke:#181818;stroke-width:1.0;"/><path d="M1129.9688,457.1406 Q1129.3906,457.4375 1128.75,457.5781 Q1128.1094,457.7344 1127.4063,457.7344 Q1124.9063,457.7344 1123.5781,456.0938 Q1122.2656,454.4375 1122.2656,451.3125 Q1122.2656,448.1875 1123.5781,446.5313 Q1124.9063,444.875 1127.4063,444.875 Q1128.1094,444.875 1128.75,445.0313 Q1129.4063,445.1875 1129.9688,445.4844 L1129.9688,448.2031 Q1129.3438,447.625 1128.75,447.3594 Q1128.1563,447.0781 1127.5313,447.0781 Q1126.1875,447.0781 1125.5,448.1563 Q1124.8125,449.2188 1124.8125,451.3125 Q1124.8125,453.4063 1125.5,454.4844 Q1126.1875,455.5469 1127.5313,455.5469 Q1128.1563,455.5469 1128.75,455.2813 Q1129.3438,455 1129.9688,454.4219 L1129.9688,457.1406 Z " fill="#000000"/><text fill="#000000" font-family="sans-serif" font-size="14" lengthAdjust="spacing" textLength="198" x="1141" y="456.3467">RuleBasedControllerProvider</text><line style="stroke:#181818;stroke-width:0.5;" x1="1113" x2="1341" y1="467.5" y2="467.5"/><line style="stroke:#181818;stroke-width:0.5;" x1="1113" x2="1341" y1="475.5" y2="475.5"/></g><!--MD5=[664eb10d81fd138a2b503cecdc8c1bf7]
class IEnvironmentProvider--><g id="elem_IEnvironmentProvider"><rect codeLine="39" fill="#F1F1F1" height="64.2969" id="IEnvironmentProvider" rx="2.5" ry="2.5" style="stroke:#181818;stroke-width:0.5;" width="402" x="64" y="229.5"/><ellipse cx="187.75" cy="245.5" fill="#B4A7E5" rx="11" ry="11" style="stroke:#181818;stroke-width:1.0;"/><path d="M183.6719,241.2656 L183.6719,239.1094 L191.0625,239.1094 L191.0625,241.2656 L188.5938,241.2656 L188.5938,249.3438 L191.0625,249.3438 L191.0625,251.5 L183.6719,251.5 L183.6719,249.3438 L186.1406,249.3438 L186.1406,241.2656 L183.6719,241.2656 Z " fill="#000000"/><text fill="#000000" font-family="sans-serif" font-size="14" font-style="italic" lengthAdjust="spacing" textLength="146" x="208.25" y="250.3467">IEnvironmentProvider</text><line style="stroke:#181818;stroke-width:0.5;" x1="65" x2="465" y1="261.5" y2="261.5"/><line style="stroke:#181818;stroke-width:0.5;" x1="65" x2="465" y1="269.5" y2="269.5"/><ellipse cx="75" cy="283.1484" fill="#84BE84" rx="3" ry="3" style="stroke:#038048;stroke-width:1.0;"/><text fill="#000000" font-family="sans-serif" font-size="14" lengthAdjust="spacing" textLength="376" x="84" y="286.4951">create_environment(config_path: String): IEnvironment</text></g><!--MD5=[e29f668360d013b759c007157b858626]
class SinergymProvider--><g id="elem_SinergymProvider"><rect codeLine="44" fill="#F1F1F1" height="48" id="SinergymProvider" rx="2.5" ry="2.5" style="stroke:#181818;stroke-width:0.5;" width="152" x="7" y="435.5"/><ellipse cx="22" cy="451.5" fill="#ADD1B2" rx="11" ry="11" style="stroke:#181818;stroke-width:1.0;"/><path d="M24.9688,457.1406 Q24.3906,457.4375 23.75,457.5781 Q23.1094,457.7344 22.4063,457.7344 Q19.9063,457.7344 18.5781,456.0938 Q17.2656,454.4375 17.2656,451.3125 Q17.2656,448.1875 18.5781,446.5313 Q19.9063,444.875 22.4063,444.875 Q23.1094,444.875 23.75,445.0313 Q24.4063,445.1875 24.9688,445.4844 L24.9688,448.2031 Q24.3438,447.625 23.75,447.3594 Q23.1563,447.0781 22.5313,447.0781 Q21.1875,447.0781 20.5,448.1563 Q19.8125,449.2188 19.8125,451.3125 Q19.8125,453.4063 20.5,454.4844 Q21.1875,455.5469 22.5313,455.5469 Q23.1563,455.5469 23.75,455.2813 Q24.3438,455 24.9688,454.4219 L24.9688,457.1406 Z " fill="#000000"/><text fill="#000000" font-family="sans-serif" font-size="14" lengthAdjust="spacing" textLength="120" x="36" y="456.3467">SinergymProvider</text><line style="stroke:#181818;stroke-width:0.5;" x1="8" x2="158" y1="467.5" y2="467.5"/><line style="stroke:#181818;stroke-width:0.5;" x1="8" x2="158" y1="475.5" y2="475.5"/></g><!--MD5=[30d24cbeb4efcde6f77e634e6bd714f2]
class SinergymEnvironment--><g id="elem_SinergymEnvironment"><rect codeLine="45" fill="#F1F1F1" height="48" id="SinergymEnvironment" rx="2.5" ry="2.5" style="stroke:#181818;stroke-width:0.5;" width="183" x="34.5" y="601"/><ellipse cx="49.5" cy="617" fill="#ADD1B2" rx="11" ry="11" style="stroke:#181818;stroke-width:1.0;"/><path d="M52.4688,622.6406 Q51.8906,622.9375 51.25,623.0781 Q50.6094,623.2344 49.9063,623.2344 Q47.4063,623.2344 46.0781,621.5938 Q44.7656,619.9375 44.7656,616.8125 Q44.7656,613.6875 46.0781,612.0313 Q47.4063,610.375 49.9063,610.375 Q50.6094,610.375 51.25,610.5313 Q51.9063,610.6875 52.4688,610.9844 L52.4688,613.7031 Q51.8438,613.125 51.25,612.8594 Q50.6563,612.5781 50.0313,612.5781 Q48.6875,612.5781 48,613.6563 Q47.3125,614.7188 47.3125,616.8125 Q47.3125,618.9063 48,619.9844 Q48.6875,621.0469 50.0313,621.0469 Q50.6563,621.0469 51.25,620.7813 Q51.8438,620.5 52.4688,619.9219 L52.4688,622.6406 Z " fill="#000000"/><text fill="#000000" font-family="sans-serif" font-size="14" lengthAdjust="spacing" textLength="151" x="63.5" y="621.8467">SinergymEnvironment</text><line style="stroke:#181818;stroke-width:0.5;" x1="35.5" x2="216.5" y1="633" y2="633"/><line style="stroke:#181818;stroke-width:0.5;" x1="35.5" x2="216.5" y1="641" y2="641"/></g><!--MD5=[a0968064e02f2f0717a86289d1e4dbc1]
class ModelicaProvider--><g id="elem_ModelicaProvider"><rect codeLine="52" fill="#F1F1F1" height="48" id="ModelicaProvider" rx="2.5" ry="2.5" style="stroke:#181818;stroke-width:0.5;" width="149" x="194.5" y="435.5"/><ellipse cx="209.5" cy="451.5" fill="#ADD1B2" rx="11" ry="11" style="stroke:#181818;stroke-width:1.0;"/><path d="M212.4688,457.1406 Q211.8906,457.4375 211.25,457.5781 Q210.6094,457.7344 209.9063,457.7344 Q207.4063,457.7344 206.0781,456.0938 Q204.7656,454.4375 204.7656,451.3125 Q204.7656,448.1875 206.0781,446.5313 Q207.4063,444.875 209.9063,444.875 Q210.6094,444.875 211.25,445.0313 Q211.9063,445.1875 212.4688,445.4844 L212.4688,448.2031 Q211.8438,447.625 211.25,447.3594 Q210.6563,447.0781 210.0313,447.0781 Q208.6875,447.0781 208,448.1563 Q207.3125,449.2188 207.3125,451.3125 Q207.3125,453.4063 208,454.4844 Q208.6875,455.5469 210.0313,455.5469 Q210.6563,455.5469 211.25,455.2813 Q211.8438,455 212.4688,454.4219 L212.4688,457.1406 Z " fill="#000000"/><text fill="#000000" font-family="sans-serif" font-size="14" lengthAdjust="spacing" textLength="117" x="223.5" y="456.3467">ModelicaProvider</text><line style="stroke:#181818;stroke-width:0.5;" x1="195.5" x2="342.5" y1="467.5" y2="467.5"/><line style="stroke:#181818;stroke-width:0.5;" x1="195.5" x2="342.5" y1="475.5" y2="475.5"/></g><!--MD5=[01f38dfdf06f31bc6656e5e90b65bb18]
class ModelicaEnvironment--><g id="elem_ModelicaEnvironment"><rect codeLine="53" fill="#F1F1F1" height="48" id="ModelicaEnvironment" rx="2.5" ry="2.5" style="stroke:#181818;stroke-width:0.5;" width="180" x="320" y="601"/><ellipse cx="335" cy="617" fill="#ADD1B2" rx="11" ry="11" style="stroke:#181818;stroke-width:1.0;"/><path d="M337.9688,622.6406 Q337.3906,622.9375 336.75,623.0781 Q336.1094,623.2344 335.4063,623.2344 Q332.9063,623.2344 331.5781,621.5938 Q330.2656,619.9375 330.2656,616.8125 Q330.2656,613.6875 331.5781,612.0313 Q332.9063,610.375 335.4063,610.375 Q336.1094,610.375 336.75,610.5313 Q337.4063,610.6875 337.9688,610.9844 L337.9688,613.7031 Q337.3438,613.125 336.75,612.8594 Q336.1563,612.5781 335.5313,612.5781 Q334.1875,612.5781 333.5,613.6563 Q332.8125,614.7188 332.8125,616.8125 Q332.8125,618.9063 333.5,619.9844 Q334.1875,621.0469 335.5313,621.0469 Q336.1563,621.0469 336.75,620.7813 Q337.3438,620.5 337.9688,619.9219 L337.9688,622.6406 Z " fill="#000000"/><text fill="#000000" font-family="sans-serif" font-size="14" lengthAdjust="spacing" textLength="148" x="349" y="621.8467">ModelicaEnvironment</text><line style="stroke:#181818;stroke-width:0.5;" x1="321" x2="499" y1="633" y2="633"/><line style="stroke:#181818;stroke-width:0.5;" x1="321" x2="499" y1="641" y2="641"/></g><!--MD5=[3e96dd66dd64ae2e61f50c8668a6b0a4]
class ExperimentManager--><g id="elem_ExperimentManager"><rect codeLine="60" fill="#F1F1F1" height="113.1875" id="ExperimentManager" rx="2.5" ry="2.5" style="stroke:#181818;stroke-width:0.5;" width="562" x="308" y="7"/><ellipse cx="515.75" cy="23" fill="#ADD1B2" rx="11" ry="11" style="stroke:#181818;stroke-width:1.0;"/><path d="M518.7188,28.6406 Q518.1406,28.9375 517.5,29.0781 Q516.8594,29.2344 516.1563,29.2344 Q513.6563,29.2344 512.3281,27.5938 Q511.0156,25.9375 511.0156,22.8125 Q511.0156,19.6875 512.3281,18.0313 Q513.6563,16.375 516.1563,16.375 Q516.8594,16.375 517.5,16.5313 Q518.1563,16.6875 518.7188,16.9844 L518.7188,19.7031 Q518.0938,19.125 517.5,18.8594 Q516.9063,18.5781 516.2813,18.5781 Q514.9375,18.5781 514.25,19.6563 Q513.5625,20.7188 513.5625,22.8125 Q513.5625,24.9063 514.25,25.9844 Q514.9375,27.0469 516.2813,27.0469 Q516.9063,27.0469 517.5,26.7813 Q518.0938,26.5 518.7188,25.9219 L518.7188,28.6406 Z " fill="#000000"/><text fill="#000000" font-family="sans-serif" font-size="14" lengthAdjust="spacing" textLength="138" x="536.25" y="27.8467">ExperimentManager</text><line style="stroke:#181818;stroke-width:0.5;" x1="309" x2="869" y1="39" y2="39"/><line style="stroke:#181818;stroke-width:0.5;" x1="309" x2="869" y1="47" y2="47"/><ellipse cx="319" cy="60.6484" fill="#84BE84" rx="3" ry="3" style="stroke:#038048;stroke-width:1.0;"/><text fill="#000000" font-family="sans-serif" font-size="14" lengthAdjust="spacing" textLength="536" x="328" y="63.9951">register_environment_provider(engine: String, provider: IEnvironmentProvider)</text><ellipse cx="319" cy="76.9453" fill="#84BE84" rx="3" ry="3" style="stroke:#038048;stroke-width:1.0;"/><text fill="#000000" font-family="sans-serif" font-size="14" lengthAdjust="spacing" textLength="489" x="328" y="80.292">register_controller_provider(controller: str, provider: IControllerProvider)</text><ellipse cx="319" cy="93.2422" fill="#84BE84" rx="3" ry="3" style="stroke:#038048;stroke-width:1.0;"/><text fill="#000000" font-family="sans-serif" font-size="14" lengthAdjust="spacing" textLength="272" x="328" y="96.5889">setup_experiments(config_path: String)</text><ellipse cx="319" cy="109.5391" fill="#84BE84" rx="3" ry="3" style="stroke:#038048;stroke-width:1.0;"/><text fill="#000000" font-family="sans-serif" font-size="14" lengthAdjust="spacing" textLength="54" x="328" y="112.8857">run_all()</text></g><!--MD5=[2a9217e8f2d7f96589335d2c6f09894a]
class Experiment--><g id="elem_Experiment"><rect codeLine="67" fill="#F1F1F1" height="129.4844" id="Experiment" rx="2.5" ry="2.5" style="stroke:#181818;stroke-width:0.5;" width="175" x="501.5" y="197"/><ellipse cx="545.75" cy="213" fill="#ADD1B2" rx="11" ry="11" style="stroke:#181818;stroke-width:1.0;"/><path d="M548.7188,218.6406 Q548.1406,218.9375 547.5,219.0781 Q546.8594,219.2344 546.1563,219.2344 Q543.6563,219.2344 542.3281,217.5938 Q541.0156,215.9375 541.0156,212.8125 Q541.0156,209.6875 542.3281,208.0313 Q543.6563,206.375 546.1563,206.375 Q546.8594,206.375 547.5,206.5313 Q548.1563,206.6875 548.7188,206.9844 L548.7188,209.7031 Q548.0938,209.125 547.5,208.8594 Q546.9063,208.5781 546.2813,208.5781 Q544.9375,208.5781 544.25,209.6563 Q543.5625,210.7188 543.5625,212.8125 Q543.5625,214.9063 544.25,215.9844 Q544.9375,217.0469 546.2813,217.0469 Q546.9063,217.0469 547.5,216.7813 Q548.0938,216.5 548.7188,215.9219 L548.7188,218.6406 Z " fill="#000000"/><text fill="#000000" font-family="sans-serif" font-size="14" lengthAdjust="spacing" textLength="78" x="566.25" y="217.8467">Experiment</text><line style="stroke:#181818;stroke-width:0.5;" x1="502.5" x2="675.5" y1="229" y2="229"/><ellipse cx="512.5" cy="242.6484" fill="none" rx="3" ry="3" style="stroke:#038048;stroke-width:1.0;"/><text fill="#000000" font-family="sans-serif" font-size="14" lengthAdjust="spacing" textLength="96" x="521.5" y="245.9951">engine: string</text><ellipse cx="512.5" cy="258.9453" fill="none" rx="3" ry="3" style="stroke:#038048;stroke-width:1.0;"/><text fill="#000000" font-family="sans-serif" font-size="14" lengthAdjust="spacing" textLength="90" x="521.5" y="262.292">episodes: int</text><ellipse cx="512.5" cy="275.2422" fill="none" rx="3" ry="3" style="stroke:#038048;stroke-width:1.0;"/><text fill="#000000" font-family="sans-serif" font-size="14" lengthAdjust="spacing" textLength="61" x="521.5" y="278.5889">seed: int</text><ellipse cx="512.5" cy="291.5391" fill="none" rx="3" ry="3" style="stroke:#038048;stroke-width:1.0;"/><text fill="#000000" font-family="sans-serif" font-size="14" lengthAdjust="spacing" textLength="144" x="521.5" y="294.8857">start_time: DateTime</text><ellipse cx="512.5" cy="307.8359" fill="none" rx="3" ry="3" style="stroke:#038048;stroke-width:1.0;"/><text fill="#000000" font-family="sans-serif" font-size="14" lengthAdjust="spacing" textLength="149" x="521.5" y="311.1826">finish_time: DateTime</text><line style="stroke:#181818;stroke-width:0.5;" x1="502.5" x2="675.5" y1="318.4844" y2="318.4844"/></g><!--MD5=[e91c523f8d7dd94a4e9260e7eb441913]
class ExperimentStatus--><g id="elem_ExperimentStatus"><rect codeLine="75" fill="#F1F1F1" height="113.1875" id="ExperimentStatus" rx="2.5" ry="2.5" style="stroke:#181818;stroke-width:0.5;" width="154" x="379" y="403"/><ellipse cx="394" cy="419" fill="#EB937F" rx="11" ry="11" style="stroke:#181818;stroke-width:1.0;"/><path d="M398.1094,425 L390.3906,425 L390.3906,412.6094 L398.1094,412.6094 L398.1094,414.7656 L392.8438,414.7656 L392.8438,417.4375 L397.6094,417.4375 L397.6094,419.5938 L392.8438,419.5938 L392.8438,422.8438 L398.1094,422.8438 L398.1094,425 Z " fill="#000000"/><text fill="#000000" font-family="sans-serif" font-size="14" lengthAdjust="spacing" textLength="122" x="408" y="423.8467">ExperimentStatus</text><line style="stroke:#181818;stroke-width:0.5;" x1="380" x2="532" y1="435" y2="435"/><text fill="#000000" font-family="sans-serif" font-size="14" lengthAdjust="spacing" textLength="64" x="385" y="451.9951">RUNNING</text><text fill="#000000" font-family="sans-serif" font-size="14" lengthAdjust="spacing" textLength="63" x="385" y="468.292">PENDING</text><text fill="#000000" font-family="sans-serif" font-size="14" lengthAdjust="spacing" textLength="63" x="385" y="484.5889">FINISHED</text><text fill="#000000" font-family="sans-serif" font-size="14" lengthAdjust="spacing" textLength="53" x="385" y="500.8857">TUNING</text><line style="stroke:#181818;stroke-width:0.5;" x1="380" x2="532" y1="508.1875" y2="508.1875"/></g><!--MD5=[cf7f4c4180feb383044c2835378188c0]
reverse link IController to RandomController--><g id="link_IController_RandomController"><path codeLine="17" d="M785.34,505.15 C820.95,536.11 866.92,576.1 895.43,600.89 " fill="none" id="IController-backto-RandomController" style="stroke:#181818;stroke-width:1.0;stroke-dasharray:7.0,7.0;"/><polygon fill="none" points="780.3,510.04,769.8,491.64,789.49,499.48,780.3,510.04" style="stroke:#181818;stroke-width:1.0;"/></g><!--MD5=[b834b966112b9893252030b9aa6d32d4]
reverse link IController to RuleBasedController--><g id="link_IController_RuleBasedController"><path codeLine="18" d="M807.21,500.27 C819.9,506.15 833.15,511.67 846,516 C912.91,538.55 934.69,524.68 1002,546 C1040.79,558.29 1082.42,576.87 1115.11,592.82 " fill="none" id="IController-backto-RuleBasedController" style="stroke:#181818;stroke-width:1.0;stroke-dasharray:7.0,7.0;"/><polygon fill="none" points="804.08,506.53,789.14,491.51,810.19,493.93,804.08,506.53" style="stroke:#181818;stroke-width:1.0;"/></g><!--MD5=[9db7cf3a0d4be62af3cd85fe9331bb3d]
reverse link IControllerProvider to RandomControllerProvider--><g id="link_IControllerProvider_RandomControllerProvider"><path codeLine="32" d="M970,322.25 C970,360.43 970,407.81 970,435.45 " fill="none" id="IControllerProvider-backto-RandomControllerProvider" style="stroke:#181818;stroke-width:1.0;stroke-dasharray:7.0,7.0;"/><polygon fill="none" points="963,322.16,970,302.16,977,322.16,963,322.16" style="stroke:#181818;stroke-width:1.0;"/></g><!--MD5=[37203d868cf9c5f71379978c948d4467]
reverse link IControllerProvider to RuleBasedControllerProvider--><g id="link_IControllerProvider_RuleBasedControllerProvider"><path codeLine="33" d="M1038.1,314.44 C1089.66,353.76 1158.01,405.89 1196.77,435.45 " fill="none" id="IControllerProvider-backto-RuleBasedControllerProvider" style="stroke:#181818;stroke-width:1.0;stroke-dasharray:7.0,7.0;"/><polygon fill="none" points="1033.67,319.86,1022.01,302.16,1042.16,308.73,1033.67,319.86" style="stroke:#181818;stroke-width:1.0;"/></g><!--MD5=[44fb3c4d97cdcd6ba53b59e819e93d76]
link RandomControllerProvider to RandomController--><g id="link_RandomControllerProvider_RandomController"><path codeLine="35" d="M963.22,483.58 C954.57,513.07 939.58,564.1 930.26,595.85 " fill="none" id="RandomControllerProvider-to-RandomController" style="stroke:#181818;stroke-width:1.0;"/><polygon fill="#181818" points="928.82,600.77,935.2006,593.2675,930.2331,595.9739,927.5268,591.0064,928.82,600.77" style="stroke:#181818;stroke-width:1.0;"/><text fill="#000000" font-family="sans-serif" font-size="13" lengthAdjust="spacing" textLength="48" x="945" y="559.0669">creates</text></g><!--MD5=[aa0f58427f75681aec6a8b84ba7498b3]
link RuleBasedControllerProvider to RuleBasedController--><g id="link_RuleBasedControllerProvider_RuleBasedController"><path codeLine="36" d="M1219.66,483.58 C1211.02,510.73 1196.58,556.14 1186.46,587.95 " fill="none" id="RuleBasedControllerProvider-to-RuleBasedController" style="stroke:#181818;stroke-width:1.0;"/><polygon fill="#181818" points="1184.88,592.94,1191.4214,585.5773,1186.3966,588.1756,1183.7983,583.1507,1184.88,592.94" style="stroke:#181818;stroke-width:1.0;"/><text fill="#000000" font-family="sans-serif" font-size="13" lengthAdjust="spacing" textLength="48" x="1200" y="559.0669">creates</text></g><!--MD5=[a2dcada079002ac9df36d65e23afa48a]
link SinergymProvider to SinergymEnvironment--><g id="link_SinergymProvider_SinergymEnvironment"><path codeLine="47" d="M89.07,483.58 C96.83,513.07 110.25,564.1 118.6,595.85 " fill="none" id="SinergymProvider-to-SinergymEnvironment" style="stroke:#181818;stroke-width:1.0;"/><polygon fill="#181818" points="119.89,600.77,121.4664,591.0481,118.6168,595.9348,113.7301,593.0852,119.89,600.77" style="stroke:#181818;stroke-width:1.0;"/><text fill="#000000" font-family="sans-serif" font-size="13" lengthAdjust="spacing" textLength="126" x="111" y="559.0669">creates and returns</text></g><!--MD5=[427581b306c1752b663033e5541eca56]
link SinergymEnvironment to IEnvironment--><g id="link_SinergymEnvironment_IEnvironment"><path codeLine="48" d="M198.94,649.06 C253.77,666.39 330.67,690.7 397.77,711.91 " fill="none" id="SinergymEnvironment-to-IEnvironment" style="stroke:#181818;stroke-width:1.0;stroke-dasharray:7.0,7.0;"/><polygon fill="none" points="399.91,705.24,416.87,717.94,395.69,718.59,399.91,705.24" style="stroke:#181818;stroke-width:1.0;"/></g><!--MD5=[aae06925d43089705534ab63c9ee2944]
reverse link IEnvironmentProvider to SinergymProvider--><g id="link_IEnvironmentProvider_SinergymProvider"><path codeLine="49" d="M222.33,308.45 C185.39,348.23 133.48,404.14 104.58,435.26 " fill="none" id="IEnvironmentProvider-backto-SinergymProvider" style="stroke:#181818;stroke-width:1.0;stroke-dasharray:7.0,7.0;"/><polygon fill="none" points="217.42,303.45,236.16,293.56,227.68,312.98,217.42,303.45" style="stroke:#181818;stroke-width:1.0;"/></g><!--MD5=[f7ddc21ae6906ace6935927122186f32]
link ModelicaProvider to ModelicaEnvironment--><g id="link_ModelicaProvider_ModelicaEnvironment"><path codeLine="55" d="M288.9,483.58 C314.55,513.32 359.07,564.95 386.4,596.63 " fill="none" id="ModelicaProvider-to-ModelicaEnvironment" style="stroke:#181818;stroke-width:1.0;"/><polygon fill="#181818" points="389.97,600.77,387.1323,591.3388,386.709,596.9798,381.068,596.5564,389.97,600.77" style="stroke:#181818;stroke-width:1.0;"/><text fill="#000000" font-family="sans-serif" font-size="13" lengthAdjust="spacing" textLength="126" x="358" y="559.0669">creates and returns</text></g><!--MD5=[b588e3acea36d629e8f81757ba296e5e]
link ModelicaEnvironment to IEnvironment--><g id="link_ModelicaEnvironment_IEnvironment"><path codeLine="56" d="M433.3,649.21 C448.45,664.31 468.88,684.65 487.93,703.63 " fill="none" id="ModelicaEnvironment-to-IEnvironment" style="stroke:#181818;stroke-width:1.0;stroke-dasharray:7.0,7.0;"/><polygon fill="none" points="492.89,698.7,502.12,717.77,483.01,708.62,492.89,698.7" style="stroke:#181818;stroke-width:1.0;"/></g><!--MD5=[8c577dd21db15aa54a6bfeadd51dc2f9]
reverse link IEnvironmentProvider to ModelicaProvider--><g id="link_IEnvironmentProvider_ModelicaProvider"><path codeLine="57" d="M266.05,313.82 C266.85,353.13 267.92,405.52 268.53,435.26 " fill="none" id="IEnvironmentProvider-backto-ModelicaProvider" style="stroke:#181818;stroke-width:1.0;stroke-dasharray:7.0,7.0;"/><polygon fill="none" points="259.04,313.7,265.63,293.56,273.04,313.41,259.04,313.7" style="stroke:#181818;stroke-width:1.0;"/></g><!--MD5=[f89f56c3f58488c464c31da1d9197c47]
link ExperimentManager to Experiment--><g id="link_ExperimentManager_Experiment"><path codeLine="82" d="M589,120.14 C589,142.34 589,168.14 589,191.51 " fill="none" id="ExperimentManager-to-Experiment" style="stroke:#181818;stroke-width:1.0;"/><polygon fill="#181818" points="589,196.77,593,187.77,589,191.77,585,187.77,589,196.77" style="stroke:#181818;stroke-width:1.0;"/><text fill="#000000" font-family="sans-serif" font-size="13" lengthAdjust="spacing" textLength="108" x="590" y="163.0669">creates and runs</text><text fill="#000000" font-family="sans-serif" font-size="13" lengthAdjust="spacing" textLength="8" x="580.4875" y="140.4213">1</text><text fill="#000000" font-family="sans-serif" font-size="13" lengthAdjust="spacing" textLength="7" x="581.6172" y="185.9175">*</text></g><!--MD5=[9f19b18fc58516a7e83c39a9f668085d]
link ExperimentManager to IEnvironmentProvider--><g id="link_ExperimentManager_IEnvironmentProvider"><path codeLine="83" d="M497.02,120.14 C440.18,154.53 369.09,197.53 320.69,226.81 " fill="none" id="ExperimentManager-to-IEnvironmentProvider" style="stroke:#181818;stroke-width:1.0;"/><polygon fill="#181818" points="316.37,229.43,326.1425,228.2056,320.6512,226.847,322.0097,221.3557,316.37,229.43" style="stroke:#181818;stroke-width:1.0;"/><text fill="#000000" font-family="sans-serif" font-size="13" lengthAdjust="spacing" textLength="56" x="448" y="163.0669">registers</text><text fill="#000000" font-family="sans-serif" font-size="13" lengthAdjust="spacing" textLength="8" x="476.7226" y="140.4213">1</text><text fill="#000000" font-family="sans-serif" font-size="13" lengthAdjust="spacing" textLength="7" x="319.2432" y="218.3187">*</text></g><!--MD5=[fb5bbe84228e4db71f8d5d1ccc7c8dca]
link ExperimentManager to IControllerProvider--><g id="link_ExperimentManager_IControllerProvider"><path codeLine="84" d="M696.91,120.01 C757.68,151.28 832.37,189.7 888.27,218.46 " fill="none" id="ExperimentManager-to-IControllerProvider" style="stroke:#181818;stroke-width:1.0;"/><polygon fill="#181818" points="892.94,220.86,886.7569,213.1939,888.4909,218.5784,883.1064,220.3124,892.94,220.86" style="stroke:#181818;stroke-width:1.0;"/><text fill="#000000" font-family="sans-serif" font-size="13" lengthAdjust="spacing" textLength="56" x="780" y="163.0669">registers</text><text fill="#000000" font-family="sans-serif" font-size="13" lengthAdjust="spacing" textLength="8" x="702.2235" y="140.2747">1</text><text fill="#000000" font-family="sans-serif" font-size="13" lengthAdjust="spacing" textLength="7" x="872.5973" y="209.9983">*</text></g><!--MD5=[15d7e4be280620cadd89e755b7ef981a]
link Experiment to IEnvironment--><g id="link_Experiment_IEnvironment"><path codeLine="85" d="M582.95,326.2 C573.3,427.84 554.66,624.22 546.27,712.54 " fill="none" id="Experiment-to-IEnvironment" style="stroke:#181818;stroke-width:1.0;"/><polygon fill="#181818" points="545.78,717.69,550.6095,709.1065,546.2507,712.7122,542.645,708.3534,545.78,717.69" style="stroke:#181818;stroke-width:1.0;"/><text fill="#000000" font-family="sans-serif" font-size="13" lengthAdjust="spacing" textLength="23" x="562" y="559.0669">has</text><text fill="#000000" font-family="sans-serif" font-size="13" lengthAdjust="spacing" textLength="7" x="574.8458" y="346.5947">*</text><text fill="#000000" font-family="sans-serif" font-size="13" lengthAdjust="spacing" textLength="8" x="537.7436" y="706.8002">1</text></g><!--MD5=[9521550349ee69d8d77c5605f0c9a3a3]
link IController to IEnvironment--><g id="link_IController_IEnvironment"><path codeLine="86" d="M720.88,491.65 C700.94,537.13 660.22,623.32 612,688 C605.4,696.85 597.69,705.65 589.84,713.86 " fill="none" id="IController-to-IEnvironment" style="stroke:#181818;stroke-width:1.0;"/><polygon fill="#181818" points="585.98,717.84,595.1215,714.1748,589.4652,714.2548,589.3852,708.5985,585.98,717.84" style="stroke:#181818;stroke-width:1.0;"/><text fill="#000000" font-family="sans-serif" font-size="13" lengthAdjust="spacing" textLength="75" x="671" y="629.5669">depends on</text><text fill="#000000" font-family="sans-serif" font-size="13" lengthAdjust="spacing" textLength="7" x="710.4521" y="511.8778">*</text><text fill="#000000" font-family="sans-serif" font-size="13" lengthAdjust="spacing" textLength="8" x="584.6017" y="706.975">1</text></g><!--MD5=[256f23329fb1a2403b66eea0c995fb44]
link Experiment to IController--><g id="link_Experiment_IController"><path codeLine="87" d="M636.08,326.14 C659.86,358.28 687.82,396.08 707.77,423.04 " fill="none" id="Experiment-to-IController" style="stroke:#181818;stroke-width:1.0;"/><polygon fill="#181818" points="710.9,427.27,708.7605,417.6563,707.9252,423.2512,702.3304,422.416,710.9,427.27" style="stroke:#181818;stroke-width:1.0;"/><text fill="#000000" font-family="sans-serif" font-size="13" lengthAdjust="spacing" textLength="23" x="671" y="369.0669">has</text><text fill="#000000" font-family="sans-serif" font-size="13" lengthAdjust="spacing" textLength="7" x="634.1189" y="346.5278">*</text><text fill="#000000" font-family="sans-serif" font-size="13" lengthAdjust="spacing" textLength="8" x="697.5647" y="416.4989">1</text></g><!--MD5=[f8212b782ca955b7bfd71cf52e00eccd]
link Experiment to ExperimentStatus--><g id="link_Experiment_ExperimentStatus"><path codeLine="88" d="M545.82,326.14 C530.04,349.39 512.25,375.6 496.69,398.53 " fill="none" id="Experiment-to-ExperimentStatus" style="stroke:#181818;stroke-width:1.0;"/><polygon fill="#181818" points="493.82,402.77,502.1821,397.5666,496.6265,398.6319,495.5611,393.0763,493.82,402.77" style="stroke:#181818;stroke-width:1.0;"/><text fill="#000000" font-family="sans-serif" font-size="13" lengthAdjust="spacing" textLength="23" x="524" y="369.0669">has</text><text fill="#000000" font-family="sans-serif" font-size="13" lengthAdjust="spacing" textLength="7" x="533.4226" y="346.5278">*</text><text fill="#000000" font-family="sans-serif" font-size="13" lengthAdjust="spacing" textLength="8" x="489.9418" y="392.0055">1</text></g><!--MD5=[9fce257194875ba5b130c0d8fc721798]
@startuml
' Interfaces
interface IEnvironment {
  + reset(): State
  + step(action: Action): (State, Reward, bool, dict)
}

interface IController {
  + getAction(state): Action
}

interface IControllerProvider {
	+ env: gymnasium.Env
	+ create_controller(env: Env, config_path: str): IController
}

' ───── Controllers ─────
IController <|.. RandomController
IController <|.. RuleBasedController

class RandomController {
}

class RuleBasedController {
  + rules: TBD
}

class RandomControllerProvider {
}
class RuleBasedControllerProvider {
}

IControllerProvider <|.. RandomControllerProvider
IControllerProvider <|.. RuleBasedControllerProvider

RandomControllerProvider - -> RandomController : creates
RuleBasedControllerProvider - -> RuleBasedController : creates

' ───── Abstract factory for environments ─────
interface IEnvironmentProvider {
  + create_environment(config_path: String): IEnvironment
}

' ───── Sinergym Environment ─────
class SinergymProvider
class SinergymEnvironment

SinergymProvider - -> SinergymEnvironment : creates and returns
SinergymEnvironment ..|> IEnvironment
IEnvironmentProvider <|.. SinergymProvider

' ───── Modelica Environment ─────
class ModelicaProvider
class ModelicaEnvironment

ModelicaProvider - -> ModelicaEnvironment : creates and returns
ModelicaEnvironment ..|> IEnvironment
IEnvironmentProvider <|.. ModelicaProvider

' ───── Orchestration ─────
class ExperimentManager {
  + register_environment_provider(engine: String, provider: IEnvironmentProvider)
  + register_controller_provider(controller: str, provider: IControllerProvider)
  + setup_experiments(config_path: String)
  + run_all()
}

class Experiment {
  + engine: string
  + episodes: int
  + seed: int
  + start_time: DateTime
  + finish_time: DateTime
}

enum ExperimentStatus {
  RUNNING
  PENDING
  FINISHED
  TUNING
}

ExperimentManager "1" - -> "*" Experiment : creates and runs
ExperimentManager "1" - -> "*" IEnvironmentProvider : registers
ExperimentManager "1" - -> "*" IControllerProvider : registers
Experiment "*" - -> "1" IEnvironment : has
IController "*" - -> "1" IEnvironment : depends on
Experiment "*" - -> "1" IController : has
Experiment "*" - -> "1" ExperimentStatus : has
@enduml

@startuml
interface IEnvironment {
  + reset(): State
  + step(action: Action): (State, Reward, bool, dict)
}

interface IController {
  + getAction(state): Action
}

interface IControllerProvider {
	+ env: gymnasium.Env
	+ create_controller(env: Env, config_path: str): IController
}

IController <|.. RandomController
IController <|.. RuleBasedController

class RandomController {
}

class RuleBasedController {
  + rules: TBD
}

class RandomControllerProvider {
}
class RuleBasedControllerProvider {
}

IControllerProvider <|.. RandomControllerProvider
IControllerProvider <|.. RuleBasedControllerProvider

RandomControllerProvider - -> RandomController : creates
RuleBasedControllerProvider - -> RuleBasedController : creates

interface IEnvironmentProvider {
  + create_environment(config_path: String): IEnvironment
}

class SinergymProvider
class SinergymEnvironment

SinergymProvider - -> SinergymEnvironment : creates and returns
SinergymEnvironment ..|> IEnvironment
IEnvironmentProvider <|.. SinergymProvider

class ModelicaProvider
class ModelicaEnvironment

ModelicaProvider - -> ModelicaEnvironment : creates and returns
ModelicaEnvironment ..|> IEnvironment
IEnvironmentProvider <|.. ModelicaProvider

class ExperimentManager {
  + register_environment_provider(engine: String, provider: IEnvironmentProvider)
  + register_controller_provider(controller: str, provider: IControllerProvider)
  + setup_experiments(config_path: String)
  + run_all()
}

class Experiment {
  + engine: string
  + episodes: int
  + seed: int
  + start_time: DateTime
  + finish_time: DateTime
}

enum ExperimentStatus {
  RUNNING
  PENDING
  FINISHED
  TUNING
}

ExperimentManager "1" - -> "*" Experiment : creates and runs
ExperimentManager "1" - -> "*" IEnvironmentProvider : registers
ExperimentManager "1" - -> "*" IControllerProvider : registers
Experiment "*" - -> "1" IEnvironment : has
IController "*" - -> "1" IEnvironment : depends on
Experiment "*" - -> "1" IController : has
Experiment "*" - -> "1" ExperimentStatus : has
@enduml

PlantUML version 1.2022.7(Mon Aug 22 17:01:30 UTC 2022)
(GPL source distribution)
Java Runtime: OpenJDK Runtime Environment
JVM: OpenJDK 64-Bit Server VM
Default Encoding: UTF-8
Language: en
Country: null
--></g></svg>