<?xml version="1.0" encoding="UTF-8" standalone="no"?><svg xmlns="http://www.w3.org/2000/svg" xmlns:xlink="http://www.w3.org/1999/xlink" contentStyleType="text/css" height="805px" preserveAspectRatio="none" style="width:1250px;height:805px;background:#FFFFFF;" version="1.1" viewBox="0 0 1250 805" width="1250px" zoomAndPan="magnify"><defs/><g><!--MD5=[e3c565211456ad2dabb0f70601bb8c20]
class IEnvironment--><g id="elem_IEnvironment"><rect codeLine="2" fill="#F1F1F1" height="80.5938" id="IEnvironment" rx="2.5" ry="2.5" style="stroke:#181818;stroke-width:0.5;" width="347" x="156.26" y="718"/><ellipse cx="280.51" cy="734" fill="#B4A7E5" rx="11" ry="11" style="stroke:#181818;stroke-width:1.0;"/><path d="M276.4319,729.7656 L276.4319,727.6094 L283.8225,727.6094 L283.8225,729.7656 L281.3538,729.7656 L281.3538,737.8438 L283.8225,737.8438 L283.8225,740 L276.4319,740 L276.4319,737.8438 L278.9006,737.8438 L278.9006,729.7656 L276.4319,729.7656 Z " fill="#000000"/><text fill="#000000" font-family="sans-serif" font-size="14" font-style="italic" lengthAdjust="spacing" textLength="90" x="301.01" y="738.8467">IEnvironment</text><line style="stroke:#181818;stroke-width:0.5;" x1="157.26" x2="502.26" y1="750" y2="750"/><line style="stroke:#181818;stroke-width:0.5;" x1="157.26" x2="502.26" y1="758" y2="758"/><ellipse cx="167.26" cy="771.6484" fill="#84BE84" rx="3" ry="3" style="stroke:#038048;stroke-width:1.0;"/><text fill="#000000" font-family="sans-serif" font-size="14" lengthAdjust="spacing" textLength="91" x="176.26" y="774.9951">reset(): State</text><ellipse cx="167.26" cy="787.9453" fill="#84BE84" rx="3" ry="3" style="stroke:#038048;stroke-width:1.0;"/><text fill="#000000" font-family="sans-serif" font-size="14" lengthAdjust="spacing" textLength="321" x="176.26" y="791.292">step(action: Action): (State, Reward, bool, dict)</text></g><!--MD5=[bd571520ce57ba8fc108ce35545cd758]
class IController--><g id="elem_IController"><rect codeLine="7" fill="#F1F1F1" height="64.2969" id="IController" rx="2.5" ry="2.5" style="stroke:#181818;stroke-width:0.5;" width="189" x="235.26" y="427.5"/><ellipse cx="290.51" cy="443.5" fill="#B4A7E5" rx="11" ry="11" style="stroke:#181818;stroke-width:1.0;"/><path d="M286.4319,439.2656 L286.4319,437.1094 L293.8225,437.1094 L293.8225,439.2656 L291.3538,439.2656 L291.3538,447.3438 L293.8225,447.3438 L293.8225,449.5 L286.4319,449.5 L286.4319,447.3438 L288.9006,447.3438 L288.9006,439.2656 L286.4319,439.2656 Z " fill="#000000"/><text fill="#000000" font-family="sans-serif" font-size="14" font-style="italic" lengthAdjust="spacing" textLength="70" x="311.01" y="448.3467">IController</text><line style="stroke:#181818;stroke-width:0.5;" x1="236.26" x2="423.26" y1="459.5" y2="459.5"/><line style="stroke:#181818;stroke-width:0.5;" x1="236.26" x2="423.26" y1="467.5" y2="467.5"/><ellipse cx="246.26" cy="481.1484" fill="#84BE84" rx="3" ry="3" style="stroke:#038048;stroke-width:1.0;"/><text fill="#000000" font-family="sans-serif" font-size="14" lengthAdjust="spacing" textLength="163" x="255.26" y="484.4951">getAction(state): Action</text></g><!--MD5=[7f09f002e0e87076adc008c8fae66c09]
class IControllerProvider--><g id="elem_IControllerProvider"><rect codeLine="11" fill="#F1F1F1" height="80.5938" id="IControllerProvider" rx="2.5" ry="2.5" style="stroke:#181818;stroke-width:0.5;" width="405" x="379.26" y="221"/><ellipse cx="514.51" cy="237" fill="#B4A7E5" rx="11" ry="11" style="stroke:#181818;stroke-width:1.0;"/><path d="M510.4319,232.7656 L510.4319,230.6094 L517.8225,230.6094 L517.8225,232.7656 L515.3538,232.7656 L515.3538,240.8438 L517.8225,240.8438 L517.8225,243 L510.4319,243 L510.4319,240.8438 L512.9006,240.8438 L512.9006,232.7656 L510.4319,232.7656 Z " fill="#000000"/><text fill="#000000" font-family="sans-serif" font-size="14" font-style="italic" lengthAdjust="spacing" textLength="126" x="535.01" y="241.8467">IControllerProvider</text><line style="stroke:#181818;stroke-width:0.5;" x1="380.26" x2="783.26" y1="253" y2="253"/><ellipse cx="390.26" cy="266.6484" fill="none" rx="3" ry="3" style="stroke:#038048;stroke-width:1.0;"/><text fill="#000000" font-family="sans-serif" font-size="14" lengthAdjust="spacing" textLength="142" x="399.26" y="269.9951">env: gymnasium.Env</text><line style="stroke:#181818;stroke-width:0.5;" x1="380.26" x2="783.26" y1="277.2969" y2="277.2969"/><ellipse cx="390.26" cy="290.9453" fill="#84BE84" rx="3" ry="3" style="stroke:#038048;stroke-width:1.0;"/><text fill="#000000" font-family="sans-serif" font-size="14" lengthAdjust="spacing" textLength="379" x="399.26" y="294.292">create_controller(env: Env, config_path: str): IController</text></g><!--MD5=[cca6253dd48c166c7f07a685640efb55]
class RandomControllerProvider--><g id="elem_RandomControllerProvider"><rect codeLine="16" fill="#F1F1F1" height="48" id="RandomControllerProvider" rx="2.5" ry="2.5" style="stroke:#181818;stroke-width:0.5;" width="213" x="459.26" y="435.5"/><ellipse cx="474.26" cy="451.5" fill="#ADD1B2" rx="11" ry="11" style="stroke:#181818;stroke-width:1.0;"/><path d="M477.2288,457.1406 Q476.6506,457.4375 476.01,457.5781 Q475.3694,457.7344 474.6663,457.7344 Q472.1663,457.7344 470.8381,456.0938 Q469.5256,454.4375 469.5256,451.3125 Q469.5256,448.1875 470.8381,446.5313 Q472.1663,444.875 474.6663,444.875 Q475.3694,444.875 476.01,445.0313 Q476.6663,445.1875 477.2288,445.4844 L477.2288,448.2031 Q476.6038,447.625 476.01,447.3594 Q475.4163,447.0781 474.7913,447.0781 Q473.4475,447.0781 472.76,448.1563 Q472.0725,449.2188 472.0725,451.3125 Q472.0725,453.4063 472.76,454.4844 Q473.4475,455.5469 474.7913,455.5469 Q475.4163,455.5469 476.01,455.2813 Q476.6038,455 477.2288,454.4219 L477.2288,457.1406 Z " fill="#000000"/><text fill="#000000" font-family="sans-serif" font-size="14" lengthAdjust="spacing" textLength="181" x="488.26" y="456.3467">RandomControllerProvider</text><line style="stroke:#181818;stroke-width:0.5;" x1="460.26" x2="671.26" y1="467.5" y2="467.5"/><line style="stroke:#181818;stroke-width:0.5;" x1="460.26" x2="671.26" y1="475.5" y2="475.5"/></g><!--MD5=[c856136f6107eff9a1017d3f7feaa79e]
class RuleBasedControllerProvider--><g id="elem_RuleBasedControllerProvider"><rect codeLine="20" fill="#F1F1F1" height="48" id="RuleBasedControllerProvider" rx="2.5" ry="2.5" style="stroke:#181818;stroke-width:0.5;" width="230" x="707.76" y="435.5"/><ellipse cx="722.76" cy="451.5" fill="#ADD1B2" rx="11" ry="11" style="stroke:#181818;stroke-width:1.0;"/><path d="M725.7288,457.1406 Q725.1506,457.4375 724.51,457.5781 Q723.8694,457.7344 723.1663,457.7344 Q720.6663,457.7344 719.3381,456.0938 Q718.0256,454.4375 718.0256,451.3125 Q718.0256,448.1875 719.3381,446.5313 Q720.6663,444.875 723.1663,444.875 Q723.8694,444.875 724.51,445.0313 Q725.1663,445.1875 725.7288,445.4844 L725.7288,448.2031 Q725.1038,447.625 724.51,447.3594 Q723.9163,447.0781 723.2913,447.0781 Q721.9475,447.0781 721.26,448.1563 Q720.5725,449.2188 720.5725,451.3125 Q720.5725,453.4063 721.26,454.4844 Q721.9475,455.5469 723.2913,455.5469 Q723.9163,455.5469 724.51,455.2813 Q725.1038,455 725.7288,454.4219 L725.7288,457.1406 Z " fill="#000000"/><text fill="#000000" font-family="sans-serif" font-size="14" lengthAdjust="spacing" textLength="198" x="736.76" y="456.3467">RuleBasedControllerProvider</text><line style="stroke:#181818;stroke-width:0.5;" x1="708.76" x2="936.76" y1="467.5" y2="467.5"/><line style="stroke:#181818;stroke-width:0.5;" x1="708.76" x2="936.76" y1="475.5" y2="475.5"/></g><!--MD5=[2f2af61d07428df936a35126d7ff4147]
class RandomController--><g id="elem_RandomController"><rect codeLine="92" fill="#F1F1F1" height="48" id="RandomController" rx="2.5" ry="2.5" style="stroke:#181818;stroke-width:0.5;" width="157" x="464.26" y="601"/><ellipse cx="479.26" cy="617" fill="#ADD1B2" rx="11" ry="11" style="stroke:#181818;stroke-width:1.0;"/><path d="M482.2288,622.6406 Q481.6506,622.9375 481.01,623.0781 Q480.3694,623.2344 479.6663,623.2344 Q477.1663,623.2344 475.8381,621.5938 Q474.5256,619.9375 474.5256,616.8125 Q474.5256,613.6875 475.8381,612.0313 Q477.1663,610.375 479.6663,610.375 Q480.3694,610.375 481.01,610.5313 Q481.6663,610.6875 482.2288,610.9844 L482.2288,613.7031 Q481.6038,613.125 481.01,612.8594 Q480.4163,612.5781 479.7913,612.5781 Q478.4475,612.5781 477.76,613.6563 Q477.0725,614.7188 477.0725,616.8125 Q477.0725,618.9063 477.76,619.9844 Q478.4475,621.0469 479.7913,621.0469 Q480.4163,621.0469 481.01,620.7813 Q481.6038,620.5 482.2288,619.9219 L482.2288,622.6406 Z " fill="#000000"/><text fill="#000000" font-family="sans-serif" font-size="14" lengthAdjust="spacing" textLength="125" x="493.26" y="621.8467">RandomController</text><line style="stroke:#181818;stroke-width:0.5;" x1="465.26" x2="620.26" y1="633" y2="633"/><line style="stroke:#181818;stroke-width:0.5;" x1="465.26" x2="620.26" y1="641" y2="641"/></g><!--MD5=[664eb10d81fd138a2b503cecdc8c1bf7]
class IEnvironmentProvider--><g id="elem_IEnvironmentProvider"><rect codeLine="30" fill="#F1F1F1" height="64.2969" id="IEnvironmentProvider" rx="2.5" ry="2.5" style="stroke:#181818;stroke-width:0.5;" width="402" x="841.76" y="229.5"/><ellipse cx="965.51" cy="245.5" fill="#B4A7E5" rx="11" ry="11" style="stroke:#181818;stroke-width:1.0;"/><path d="M961.4319,241.2656 L961.4319,239.1094 L968.8225,239.1094 L968.8225,241.2656 L966.3538,241.2656 L966.3538,249.3438 L968.8225,249.3438 L968.8225,251.5 L961.4319,251.5 L961.4319,249.3438 L963.9006,249.3438 L963.9006,241.2656 L961.4319,241.2656 Z " fill="#000000"/><text fill="#000000" font-family="sans-serif" font-size="14" font-style="italic" lengthAdjust="spacing" textLength="146" x="986.01" y="250.3467">IEnvironmentProvider</text><line style="stroke:#181818;stroke-width:0.5;" x1="842.76" x2="1242.76" y1="261.5" y2="261.5"/><line style="stroke:#181818;stroke-width:0.5;" x1="842.76" x2="1242.76" y1="269.5" y2="269.5"/><ellipse cx="852.76" cy="283.1484" fill="#84BE84" rx="3" ry="3" style="stroke:#038048;stroke-width:1.0;"/><text fill="#000000" font-family="sans-serif" font-size="14" lengthAdjust="spacing" textLength="376" x="861.76" y="286.4951">create_environment(config_path: String): IEnvironment</text></g><!--MD5=[e29f668360d013b759c007157b858626]
class SinergymProvider--><g id="elem_SinergymProvider"><rect codeLine="35" fill="#F1F1F1" height="48" id="SinergymProvider" rx="2.5" ry="2.5" style="stroke:#181818;stroke-width:0.5;" width="152" x="972.76" y="435.5"/><ellipse cx="987.76" cy="451.5" fill="#ADD1B2" rx="11" ry="11" style="stroke:#181818;stroke-width:1.0;"/><path d="M990.7288,457.1406 Q990.1506,457.4375 989.51,457.5781 Q988.8694,457.7344 988.1663,457.7344 Q985.6663,457.7344 984.3381,456.0938 Q983.0256,454.4375 983.0256,451.3125 Q983.0256,448.1875 984.3381,446.5313 Q985.6663,444.875 988.1663,444.875 Q988.8694,444.875 989.51,445.0313 Q990.1663,445.1875 990.7288,445.4844 L990.7288,448.2031 Q990.1038,447.625 989.51,447.3594 Q988.9163,447.0781 988.2913,447.0781 Q986.9475,447.0781 986.26,448.1563 Q985.5725,449.2188 985.5725,451.3125 Q985.5725,453.4063 986.26,454.4844 Q986.9475,455.5469 988.2913,455.5469 Q988.9163,455.5469 989.51,455.2813 Q990.1038,455 990.7288,454.4219 L990.7288,457.1406 Z " fill="#000000"/><text fill="#000000" font-family="sans-serif" font-size="14" lengthAdjust="spacing" textLength="120" x="1001.76" y="456.3467">SinergymProvider</text><line style="stroke:#181818;stroke-width:0.5;" x1="973.76" x2="1123.76" y1="467.5" y2="467.5"/><line style="stroke:#181818;stroke-width:0.5;" x1="973.76" x2="1123.76" y1="475.5" y2="475.5"/></g><!--MD5=[30d24cbeb4efcde6f77e634e6bd714f2]
class SinergymEnvironment--><g id="elem_SinergymEnvironment"><rect codeLine="36" fill="#F1F1F1" height="48" id="SinergymEnvironment" rx="2.5" ry="2.5" style="stroke:#181818;stroke-width:0.5;" width="183" x="931.26" y="601"/><ellipse cx="946.26" cy="617" fill="#ADD1B2" rx="11" ry="11" style="stroke:#181818;stroke-width:1.0;"/><path d="M949.2288,622.6406 Q948.6506,622.9375 948.01,623.0781 Q947.3694,623.2344 946.6663,623.2344 Q944.1663,623.2344 942.8381,621.5938 Q941.5256,619.9375 941.5256,616.8125 Q941.5256,613.6875 942.8381,612.0313 Q944.1663,610.375 946.6663,610.375 Q947.3694,610.375 948.01,610.5313 Q948.6663,610.6875 949.2288,610.9844 L949.2288,613.7031 Q948.6038,613.125 948.01,612.8594 Q947.4163,612.5781 946.7913,612.5781 Q945.4475,612.5781 944.76,613.6563 Q944.0725,614.7188 944.0725,616.8125 Q944.0725,618.9063 944.76,619.9844 Q945.4475,621.0469 946.7913,621.0469 Q947.4163,621.0469 948.01,620.7813 Q948.6038,620.5 949.2288,619.9219 L949.2288,622.6406 Z " fill="#000000"/><text fill="#000000" font-family="sans-serif" font-size="14" lengthAdjust="spacing" textLength="151" x="960.26" y="621.8467">SinergymEnvironment</text><line style="stroke:#181818;stroke-width:0.5;" x1="932.26" x2="1113.26" y1="633" y2="633"/><line style="stroke:#181818;stroke-width:0.5;" x1="932.26" x2="1113.26" y1="641" y2="641"/></g><!--MD5=[3e96dd66dd64ae2e61f50c8668a6b0a4]
class ExperimentManager--><g id="elem_ExperimentManager"><rect codeLine="49" fill="#F1F1F1" height="113.1875" id="ExperimentManager" rx="2.5" ry="2.5" style="stroke:#181818;stroke-width:0.5;" width="562" x="300.76" y="7"/><ellipse cx="508.51" cy="23" fill="#ADD1B2" rx="11" ry="11" style="stroke:#181818;stroke-width:1.0;"/><path d="M511.4788,28.6406 Q510.9006,28.9375 510.26,29.0781 Q509.6194,29.2344 508.9163,29.2344 Q506.4163,29.2344 505.0881,27.5938 Q503.7756,25.9375 503.7756,22.8125 Q503.7756,19.6875 505.0881,18.0313 Q506.4163,16.375 508.9163,16.375 Q509.6194,16.375 510.26,16.5313 Q510.9163,16.6875 511.4788,16.9844 L511.4788,19.7031 Q510.8538,19.125 510.26,18.8594 Q509.6663,18.5781 509.0413,18.5781 Q507.6975,18.5781 507.01,19.6563 Q506.3225,20.7188 506.3225,22.8125 Q506.3225,24.9063 507.01,25.9844 Q507.6975,27.0469 509.0413,27.0469 Q509.6663,27.0469 510.26,26.7813 Q510.8538,26.5 511.4788,25.9219 L511.4788,28.6406 Z " fill="#000000"/><text fill="#000000" font-family="sans-serif" font-size="14" lengthAdjust="spacing" textLength="138" x="529.01" y="27.8467">ExperimentManager</text><line style="stroke:#181818;stroke-width:0.5;" x1="301.76" x2="861.76" y1="39" y2="39"/><line style="stroke:#181818;stroke-width:0.5;" x1="301.76" x2="861.76" y1="47" y2="47"/><ellipse cx="311.76" cy="60.6484" fill="#84BE84" rx="3" ry="3" style="stroke:#038048;stroke-width:1.0;"/><text fill="#000000" font-family="sans-serif" font-size="14" lengthAdjust="spacing" textLength="536" x="320.76" y="63.9951">register_environment_provider(engine: String, provider: IEnvironmentProvider)</text><ellipse cx="311.76" cy="76.9453" fill="#84BE84" rx="3" ry="3" style="stroke:#038048;stroke-width:1.0;"/><text fill="#000000" font-family="sans-serif" font-size="14" lengthAdjust="spacing" textLength="489" x="320.76" y="80.292">register_controller_provider(controller: str, provider: IControllerProvider)</text><ellipse cx="311.76" cy="93.2422" fill="#84BE84" rx="3" ry="3" style="stroke:#038048;stroke-width:1.0;"/><text fill="#000000" font-family="sans-serif" font-size="14" lengthAdjust="spacing" textLength="272" x="320.76" y="96.5889">setup_experiments(config_path: String)</text><ellipse cx="311.76" cy="109.5391" fill="#84BE84" rx="3" ry="3" style="stroke:#038048;stroke-width:1.0;"/><text fill="#000000" font-family="sans-serif" font-size="14" lengthAdjust="spacing" textLength="54" x="320.76" y="112.8857">run_all()</text></g><!--MD5=[2a9217e8f2d7f96589335d2c6f09894a]
class Experiment--><g id="elem_Experiment"><rect codeLine="57" fill="#F1F1F1" height="129.4844" id="Experiment" rx="2.5" ry="2.5" style="stroke:#181818;stroke-width:0.5;" width="175" x="110.26" y="197"/><ellipse cx="154.51" cy="213" fill="#ADD1B2" rx="11" ry="11" style="stroke:#181818;stroke-width:1.0;"/><path d="M157.4788,218.6406 Q156.9006,218.9375 156.26,219.0781 Q155.6194,219.2344 154.9163,219.2344 Q152.4163,219.2344 151.0881,217.5938 Q149.7756,215.9375 149.7756,212.8125 Q149.7756,209.6875 151.0881,208.0313 Q152.4163,206.375 154.9163,206.375 Q155.6194,206.375 156.26,206.5313 Q156.9163,206.6875 157.4788,206.9844 L157.4788,209.7031 Q156.8538,209.125 156.26,208.8594 Q155.6663,208.5781 155.0413,208.5781 Q153.6975,208.5781 153.01,209.6563 Q152.3225,210.7188 152.3225,212.8125 Q152.3225,214.9063 153.01,215.9844 Q153.6975,217.0469 155.0413,217.0469 Q155.6663,217.0469 156.26,216.7813 Q156.8538,216.5 157.4788,215.9219 L157.4788,218.6406 Z " fill="#000000"/><text fill="#000000" font-family="sans-serif" font-size="14" lengthAdjust="spacing" textLength="78" x="175.01" y="217.8467">Experiment</text><line style="stroke:#181818;stroke-width:0.5;" x1="111.26" x2="284.26" y1="229" y2="229"/><ellipse cx="121.26" cy="242.6484" fill="none" rx="3" ry="3" style="stroke:#038048;stroke-width:1.0;"/><text fill="#000000" font-family="sans-serif" font-size="14" lengthAdjust="spacing" textLength="96" x="130.26" y="245.9951">engine: string</text><ellipse cx="121.26" cy="258.9453" fill="none" rx="3" ry="3" style="stroke:#038048;stroke-width:1.0;"/><text fill="#000000" font-family="sans-serif" font-size="14" lengthAdjust="spacing" textLength="90" x="130.26" y="262.292">episodes: int</text><ellipse cx="121.26" cy="275.2422" fill="none" rx="3" ry="3" style="stroke:#038048;stroke-width:1.0;"/><text fill="#000000" font-family="sans-serif" font-size="14" lengthAdjust="spacing" textLength="61" x="130.26" y="278.5889">seed: int</text><ellipse cx="121.26" cy="291.5391" fill="none" rx="3" ry="3" style="stroke:#038048;stroke-width:1.0;"/><text fill="#000000" font-family="sans-serif" font-size="14" lengthAdjust="spacing" textLength="144" x="130.26" y="294.8857">start_time: DateTime</text><ellipse cx="121.26" cy="307.8359" fill="none" rx="3" ry="3" style="stroke:#038048;stroke-width:1.0;"/><text fill="#000000" font-family="sans-serif" font-size="14" lengthAdjust="spacing" textLength="149" x="130.26" y="311.1826">finish_time: DateTime</text><line style="stroke:#181818;stroke-width:0.5;" x1="111.26" x2="284.26" y1="318.4844" y2="318.4844"/></g><!--MD5=[e91c523f8d7dd94a4e9260e7eb441913]
class ExperimentStatus--><g id="elem_ExperimentStatus"><rect codeLine="67" fill="#F1F1F1" height="113.1875" id="ExperimentStatus" rx="2.5" ry="2.5" style="stroke:#181818;stroke-width:0.5;" width="154" x="45.76" y="403"/><ellipse cx="60.76" cy="419" fill="#EB937F" rx="11" ry="11" style="stroke:#181818;stroke-width:1.0;"/><path d="M64.8694,425 L57.1506,425 L57.1506,412.6094 L64.8694,412.6094 L64.8694,414.7656 L59.6038,414.7656 L59.6038,417.4375 L64.3694,417.4375 L64.3694,419.5938 L59.6038,419.5938 L59.6038,422.8438 L64.8694,422.8438 L64.8694,425 Z " fill="#000000"/><text fill="#000000" font-family="sans-serif" font-size="14" lengthAdjust="spacing" textLength="122" x="74.76" y="423.8467">ExperimentStatus</text><line style="stroke:#181818;stroke-width:0.5;" x1="46.76" x2="198.76" y1="435" y2="435"/><text fill="#000000" font-family="sans-serif" font-size="14" lengthAdjust="spacing" textLength="64" x="51.76" y="451.9951">RUNNING</text><text fill="#000000" font-family="sans-serif" font-size="14" lengthAdjust="spacing" textLength="63" x="51.76" y="468.292">PENDING</text><text fill="#000000" font-family="sans-serif" font-size="14" lengthAdjust="spacing" textLength="63" x="51.76" y="484.5889">FINISHED</text><text fill="#000000" font-family="sans-serif" font-size="14" lengthAdjust="spacing" textLength="53" x="51.76" y="500.8857">TUNING</text><line style="stroke:#181818;stroke-width:0.5;" x1="46.76" x2="198.76" y1="508.1875" y2="508.1875"/></g><!--MD5=[ab4844d6a963a76d6711976405d51c6a]
class RuleBasedController--><g id="elem_RuleBasedController"><rect codeLine="95" fill="#F1F1F1" height="64.2969" id="RuleBasedController" rx="2.5" ry="2.5" style="stroke:#181818;stroke-width:0.5;" width="174" x="695.76" y="593"/><ellipse cx="710.76" cy="609" fill="#ADD1B2" rx="11" ry="11" style="stroke:#181818;stroke-width:1.0;"/><path d="M713.7288,614.6406 Q713.1506,614.9375 712.51,615.0781 Q711.8694,615.2344 711.1663,615.2344 Q708.6663,615.2344 707.3381,613.5938 Q706.0256,611.9375 706.0256,608.8125 Q706.0256,605.6875 707.3381,604.0313 Q708.6663,602.375 711.1663,602.375 Q711.8694,602.375 712.51,602.5313 Q713.1663,602.6875 713.7288,602.9844 L713.7288,605.7031 Q713.1038,605.125 712.51,604.8594 Q711.9163,604.5781 711.2913,604.5781 Q709.9475,604.5781 709.26,605.6563 Q708.5725,606.7188 708.5725,608.8125 Q708.5725,610.9063 709.26,611.9844 Q709.9475,613.0469 711.2913,613.0469 Q711.9163,613.0469 712.51,612.7813 Q713.1038,612.5 713.7288,611.9219 L713.7288,614.6406 Z " fill="#000000"/><text fill="#000000" font-family="sans-serif" font-size="14" lengthAdjust="spacing" textLength="142" x="724.76" y="613.8467">RuleBasedController</text><line style="stroke:#181818;stroke-width:0.5;" x1="696.76" x2="868.76" y1="625" y2="625"/><ellipse cx="706.76" cy="638.6484" fill="none" rx="3" ry="3" style="stroke:#038048;stroke-width:1.0;"/><text fill="#000000" font-family="sans-serif" font-size="14" lengthAdjust="spacing" textLength="73" x="715.76" y="641.9951">rules: TBD</text><line style="stroke:#181818;stroke-width:0.5;" x1="696.76" x2="868.76" y1="649.2969" y2="649.2969"/></g><!--MD5=[a2dcada079002ac9df36d65e23afa48a]
link SinergymProvider to SinergymEnvironment--><g id="link_SinergymProvider_SinergymEnvironment"><path codeLine="39" d="M1045.09,483.58 C1040.41,512.95 1032.35,563.69 1027.29,595.46 " fill="none" id="SinergymProvider-to-SinergymEnvironment" style="stroke:#181818;stroke-width:1.0;"/><polygon fill="#181818" points="1026.45,600.77,1031.817,592.512,1027.2372,595.8324,1023.9168,591.2525,1026.45,600.77" style="stroke:#181818;stroke-width:1.0;"/><text fill="#000000" font-family="sans-serif" font-size="13" lengthAdjust="spacing" textLength="126" x="1035.76" y="559.0669">creates and returns</text></g><!--MD5=[427581b306c1752b663033e5541eca56]
link SinergymEnvironment to IEnvironment--><g id="link_SinergymEnvironment_IEnvironment"><path codeLine="40" d="M931.02,647.68 C916.57,650.92 901.77,654.13 887.76,657 C766.9,681.74 630.65,706.35 523.03,725.02 " fill="none" id="SinergymEnvironment-to-IEnvironment" style="stroke:#181818;stroke-width:1.0;stroke-dasharray:7.0,7.0;"/><polygon fill="none" points="524.18,731.92,503.28,728.43,521.8,718.13,524.18,731.92" style="stroke:#181818;stroke-width:1.0;"/></g><!--MD5=[aae06925d43089705534ab63c9ee2944]
reverse link IEnvironmentProvider to SinergymProvider--><g id="link_IEnvironmentProvider_SinergymProvider"><path codeLine="41" d="M1044.32,313.55 C1045.52,352.89 1047.13,405.45 1048.04,435.26 " fill="none" id="IEnvironmentProvider-backto-SinergymProvider" style="stroke:#181818;stroke-width:1.0;stroke-dasharray:7.0,7.0;"/><polygon fill="none" points="1037.32,313.76,1043.71,293.56,1051.32,313.33,1037.32,313.76" style="stroke:#181818;stroke-width:1.0;"/></g><!--MD5=[9db7cf3a0d4be62af3cd85fe9331bb3d]
reverse link IControllerProvider to RandomControllerProvider--><g id="link_IControllerProvider_RandomControllerProvider"><path codeLine="42" d="M576.88,322.25 C573.76,360.43 569.89,407.81 567.64,435.45 " fill="none" id="IControllerProvider-backto-RandomControllerProvider" style="stroke:#181818;stroke-width:1.0;stroke-dasharray:7.0,7.0;"/><polygon fill="none" points="569.91,321.53,578.52,302.16,583.87,322.67,569.91,321.53" style="stroke:#181818;stroke-width:1.0;"/></g><!--MD5=[37203d868cf9c5f71379978c948d4467]
reverse link IControllerProvider to RuleBasedControllerProvider--><g id="link_IControllerProvider_RuleBasedControllerProvider"><path codeLine="43" d="M646.24,314.95 C694.52,354.21 758.22,406.01 794.41,435.45 " fill="none" id="IControllerProvider-backto-RuleBasedControllerProvider" style="stroke:#181818;stroke-width:1.0;stroke-dasharray:7.0,7.0;"/><polygon fill="none" points="641.63,320.21,630.53,302.16,650.46,309.35,641.63,320.21" style="stroke:#181818;stroke-width:1.0;"/></g><!--MD5=[f89f56c3f58488c464c31da1d9197c47]
link ExperimentManager to Experiment--><g id="link_ExperimentManager_Experiment"><path codeLine="76" d="M473,120.01 C415.3,149.46 345.17,185.26 290.13,213.35 " fill="none" id="ExperimentManager-to-Experiment" style="stroke:#181818;stroke-width:1.0;"/><polygon fill="#181818" points="285.53,215.7,295.365,215.1774,289.9849,213.4297,291.7326,208.0496,285.53,215.7" style="stroke:#181818;stroke-width:1.0;"/><text fill="#000000" font-family="sans-serif" font-size="13" lengthAdjust="spacing" textLength="108" x="412.76" y="163.0669">creates and runs</text><text fill="#000000" font-family="sans-serif" font-size="13" lengthAdjust="spacing" textLength="8" x="450.5526" y="140.2747">1</text><text fill="#000000" font-family="sans-serif" font-size="13" lengthAdjust="spacing" textLength="7" x="293.3735" y="208.1713">*</text></g><!--MD5=[9f19b18fc58516a7e83c39a9f668085d]
link ExperimentManager to IEnvironmentProvider--><g id="link_ExperimentManager_IEnvironmentProvider"><path codeLine="77" d="M712.32,120.01 C793.69,154.61 895.68,197.97 964.66,227.3 " fill="none" id="ExperimentManager-to-IEnvironmentProvider" style="stroke:#181818;stroke-width:1.0;"/><polygon fill="#181818" points="969.57,229.38,962.8544,222.1758,964.9691,227.4225,959.7224,229.5372,969.57,229.38" style="stroke:#181818;stroke-width:1.0;"/><text fill="#000000" font-family="sans-serif" font-size="13" lengthAdjust="spacing" textLength="56" x="812.76" y="163.0669">registers</text><text fill="#000000" font-family="sans-serif" font-size="13" lengthAdjust="spacing" textLength="8" x="720.5355" y="140.2747">1</text><text fill="#000000" font-family="sans-serif" font-size="13" lengthAdjust="spacing" textLength="7" x="946.7527" y="218.2584">*</text></g><!--MD5=[fb5bbe84228e4db71f8d5d1ccc7c8dca]
link ExperimentManager to IControllerProvider--><g id="link_ExperimentManager_IControllerProvider"><path codeLine="78" d="M581.76,120.14 C581.76,150.4 581.76,187.33 581.76,215.71 " fill="none" id="ExperimentManager-to-IControllerProvider" style="stroke:#181818;stroke-width:1.0;"/><polygon fill="#181818" points="581.76,220.91,585.76,211.91,581.76,215.91,577.76,211.91,581.76,220.91" style="stroke:#181818;stroke-width:1.0;"/><text fill="#000000" font-family="sans-serif" font-size="13" lengthAdjust="spacing" textLength="56" x="582.76" y="163.0669">registers</text><text fill="#000000" font-family="sans-serif" font-size="13" lengthAdjust="spacing" textLength="8" x="573.2475" y="140.4213">1</text><text fill="#000000" font-family="sans-serif" font-size="13" lengthAdjust="spacing" textLength="7" x="574.1803" y="210.0566">*</text></g><!--MD5=[15d7e4be280620cadd89e755b7ef981a]
link Experiment to IEnvironment--><g id="link_Experiment_IEnvironment"><path codeLine="79" d="M110.21,311.89 C78.08,335.02 45.29,365.76 27.76,403 C6.36,448.44 6,470.74 27.76,516 C71.8,607.62 169.4,675.35 241.79,715.39 " fill="none" id="Experiment-to-IEnvironment" style="stroke:#181818;stroke-width:1.0;"/><polygon fill="#181818" points="246.53,717.99,240.5551,710.1606,242.1438,715.5897,236.7146,717.1785,246.53,717.99" style="stroke:#181818;stroke-width:1.0;"/><text fill="#000000" font-family="sans-serif" font-size="13" lengthAdjust="spacing" textLength="23" x="55.76" y="559.0669">has</text><text fill="#000000" font-family="sans-serif" font-size="13" lengthAdjust="spacing" textLength="7" x="95.3854" y="312.6276">*</text><text fill="#000000" font-family="sans-serif" font-size="13" lengthAdjust="spacing" textLength="8" x="223.5373" y="706.8515">1</text></g><!--MD5=[9521550349ee69d8d77c5605f0c9a3a3]
link IController to IEnvironment--><g id="link_IController_IEnvironment"><path codeLine="80" d="M329.76,491.72 C329.76,544.6 329.76,651.93 329.76,712.78 " fill="none" id="IController-to-IEnvironment" style="stroke:#181818;stroke-width:1.0;"/><polygon fill="#181818" points="329.76,717.8,333.76,708.8,329.76,712.8,325.76,708.8,329.76,717.8" style="stroke:#181818;stroke-width:1.0;"/><text fill="#000000" font-family="sans-serif" font-size="13" lengthAdjust="spacing" textLength="75" x="330.76" y="629.5669">depends on</text><text fill="#000000" font-family="sans-serif" font-size="13" lengthAdjust="spacing" textLength="7" x="322.0381" y="511.9622">*</text><text fill="#000000" font-family="sans-serif" font-size="13" lengthAdjust="spacing" textLength="8" x="321.0975" y="706.9284">1</text></g><!--MD5=[256f23329fb1a2403b66eea0c995fb44]
link Experiment to IController--><g id="link_Experiment_IController"><path codeLine="81" d="M240.61,326.14 C262.26,358.28 287.72,396.08 305.87,423.04 " fill="none" id="Experiment-to-IController" style="stroke:#181818;stroke-width:1.0;"/><polygon fill="#181818" points="308.72,427.27,306.9944,417.5735,305.9202,423.1274,300.3663,422.0532,308.72,427.27" style="stroke:#181818;stroke-width:1.0;"/><text fill="#000000" font-family="sans-serif" font-size="13" lengthAdjust="spacing" textLength="23" x="271.76" y="369.0669">has</text><text fill="#000000" font-family="sans-serif" font-size="13" lengthAdjust="spacing" textLength="7" x="238.1598" y="346.5278">*</text><text fill="#000000" font-family="sans-serif" font-size="13" lengthAdjust="spacing" textLength="8" x="295.7903" y="416.4989">1</text></g><!--MD5=[f8212b782ca955b7bfd71cf52e00eccd]
link Experiment to ExperimentStatus--><g id="link_Experiment_ExperimentStatus"><path codeLine="82" d="M173.41,326.14 C164.58,349.2 154.64,375.17 145.92,397.96 " fill="none" id="Experiment-to-ExperimentStatus" style="stroke:#181818;stroke-width:1.0;"/><polygon fill="#181818" points="144.08,402.77,151.0485,395.8101,145.8778,398.1044,143.5835,392.9337,144.08,402.77" style="stroke:#181818;stroke-width:1.0;"/><text fill="#000000" font-family="sans-serif" font-size="13" lengthAdjust="spacing" textLength="23" x="161.76" y="369.0669">has</text><text fill="#000000" font-family="sans-serif" font-size="13" lengthAdjust="spacing" textLength="7" x="163.1898" y="346.5278">*</text><text fill="#000000" font-family="sans-serif" font-size="13" lengthAdjust="spacing" textLength="8" x="138.1909" y="392.0055">1</text></g><!--MD5=[cf7f4c4180feb383044c2835378188c0]
reverse link IController to RandomController--><g id="link_IController_RandomController"><path codeLine="85" d="M377.33,505.13 C398.05,523.78 422.98,545.2 446.76,563 C464.78,576.49 485.78,590.07 503.54,600.97 " fill="none" id="IController-backto-RandomController" style="stroke:#181818;stroke-width:1.0;stroke-dasharray:7.0,7.0;"/><polygon fill="none" points="372.46,510.17,362.4,491.52,381.9,499.82,372.46,510.17" style="stroke:#181818;stroke-width:1.0;"/></g><!--MD5=[b834b966112b9893252030b9aa6d32d4]
reverse link IController to RuleBasedController--><g id="link_IController_RuleBasedController"><path codeLine="86" d="M410.07,500.6 C420.71,505.82 431.48,511.06 441.76,516 C486.39,537.44 496.12,546.39 542.76,563 C592.37,580.67 649.45,595.4 695.5,605.95 " fill="none" id="IController-backto-RuleBasedController" style="stroke:#181818;stroke-width:1.0;stroke-dasharray:7.0,7.0;"/><polygon fill="none" points="406.67,506.72,391.83,491.6,412.86,494.17,406.67,506.72" style="stroke:#181818;stroke-width:1.0;"/></g><!--MD5=[44fb3c4d97cdcd6ba53b59e819e93d76]
link RandomControllerProvider to RandomController--><g id="link_RandomControllerProvider_RandomController"><path codeLine="88" d="M562.51,483.58 C558.38,512.95 551.24,563.69 546.77,595.46 " fill="none" id="RandomControllerProvider-to-RandomController" style="stroke:#181818;stroke-width:1.0;"/><polygon fill="#181818" points="546.02,600.77,551.2425,592.4198,546.7211,595.8194,543.3215,591.298,546.02,600.77" style="stroke:#181818;stroke-width:1.0;"/><text fill="#000000" font-family="sans-serif" font-size="13" lengthAdjust="spacing" textLength="48" x="553.76" y="559.0669">creates</text></g><!--MD5=[aa0f58427f75681aec6a8b84ba7498b3]
link RuleBasedControllerProvider to RuleBasedController--><g id="link_RuleBasedControllerProvider_RuleBasedController"><path codeLine="89" d="M817.11,483.58 C810.47,510.73 799.36,556.14 791.57,587.95 " fill="none" id="RuleBasedControllerProvider-to-RuleBasedController" style="stroke:#181818;stroke-width:1.0;"/><polygon fill="#181818" points="790.36,592.94,796.4019,585.1621,791.5592,588.0859,788.6354,583.2433,790.36,592.94" style="stroke:#181818;stroke-width:1.0;"/><text fill="#000000" font-family="sans-serif" font-size="13" lengthAdjust="spacing" textLength="48" x="801.76" y="559.0669">creates</text></g><!--MD5=[759172188160a56a08b6a3a2709cf12c]
@startuml
' Interfaces
interface IEnvironment {
  + reset(): State
  + step(action: Action): (State, Reward, bool, dict)
}

interface IController {
  + getAction(state): Action
}

interface IControllerProvider {
	+ env: gymnasium.Env
	+ create_controller(env: Env, config_path: str): IController
}

class RandomControllerProvider {

}

class RuleBasedControllerProvider {

}

class RandomController {
	
}


' Abstract factory for environments
interface IEnvironmentProvider {
  + create_environment(config_path: String): IEnvironment
}

' ───── Sinergym Concrete provider and environment ─────
class SinergymProvider
class SinergymEnvironment


SinergymProvider - -> SinergymEnvironment : creates and returns
SinergymEnvironment ..|> IEnvironment
IEnvironmentProvider <|.. SinergymProvider
IControllerProvider <|.. RandomControllerProvider
IControllerProvider <|.. RuleBasedControllerProvider




' ───── Orchestration ─────
class ExperimentManager {
  + register_environment_provider(engine: String, provider: IEnvironmentProvider)
  + register_controller_provider(controller: str, provider: IControllerProvider)
  + setup_experiments(config_path: String)
  + run_all()
}


class Experiment {
  + engine: string
  + episodes: int
  + seed: int
  + start_time: DateTime
  + finish_time: DateTime
}



enum ExperimentStatus {
  RUNNING
  PENDING
  FINISHED
  TUNING
}



ExperimentManager "1" - -> "*" Experiment : creates and runs
ExperimentManager "1" - -> "*" IEnvironmentProvider : registers
ExperimentManager "1" - -> "*" IControllerProvider : registers
Experiment "*" - -> "1" IEnvironment      : has
IController "*" - -> "1" IEnvironment      : depends on
Experiment "*" - -> "1" IController        : has
Experiment "*" - -> "1" ExperimentStatus  : has

' ───── Controllers ─────
IController <|.. RandomController
IController <|.. RuleBasedController

RandomControllerProvider - -> RandomController : creates
RuleBasedControllerProvider - -> RuleBasedController : creates


class RandomController {
}

class RuleBasedController {
  + rules: TBD
}
@enduml

@startuml
interface IEnvironment {
  + reset(): State
  + step(action: Action): (State, Reward, bool, dict)
}

interface IController {
  + getAction(state): Action
}

interface IControllerProvider {
	+ env: gymnasium.Env
	+ create_controller(env: Env, config_path: str): IController
}

class RandomControllerProvider {

}

class RuleBasedControllerProvider {

}

class RandomController {
	
}


interface IEnvironmentProvider {
  + create_environment(config_path: String): IEnvironment
}

class SinergymProvider
class SinergymEnvironment


SinergymProvider - -> SinergymEnvironment : creates and returns
SinergymEnvironment ..|> IEnvironment
IEnvironmentProvider <|.. SinergymProvider
IControllerProvider <|.. RandomControllerProvider
IControllerProvider <|.. RuleBasedControllerProvider




class ExperimentManager {
  + register_environment_provider(engine: String, provider: IEnvironmentProvider)
  + register_controller_provider(controller: str, provider: IControllerProvider)
  + setup_experiments(config_path: String)
  + run_all()
}


class Experiment {
  + engine: string
  + episodes: int
  + seed: int
  + start_time: DateTime
  + finish_time: DateTime
}



enum ExperimentStatus {
  RUNNING
  PENDING
  FINISHED
  TUNING
}



ExperimentManager "1" - -> "*" Experiment : creates and runs
ExperimentManager "1" - -> "*" IEnvironmentProvider : registers
ExperimentManager "1" - -> "*" IControllerProvider : registers
Experiment "*" - -> "1" IEnvironment      : has
IController "*" - -> "1" IEnvironment      : depends on
Experiment "*" - -> "1" IController        : has
Experiment "*" - -> "1" ExperimentStatus  : has

IController <|.. RandomController
IController <|.. RuleBasedController

RandomControllerProvider - -> RandomController : creates
RuleBasedControllerProvider - -> RuleBasedController : creates


class RandomController {
}

class RuleBasedController {
  + rules: TBD
}
@enduml

PlantUML version 1.2022.7(Mon Aug 22 17:01:30 UTC 2022)
(GPL source distribution)
Java Runtime: OpenJDK Runtime Environment
JVM: OpenJDK 64-Bit Server VM
Default Encoding: UTF-8
Language: en
Country: null
--></g></svg>