<?xml version="1.0" encoding="UTF-8" standalone="no"?><svg xmlns="http://www.w3.org/2000/svg" xmlns:xlink="http://www.w3.org/1999/xlink" contentStyleType="text/css" height="836px" preserveAspectRatio="none" style="width:3331px;height:836px;background:#FFFFFF;" version="1.1" viewBox="0 0 3331 836" width="3331px" zoomAndPan="magnify"><defs/><g><!--MD5=[fe9987087bca403180c76f6de47dcf06]
cluster Experiment Orchestration--><g id="cluster_Experiment Orchestration"><path d="M8.5,6 L212.5,6 A3.75,3.75 0 0 1 215,8.5 L222,28.2969 L560.5,28.2969 A2.5,2.5 0 0 1 563,30.7969 L563,306 A2.5,2.5 0 0 1 560.5,308.5 L8.5,308.5 A2.5,2.5 0 0 1 6,306 L6,8.5 A2.5,2.5 0 0 1 8.5,6 " fill="none" style="stroke:#000000;stroke-width:1.5;"/><line style="stroke:#000000;stroke-width:1.5;" x1="6" x2="222" y1="28.2969" y2="28.2969"/><text fill="#000000" font-family="sans-serif" font-size="14" font-weight="bold" lengthAdjust="spacing" textLength="203" x="10" y="20.9951">Experiment Orchestration</text></g><!--MD5=[0ee4bd6038ad3dcd505849bd4f57a5fa]
cluster Environment Provision--><g id="cluster_Environment Provision"><path d="M3056.5,193 L3234.5,193 A3.75,3.75 0 0 1 3237,195.5 L3244,215.2969 L3321.5,215.2969 A2.5,2.5 0 0 1 3324,217.7969 L3324,594.5 A2.5,2.5 0 0 1 3321.5,597 L3056.5,597 A2.5,2.5 0 0 1 3054,594.5 L3054,195.5 A2.5,2.5 0 0 1 3056.5,193 " fill="none" style="stroke:#000000;stroke-width:1.5;"/><line style="stroke:#000000;stroke-width:1.5;" x1="3054" x2="3244" y1="215.2969" y2="215.2969"/><text fill="#000000" font-family="sans-serif" font-size="14" font-weight="bold" lengthAdjust="spacing" textLength="177" x="3058" y="207.9951">Environment Provision</text></g><!--MD5=[8476a6e9b9406ff6ebbabeec4ae3c201]
cluster Controller Provision--><g id="cluster_Controller Provision"><path d="M589.5,193 L747.5,193 A3.75,3.75 0 0 1 750,195.5 L757,215.2969 L2424.5,215.2969 A2.5,2.5 0 0 1 2427,217.7969 L2427,715.5 A2.5,2.5 0 0 1 2424.5,718 L589.5,718 A2.5,2.5 0 0 1 587,715.5 L587,195.5 A2.5,2.5 0 0 1 589.5,193 " fill="none" style="stroke:#000000;stroke-width:1.5;"/><line style="stroke:#000000;stroke-width:1.5;" x1="587" x2="757" y1="215.2969" y2="215.2969"/><text fill="#000000" font-family="sans-serif" font-size="14" font-weight="bold" lengthAdjust="spacing" textLength="157" x="591" y="207.9951">Controller Provision</text></g><!--MD5=[7ff817392d3586ff4bd254f6888fffd3]
cluster Reporting & Storage--><g id="cluster_Reporting &amp; Storage"><path d="M2625.5,514 L2788.5,514 A3.75,3.75 0 0 1 2791,516.5 L2798,536.2969 L3027.5,536.2969 A2.5,2.5 0 0 1 3030,538.7969 L3030,826.5 A2.5,2.5 0 0 1 3027.5,829 L2625.5,829 A2.5,2.5 0 0 1 2623,826.5 L2623,516.5 A2.5,2.5 0 0 1 2625.5,514 " fill="none" style="stroke:#000000;stroke-width:1.5;"/><line style="stroke:#000000;stroke-width:1.5;" x1="2623" x2="2798" y1="536.2969" y2="536.2969"/><text fill="#000000" font-family="sans-serif" font-size="14" font-weight="bold" lengthAdjust="spacing" textLength="162" x="2627" y="528.9951">Reporting &amp; Storage</text></g><!--MD5=[3e96dd66dd64ae2e61f50c8668a6b0a4]
class ExperimentManager--><g id="elem_ExperimentManager"><rect codeLine="5" fill="#F1F1F1" height="88.8906" id="ExperimentManager" rx="2.5" ry="2.5" style="stroke:#181818;stroke-width:0.5;" width="336" x="211" y="41"/><ellipse cx="305.75" cy="57" fill="#ADD1B2" rx="11" ry="11" style="stroke:#181818;stroke-width:1.0;"/><path d="M308.7188,62.6406 Q308.1406,62.9375 307.5,63.0781 Q306.8594,63.2344 306.1563,63.2344 Q303.6563,63.2344 302.3281,61.5938 Q301.0156,59.9375 301.0156,56.8125 Q301.0156,53.6875 302.3281,52.0313 Q303.6563,50.375 306.1563,50.375 Q306.8594,50.375 307.5,50.5313 Q308.1563,50.6875 308.7188,50.9844 L308.7188,53.7031 Q308.0938,53.125 307.5,52.8594 Q306.9063,52.5781 306.2813,52.5781 Q304.9375,52.5781 304.25,53.6563 Q303.5625,54.7188 303.5625,56.8125 Q303.5625,58.9063 304.25,59.9844 Q304.9375,61.0469 306.2813,61.0469 Q306.9063,61.0469 307.5,60.7813 Q308.0938,60.5 308.7188,59.9219 L308.7188,62.6406 Z " fill="#000000"/><text fill="#000000" font-family="sans-serif" font-size="14" lengthAdjust="spacing" textLength="138" x="326.25" y="61.8467">ExperimentManager</text><line style="stroke:#181818;stroke-width:0.5;" x1="212" x2="546" y1="73" y2="73"/><text fill="#000000" font-family="sans-serif" font-size="14" lengthAdjust="spacing" textLength="305" x="217" y="89.9951">+run_experiments_from_config(config_path)</text><text fill="#000000" font-family="sans-serif" font-size="14" lengthAdjust="spacing" textLength="324" x="217" y="106.292">+register_environment_factory(engine, factory)</text><text fill="#000000" font-family="sans-serif" font-size="14" lengthAdjust="spacing" textLength="319" x="217" y="122.5889">+register_controller_factory(controller, factory)</text></g><!--MD5=[2a9217e8f2d7f96589335d2c6f09894a]
class Experiment--><g id="elem_Experiment"><rect codeLine="10" fill="#F1F1F1" height="56.2969" id="Experiment" rx="2.5" ry="2.5" style="stroke:#181818;stroke-width:0.5;" width="128" x="362" y="236.5"/><ellipse cx="385.1" cy="252.5" fill="#ADD1B2" rx="11" ry="11" style="stroke:#181818;stroke-width:1.0;"/><path d="M388.0688,258.1406 Q387.4906,258.4375 386.85,258.5781 Q386.2094,258.7344 385.5063,258.7344 Q383.0063,258.7344 381.6781,257.0938 Q380.3656,255.4375 380.3656,252.3125 Q380.3656,249.1875 381.6781,247.5313 Q383.0063,245.875 385.5063,245.875 Q386.2094,245.875 386.85,246.0313 Q387.5063,246.1875 388.0688,246.4844 L388.0688,249.2031 Q387.4438,248.625 386.85,248.3594 Q386.2563,248.0781 385.6313,248.0781 Q384.2875,248.0781 383.6,249.1563 Q382.9125,250.2188 382.9125,252.3125 Q382.9125,254.4063 383.6,255.4844 Q384.2875,256.5469 385.6313,256.5469 Q386.2563,256.5469 386.85,256.2813 Q387.4438,256 388.0688,255.4219 L388.0688,258.1406 Z " fill="#000000"/><text fill="#000000" font-family="sans-serif" font-size="14" lengthAdjust="spacing" textLength="78" x="400.9" y="257.3467">Experiment</text><line style="stroke:#181818;stroke-width:0.5;" x1="363" x2="489" y1="268.5" y2="268.5"/><text fill="#000000" font-family="sans-serif" font-size="14" lengthAdjust="spacing" textLength="116" x="368" y="285.4951">+run(): List[float]</text></g><!--MD5=[e91c523f8d7dd94a4e9260e7eb441913]
class ExperimentStatus--><g id="elem_ExperimentStatus"><rect codeLine="13" fill="#F1F1F1" height="32" id="ExperimentStatus" rx="2.5" ry="2.5" style="stroke:#181818;stroke-width:0.5;" width="154" x="22" y="69.5"/><ellipse cx="37" cy="85.5" fill="#ADD1B2" rx="11" ry="11" style="stroke:#181818;stroke-width:1.0;"/><path d="M39.9688,91.1406 Q39.3906,91.4375 38.75,91.5781 Q38.1094,91.7344 37.4063,91.7344 Q34.9063,91.7344 33.5781,90.0938 Q32.2656,88.4375 32.2656,85.3125 Q32.2656,82.1875 33.5781,80.5313 Q34.9063,78.875 37.4063,78.875 Q38.1094,78.875 38.75,79.0313 Q39.4063,79.1875 39.9688,79.4844 L39.9688,82.2031 Q39.3438,81.625 38.75,81.3594 Q38.1563,81.0781 37.5313,81.0781 Q36.1875,81.0781 35.5,82.1563 Q34.8125,83.2188 34.8125,85.3125 Q34.8125,87.4063 35.5,88.4844 Q36.1875,89.5469 37.5313,89.5469 Q38.1563,89.5469 38.75,89.2813 Q39.3438,89 39.9688,88.4219 L39.9688,91.1406 Z " fill="#000000"/><text fill="#000000" font-family="sans-serif" font-size="14" lengthAdjust="spacing" textLength="122" x="51" y="90.3467">ExperimentStatus</text></g><!--MD5=[af85ab1bbcce263cd0dd87a7e85b3dfd]
class IEnvironmentFactory--><g id="elem_IEnvironmentFactory"><rect codeLine="17" fill="#F1F1F1" height="72.5938" id="IEnvironmentFactory" rx="2.5" ry="2.5" style="stroke:#181818;stroke-width:0.5;" width="239" x="3069.5" y="228"/><ellipse cx="3114.75" cy="244" fill="#B4A7E5" rx="11" ry="11" style="stroke:#181818;stroke-width:1.0;"/><path d="M3110.6719,239.7656 L3110.6719,237.6094 L3118.0625,237.6094 L3118.0625,239.7656 L3115.5938,239.7656 L3115.5938,247.8438 L3118.0625,247.8438 L3118.0625,250 L3110.6719,250 L3110.6719,247.8438 L3113.1406,247.8438 L3113.1406,239.7656 L3110.6719,239.7656 Z " fill="#000000"/><text fill="#000000" font-family="sans-serif" font-size="14" font-style="italic" lengthAdjust="spacing" textLength="140" x="3135.25" y="248.8467">IEnvironmentFactory</text><line style="stroke:#181818;stroke-width:0.5;" x1="3070.5" x2="3307.5" y1="260" y2="260"/><text fill="#000000" font-family="sans-serif" font-size="14" lengthAdjust="spacing" textLength="162" x="3075.5" y="276.9951">+set_config_path(path)</text><text fill="#000000" font-family="sans-serif" font-size="14" lengthAdjust="spacing" textLength="227" x="3075.5" y="293.292">+create_environment(): gym.Env</text></g><!--MD5=[0325391b3dc87093258c63fe9d8c71ca]
class SinergymFactory--><g id="elem_SinergymFactory"><rect codeLine="21" fill="#F1F1F1" height="32" id="SinergymFactory" rx="2.5" ry="2.5" style="stroke:#181818;stroke-width:0.5;" width="146" x="3112" y="398.5"/><ellipse cx="3127" cy="414.5" fill="#ADD1B2" rx="11" ry="11" style="stroke:#181818;stroke-width:1.0;"/><path d="M3129.9688,420.1406 Q3129.3906,420.4375 3128.75,420.5781 Q3128.1094,420.7344 3127.4063,420.7344 Q3124.9063,420.7344 3123.5781,419.0938 Q3122.2656,417.4375 3122.2656,414.3125 Q3122.2656,411.1875 3123.5781,409.5313 Q3124.9063,407.875 3127.4063,407.875 Q3128.1094,407.875 3128.75,408.0313 Q3129.4063,408.1875 3129.9688,408.4844 L3129.9688,411.2031 Q3129.3438,410.625 3128.75,410.3594 Q3128.1563,410.0781 3127.5313,410.0781 Q3126.1875,410.0781 3125.5,411.1563 Q3124.8125,412.2188 3124.8125,414.3125 Q3124.8125,416.4063 3125.5,417.4844 Q3126.1875,418.5469 3127.5313,418.5469 Q3128.1563,418.5469 3128.75,418.2813 Q3129.3438,418 3129.9688,417.4219 L3129.9688,420.1406 Z " fill="#000000"/><text fill="#000000" font-family="sans-serif" font-size="14" lengthAdjust="spacing" textLength="114" x="3141" y="419.3467">SinergymFactory</text></g><!--MD5=[30d24cbeb4efcde6f77e634e6bd714f2]
class SinergymEnvironment--><g id="elem_SinergymEnvironment"><rect codeLine="22" fill="#F1F1F1" height="32" id="SinergymEnvironment" rx="2.5" ry="2.5" style="stroke:#181818;stroke-width:0.5;" width="183" x="3077.5" y="549"/><ellipse cx="3092.5" cy="565" fill="#ADD1B2" rx="11" ry="11" style="stroke:#181818;stroke-width:1.0;"/><path d="M3095.4688,570.6406 Q3094.8906,570.9375 3094.25,571.0781 Q3093.6094,571.2344 3092.9063,571.2344 Q3090.4063,571.2344 3089.0781,569.5938 Q3087.7656,567.9375 3087.7656,564.8125 Q3087.7656,561.6875 3089.0781,560.0313 Q3090.4063,558.375 3092.9063,558.375 Q3093.6094,558.375 3094.25,558.5313 Q3094.9063,558.6875 3095.4688,558.9844 L3095.4688,561.7031 Q3094.8438,561.125 3094.25,560.8594 Q3093.6563,560.5781 3093.0313,560.5781 Q3091.6875,560.5781 3091,561.6563 Q3090.3125,562.7188 3090.3125,564.8125 Q3090.3125,566.9063 3091,567.9844 Q3091.6875,569.0469 3093.0313,569.0469 Q3093.6563,569.0469 3094.25,568.7813 Q3094.8438,568.5 3095.4688,567.9219 L3095.4688,570.6406 Z " fill="#000000"/><text fill="#000000" font-family="sans-serif" font-size="14" lengthAdjust="spacing" textLength="151" x="3106.5" y="569.8467">SinergymEnvironment</text></g><!--MD5=[bd571520ce57ba8fc108ce35545cd758]
class IController--><g id="elem_IController"><rect codeLine="26" fill="#F1F1F1" height="56.2969" id="IController" rx="2.5" ry="2.5" style="stroke:#181818;stroke-width:0.5;" width="141" x="881.5" y="537"/><ellipse cx="914.05" cy="553" fill="#B4A7E5" rx="11" ry="11" style="stroke:#181818;stroke-width:1.0;"/><path d="M909.9719,548.7656 L909.9719,546.6094 L917.3625,546.6094 L917.3625,548.7656 L914.8938,548.7656 L914.8938,556.8438 L917.3625,556.8438 L917.3625,559 L909.9719,559 L909.9719,556.8438 L912.4406,556.8438 L912.4406,548.7656 L909.9719,548.7656 Z " fill="#000000"/><text fill="#000000" font-family="sans-serif" font-size="14" font-style="italic" lengthAdjust="spacing" textLength="70" x="931.95" y="557.8467">IController</text><line style="stroke:#181818;stroke-width:0.5;" x1="882.5" x2="1021.5" y1="569" y2="569"/><text fill="#000000" font-family="sans-serif" font-size="14" lengthAdjust="spacing" textLength="129" x="887.5" y="585.9951">+get_action(state)</text></g><!--MD5=[8725de94097440526973142c2bda5a56]
class IControllerFactory--><g id="elem_IControllerFactory"><rect codeLine="29" fill="#F1F1F1" height="72.5938" id="IControllerFactory" rx="2.5" ry="2.5" style="stroke:#181818;stroke-width:0.5;" width="314" x="1542" y="228"/><ellipse cx="1634.75" cy="244" fill="#B4A7E5" rx="11" ry="11" style="stroke:#181818;stroke-width:1.0;"/><path d="M1630.6719,239.7656 L1630.6719,237.6094 L1638.0625,237.6094 L1638.0625,239.7656 L1635.5938,239.7656 L1635.5938,247.8438 L1638.0625,247.8438 L1638.0625,250 L1630.6719,250 L1630.6719,247.8438 L1633.1406,247.8438 L1633.1406,239.7656 L1630.6719,239.7656 Z " fill="#000000"/><text fill="#000000" font-family="sans-serif" font-size="14" font-style="italic" lengthAdjust="spacing" textLength="120" x="1655.25" y="248.8467">IControllerFactory</text><line style="stroke:#181818;stroke-width:0.5;" x1="1543" x2="1855" y1="260" y2="260"/><text fill="#000000" font-family="sans-serif" font-size="14" lengthAdjust="spacing" textLength="175" x="1548" y="276.9951">+set_env_factory(factory)</text><text fill="#000000" font-family="sans-serif" font-size="14" lengthAdjust="spacing" textLength="302" x="1548" y="293.292">+create_controller_setup(): ControllerSetup</text></g><!--MD5=[2f8a76de5e74ab34efedcdf00544cfe4]
class ControllerSetup--><g id="elem_ControllerSetup"><rect codeLine="33" fill="#F1F1F1" height="72.5938" id="ControllerSetup" rx="2.5" ry="2.5" style="stroke:#181818;stroke-width:0.5;" width="166" x="1301" y="378"/><ellipse cx="1327.7" cy="394" fill="#ADD1B2" rx="11" ry="11" style="stroke:#181818;stroke-width:1.0;"/><path d="M1330.6688,399.6406 Q1330.0906,399.9375 1329.45,400.0781 Q1328.8094,400.2344 1328.1063,400.2344 Q1325.6063,400.2344 1324.2781,398.5938 Q1322.9656,396.9375 1322.9656,393.8125 Q1322.9656,390.6875 1324.2781,389.0313 Q1325.6063,387.375 1328.1063,387.375 Q1328.8094,387.375 1329.45,387.5313 Q1330.1063,387.6875 1330.6688,387.9844 L1330.6688,390.7031 Q1330.0438,390.125 1329.45,389.8594 Q1328.8563,389.5781 1328.2313,389.5781 Q1326.8875,389.5781 1326.2,390.6563 Q1325.5125,391.7188 1325.5125,393.8125 Q1325.5125,395.9063 1326.2,396.9844 Q1326.8875,398.0469 1328.2313,398.0469 Q1328.8563,398.0469 1329.45,397.7813 Q1330.0438,397.5 1330.6688,396.9219 L1330.6688,399.6406 Z " fill="#000000"/><text fill="#000000" font-family="sans-serif" font-size="14" lengthAdjust="spacing" textLength="108" x="1344.3" y="398.8467">ControllerSetup</text><line style="stroke:#181818;stroke-width:0.5;" x1="1302" x2="1466" y1="410" y2="410"/><text fill="#000000" font-family="sans-serif" font-size="14" lengthAdjust="spacing" textLength="144" x="1307" y="426.9951">controller: IController</text><text fill="#000000" font-family="sans-serif" font-size="14" lengthAdjust="spacing" textLength="154" x="1307" y="443.292">environment: gym.Env</text></g><!--MD5=[14256ebc46bc50d3820e4aa624b6c281]
class IRLController--><g id="elem_IRLController"><rect codeLine="37" fill="#F1F1F1" height="32" id="IRLController" rx="2.5" ry="2.5" style="stroke:#181818;stroke-width:0.5;" width="119" x="1005.5" y="670"/><ellipse cx="1020.5" cy="686" fill="#B4A7E5" rx="11" ry="11" style="stroke:#181818;stroke-width:1.0;"/><path d="M1016.4219,681.7656 L1016.4219,679.6094 L1023.8125,679.6094 L1023.8125,681.7656 L1021.3438,681.7656 L1021.3438,689.8438 L1023.8125,689.8438 L1023.8125,692 L1016.4219,692 L1016.4219,689.8438 L1018.8906,689.8438 L1018.8906,681.7656 L1016.4219,681.7656 Z " fill="#000000"/><text fill="#000000" font-family="sans-serif" font-size="14" font-style="italic" lengthAdjust="spacing" textLength="87" x="1034.5" y="690.8467">IRLController</text></g><!--MD5=[2a0657f23d111f10b93f25523f059902]
class IRLControllerFactory--><g id="elem_IRLControllerFactory"><rect codeLine="38" fill="#F1F1F1" height="32" id="IRLControllerFactory" rx="2.5" ry="2.5" style="stroke:#181818;stroke-width:0.5;" width="169" x="1502.5" y="398.5"/><ellipse cx="1517.5" cy="414.5" fill="#B4A7E5" rx="11" ry="11" style="stroke:#181818;stroke-width:1.0;"/><path d="M1513.4219,410.2656 L1513.4219,408.1094 L1520.8125,408.1094 L1520.8125,410.2656 L1518.3438,410.2656 L1518.3438,418.3438 L1520.8125,418.3438 L1520.8125,420.5 L1513.4219,420.5 L1513.4219,418.3438 L1515.8906,418.3438 L1515.8906,410.2656 L1513.4219,410.2656 Z " fill="#000000"/><text fill="#000000" font-family="sans-serif" font-size="14" font-style="italic" lengthAdjust="spacing" textLength="137" x="1531.5" y="419.3467">IRLControllerFactory</text></g><!--MD5=[99813123049eafeb35f87c51a6f7cc32]
class IHPTunableControllerFactory--><g id="elem_IHPTunableControllerFactory"><rect codeLine="39" fill="#F1F1F1" height="32" id="IHPTunableControllerFactory" rx="2.5" ry="2.5" style="stroke:#181818;stroke-width:0.5;" width="227" x="1658.5" y="549"/><ellipse cx="1673.5" cy="565" fill="#ADD1B2" rx="11" ry="11" style="stroke:#181818;stroke-width:1.0;"/><path d="M1676.4688,570.6406 Q1675.8906,570.9375 1675.25,571.0781 Q1674.6094,571.2344 1673.9063,571.2344 Q1671.4063,571.2344 1670.0781,569.5938 Q1668.7656,567.9375 1668.7656,564.8125 Q1668.7656,561.6875 1670.0781,560.0313 Q1671.4063,558.375 1673.9063,558.375 Q1674.6094,558.375 1675.25,558.5313 Q1675.9063,558.6875 1676.4688,558.9844 L1676.4688,561.7031 Q1675.8438,561.125 1675.25,560.8594 Q1674.6563,560.5781 1674.0313,560.5781 Q1672.6875,560.5781 1672,561.6563 Q1671.3125,562.7188 1671.3125,564.8125 Q1671.3125,566.9063 1672,567.9844 Q1672.6875,569.0469 1674.0313,569.0469 Q1674.6563,569.0469 1675.25,568.7813 Q1675.8438,568.5 1676.4688,567.9219 L1676.4688,570.6406 Z " fill="#000000"/><text fill="#000000" font-family="sans-serif" font-size="14" lengthAdjust="spacing" textLength="195" x="1687.5" y="569.8467">IHPTunableControllerFactory</text></g><!--MD5=[2f2af61d07428df936a35126d7ff4147]
class RandomController--><g id="elem_RandomController"><rect codeLine="40" fill="#F1F1F1" height="32" id="RandomController" rx="2.5" ry="2.5" style="stroke:#181818;stroke-width:0.5;" width="157" x="603.5" y="670"/><ellipse cx="618.5" cy="686" fill="#ADD1B2" rx="11" ry="11" style="stroke:#181818;stroke-width:1.0;"/><path d="M621.4688,691.6406 Q620.8906,691.9375 620.25,692.0781 Q619.6094,692.2344 618.9063,692.2344 Q616.4063,692.2344 615.0781,690.5938 Q613.7656,688.9375 613.7656,685.8125 Q613.7656,682.6875 615.0781,681.0313 Q616.4063,679.375 618.9063,679.375 Q619.6094,679.375 620.25,679.5313 Q620.9063,679.6875 621.4688,679.9844 L621.4688,682.7031 Q620.8438,682.125 620.25,681.8594 Q619.6563,681.5781 619.0313,681.5781 Q617.6875,681.5781 617,682.6563 Q616.3125,683.7188 616.3125,685.8125 Q616.3125,687.9063 617,688.9844 Q617.6875,690.0469 619.0313,690.0469 Q619.6563,690.0469 620.25,689.7813 Q620.8438,689.5 621.4688,688.9219 L621.4688,691.6406 Z " fill="#000000"/><text fill="#000000" font-family="sans-serif" font-size="14" lengthAdjust="spacing" textLength="125" x="632.5" y="690.8467">RandomController</text></g><!--MD5=[60c1b9b8349da63a4bf5ac412576dd09]
class RandomControllerFactory--><g id="elem_RandomControllerFactory"><rect codeLine="41" fill="#F1F1F1" height="32" id="RandomControllerFactory" rx="2.5" ry="2.5" style="stroke:#181818;stroke-width:0.5;" width="207" x="1706.5" y="398.5"/><ellipse cx="1721.5" cy="414.5" fill="#ADD1B2" rx="11" ry="11" style="stroke:#181818;stroke-width:1.0;"/><path d="M1724.4688,420.1406 Q1723.8906,420.4375 1723.25,420.5781 Q1722.6094,420.7344 1721.9063,420.7344 Q1719.4063,420.7344 1718.0781,419.0938 Q1716.7656,417.4375 1716.7656,414.3125 Q1716.7656,411.1875 1718.0781,409.5313 Q1719.4063,407.875 1721.9063,407.875 Q1722.6094,407.875 1723.25,408.0313 Q1723.9063,408.1875 1724.4688,408.4844 L1724.4688,411.2031 Q1723.8438,410.625 1723.25,410.3594 Q1722.6563,410.0781 1722.0313,410.0781 Q1720.6875,410.0781 1720,411.1563 Q1719.3125,412.2188 1719.3125,414.3125 Q1719.3125,416.4063 1720,417.4844 Q1720.6875,418.5469 1722.0313,418.5469 Q1722.6563,418.5469 1723.25,418.2813 Q1723.8438,418 1724.4688,417.4219 L1724.4688,420.1406 Z " fill="#000000"/><text fill="#000000" font-family="sans-serif" font-size="14" lengthAdjust="spacing" textLength="175" x="1735.5" y="419.3467">RandomControllerFactory</text></g><!--MD5=[ab4844d6a963a76d6711976405d51c6a]
class RuleBasedController--><g id="elem_RuleBasedController"><rect codeLine="42" fill="#F1F1F1" height="32" id="RuleBasedController" rx="2.5" ry="2.5" style="stroke:#181818;stroke-width:0.5;" width="174" x="796" y="670"/><ellipse cx="811" cy="686" fill="#ADD1B2" rx="11" ry="11" style="stroke:#181818;stroke-width:1.0;"/><path d="M813.9688,691.6406 Q813.3906,691.9375 812.75,692.0781 Q812.1094,692.2344 811.4063,692.2344 Q808.9063,692.2344 807.5781,690.5938 Q806.2656,688.9375 806.2656,685.8125 Q806.2656,682.6875 807.5781,681.0313 Q808.9063,679.375 811.4063,679.375 Q812.1094,679.375 812.75,679.5313 Q813.4063,679.6875 813.9688,679.9844 L813.9688,682.7031 Q813.3438,682.125 812.75,681.8594 Q812.1563,681.5781 811.5313,681.5781 Q810.1875,681.5781 809.5,682.6563 Q808.8125,683.7188 808.8125,685.8125 Q808.8125,687.9063 809.5,688.9844 Q810.1875,690.0469 811.5313,690.0469 Q812.1563,690.0469 812.75,689.7813 Q813.3438,689.5 813.9688,688.9219 L813.9688,691.6406 Z " fill="#000000"/><text fill="#000000" font-family="sans-serif" font-size="14" lengthAdjust="spacing" textLength="142" x="825" y="690.8467">RuleBasedController</text></g><!--MD5=[288aadd786980cda150e13acb098aa96]
class RuleBasedControllerFactory--><g id="elem_RuleBasedControllerFactory"><rect codeLine="43" fill="#F1F1F1" height="32" id="RuleBasedControllerFactory" rx="2.5" ry="2.5" style="stroke:#181818;stroke-width:0.5;" width="224" x="1949" y="398.5"/><ellipse cx="1964" cy="414.5" fill="#ADD1B2" rx="11" ry="11" style="stroke:#181818;stroke-width:1.0;"/><path d="M1966.9688,420.1406 Q1966.3906,420.4375 1965.75,420.5781 Q1965.1094,420.7344 1964.4063,420.7344 Q1961.9063,420.7344 1960.5781,419.0938 Q1959.2656,417.4375 1959.2656,414.3125 Q1959.2656,411.1875 1960.5781,409.5313 Q1961.9063,407.875 1964.4063,407.875 Q1965.1094,407.875 1965.75,408.0313 Q1966.4063,408.1875 1966.9688,408.4844 L1966.9688,411.2031 Q1966.3438,410.625 1965.75,410.3594 Q1965.1563,410.0781 1964.5313,410.0781 Q1963.1875,410.0781 1962.5,411.1563 Q1961.8125,412.2188 1961.8125,414.3125 Q1961.8125,416.4063 1962.5,417.4844 Q1963.1875,418.5469 1964.5313,418.5469 Q1965.1563,418.5469 1965.75,418.2813 Q1966.3438,418 1966.9688,417.4219 L1966.9688,420.1406 Z " fill="#000000"/><text fill="#000000" font-family="sans-serif" font-size="14" lengthAdjust="spacing" textLength="192" x="1978" y="419.3467">RuleBasedControllerFactory</text></g><!--MD5=[eaf7de0538c0ece421c87c7e9082976f]
class SACFactory--><g id="elem_SACFactory"><rect codeLine="44" fill="#F1F1F1" height="32" id="SACFactory" rx="2.5" ry="2.5" style="stroke:#181818;stroke-width:0.5;" width="110" x="2006" y="670"/><ellipse cx="2021" cy="686" fill="#ADD1B2" rx="11" ry="11" style="stroke:#181818;stroke-width:1.0;"/><path d="M2023.9688,691.6406 Q2023.3906,691.9375 2022.75,692.0781 Q2022.1094,692.2344 2021.4063,692.2344 Q2018.9063,692.2344 2017.5781,690.5938 Q2016.2656,688.9375 2016.2656,685.8125 Q2016.2656,682.6875 2017.5781,681.0313 Q2018.9063,679.375 2021.4063,679.375 Q2022.1094,679.375 2022.75,679.5313 Q2023.4063,679.6875 2023.9688,679.9844 L2023.9688,682.7031 Q2023.3438,682.125 2022.75,681.8594 Q2022.1563,681.5781 2021.5313,681.5781 Q2020.1875,681.5781 2019.5,682.6563 Q2018.8125,683.7188 2018.8125,685.8125 Q2018.8125,687.9063 2019.5,688.9844 Q2020.1875,690.0469 2021.5313,690.0469 Q2022.1563,690.0469 2022.75,689.7813 Q2023.3438,689.5 2023.9688,688.9219 L2023.9688,691.6406 Z " fill="#000000"/><text fill="#000000" font-family="sans-serif" font-size="14" lengthAdjust="spacing" textLength="78" x="2035" y="690.8467">SACFactory</text></g><!--MD5=[644e4c6bb7b856f3250dcd2912302304]
class PPOFactory--><g id="elem_PPOFactory"><rect codeLine="45" fill="#F1F1F1" height="32" id="PPOFactory" rx="2.5" ry="2.5" style="stroke:#181818;stroke-width:0.5;" width="111" x="1859.5" y="670"/><ellipse cx="1874.5" cy="686" fill="#ADD1B2" rx="11" ry="11" style="stroke:#181818;stroke-width:1.0;"/><path d="M1877.4688,691.6406 Q1876.8906,691.9375 1876.25,692.0781 Q1875.6094,692.2344 1874.9063,692.2344 Q1872.4063,692.2344 1871.0781,690.5938 Q1869.7656,688.9375 1869.7656,685.8125 Q1869.7656,682.6875 1871.0781,681.0313 Q1872.4063,679.375 1874.9063,679.375 Q1875.6094,679.375 1876.25,679.5313 Q1876.9063,679.6875 1877.4688,679.9844 L1877.4688,682.7031 Q1876.8438,682.125 1876.25,681.8594 Q1875.6563,681.5781 1875.0313,681.5781 Q1873.6875,681.5781 1873,682.6563 Q1872.3125,683.7188 1872.3125,685.8125 Q1872.3125,687.9063 1873,688.9844 Q1873.6875,690.0469 1875.0313,690.0469 Q1875.6563,690.0469 1876.25,689.7813 Q1876.8438,689.5 1877.4688,688.9219 L1877.4688,691.6406 Z " fill="#000000"/><text fill="#000000" font-family="sans-serif" font-size="14" lengthAdjust="spacing" textLength="79" x="1888.5" y="690.8467">PPOFactory</text></g><!--MD5=[7ad52c7355708b1847a8d6c025a1a3e5]
class DDPGFactory--><g id="elem_DDPGFactory"><rect codeLine="46" fill="#F1F1F1" height="32" id="DDPGFactory" rx="2.5" ry="2.5" style="stroke:#181818;stroke-width:0.5;" width="124" x="1555" y="670"/><ellipse cx="1570" cy="686" fill="#ADD1B2" rx="11" ry="11" style="stroke:#181818;stroke-width:1.0;"/><path d="M1572.9688,691.6406 Q1572.3906,691.9375 1571.75,692.0781 Q1571.1094,692.2344 1570.4063,692.2344 Q1567.9063,692.2344 1566.5781,690.5938 Q1565.2656,688.9375 1565.2656,685.8125 Q1565.2656,682.6875 1566.5781,681.0313 Q1567.9063,679.375 1570.4063,679.375 Q1571.1094,679.375 1571.75,679.5313 Q1572.4063,679.6875 1572.9688,679.9844 L1572.9688,682.7031 Q1572.3438,682.125 1571.75,681.8594 Q1571.1563,681.5781 1570.5313,681.5781 Q1569.1875,681.5781 1568.5,682.6563 Q1567.8125,683.7188 1567.8125,685.8125 Q1567.8125,687.9063 1568.5,688.9844 Q1569.1875,690.0469 1570.5313,690.0469 Q1571.1563,690.0469 1571.75,689.7813 Q1572.3438,689.5 1572.9688,688.9219 L1572.9688,691.6406 Z " fill="#000000"/><text fill="#000000" font-family="sans-serif" font-size="14" lengthAdjust="spacing" textLength="92" x="1584" y="690.8467">DDPGFactory</text></g><!--MD5=[1a7bce0f68a72feb175f14cc06306b22]
class DQNFactory--><g id="elem_DQNFactory"><rect codeLine="47" fill="#F1F1F1" height="32" id="DQNFactory" rx="2.5" ry="2.5" style="stroke:#181818;stroke-width:0.5;" width="114" x="2151" y="670"/><ellipse cx="2166" cy="686" fill="#ADD1B2" rx="11" ry="11" style="stroke:#181818;stroke-width:1.0;"/><path d="M2168.9688,691.6406 Q2168.3906,691.9375 2167.75,692.0781 Q2167.1094,692.2344 2166.4063,692.2344 Q2163.9063,692.2344 2162.5781,690.5938 Q2161.2656,688.9375 2161.2656,685.8125 Q2161.2656,682.6875 2162.5781,681.0313 Q2163.9063,679.375 2166.4063,679.375 Q2167.1094,679.375 2167.75,679.5313 Q2168.4063,679.6875 2168.9688,679.9844 L2168.9688,682.7031 Q2168.3438,682.125 2167.75,681.8594 Q2167.1563,681.5781 2166.5313,681.5781 Q2165.1875,681.5781 2164.5,682.6563 Q2163.8125,683.7188 2163.8125,685.8125 Q2163.8125,687.9063 2164.5,688.9844 Q2165.1875,690.0469 2166.5313,690.0469 Q2167.1563,690.0469 2167.75,689.7813 Q2168.3438,689.5 2168.9688,688.9219 L2168.9688,691.6406 Z " fill="#000000"/><text fill="#000000" font-family="sans-serif" font-size="14" lengthAdjust="spacing" textLength="82" x="2180" y="690.8467">DQNFactory</text></g><!--MD5=[fa187af819ad763f669967da6345ceb3]
class TD3Factory--><g id="elem_TD3Factory"><rect codeLine="48" fill="#F1F1F1" height="32" id="TD3Factory" rx="2.5" ry="2.5" style="stroke:#181818;stroke-width:0.5;" width="111" x="2300.5" y="670"/><ellipse cx="2315.5" cy="686" fill="#ADD1B2" rx="11" ry="11" style="stroke:#181818;stroke-width:1.0;"/><path d="M2318.4688,691.6406 Q2317.8906,691.9375 2317.25,692.0781 Q2316.6094,692.2344 2315.9063,692.2344 Q2313.4063,692.2344 2312.0781,690.5938 Q2310.7656,688.9375 2310.7656,685.8125 Q2310.7656,682.6875 2312.0781,681.0313 Q2313.4063,679.375 2315.9063,679.375 Q2316.6094,679.375 2317.25,679.5313 Q2317.9063,679.6875 2318.4688,679.9844 L2318.4688,682.7031 Q2317.8438,682.125 2317.25,681.8594 Q2316.6563,681.5781 2316.0313,681.5781 Q2314.6875,681.5781 2314,682.6563 Q2313.3125,683.7188 2313.3125,685.8125 Q2313.3125,687.9063 2314,688.9844 Q2314.6875,690.0469 2316.0313,690.0469 Q2316.6563,690.0469 2317.25,689.7813 Q2317.8438,689.5 2318.4688,688.9219 L2318.4688,691.6406 Z " fill="#000000"/><text fill="#000000" font-family="sans-serif" font-size="14" lengthAdjust="spacing" textLength="79" x="2329.5" y="690.8467">TD3Factory</text></g><!--MD5=[c84d3e781fe37948c1d486a94d9b57f0]
class RecurrentPPOFactory--><g id="elem_RecurrentPPOFactory"><rect codeLine="49" fill="#F1F1F1" height="32" id="RecurrentPPOFactory" rx="2.5" ry="2.5" style="stroke:#181818;stroke-width:0.5;" width="180" x="1340" y="670"/><ellipse cx="1355" cy="686" fill="#ADD1B2" rx="11" ry="11" style="stroke:#181818;stroke-width:1.0;"/><path d="M1357.9688,691.6406 Q1357.3906,691.9375 1356.75,692.0781 Q1356.1094,692.2344 1355.4063,692.2344 Q1352.9063,692.2344 1351.5781,690.5938 Q1350.2656,688.9375 1350.2656,685.8125 Q1350.2656,682.6875 1351.5781,681.0313 Q1352.9063,679.375 1355.4063,679.375 Q1356.1094,679.375 1356.75,679.5313 Q1357.4063,679.6875 1357.9688,679.9844 L1357.9688,682.7031 Q1357.3438,682.125 1356.75,681.8594 Q1356.1563,681.5781 1355.5313,681.5781 Q1354.1875,681.5781 1353.5,682.6563 Q1352.8125,683.7188 1352.8125,685.8125 Q1352.8125,687.9063 1353.5,688.9844 Q1354.1875,690.0469 1355.5313,690.0469 Q1356.1563,690.0469 1356.75,689.7813 Q1357.3438,689.5 1357.9688,688.9219 L1357.9688,691.6406 Z " fill="#000000"/><text fill="#000000" font-family="sans-serif" font-size="14" lengthAdjust="spacing" textLength="148" x="1369" y="690.8467">RecurrentPPOFactory</text></g><!--MD5=[1f8db0f02f1194ec12491c951f33e7c0]
class A2CFactory--><g id="elem_A2CFactory"><rect codeLine="50" fill="#F1F1F1" height="32" id="A2CFactory" rx="2.5" ry="2.5" style="stroke:#181818;stroke-width:0.5;" width="110" x="1714" y="670"/><ellipse cx="1729" cy="686" fill="#ADD1B2" rx="11" ry="11" style="stroke:#181818;stroke-width:1.0;"/><path d="M1731.9688,691.6406 Q1731.3906,691.9375 1730.75,692.0781 Q1730.1094,692.2344 1729.4063,692.2344 Q1726.9063,692.2344 1725.5781,690.5938 Q1724.2656,688.9375 1724.2656,685.8125 Q1724.2656,682.6875 1725.5781,681.0313 Q1726.9063,679.375 1729.4063,679.375 Q1730.1094,679.375 1730.75,679.5313 Q1731.4063,679.6875 1731.9688,679.9844 L1731.9688,682.7031 Q1731.3438,682.125 1730.75,681.8594 Q1730.1563,681.5781 1729.5313,681.5781 Q1728.1875,681.5781 1727.5,682.6563 Q1726.8125,683.7188 1726.8125,685.8125 Q1726.8125,687.9063 1727.5,688.9844 Q1728.1875,690.0469 1729.5313,690.0469 Q1730.1563,690.0469 1730.75,689.7813 Q1731.3438,689.5 1731.9688,688.9219 L1731.9688,691.6406 Z " fill="#000000"/><text fill="#000000" font-family="sans-serif" font-size="14" lengthAdjust="spacing" textLength="78" x="1743" y="690.8467">A2CFactory</text></g><!--MD5=[487433683d5e2baf5b2fa76ead121eab]
class CustomControllerFactory--><g id="elem_CustomControllerFactory"><rect codeLine="51" fill="#F1F1F1" height="32" id="CustomControllerFactory" rx="2.5" ry="2.5" style="stroke:#181818;stroke-width:0.5;" width="203" x="2208.5" y="398.5"/><ellipse cx="2223.5" cy="414.5" fill="#ADD1B2" rx="11" ry="11" style="stroke:#181818;stroke-width:1.0;"/><path d="M2226.4688,420.1406 Q2225.8906,420.4375 2225.25,420.5781 Q2224.6094,420.7344 2223.9063,420.7344 Q2221.4063,420.7344 2220.0781,419.0938 Q2218.7656,417.4375 2218.7656,414.3125 Q2218.7656,411.1875 2220.0781,409.5313 Q2221.4063,407.875 2223.9063,407.875 Q2224.6094,407.875 2225.25,408.0313 Q2225.9063,408.1875 2226.4688,408.4844 L2226.4688,411.2031 Q2225.8438,410.625 2225.25,410.3594 Q2224.6563,410.0781 2224.0313,410.0781 Q2222.6875,410.0781 2222,411.1563 Q2221.3125,412.2188 2221.3125,414.3125 Q2221.3125,416.4063 2222,417.4844 Q2222.6875,418.5469 2224.0313,418.5469 Q2224.6563,418.5469 2225.25,418.2813 Q2225.8438,418 2226.4688,417.4219 L2226.4688,420.1406 Z " fill="#000000"/><text fill="#000000" font-family="sans-serif" font-size="14" lengthAdjust="spacing" textLength="171" x="2237.5" y="419.3467">CustomControllerFactory</text></g><!--MD5=[d3aa094b3530b8a4cfef38427458cefd]
class OnPolicyAdapter--><g id="elem_OnPolicyAdapter"><rect codeLine="52" fill="#F1F1F1" height="32" id="OnPolicyAdapter" rx="2.5" ry="2.5" style="stroke:#181818;stroke-width:0.5;" width="145" x="1159.5" y="670"/><ellipse cx="1174.5" cy="686" fill="#ADD1B2" rx="11" ry="11" style="stroke:#181818;stroke-width:1.0;"/><path d="M1177.4688,691.6406 Q1176.8906,691.9375 1176.25,692.0781 Q1175.6094,692.2344 1174.9063,692.2344 Q1172.4063,692.2344 1171.0781,690.5938 Q1169.7656,688.9375 1169.7656,685.8125 Q1169.7656,682.6875 1171.0781,681.0313 Q1172.4063,679.375 1174.9063,679.375 Q1175.6094,679.375 1176.25,679.5313 Q1176.9063,679.6875 1177.4688,679.9844 L1177.4688,682.7031 Q1176.8438,682.125 1176.25,681.8594 Q1175.6563,681.5781 1175.0313,681.5781 Q1173.6875,681.5781 1173,682.6563 Q1172.3125,683.7188 1172.3125,685.8125 Q1172.3125,687.9063 1173,688.9844 Q1173.6875,690.0469 1175.0313,690.0469 Q1175.6563,690.0469 1176.25,689.7813 Q1176.8438,689.5 1177.4688,688.9219 L1177.4688,691.6406 Z " fill="#000000"/><text fill="#000000" font-family="sans-serif" font-size="14" lengthAdjust="spacing" textLength="113" x="1188.5" y="690.8467">OnPolicyAdapter</text></g><!--MD5=[dcc2f53f329fb052a6f45cfd9829f02e]
class ReportingWrapper--><g id="elem_ReportingWrapper"><rect codeLine="56" fill="#F1F1F1" height="32" id="ReportingWrapper" rx="2.5" ry="2.5" style="stroke:#181818;stroke-width:0.5;" width="158" x="2648" y="781"/><ellipse cx="2663" cy="797" fill="#ADD1B2" rx="11" ry="11" style="stroke:#181818;stroke-width:1.0;"/><path d="M2665.9688,802.6406 Q2665.3906,802.9375 2664.75,803.0781 Q2664.1094,803.2344 2663.4063,803.2344 Q2660.9063,803.2344 2659.5781,801.5938 Q2658.2656,799.9375 2658.2656,796.8125 Q2658.2656,793.6875 2659.5781,792.0313 Q2660.9063,790.375 2663.4063,790.375 Q2664.1094,790.375 2664.75,790.5313 Q2665.4063,790.6875 2665.9688,790.9844 L2665.9688,793.7031 Q2665.3438,793.125 2664.75,792.8594 Q2664.1563,792.5781 2663.5313,792.5781 Q2662.1875,792.5781 2661.5,793.6563 Q2660.8125,794.7188 2660.8125,796.8125 Q2660.8125,798.9063 2661.5,799.9844 Q2662.1875,801.0469 2663.5313,801.0469 Q2664.1563,801.0469 2664.75,800.7813 Q2665.3438,800.5 2665.9688,799.9219 L2665.9688,802.6406 Z " fill="#000000"/><text fill="#000000" font-family="sans-serif" font-size="14" lengthAdjust="spacing" textLength="126" x="2677" y="801.8467">ReportingWrapper</text></g><!--MD5=[33bba98096c1ca05b30ae808d2e308bd]
class EnvWrapperManager--><g id="elem_EnvWrapperManager"><rect codeLine="57" fill="#F1F1F1" height="32" id="EnvWrapperManager" rx="2.5" ry="2.5" style="stroke:#181818;stroke-width:0.5;" width="175" x="2639.5" y="670"/><ellipse cx="2654.5" cy="686" fill="#ADD1B2" rx="11" ry="11" style="stroke:#181818;stroke-width:1.0;"/><path d="M2657.4688,691.6406 Q2656.8906,691.9375 2656.25,692.0781 Q2655.6094,692.2344 2654.9063,692.2344 Q2652.4063,692.2344 2651.0781,690.5938 Q2649.7656,688.9375 2649.7656,685.8125 Q2649.7656,682.6875 2651.0781,681.0313 Q2652.4063,679.375 2654.9063,679.375 Q2655.6094,679.375 2656.25,679.5313 Q2656.9063,679.6875 2657.4688,679.9844 L2657.4688,682.7031 Q2656.8438,682.125 2656.25,681.8594 Q2655.6563,681.5781 2655.0313,681.5781 Q2653.6875,681.5781 2653,682.6563 Q2652.3125,683.7188 2652.3125,685.8125 Q2652.3125,687.9063 2653,688.9844 Q2653.6875,690.0469 2655.0313,690.0469 Q2655.6563,690.0469 2656.25,689.7813 Q2656.8438,689.5 2657.4688,688.9219 L2657.4688,691.6406 Z " fill="#000000"/><text fill="#000000" font-family="sans-serif" font-size="14" lengthAdjust="spacing" textLength="143" x="2668.5" y="690.8467">EnvWrapperManager</text></g><!--MD5=[f705b9614a6e8d8adc315de185164542]
class ExperimentStorage--><g id="elem_ExperimentStorage"><rect codeLine="58" fill="#F1F1F1" height="32" id="ExperimentStorage" rx="2.5" ry="2.5" style="stroke:#181818;stroke-width:0.5;" width="164" x="2850" y="670"/><ellipse cx="2865" cy="686" fill="#ADD1B2" rx="11" ry="11" style="stroke:#181818;stroke-width:1.0;"/><path d="M2867.9688,691.6406 Q2867.3906,691.9375 2866.75,692.0781 Q2866.1094,692.2344 2865.4063,692.2344 Q2862.9063,692.2344 2861.5781,690.5938 Q2860.2656,688.9375 2860.2656,685.8125 Q2860.2656,682.6875 2861.5781,681.0313 Q2862.9063,679.375 2865.4063,679.375 Q2866.1094,679.375 2866.75,679.5313 Q2867.4063,679.6875 2867.9688,679.9844 L2867.9688,682.7031 Q2867.3438,682.125 2866.75,681.8594 Q2866.1563,681.5781 2865.5313,681.5781 Q2864.1875,681.5781 2863.5,682.6563 Q2862.8125,683.7188 2862.8125,685.8125 Q2862.8125,687.9063 2863.5,688.9844 Q2864.1875,690.0469 2865.5313,690.0469 Q2866.1563,690.0469 2866.75,689.7813 Q2867.3438,689.5 2867.9688,688.9219 L2867.9688,691.6406 Z " fill="#000000"/><text fill="#000000" font-family="sans-serif" font-size="14" lengthAdjust="spacing" textLength="132" x="2879" y="690.8467">ExperimentStorage</text></g><!--MD5=[491aa8402a7a8fb5f593e5546b5fa6bd]
class HDF5StorageManager--><g id="elem_HDF5StorageManager"><rect codeLine="59" fill="#F1F1F1" height="32" id="HDF5StorageManager" rx="2.5" ry="2.5" style="stroke:#181818;stroke-width:0.5;" width="184" x="2828" y="549"/><ellipse cx="2843" cy="565" fill="#ADD1B2" rx="11" ry="11" style="stroke:#181818;stroke-width:1.0;"/><path d="M2845.9688,570.6406 Q2845.3906,570.9375 2844.75,571.0781 Q2844.1094,571.2344 2843.4063,571.2344 Q2840.9063,571.2344 2839.5781,569.5938 Q2838.2656,567.9375 2838.2656,564.8125 Q2838.2656,561.6875 2839.5781,560.0313 Q2840.9063,558.375 2843.4063,558.375 Q2844.1094,558.375 2844.75,558.5313 Q2845.4063,558.6875 2845.9688,558.9844 L2845.9688,561.7031 Q2845.3438,561.125 2844.75,560.8594 Q2844.1563,560.5781 2843.5313,560.5781 Q2842.1875,560.5781 2841.5,561.6563 Q2840.8125,562.7188 2840.8125,564.8125 Q2840.8125,566.9063 2841.5,567.9844 Q2842.1875,569.0469 2843.5313,569.0469 Q2844.1563,569.0469 2844.75,568.7813 Q2845.3438,568.5 2845.9688,567.9219 L2845.9688,570.6406 Z " fill="#000000"/><text fill="#000000" font-family="sans-serif" font-size="14" lengthAdjust="spacing" textLength="152" x="2857" y="569.8467">HDF5StorageManager</text></g><!--MD5=[637b02c3ee138a21c046558b7350b5c9]
class GymEnv--><g id="elem_GymEnv"><rect codeLine="62" fill="#F1F1F1" height="40.2656" id="GymEnv" rx="2.5" ry="2.5" style="stroke:#181818;stroke-width:0.5;" width="93" x="2514.5" y="545"/><ellipse cx="2529.5" cy="565.1328" fill="#ADD1B2" rx="11" ry="11" style="stroke:#181818;stroke-width:1.0;"/><path d="M2532.4688,570.7734 Q2531.8906,571.0703 2531.25,571.2109 Q2530.6094,571.3672 2529.9063,571.3672 Q2527.4063,571.3672 2526.0781,569.7266 Q2524.7656,568.0703 2524.7656,564.9453 Q2524.7656,561.8203 2526.0781,560.1641 Q2527.4063,558.5078 2529.9063,558.5078 Q2530.6094,558.5078 2531.25,558.6641 Q2531.9063,558.8203 2532.4688,559.1172 L2532.4688,561.8359 Q2531.8438,561.2578 2531.25,560.9922 Q2530.6563,560.7109 2530.0313,560.7109 Q2528.6875,560.7109 2528,561.7891 Q2527.3125,562.8516 2527.3125,564.9453 Q2527.3125,567.0391 2528,568.1172 Q2528.6875,569.1797 2530.0313,569.1797 Q2530.6563,569.1797 2531.25,568.9141 Q2531.8438,568.6328 2532.4688,568.0547 L2532.4688,570.7734 Z " fill="#000000"/><text fill="#000000" font-family="sans-serif" font-size="12" font-style="italic" lengthAdjust="spacing" textLength="65" x="2541.5" y="561.1387">«external»</text><text fill="#000000" font-family="sans-serif" font-size="14" lengthAdjust="spacing" textLength="58" x="2545" y="576.9639">gym.Env</text></g><!--MD5=[3c760cb6921be40f0166f8c2e00f3583]
class SACController--><g id="elem_SACController"><rect fill="#F1F1F1" height="32" id="SACController" rx="2.5" ry="2.5" style="stroke:#181818;stroke-width:0.5;" width="127" x="1001.5" y="781"/><ellipse cx="1016.5" cy="797" fill="#ADD1B2" rx="11" ry="11" style="stroke:#181818;stroke-width:1.0;"/><path d="M1019.4688,802.6406 Q1018.8906,802.9375 1018.25,803.0781 Q1017.6094,803.2344 1016.9063,803.2344 Q1014.4063,803.2344 1013.0781,801.5938 Q1011.7656,799.9375 1011.7656,796.8125 Q1011.7656,793.6875 1013.0781,792.0313 Q1014.4063,790.375 1016.9063,790.375 Q1017.6094,790.375 1018.25,790.5313 Q1018.9063,790.6875 1019.4688,790.9844 L1019.4688,793.7031 Q1018.8438,793.125 1018.25,792.8594 Q1017.6563,792.5781 1017.0313,792.5781 Q1015.6875,792.5781 1015,793.6563 Q1014.3125,794.7188 1014.3125,796.8125 Q1014.3125,798.9063 1015,799.9844 Q1015.6875,801.0469 1017.0313,801.0469 Q1017.6563,801.0469 1018.25,800.7813 Q1018.8438,800.5 1019.4688,799.9219 L1019.4688,802.6406 Z " fill="#000000"/><text fill="#000000" font-family="sans-serif" font-size="14" lengthAdjust="spacing" textLength="95" x="1030.5" y="801.8467">SACController</text></g><!--MD5=[f89f56c3f58488c464c31da1d9197c47]
link ExperimentManager to Experiment--><g id="link_ExperimentManager_Experiment"><path codeLine="64" d="M390.62,130.25 C398.94,161.57 409.95,203.04 417.46,231.35 " fill="none" id="ExperimentManager-to-Experiment" style="stroke:#181818;stroke-width:1.0;"/><polygon fill="#181818" points="418.82,236.47,420.3696,226.7438,417.5335,231.6384,412.6389,228.8023,418.82,236.47" style="stroke:#181818;stroke-width:1.0;"/><text fill="#000000" font-family="sans-serif" font-size="13" lengthAdjust="spacing" textLength="95" x="404" y="173.0669">creates &amp; runs</text></g><!--MD5=[fbf5a98823a7b93b2384c1bea443f1f6]
link ExperimentManager to IEnvironmentFactory--><g id="link_ExperimentManager_IEnvironmentFactory"><path codeLine="65" d="M547.01,88.91 C1066.38,96.7 2624.69,122.94 2850,160 C2933.31,173.7 3024.7,202.45 3091.58,226.18 " fill="none" id="ExperimentManager-to-IEnvironmentFactory" style="stroke:#181818;stroke-width:1.0;"/><polygon fill="#181818" points="3096.35,227.88,3089.204,221.1025,3091.6374,226.2092,3086.5307,228.6426,3096.35,227.88" style="stroke:#181818;stroke-width:1.0;"/><text fill="#000000" font-family="sans-serif" font-size="13" lengthAdjust="spacing" textLength="30" x="2926" y="173.0669">uses</text></g><!--MD5=[9e83f74cfdec28293281c72188294942]
link ExperimentManager to IControllerFactory--><g id="link_ExperimentManager_IControllerFactory"><path codeLine="66" d="M547.18,109.05 C802.56,143.29 1284.95,207.98 1536.75,241.74 " fill="none" id="ExperimentManager-to-IControllerFactory" style="stroke:#181818;stroke-width:1.0;"/><polygon fill="#181818" points="1541.92,242.44,1533.5383,237.2682,1536.9652,241.7689,1532.4646,245.1958,1541.92,242.44" style="stroke:#181818;stroke-width:1.0;"/><text fill="#000000" font-family="sans-serif" font-size="13" lengthAdjust="spacing" textLength="30" x="1040" y="173.0669">uses</text></g><!--MD5=[256f23329fb1a2403b66eea0c995fb44]
link Experiment to IController--><g id="link_Experiment_IController"><path codeLine="67" d="M423.45,292.57 C420.45,342.04 422.17,446.68 483,498 C540.98,546.92 759.01,559.61 876.26,562.88 " fill="none" id="Experiment-to-IController" style="stroke:#181818;stroke-width:1.0;"/><polygon fill="#181818" points="881.42,563.02,872.5258,558.79,876.4217,562.8915,872.3202,566.7873,881.42,563.02" style="stroke:#181818;stroke-width:1.0;"/><text fill="#000000" font-family="sans-serif" font-size="13" lengthAdjust="spacing" textLength="30" x="449" y="419.0669">uses</text></g><!--MD5=[5faa8fa663d3d60ef076cb653f700b29]
link Experiment to ReportingWrapper--><g id="link_Experiment_ReportingWrapper"><path codeLine="68" d="M403.1,292.72 C381.69,321.02 353,367.52 353,413.5 C353,413.5 353,413.5 353,687 C353,792.43 482.08,715.59 587,726 C996.41,766.63 2297.83,789.33 2642.54,794.73 " fill="none" id="Experiment-to-ReportingWrapper" style="stroke:#181818;stroke-width:1.0;"/><polygon fill="#181818" points="2647.79,794.82,2638.8481,790.6918,2642.7905,794.7486,2638.7338,798.691,2647.79,794.82" style="stroke:#181818;stroke-width:1.0;"/><text fill="#000000" font-family="sans-serif" font-size="13" lengthAdjust="spacing" textLength="37" x="354" y="569.5669">wraps</text></g><!--MD5=[c897525cbcacd1adddf68e05d0f4b918]
link Experiment to ExperimentStorage--><g id="link_Experiment_ExperimentStorage"><path codeLine="69" d="M439.84,292.59 C463.38,335.37 515.72,417.19 587,451 C610.1,461.96 2404.47,493.91 2427,506 C2474.48,531.49 2451.59,575.98 2497,605 C2511.6,614.33 2721.86,650.27 2844.62,670.66 " fill="none" id="Experiment-to-ExperimentStorage" style="stroke:#181818;stroke-width:1.0;"/><polygon fill="#181818" points="2849.67,671.5,2841.4424,666.0864,2844.7369,670.685,2840.1383,673.9794,2849.67,671.5" style="stroke:#181818;stroke-width:1.0;"/><text fill="#000000" font-family="sans-serif" font-size="13" lengthAdjust="spacing" textLength="43" x="2269" y="494.0669">logs to</text></g><!--MD5=[b096cdf32fb812dafeca3cc65e390bbb]
reverse link IEnvironmentFactory to SinergymFactory--><g id="link_IEnvironmentFactory_SinergymFactory"><path codeLine="71" d="M3187.49,321.44 C3186.74,349.02 3185.9,380.15 3185.41,398.23 " fill="none" id="IEnvironmentFactory-backto-SinergymFactory" style="stroke:#181818;stroke-width:1.0;stroke-dasharray:7.0,7.0;"/><polygon fill="none" points="3180.49,321.13,3188.03,301.33,3194.49,321.51,3180.49,321.13" style="stroke:#181818;stroke-width:1.0;"/></g><!--MD5=[22b422b0363f3a5ed2bdf3a78e06e38a]
link SinergymFactory to SinergymEnvironment--><g id="link_SinergymFactory_SinergymEnvironment"><path codeLine="72" d="M3183.38,430.56 C3180.49,457.35 3174.46,513.33 3171.2,543.57 " fill="none" id="SinergymFactory-to-SinergymEnvironment" style="stroke:#181818;stroke-width:1.0;"/><polygon fill="#181818" points="3170.63,548.9,3175.5591,540.3733,3171.1586,543.928,3167.604,539.5275,3170.63,548.9" style="stroke:#181818;stroke-width:1.0;"/><text fill="#000000" font-family="sans-serif" font-size="13" lengthAdjust="spacing" textLength="37" x="3178" y="494.0669">builds</text></g><!--MD5=[b2214e1b16b2d84d99cee09f0fd5bcd5]
link SinergymEnvironment to ReportingWrapper--><g id="link_SinergymEnvironment_ReportingWrapper"><path codeLine="73" d="M3160.63,581.14 C3142.03,613.3 3093.95,688.52 3032,726 C2964.5,766.84 2875.44,783.87 2811,790.96 " fill="none" id="SinergymEnvironment-to-ReportingWrapper" style="stroke:#181818;stroke-width:1.0;stroke-dasharray:7.0,7.0;"/><polygon fill="#181818" points="2806.01,791.5,2815.3825,794.526,2810.982,790.9714,2814.5367,786.5709,2806.01,791.5" style="stroke:#181818;stroke-width:1.0;"/><text fill="#000000" font-family="sans-serif" font-size="13" lengthAdjust="spacing" textLength="85" x="3097" y="690.5669">optional wrap</text></g><!--MD5=[8185987d5aceb551a470cbaa55da56a1]
reverse link IController to IRLController--><g id="link_IController_IRLController"><path codeLine="75" d="M991.46,607.55 C1011.91,629.09 1035.66,654.1 1050.51,669.74 " fill="none" id="IController-backto-IRLController" style="stroke:#181818;stroke-width:1.0;"/><polygon fill="none" points="986.34,612.33,977.64,593,996.49,602.69,986.34,612.33" style="stroke:#181818;stroke-width:1.0;"/></g><!--MD5=[cf7f4c4180feb383044c2835378188c0]
reverse link IController to RandomController--><g id="link_IController_RandomController"><path codeLine="76" d="M872.28,601.14 C820.36,624.02 755.27,652.71 716.24,669.91 " fill="none" id="IController-backto-RandomController" style="stroke:#181818;stroke-width:1.0;"/><polygon fill="none" points="869.61,594.66,890.73,593,875.25,607.47,869.61,594.66" style="stroke:#181818;stroke-width:1.0;"/></g><!--MD5=[b834b966112b9893252030b9aa6d32d4]
reverse link IController to RuleBasedController--><g id="link_IController_RuleBasedController"><path codeLine="77" d="M926.27,610.38 C914.17,631.25 900.52,654.78 891.85,669.74 " fill="none" id="IController-backto-RuleBasedController" style="stroke:#181818;stroke-width:1.0;"/><polygon fill="none" points="920.25,606.79,936.34,593,932.37,613.82,920.25,606.79" style="stroke:#181818;stroke-width:1.0;"/></g><!--MD5=[18bc250942c89f77282ffed7490278dc]
reverse link IController to OnPolicyAdapter--><g id="link_IController_OnPolicyAdapter"><path codeLine="78" d="M1033.97,600.84 C1087.92,623.77 1155.84,652.63 1196.49,669.91 " fill="none" id="IController-backto-OnPolicyAdapter" style="stroke:#181818;stroke-width:1.0;"/><polygon fill="none" points="1031.2,607.27,1015.54,593,1036.68,594.38,1031.2,607.27" style="stroke:#181818;stroke-width:1.0;"/></g><!--MD5=[d0be73045e954824ed4cc0ce3b168591]
reverse link IRLController to SACController--><g id="link_IRLController_SACController"><path codeLine="79" d="M1065,722.25 C1065,742.11 1065,765.89 1065,780.97 " fill="none" id="IRLController-backto-SACController" style="stroke:#181818;stroke-width:1.0;"/><polygon fill="none" points="1058,722.16,1065,702.16,1072,722.16,1058,722.16" style="stroke:#181818;stroke-width:1.0;"/></g><!--MD5=[c38dfb7b47feb7999f3aa383f38e782a]
reverse link IControllerFactory to RandomControllerFactory--><g id="link_IControllerFactory_RandomControllerFactory"><path codeLine="80" d="M1737.94,317.42 C1759.33,345.93 1784.33,379.27 1798.55,398.23 " fill="none" id="IControllerFactory-backto-RandomControllerFactory" style="stroke:#181818;stroke-width:1.0;stroke-dasharray:7.0,7.0;"/><polygon fill="none" points="1732.27,321.53,1725.87,301.33,1743.47,313.13,1732.27,321.53" style="stroke:#181818;stroke-width:1.0;"/></g><!--MD5=[bcfae7c43e8a7681b8d9695d36b7e8af]
reverse link IControllerFactory to RuleBasedControllerFactory--><g id="link_IControllerFactory_RuleBasedControllerFactory"><path codeLine="81" d="M1804.96,308.82 C1878.83,339.02 1972.96,377.51 2024.02,398.38 " fill="none" id="IControllerFactory-backto-RuleBasedControllerFactory" style="stroke:#181818;stroke-width:1.0;stroke-dasharray:7.0,7.0;"/><polygon fill="none" points="1802.03,315.19,1786.17,301.14,1807.33,302.23,1802.03,315.19" style="stroke:#181818;stroke-width:1.0;"/></g><!--MD5=[761f98e4cfe22bc80076797c890853de]
reverse link IControllerFactory to IRLControllerFactory--><g id="link_IControllerFactory_IRLControllerFactory"><path codeLine="82" d="M1659.71,317.42 C1638.13,345.93 1612.9,379.27 1598.55,398.23 " fill="none" id="IControllerFactory-backto-IRLControllerFactory" style="stroke:#181818;stroke-width:1.0;"/><polygon fill="none" points="1654.24,313.05,1671.89,301.33,1665.4,321.5,1654.24,313.05" style="stroke:#181818;stroke-width:1.0;"/></g><!--MD5=[a7abb5451c836c370f79a9943f2c767e]
reverse link IRLControllerFactory to SACFactory--><g id="link_IRLControllerFactory_SACFactory"><path codeLine="83" d="M1643.71,437.38 C1658.3,442.42 1674.1,447.36 1689,451 C1778.87,472.97 1810.51,443.3 1895,481 C1981.52,519.61 2036.84,629.65 2054.7,669.97 " fill="none" id="IRLControllerFactory-backto-SACFactory" style="stroke:#181818;stroke-width:1.0;stroke-dasharray:7.0,7.0;"/><polygon fill="none" points="1641.2,443.92,1624.75,430.57,1645.94,430.74,1641.2,443.92" style="stroke:#181818;stroke-width:1.0;"/></g><!--MD5=[5fab05c07e9c8c19a4bdc5277d80d097]
reverse link IRLControllerFactory to PPOFactory--><g id="link_IRLControllerFactory_PPOFactory"><path codeLine="84" d="M1647.18,437.38 C1660.86,442.09 1675.37,446.89 1689,451 C1783.01,479.39 1840.26,430.46 1903,506 C1942.8,553.92 1927.74,636.22 1919.24,669.93 " fill="none" id="IRLControllerFactory-backto-PPOFactory" style="stroke:#181818;stroke-width:1.0;stroke-dasharray:7.0,7.0;"/><polygon fill="none" points="1644.49,443.85,1627.94,430.62,1649.13,430.64,1644.49,443.85" style="stroke:#181818;stroke-width:1.0;"/></g><!--MD5=[aecb9c285ccbfc22513875dc01b03b01]
reverse link IRLControllerFactory to A2CFactory--><g id="link_IRLControllerFactory_A2CFactory"><path codeLine="85" d="M1596.15,450.03 C1610.27,502.95 1636.25,598.69 1641,605 C1663.76,635.26 1701.61,656.85 1730.26,669.91 " fill="none" id="IRLControllerFactory-backto-A2CFactory" style="stroke:#181818;stroke-width:1.0;stroke-dasharray:7.0,7.0;"/><polygon fill="none" points="1589.37,451.78,1591,430.65,1602.9,448.18,1589.37,451.78" style="stroke:#181818;stroke-width:1.0;"/></g><!--MD5=[fd98d258c5bd5e552720a1c45b207c20]
reverse link IRLControllerFactory to RecurrentPPOFactory--><g id="link_IRLControllerFactory_RecurrentPPOFactory"><path codeLine="86" d="M1567.84,448.4 C1533.65,507.07 1463.45,627.59 1438.79,669.91 " fill="none" id="IRLControllerFactory-backto-RecurrentPPOFactory" style="stroke:#181818;stroke-width:1.0;stroke-dasharray:7.0,7.0;"/><polygon fill="none" points="1561.99,444.52,1578.11,430.76,1574.09,451.57,1561.99,444.52" style="stroke:#181818;stroke-width:1.0;"/></g><!--MD5=[e27ef1c077ef347e991de071957f601f]
reverse link IRLControllerFactory to DDPGFactory--><g id="link_IRLControllerFactory_DDPGFactory"><path codeLine="87" d="M1590.92,450.73 C1597.54,510.21 1610.67,628.14 1615.32,669.91 " fill="none" id="IRLControllerFactory-backto-DDPGFactory" style="stroke:#181818;stroke-width:1.0;stroke-dasharray:7.0,7.0;"/><polygon fill="none" points="1583.95,451.41,1588.7,430.76,1597.87,449.86,1583.95,451.41" style="stroke:#181818;stroke-width:1.0;"/></g><!--MD5=[34d417abd6650314b5300a645a68944e]
reverse link IRLControllerFactory to TD3Factory--><g id="link_IRLControllerFactory_TD3Factory"><path codeLine="88" d="M1642.64,437.4 C1657.51,442.55 1673.7,447.54 1689,451 C1853.31,488.12 1908.53,441.16 2064,506 C2174.03,551.89 2290.82,635.7 2336.29,669.88 " fill="none" id="IRLControllerFactory-backto-TD3Factory" style="stroke:#181818;stroke-width:1.0;stroke-dasharray:7.0,7.0;"/><polygon fill="none" points="1640.13,443.94,1623.72,430.53,1644.91,430.78,1640.13,443.94" style="stroke:#181818;stroke-width:1.0;"/></g><!--MD5=[032cee6012de0370937bb599cf1c3f6a]
reverse link IRLControllerFactory to DQNFactory--><g id="link_IRLControllerFactory_DQNFactory"><path codeLine="89" d="M1643.31,437.4 C1658.01,442.47 1673.95,447.43 1689,451 C1820.47,482.18 1870.13,439.95 1988,506 C2073.91,554.14 2159.86,636.32 2193.36,669.96 " fill="none" id="IRLControllerFactory-backto-DQNFactory" style="stroke:#181818;stroke-width:1.0;stroke-dasharray:7.0,7.0;"/><polygon fill="none" points="1640.68,443.89,1624.24,430.52,1645.43,430.72,1640.68,443.89" style="stroke:#181818;stroke-width:1.0;"/></g><!--MD5=[a5e57e0b2edd72e43c8228e25929fcca]
reverse link IControllerFactory to CustomControllerFactory--><g id="link_IControllerFactory_CustomControllerFactory"><path codeLine="90" d="M1875.81,303.01 C1969.79,323.68 2087.07,350.65 2191,378 C2214.56,384.2 2240.51,391.84 2262.14,398.45 " fill="none" id="IControllerFactory-backto-CustomControllerFactory" style="stroke:#181818;stroke-width:1.0;stroke-dasharray:7.0,7.0;"/><polygon fill="none" points="1874.16,309.81,1856.13,298.7,1877.16,296.14,1874.16,309.81" style="stroke:#181818;stroke-width:1.0;"/></g><!--MD5=[1cb4c618690d27b7b080b5e5016c563b]
reverse link IHPTunableControllerFactory to SACFactory--><g id="link_IHPTunableControllerFactory_SACFactory"><path codeLine="91" d="M1827.29,588.77 C1885.18,612.6 1974.46,649.36 2024.24,669.86 " fill="none" id="IHPTunableControllerFactory-backto-SACFactory" style="stroke:#181818;stroke-width:1.0;"/><polygon fill="none" points="1824.43,595.16,1808.6,581.07,1829.76,582.21,1824.43,595.16" style="stroke:#181818;stroke-width:1.0;"/></g><!--MD5=[aba04af7c29b7bc9b3c95c9298bf16fe]
reverse link IHPTunableControllerFactory to PPOFactory--><g id="link_IHPTunableControllerFactory_PPOFactory"><path codeLine="92" d="M1805.72,594.06 C1834.12,617.69 1873.67,650.61 1896.58,669.68 " fill="none" id="IHPTunableControllerFactory-backto-PPOFactory" style="stroke:#181818;stroke-width:1.0;"/><polygon fill="none" points="1801.01,599.25,1790.11,581.07,1809.96,588.48,1801.01,599.25" style="stroke:#181818;stroke-width:1.0;"/></g><!--MD5=[831593a6f509a27b9f4180cd660c99f3]
reverse link IHPTunableControllerFactory to A2CFactory--><g id="link_IHPTunableControllerFactory_A2CFactory"><path codeLine="93" d="M1771.11,601.3 C1770.54,624.05 1769.82,652.49 1769.39,669.68 " fill="none" id="IHPTunableControllerFactory-backto-A2CFactory" style="stroke:#181818;stroke-width:1.0;"/><polygon fill="none" points="1764.12,600.89,1771.62,581.07,1778.11,601.24,1764.12,600.89" style="stroke:#181818;stroke-width:1.0;"/></g><!--MD5=[f1381e65b474bda95c0748b71160436d]
reverse link IHPTunableControllerFactory to RecurrentPPOFactory--><g id="link_IHPTunableControllerFactory_RecurrentPPOFactory"><path codeLine="94" d="M1709.65,587.7 C1641.16,611.53 1532.98,649.17 1473.23,669.96 " fill="none" id="IHPTunableControllerFactory-backto-RecurrentPPOFactory" style="stroke:#181818;stroke-width:1.0;"/><polygon fill="none" points="1707.5,581.03,1728.69,581.07,1712.1,594.26,1707.5,581.03" style="stroke:#181818;stroke-width:1.0;"/></g><!--MD5=[48eede691fa9ae32d10e20192a117199]
reverse link IHPTunableControllerFactory to DDPGFactory--><g id="link_IHPTunableControllerFactory_DDPGFactory"><path codeLine="95" d="M1736.32,593.4 C1705.48,617.07 1662.03,650.43 1636.96,669.68 " fill="none" id="IHPTunableControllerFactory-backto-DDPGFactory" style="stroke:#181818;stroke-width:1.0;"/><polygon fill="none" points="1732.24,587.7,1752.37,581.07,1740.77,598.8,1732.24,587.7" style="stroke:#181818;stroke-width:1.0;"/></g><!--MD5=[1e36d7fdcdec8a870465f07001866b74]
reverse link IHPTunableControllerFactory to TD3Factory--><g id="link_IHPTunableControllerFactory_TD3Factory"><path codeLine="96" d="M1865.96,585.07 C1968.47,605.88 2137.42,640.23 2283,670 C2288.58,671.14 2294.39,672.33 2300.2,673.52 " fill="none" id="IHPTunableControllerFactory-backto-TD3Factory" style="stroke:#181818;stroke-width:1.0;"/><polygon fill="none" points="1864.26,591.87,1846.05,581.03,1867.05,578.15,1864.26,591.87" style="stroke:#181818;stroke-width:1.0;"/></g><!--MD5=[d8f9cc77412514da336b30f80e73c292]
reverse link IHPTunableControllerFactory to DQNFactory--><g id="link_IHPTunableControllerFactory_DQNFactory"><path codeLine="97" d="M1846.76,586.41 C1933.75,610.15 2075.33,648.79 2152.89,669.96 " fill="none" id="IHPTunableControllerFactory-backto-DQNFactory" style="stroke:#181818;stroke-width:1.0;"/><polygon fill="none" points="1844.67,593.09,1827.22,581.07,1848.36,579.58,1844.67,593.09" style="stroke:#181818;stroke-width:1.0;"/></g><!--MD5=[c0e71cec78c7e9d666426cc5802476a1]
reverse link IRLControllerFactory to IHPTunableControllerFactory--><g id="link_IRLControllerFactory_IHPTunableControllerFactory"><path codeLine="98" d="M1621.6,443.27 C1660.53,474.52 1722.34,524.14 1753.19,548.9 " fill="none" id="IRLControllerFactory-backto-IHPTunableControllerFactory" style="stroke:#181818;stroke-width:1.0;"/><polygon fill="none" points="1616.97,448.53,1605.76,430.56,1625.74,437.62,1616.97,448.53" style="stroke:#181818;stroke-width:1.0;"/></g><!--MD5=[7079e630f10ef6287fdf5922d0fbaba0]
link IControllerFactory to ControllerSetup--><g id="link_IControllerFactory_ControllerSetup"><path codeLine="99" d="M1623.15,301.14 C1575.18,323.68 1513.24,352.78 1464.42,375.71 " fill="none" id="IControllerFactory-to-ControllerSetup" style="stroke:#181818;stroke-width:1.0;"/><polygon fill="#181818" points="1459.74,377.91,1469.5867,377.7016,1464.2651,375.7831,1466.1836,370.4615,1459.74,377.91" style="stroke:#181818;stroke-width:1.0;"/><text fill="#000000" font-family="sans-serif" font-size="13" lengthAdjust="spacing" textLength="46" x="1551" y="344.0669">returns</text></g><!--MD5=[ae24d9e1fd1c6217a90841b83f508900]
link ControllerSetup to IController--><g id="link_ControllerSetup_IController"><path codeLine="100" d="M1300.96,444.04 C1221.94,471.21 1104.06,511.73 1027.6,538.01 " fill="none" id="ControllerSetup-to-IController" style="stroke:#181818;stroke-width:1.0;"/><polygon fill="#181818" points="1022.62,539.72,1032.432,540.5712,1027.3475,538.0918,1029.8269,533.0073,1022.62,539.72" style="stroke:#181818;stroke-width:1.0;"/></g><!--MD5=[9ad2a59d45f010c96a50246bb28da729]
link ControllerSetup to GymEnv--><g id="link_ControllerSetup_GymEnv"><path codeLine="101" d="M1467.26,446.81 C1473.21,448.41 1479.17,449.84 1485,451 C1703.71,494.52 2278.28,427.48 2487,506 C2506.97,513.51 2525.84,528.47 2539.52,541.32 " fill="none" id="ControllerSetup-to-GymEnv" style="stroke:#181818;stroke-width:1.0;"/><polygon fill="#181818" points="2543.24,544.88,2539.5011,535.7684,2539.6268,541.4239,2533.9713,541.5496,2543.24,544.88" style="stroke:#181818;stroke-width:1.0;"/></g><!--MD5=[76bbc96ea6039a5e060c7382b2d2430c]
link ExperimentManager to HDF5StorageManager--><g id="link_ExperimentManager_HDF5StorageManager"><path codeLine="103" d="M547.19,88.83 C1005.35,95.97 2252.92,121.11 2427,185 C2645.67,265.25 2845.94,479.45 2903.5,544.8 " fill="none" id="ExperimentManager-to-HDF5StorageManager" style="stroke:#181818;stroke-width:1.0;"/><polygon fill="#181818" points="2907.08,548.89,2904.1663,539.482,2903.7885,545.1262,2898.1443,544.7484,2907.08,548.89" style="stroke:#181818;stroke-width:1.0;"/><text fill="#000000" font-family="sans-serif" font-size="13" lengthAdjust="spacing" textLength="60" x="2699" y="344.0669">manages</text></g><!--MD5=[07b996e8f482a7556dd288b41530236f]
link HDF5StorageManager to ExperimentStorage--><g id="link_HDF5StorageManager_ExperimentStorage"><path codeLine="104" d="M2921.52,581.07 C2923.65,602.24 2927.55,640.82 2929.94,664.56 " fill="none" id="HDF5StorageManager-to-ExperimentStorage" style="stroke:#181818;stroke-width:1.0;"/><polygon fill="#181818" points="2930.45,669.68,2933.5027,660.3162,2929.9355,664.7065,2925.5451,661.1394,2930.45,669.68" style="stroke:#181818;stroke-width:1.0;"/><text fill="#000000" font-family="sans-serif" font-size="13" lengthAdjust="spacing" textLength="54" x="2928" y="636.0669">provides</text></g><!--MD5=[e1fef4f6f15ff353d1f17f7c52f2fd42]
link ExperimentStorage to ReportingWrapper--><g id="link_ExperimentStorage_ReportingWrapper"><path codeLine="105" d="M2903.5,702.16 C2865.86,722.17 2799.72,757.33 2759.98,778.47 " fill="none" id="ExperimentStorage-to-ReportingWrapper" style="stroke:#181818;stroke-width:1.0;"/><polygon fill="#181818" points="2755.26,780.97,2765.0849,780.2839,2759.6765,778.626,2761.3345,773.2175,2755.26,780.97" style="stroke:#181818;stroke-width:1.0;"/><text fill="#000000" font-family="sans-serif" font-size="13" lengthAdjust="spacing" textLength="66" x="2842" y="747.0669">configures</text></g><!--MD5=[1636911358d9497fc49369e8a697b7e2]
link EnvWrapperManager to ReportingWrapper--><g id="link_EnvWrapperManager_ReportingWrapper"><path codeLine="106" d="M2727,702.16 C2727,721.35 2727,754.5 2727,775.82 " fill="none" id="EnvWrapperManager-to-ReportingWrapper" style="stroke:#181818;stroke-width:1.0;"/><polygon fill="#181818" points="2727,780.97,2731,771.97,2727,775.97,2723,771.97,2727,780.97" style="stroke:#181818;stroke-width:1.0;"/></g><!--MD5=[99e0e8322e5fec360a2303ade13abc2e]
link IRLControllerFactory to EnvWrapperManager--><g id="link_IRLControllerFactory_EnvWrapperManager"><path codeLine="107" d="M1622.17,430.63 C1641.51,438.21 1666.16,446.68 1689,451 C1791.36,470.37 2538.96,447.26 2625,506 C2682.11,544.99 2711.13,627.17 2721.92,665.07 " fill="none" id="IRLControllerFactory-to-EnvWrapperManager" style="stroke:#181818;stroke-width:1.0;"/><polygon fill="#181818" points="2723.26,669.9,2724.6948,660.1562,2721.9166,665.0838,2716.989,662.3056,2723.26,669.9" style="stroke:#181818;stroke-width:1.0;"/><text fill="#000000" font-family="sans-serif" font-size="13" lengthAdjust="spacing" textLength="107" x="2700" y="569.5669">applies wrappers</text></g><!--MD5=[082bad1932ab3f80e16e25dafd38c2af]
link OnPolicyAdapter to ReportingWrapper--><g id="link_OnPolicyAdapter_ReportingWrapper"><path codeLine="108" d="M1260.21,702.18 C1277.75,710.83 1301.06,720.92 1323,726 C1576.12,784.56 2379.34,794.13 2642.57,795.7 " fill="none" id="OnPolicyAdapter-to-ReportingWrapper" style="stroke:#181818;stroke-width:1.0;"/><polygon fill="#181818" points="2647.93,795.73,2638.953,791.6786,2642.9301,795.7014,2638.9073,799.6785,2647.93,795.73" style="stroke:#181818;stroke-width:1.0;"/><text fill="#000000" font-family="sans-serif" font-size="13" lengthAdjust="spacing" textLength="85" x="1464" y="747.0669">optional wrap</text></g><!--MD5=[e51c0db0c7150fd3accfd42182706876]
@startuml
skinparam classAttributeIconSize 0
hide empty members

package "Experiment Orchestration" {
  class ExperimentManager {
    +run_experiments_from_config(config_path)
    +register_environment_factory(engine, factory)
    +register_controller_factory(controller, factory)
  }
  class Experiment {
    +run(): List[float]
  }
  class ExperimentStatus
}

package "Environment Provision" {
  interface IEnvironmentFactory {
    +set_config_path(path)
    +create_environment(): gym.Env
  }
  class SinergymFactory
  class SinergymEnvironment
}

package "Controller Provision" {
  interface IController {
    +get_action(state)
  }
  interface IControllerFactory {
    +set_env_factory(factory)
    +create_controller_setup(): ControllerSetup
  }
  class ControllerSetup {
    controller: IController
    environment: gym.Env
  }
  interface IRLController
  interface IRLControllerFactory
  class IHPTunableControllerFactory
  class RandomController
  class RandomControllerFactory
  class RuleBasedController
  class RuleBasedControllerFactory
  class SACFactory
  class PPOFactory
  class DDPGFactory
  class DQNFactory
  class TD3Factory
  class RecurrentPPOFactory
  class A2CFactory
  class CustomControllerFactory
  class OnPolicyAdapter
}

package "Reporting & Storage" {
  class ReportingWrapper
  class EnvWrapperManager
  class ExperimentStorage
  class HDF5StorageManager
}

class "gym.Env" as GymEnv <<external>>

ExperimentManager - -> Experiment : creates & runs
ExperimentManager - -> IEnvironmentFactory : uses
ExperimentManager - -> IControllerFactory : uses
Experiment - -> IController : uses
Experiment - -> ReportingWrapper : wraps
Experiment - -> ExperimentStorage : logs to

IEnvironmentFactory <|.. SinergymFactory
SinergymFactory - -> SinergymEnvironment : builds
SinergymEnvironment ..> ReportingWrapper : optional wrap

IController <|- - IRLController
IController <|- - RandomController
IController <|- - RuleBasedController
IController <|- - OnPolicyAdapter
IRLController <|- - SACController
IControllerFactory <|.. RandomControllerFactory
IControllerFactory <|.. RuleBasedControllerFactory
IControllerFactory <|- - IRLControllerFactory
IRLControllerFactory <|.. SACFactory
IRLControllerFactory <|.. PPOFactory
IRLControllerFactory <|.. A2CFactory
IRLControllerFactory <|.. RecurrentPPOFactory
IRLControllerFactory <|.. DDPGFactory
IRLControllerFactory <|.. TD3Factory
IRLControllerFactory <|.. DQNFactory
IControllerFactory <|.. CustomControllerFactory
IHPTunableControllerFactory <|- - SACFactory
IHPTunableControllerFactory <|- - PPOFactory
IHPTunableControllerFactory <|- - A2CFactory
IHPTunableControllerFactory <|- - RecurrentPPOFactory
IHPTunableControllerFactory <|- - DDPGFactory
IHPTunableControllerFactory <|- - TD3Factory
IHPTunableControllerFactory <|- - DQNFactory
IRLControllerFactory <|- - IHPTunableControllerFactory
IControllerFactory - -> ControllerSetup : returns
ControllerSetup - -> IController
ControllerSetup - -> GymEnv

ExperimentManager - -> HDF5StorageManager : manages
HDF5StorageManager - -> ExperimentStorage : provides
ExperimentStorage - -> ReportingWrapper : configures
EnvWrapperManager - -> ReportingWrapper
IRLControllerFactory - -> EnvWrapperManager : applies wrappers
OnPolicyAdapter - -> ReportingWrapper : optional wrap
@enduml

PlantUML version 1.2022.7(Mon Aug 22 17:01:30 UTC 2022)
(GPL source distribution)
Java Runtime: OpenJDK Runtime Environment
JVM: OpenJDK 64-Bit Server VM
Default Encoding: UTF-8
Language: en
Country: null
--></g></svg>